<svg width="151" height="121" viewBox="0 0 151 121" fill="none" xmlns="http://www.w3.org/2000/svg">
<path d="M29.724 100.121H61.4378H93.0362H110.913C111.132 100.121 111.132 99.7721 110.913 99.7721C100.341 99.7721 89.7702 99.7721 79.1989 99.7721C68.6623 99.7721 58.1256 99.7721 47.6005 99.7721C41.6455 99.7721 35.679 99.7721 29.724 99.7721C29.5048 99.7721 29.5048 100.121 29.724 100.121Z" fill="#FCFCFC"/>
<path d="M113.048 92.894C112.955 96.2401 113.29 99.5863 114.052 102.851C114.098 103.072 114.433 102.979 114.386 102.758C113.636 99.5282 113.302 96.2169 113.405 92.894C113.394 92.6732 113.048 92.6732 113.048 92.894Z" fill="#FCFCFC"/>
<path d="M126.792 93.1612C127.116 96.2518 126.919 99.3772 126.215 102.398C126.169 102.619 126.492 102.712 126.55 102.491C127.266 99.4353 127.473 96.2866 127.139 93.1612C127.116 92.9404 126.769 92.9404 126.792 93.1612Z" fill="#FCFCFC"/>
<path d="M114.19 103.176C118.183 104.199 122.407 104.059 126.32 102.758C126.527 102.688 126.435 102.351 126.227 102.421C122.361 103.699 118.218 103.85 114.283 102.839C114.063 102.793 113.971 103.13 114.19 103.176Z" fill="#FCFCFC"/>
<path d="M113.209 93.0566C117.698 94.0209 122.349 93.9977 126.827 92.9985C127.046 92.952 126.954 92.6151 126.735 92.6616C122.314 93.6491 117.721 93.6608 113.301 92.7196C113.082 92.6732 112.99 93.0101 113.209 93.0566Z" fill="#FCFCFC"/>
<path d="M115.944 93.1844C115.344 91.825 115.887 90.1636 116.337 88.8274C116.798 87.4448 117.456 86.1319 118.264 84.9235C118.172 84.9351 118.079 84.9468 117.987 84.9584C118.253 85.2605 118.541 85.4696 118.899 85.6439C119.037 85.702 119.187 85.609 119.153 85.4464C119.014 84.819 118.772 84.2032 119.049 83.5758C119.245 83.1343 119.522 82.6927 119.753 82.2745C119.672 82.2977 119.591 82.3209 119.51 82.3326C119.753 82.4836 119.995 82.623 120.237 82.7741C120.399 82.8786 120.538 82.6811 120.48 82.5301C120.237 81.9956 120.076 81.4612 120.411 80.9267C120.607 80.6014 120.861 80.3109 121.08 80.0088C121.565 79.3582 122.072 78.7075 122.58 78.0685C123.55 76.8485 124.554 75.6634 125.592 74.5016C125.5 74.4899 125.408 74.4783 125.315 74.4667C126.793 76.4186 127.727 78.754 127.981 81.1939C128.108 82.3674 128.074 83.5758 127.866 84.7376C127.762 85.3302 127.612 85.9111 127.427 86.4804C127.393 86.5966 127.347 86.7128 127.312 86.8174C127.185 87.1427 126.977 87.2821 126.643 87.3518C126.412 87.3983 126.285 87.3634 126.089 87.5145C125.996 87.5842 125.973 87.7004 126.054 87.7933C126.308 88.0606 126.412 88.107 126.319 88.4672C126.262 88.6996 126.123 88.9436 126.019 89.176C125.812 89.6407 125.581 90.0938 125.338 90.5354C124.842 91.4416 124.277 92.3014 123.642 93.1147C123.504 93.289 123.746 93.533 123.884 93.3587C125.108 91.7786 126.077 90.0474 126.804 88.1884C126.827 88.1303 126.804 88.0606 126.758 88.0141C126.608 87.8631 126.458 87.7004 126.296 87.5494C126.285 87.6423 126.273 87.7352 126.262 87.8282C126.527 87.6423 126.827 87.7701 127.104 87.6539C127.323 87.5726 127.439 87.4099 127.531 87.2008C127.785 86.6547 127.947 86.0273 128.085 85.4464C128.374 84.1683 128.466 82.8554 128.374 81.5541C128.177 78.9283 127.22 76.3838 125.627 74.2924C125.569 74.2111 125.442 74.1646 125.35 74.2576C124.069 75.6867 122.834 77.1622 121.657 78.6727C121.126 79.3466 120.561 80.0204 120.099 80.7524C119.684 81.4147 119.88 82.0421 120.168 82.716C120.249 82.6346 120.33 82.5533 120.411 82.472C120.168 82.3209 119.926 82.1815 119.684 82.0305C119.603 81.984 119.487 82.0072 119.441 82.0886C119.153 82.623 118.703 83.2156 118.541 83.8081C118.403 84.331 118.691 85.0165 118.806 85.5277C118.887 85.458 118.98 85.3999 119.06 85.3302C118.726 85.1791 118.46 84.9816 118.218 84.7028C118.137 84.6098 117.999 84.6447 117.941 84.7376C117.041 86.0854 116.337 87.561 115.852 89.1179C115.437 90.4656 115.033 91.9993 115.621 93.3471C115.737 93.5562 116.037 93.3819 115.944 93.1844Z" fill="#FCFCFC"/>
<path d="M125.339 77.1389C124.877 82.4022 121.299 86.6198 119.811 91.5693C119.741 91.7901 120.076 91.8714 120.145 91.6623C121.634 86.6779 125.223 82.4487 125.685 77.1389C125.708 76.9065 125.35 76.9182 125.339 77.1389Z" fill="#FCFCFC"/>
<path d="M120.976 79.9391C121.345 81.8562 121.772 83.75 122.257 85.6322C122.315 85.853 122.65 85.76 122.592 85.5393C122.107 83.6571 121.68 81.7516 121.311 79.8461C121.276 79.6254 120.942 79.7183 120.976 79.9391Z" fill="#FCFCFC"/>
<path d="M124.877 81.1707C125.881 80.4387 126.746 79.5673 127.496 78.5565C127.635 78.3822 127.335 78.2079 127.196 78.3822C126.492 79.335 125.661 80.1715 124.704 80.8686C124.53 81.008 124.704 81.3101 124.877 81.1707Z" fill="#FCFCFC"/>
<path d="M123.804 76.198C124.115 77.1972 124.3 78.4171 125.062 79.1723C125.223 79.335 125.466 79.0794 125.304 78.9283C124.6 78.2196 124.415 77.0229 124.127 76.105C124.069 75.8959 123.735 75.9888 123.804 76.198Z" fill="#FCFCFC"/>
<path d="M115.252 93.0914C114.548 92.5337 114.121 91.7552 113.763 90.9419C113.359 89.9892 113.013 89.0132 112.702 88.0256C112.113 86.1318 111.686 84.1798 111.432 82.2163C110.913 78.1033 111.328 73.9438 110.832 69.8191C110.728 69.854 110.613 69.8772 110.509 69.9121C111.801 72.84 114.825 74.5944 117.341 76.3372C117.318 76.2559 117.295 76.1746 117.283 76.0932C116.937 76.5928 116.591 77.0924 116.245 77.592C116.164 77.7082 116.268 77.8593 116.395 77.8593C116.845 77.8593 117.237 77.8012 117.664 77.6501C117.595 77.6269 117.537 77.592 117.468 77.5688C117.895 78.2311 118.322 78.8933 118.749 79.5556C118.76 79.4859 118.772 79.4162 118.772 79.3465C118.564 79.544 118.391 79.7647 118.218 80.0087C118.16 80.0901 118.218 80.2527 118.322 80.2643C119.268 80.4038 119.603 81.31 119.845 82.1233C119.914 82.3325 120.249 82.2511 120.18 82.0304C119.891 81.1125 119.476 80.0784 118.414 79.9274C118.449 80.0087 118.483 80.1017 118.518 80.183C118.668 79.9506 118.818 79.788 119.014 79.6021C119.072 79.5556 119.084 79.451 119.037 79.3929C118.61 78.7307 118.183 78.0684 117.756 77.4061C117.722 77.348 117.641 77.3016 117.56 77.3248C117.168 77.4526 116.787 77.5223 116.383 77.5107C116.429 77.6037 116.487 77.685 116.533 77.7779C116.879 77.2783 117.225 76.7787 117.572 76.2791C117.629 76.1978 117.583 76.0932 117.514 76.0351C115.044 74.3272 112.078 72.6192 110.809 69.7378C110.74 69.5868 110.463 69.6565 110.486 69.8308C110.994 74.1064 110.543 78.4286 111.144 82.6926C111.432 84.7492 111.905 86.7708 112.563 88.7344C113.094 90.3261 113.648 92.2664 114.998 93.347C115.183 93.4748 115.425 93.2308 115.252 93.0914Z" fill="#FCFCFC"/>
<path d="M110.578 70.1677C111.513 72.7703 112.297 75.5123 113.555 77.9871C114.179 79.207 114.86 80.4038 115.448 81.6469C116.083 82.9947 116.648 84.3657 117.225 85.7251C117.306 85.9342 117.606 85.7484 117.525 85.5508C116.983 84.2495 116.429 82.9482 115.84 81.6702C115.263 80.4154 114.594 79.2186 113.948 77.9987C112.655 75.5123 111.859 72.7238 110.901 70.0864C110.832 69.8656 110.497 69.9586 110.578 70.1677Z" fill="#FCFCFC"/>
<path d="M111.017 78.998C112.263 79.149 113.625 79.2187 114.571 80.1598C114.733 80.3225 114.975 80.0669 114.813 79.9158C113.798 78.9166 112.355 78.8237 111.017 78.661C110.797 78.6262 110.797 78.9747 111.017 78.998Z" fill="#FCFCFC"/>
<path d="M114.352 74.2924C114.144 75.0476 114.005 75.8261 113.948 76.6162C113.901 77.29 113.821 78.0801 114.051 78.7308C114.121 78.9399 114.455 78.8469 114.386 78.6378C114.167 78.022 114.248 77.2552 114.294 76.6045C114.352 75.8493 114.49 75.1057 114.686 74.3737C114.744 74.1646 114.409 74.0717 114.352 74.2924Z" fill="#FCFCFC"/>
<path d="M111.801 85.3302C112.701 85.3534 113.567 85.365 114.444 85.609C115.31 85.853 116.164 86.1086 117.029 86.3642C117.248 86.4223 117.341 86.0854 117.121 86.0273C116.198 85.7601 115.286 85.4696 114.352 85.2256C113.509 85.0049 112.667 85.0165 111.801 84.9932C111.582 84.97 111.582 85.3186 111.801 85.3302Z" fill="#FCFCFC"/>
<path d="M124.427 92.766C125.2 92.6615 125.962 92.6615 126.735 92.766C126.7 92.6847 126.666 92.5918 126.631 92.5104C126.562 92.615 125.869 92.6266 125.731 92.6382C125.419 92.6847 125.096 92.7312 124.785 92.8009C124.738 92.8125 124.427 92.8474 124.415 92.8822C124.438 92.8241 124.9 92.8358 124.969 92.8358C125.304 92.8358 125.639 92.8706 125.973 92.8939C125.973 92.7777 125.973 92.6615 125.973 92.5453C125.685 92.5337 125.431 92.5685 125.142 92.6499C124.958 92.6963 124.992 92.9868 125.189 92.9868C125.639 92.9868 126.043 92.8939 126.481 92.7777C126.7 92.7196 126.608 92.3826 126.389 92.4407C125.996 92.5453 125.604 92.6382 125.189 92.6382C125.2 92.7544 125.223 92.8706 125.235 92.9752C125.477 92.9055 125.719 92.8822 125.973 92.8822C126.193 92.8822 126.193 92.5453 125.973 92.5337C125.466 92.5104 124.727 92.3245 124.265 92.615C124.081 92.7312 123.815 93.0333 124.058 93.2192C124.161 93.3005 124.277 93.254 124.404 93.2424C124.75 93.1727 125.085 93.0914 125.431 93.0333C125.835 92.9636 126.643 93.0681 126.92 92.6847C126.977 92.6034 126.92 92.4407 126.816 92.4291C126.008 92.3129 125.223 92.3129 124.415 92.4175C124.208 92.4407 124.208 92.7893 124.427 92.766Z" fill="#FCFCFC"/>
<path d="M113.359 92.9868C113.521 92.9404 113.682 92.9055 113.844 92.8939C113.925 92.8939 113.994 92.8823 114.075 92.8939C114.109 92.8939 114.271 92.8823 114.283 92.8939C114.271 92.8358 114.248 92.7777 114.236 92.7196C114.236 92.7312 114.225 92.7428 114.225 92.7428C114.294 92.708 114.363 92.6615 114.433 92.6266C114.421 92.6266 114.41 92.6266 114.41 92.6266L114.525 92.7428C114.525 92.7312 114.525 92.7196 114.513 92.7196C114.456 92.4988 114.133 92.5918 114.179 92.8125C114.179 92.8242 114.179 92.8358 114.19 92.8358C114.202 92.8939 114.26 92.9404 114.306 92.952H114.329C114.421 92.9752 114.502 92.9287 114.536 92.8358C114.536 92.8242 114.548 92.8125 114.548 92.8125C114.571 92.7545 114.548 92.6847 114.502 92.6383C114.375 92.5105 114.098 92.5337 113.936 92.5337C113.706 92.5337 113.463 92.5802 113.244 92.6383C113.059 92.708 113.152 93.0449 113.359 92.9868Z" fill="#FCFCFC"/>
<path d="M113.624 95.3222C117.837 96.0542 122.211 96.4028 126.365 95.148C126.573 95.0782 126.492 94.7529 126.273 94.811C122.188 96.0426 117.871 95.7057 113.717 94.9853C113.497 94.9504 113.405 95.2874 113.624 95.3222Z" fill="#FCFCFC"/>
<path d="M128.131 100.098H150.335C150.555 100.098 150.555 99.749 150.335 99.749C142.938 99.749 135.529 99.749 128.131 99.749C127.9 99.749 127.9 100.098 128.131 100.098Z" fill="#FCFCFC"/>
<path d="M122.534 107.568H143.457C143.677 107.568 143.677 107.22 143.457 107.22C136.487 107.22 129.505 107.22 122.534 107.22C122.315 107.22 122.315 107.568 122.534 107.568Z" fill="#FCFCFC"/>
<path d="M125.708 107.533C124.877 108.231 124.046 108.916 123.227 109.613C123.053 109.753 123.296 109.997 123.469 109.857C124.3 109.16 125.131 108.475 125.95 107.777C126.123 107.638 125.869 107.382 125.708 107.533Z" fill="#FCFCFC"/>
<path d="M123.33 109.985C123.55 109.985 123.55 109.636 123.33 109.636C123.111 109.636 123.111 109.985 123.33 109.985Z" fill="#FCFCFC"/>
<path d="M126.85 109.636C119.822 109.636 112.794 109.636 105.766 109.636C105.546 109.636 105.546 109.985 105.766 109.985H126.85C127.07 109.985 127.07 109.636 126.85 109.636Z" fill="#FCFCFC"/>
<path d="M105.731 113.238C106.977 112.193 108.258 111.193 109.574 110.229C109.747 110.101 109.585 109.799 109.401 109.927C108.062 110.903 106.758 111.925 105.488 112.983C105.315 113.134 105.558 113.378 105.731 113.238Z" fill="#FCFCFC"/>
<path d="M0.664455 106.894H25.1076H32.032C32.2513 106.894 32.2513 106.546 32.032 106.546C23.8843 106.546 15.7366 106.546 7.58886 106.546C5.28073 106.546 2.97259 106.546 0.664455 106.546C0.445182 106.546 0.445182 106.894 0.664455 106.894Z" fill="#FCFCFC"/>
<path d="M4.92295 109.927C6.01932 108.986 7.12722 108.045 8.22359 107.104C8.3967 106.953 8.1428 106.709 7.98123 106.86C6.88487 107.801 5.77696 108.742 4.6806 109.683C4.50749 109.822 4.76138 110.078 4.92295 109.927Z" fill="#FCFCFC"/>
<path d="M0.953029 110.264H23.6651C23.8844 110.264 23.8844 109.915 23.6651 109.915C16.0944 109.915 8.52371 109.915 0.953029 109.915C0.733756 109.915 0.733756 110.264 0.953029 110.264Z" fill="#FCFCFC"/>
<path d="M21.0224 110.194C20.1568 111.17 19.2682 112.123 18.368 113.076C18.218 113.238 18.4603 113.482 18.6104 113.32C19.5105 112.367 20.3876 111.414 21.2647 110.438C21.4263 110.276 21.1724 110.032 21.0224 110.194Z" fill="#FCFCFC"/>
<path d="M15.1137 113.633H35.079C35.2983 113.633 35.2983 113.285 35.079 113.285C28.4201 113.285 21.7726 113.285 15.1137 113.285C14.8944 113.285 14.8944 113.633 15.1137 113.633Z" fill="#FCFCFC"/>
<path d="M10.3935 101.05H18.8528C19.0721 101.05 19.0721 100.702 18.8528 100.702C16.0369 100.702 13.2209 100.702 10.3935 100.702C10.1742 100.702 10.1742 101.05 10.3935 101.05Z" fill="#FCFCFC"/>
<path d="M20.9876 102.189H23.5958C23.815 102.189 23.815 101.84 23.5958 101.84C22.7302 101.84 21.8531 101.84 20.9876 101.84C20.7567 101.84 20.7567 102.189 20.9876 102.189Z" fill="#FCFCFC"/>
<path d="M14.7212 40.0637V45.7569C14.7212 45.9776 15.0674 45.9776 15.0674 45.7569C15.0674 43.863 15.0674 41.9576 15.0674 40.0637C15.0674 39.843 14.7212 39.843 14.7212 40.0637Z" fill="#FCFCFC"/>
<path d="M8.91592 46.0357H22.834C23.0533 46.0357 23.0533 45.6871 22.834 45.6871C18.1946 45.6871 13.5553 45.6871 8.91592 45.6871C8.69665 45.6871 8.69665 46.0357 8.91592 46.0357Z" fill="#FCFCFC"/>
<path d="M18.6333 46.1985V50.5787C18.6333 50.7995 18.9795 50.7995 18.9795 50.5787C18.9795 49.1148 18.9795 47.6624 18.9795 46.1985C18.9795 45.9661 18.6333 45.9661 18.6333 46.1985Z" fill="#FCFCFC"/>
<path d="M14.7903 51.1828H25.8809C26.1002 51.1828 26.1002 50.8342 25.8809 50.8342C22.1879 50.8342 18.4833 50.8342 14.7903 50.8342C14.5595 50.8342 14.5595 51.1828 14.7903 51.1828Z" fill="#FCFCFC"/>
<path d="M107.923 35.9855V37.3681C107.923 37.5889 108.27 37.5889 108.27 37.3681C108.27 36.9034 108.27 36.4503 108.27 35.9855C108.27 35.7648 107.923 35.7648 107.923 35.9855Z" fill="#FCFCFC"/>
<path d="M108.201 36.2644H132.021C132.24 36.2644 132.24 35.9158 132.021 35.9158C124.081 35.9158 116.141 35.9158 108.201 35.9158C107.981 35.9158 107.981 36.2644 108.201 36.2644Z" fill="#FCFCFC"/>
<path d="M108.408 37.5425H132.009C132.228 37.5425 132.228 37.194 132.009 37.194C124.138 37.194 116.267 37.194 108.408 37.194C108.189 37.194 108.189 37.5425 108.408 37.5425Z" fill="#FCFCFC"/>
<path d="M131.963 35.9855C131.917 36.4619 131.94 36.9382 132.021 37.4146C132.055 37.6354 132.39 37.5424 132.355 37.3217C132.275 36.8802 132.263 36.427 132.309 35.9855C132.332 35.7648 131.986 35.7648 131.963 35.9855Z" fill="#FCFCFC"/>
<path d="M109.828 35.9972C109.828 32.7556 109.828 29.514 109.828 26.2723C109.828 26.0516 109.481 26.0516 109.481 26.2723V35.9972C109.481 36.2296 109.828 36.2296 109.828 35.9972Z" fill="#FCFCFC"/>
<path d="M109.828 26.3305C110.809 25.9355 111.848 25.9936 112.759 26.5397C112.956 26.6558 113.129 26.3538 112.933 26.2376C111.952 25.6566 110.786 25.5637 109.736 25.9936C109.528 26.0749 109.62 26.4119 109.828 26.3305Z" fill="#FCFCFC"/>
<path d="M112.702 26.4583V35.8113C112.702 36.0321 113.048 36.0321 113.048 35.8113C113.048 32.6975 113.048 29.5721 113.048 26.4583C113.048 26.2375 112.702 26.2375 112.702 26.4583Z" fill="#FCFCFC"/>
<path d="M113.094 29.0609C113.798 28.7704 114.536 28.8169 115.194 29.2236C115.39 29.3398 115.563 29.0377 115.367 28.9215C114.64 28.48 113.786 28.3986 113.001 28.724C112.794 28.8053 112.886 29.1422 113.094 29.0609Z" fill="#FCFCFC"/>
<path d="M115.125 29.212V35.7533C115.125 35.974 115.471 35.974 115.471 35.7533C115.471 33.569 115.471 31.3963 115.471 29.212C115.471 28.9912 115.125 28.9912 115.125 29.212Z" fill="#FCFCFC"/>
<path d="M109.874 29.0027C110.855 28.782 111.824 28.8517 112.771 29.1886C112.978 29.2583 113.071 28.9214 112.863 28.8517C111.859 28.4915 110.82 28.445 109.782 28.6658C109.574 28.7123 109.666 29.0492 109.874 29.0027Z" fill="#FCFCFC"/>
<path d="M112.851 33.0345C113.59 32.837 114.329 32.8137 115.079 32.9764C115.298 33.0229 115.39 32.6859 115.171 32.6394C114.363 32.4652 113.567 32.4768 112.759 32.6975C112.551 32.7556 112.632 33.0926 112.851 33.0345Z" fill="#FCFCFC"/>
<path d="M119.487 35.881C119.487 35.2303 119.487 34.5797 119.487 33.929C119.487 33.7083 119.141 33.7083 119.141 33.929V35.881C119.141 36.1017 119.487 36.1017 119.487 35.881Z" fill="#FCFCFC"/>
<path d="M119.314 34.0336H130.555C130.774 34.0336 130.774 33.6851 130.555 33.6851C126.804 33.6851 123.065 33.6851 119.314 33.6851C119.083 33.6851 119.083 34.0336 119.314 34.0336Z" fill="#FCFCFC"/>
<path d="M130.67 34.2196C130.889 34.2196 130.889 33.871 130.67 33.871C130.439 33.871 130.439 34.2196 130.67 34.2196Z" fill="#FCFCFC"/>
<path d="M130.497 34.0453V35.8229C130.497 36.0437 130.843 36.0437 130.843 35.8229C130.843 35.2304 130.843 34.6378 130.843 34.0453C130.843 33.8245 130.497 33.8245 130.497 34.0453Z" fill="#FCFCFC"/>
<path d="M121.668 33.8013C121.668 33.1855 121.668 32.5813 121.668 31.9655C121.668 31.7448 121.322 31.7448 121.322 31.9655V33.8013C121.322 34.022 121.668 34.022 121.668 33.8013Z" fill="#FCFCFC"/>
<path d="M121.495 32.0817H132.551C132.77 32.0817 132.77 31.7332 132.551 31.7332C128.87 31.7332 125.188 31.7332 121.495 31.7332C121.276 31.7332 121.276 32.0817 121.495 32.0817Z" fill="#FCFCFC"/>
<path d="M132.436 31.9074V33.4411C132.436 33.6619 132.782 33.6619 132.782 33.4411C132.782 32.9299 132.782 32.4187 132.782 31.9074C132.782 31.6751 132.436 31.6751 132.436 31.9074Z" fill="#FCFCFC"/>
<path d="M130.428 34.0917H132.436C132.655 34.0917 132.655 33.7431 132.436 33.7431C131.767 33.7431 131.097 33.7431 130.428 33.7431C130.197 33.7431 130.197 34.0917 130.428 34.0917Z" fill="#FCFCFC"/>
<path d="M132.413 33.4527C132.39 33.5805 132.39 33.6967 132.425 33.8129C132.448 33.9058 132.552 33.9639 132.632 33.9291C132.725 33.9058 132.782 33.8013 132.748 33.7199C132.736 33.6618 132.725 33.5921 132.736 33.5457C132.748 33.4527 132.713 33.3481 132.621 33.3365C132.54 33.3133 132.425 33.3598 132.413 33.4527Z" fill="#FCFCFC"/>
<path d="M124.127 31.9887C124.277 32.5813 124.311 33.1855 124.231 33.8012C124.208 34.022 124.554 34.022 124.577 33.8012C124.658 33.1622 124.611 32.5232 124.461 31.8958C124.404 31.6866 124.069 31.7796 124.127 31.9887Z" fill="#FCFCFC"/>
<path d="M126.735 34.0104C126.815 34.5914 126.769 35.1607 126.631 35.7184C126.573 35.9391 126.908 36.0321 126.965 35.8113C127.127 35.1839 127.162 34.5565 127.069 33.9175C127.046 33.6967 126.711 33.7897 126.735 34.0104Z" fill="#FCFCFC"/>
<path d="M124.473 48.1504V50.8924C124.473 51.1132 124.819 51.1132 124.819 50.8924C124.819 49.9746 124.819 49.0683 124.819 48.1504C124.819 47.918 124.473 47.918 124.473 48.1504Z" fill="#FCFCFC"/>
<path d="M121.795 50.9388H128.72C128.939 50.9388 128.939 50.5903 128.72 50.5903C126.412 50.5903 124.103 50.5903 121.795 50.5903C121.576 50.5903 121.576 50.9388 121.795 50.9388Z" fill="#FCFCFC"/>
<path d="M117.86 11.8536V18.1393C117.86 18.3601 118.206 18.3601 118.206 18.1393C118.206 16.0479 118.206 13.9449 118.206 11.8536C118.206 11.6328 117.86 11.6328 117.86 11.8536Z" fill="#FCFCFC"/>
<path d="M118.299 11.842H126.181C126.4 11.842 126.4 11.4934 126.181 11.4934C123.55 11.4934 120.93 11.4934 118.299 11.4934C118.079 11.4934 118.079 11.842 118.299 11.842Z" fill="#FCFCFC"/>
<path d="M126.192 11.7954V17.8488C126.192 18.0695 126.539 18.0695 126.539 17.8488C126.539 15.8271 126.539 13.8055 126.539 11.7954C126.539 11.5747 126.192 11.5747 126.192 11.7954Z" fill="#FCFCFC"/>
<path d="M117.987 18.3368H126.366C126.585 18.3368 126.585 17.9882 126.366 17.9882C123.573 17.9882 120.78 17.9882 117.987 17.9882C117.768 17.9882 117.768 18.3368 117.987 18.3368Z" fill="#FCFCFC"/>
<path d="M118.633 12.5739V17.3376C118.633 17.5583 118.98 17.5583 118.98 17.3376C118.98 15.7458 118.98 14.1657 118.98 12.5739C118.98 12.3532 118.633 12.3532 118.633 12.5739Z" fill="#FCFCFC"/>
<path d="M118.887 12.7134H125.373C125.592 12.7134 125.592 12.3648 125.373 12.3648C123.215 12.3648 121.045 12.3648 118.887 12.3648C118.668 12.3648 118.668 12.7134 118.887 12.7134Z" fill="#FCFCFC"/>
<path d="M125.246 12.5739V16.989C125.246 17.2098 125.592 17.2098 125.592 16.989C125.592 15.5134 125.592 14.0495 125.592 12.5739C125.592 12.3532 125.246 12.3532 125.246 12.5739Z" fill="#FCFCFC"/>
<path d="M118.887 17.5118H125.338C125.558 17.5118 125.558 17.1632 125.338 17.1632C123.192 17.1632 121.045 17.1632 118.887 17.1632C118.668 17.1632 118.668 17.5118 118.887 17.5118Z" fill="#FCFCFC"/>
<path d="M122.973 15.4205C122.061 14.7234 123.423 13.2711 124.057 14.1425C124.646 14.9325 123.688 15.8853 122.869 15.4438C122.672 15.3392 122.499 15.6413 122.696 15.7458C123.226 16.0363 123.93 15.955 124.311 15.4554C124.704 14.9558 124.657 14.1657 124.161 13.7474C123.642 13.3175 122.903 13.608 122.546 14.096C122.165 14.6304 122.28 15.3276 122.799 15.7226C122.984 15.8504 123.146 15.5483 122.973 15.4205Z" fill="#FCFCFC"/>
<path d="M121.876 17.1401C121.83 16.2222 122.95 15.8737 123.654 15.8737C124.519 15.8737 124.796 16.6521 125.154 17.3144C125.258 17.5119 125.558 17.3376 125.454 17.1401C125.212 16.6986 124.981 16.1177 124.577 15.7923C124.208 15.5019 123.746 15.5135 123.307 15.56C122.5 15.6529 121.472 16.1525 121.53 17.1401C121.542 17.3609 121.888 17.3609 121.876 17.1401Z" fill="#FCFCFC"/>
<path d="M119.037 16.3035C119.291 15.8272 120.226 16.0131 120.572 16.199C120.93 16.3965 121.138 16.7218 121.23 17.1168C121.276 17.3376 121.611 17.2446 121.565 17.0239C121.426 16.4197 121.011 15.9434 120.411 15.7458C119.903 15.5832 119.037 15.5716 118.749 16.1176C118.633 16.3268 118.933 16.5011 119.037 16.3035Z" fill="#FCFCFC"/>
<path d="M119.706 15.4438C119.325 15.4322 119.418 14.8629 119.579 14.6654C119.787 14.4097 120.203 14.3749 120.445 14.6189C120.641 14.8048 120.699 15.1533 120.537 15.3741C120.422 15.5368 120.249 15.5716 120.064 15.5716C119.995 15.5716 119.706 15.5832 119.66 15.5251C119.533 15.3392 119.233 15.5135 119.36 15.6994C119.499 15.9086 119.787 15.9202 120.018 15.9202C120.295 15.9318 120.56 15.8621 120.757 15.6529C121.126 15.2463 120.999 14.5608 120.56 14.2587C120.087 13.945 119.429 14.1193 119.187 14.6305C118.979 15.0836 119.129 15.7691 119.706 15.7807C119.937 15.804 119.937 15.4554 119.706 15.4438Z" fill="#FCFCFC"/>
<path d="M49.0776 42.7361C49.62 43.1776 50.2893 42.9917 50.7971 42.5618C51.5127 41.9693 51.8704 40.9584 52.0089 40.0638C52.3667 37.7865 51.455 35.6255 51.0972 33.4179C50.4509 29.3165 52.2282 24.9246 55.5288 22.4615C57.133 21.2531 59.7758 19.9635 59.1526 17.4887C59.0949 17.2679 58.7602 17.3609 58.8179 17.5816C59.4065 19.9402 56.6829 21.137 55.1941 22.2756C53.8554 23.3096 52.7706 24.6458 51.9974 26.1446C51.2357 27.5969 50.774 29.2119 50.6471 30.8502C50.4971 32.837 51.0164 34.6843 51.4434 36.6014C51.6973 37.7633 51.8589 38.9833 51.6396 40.1684C51.5357 40.7144 51.3511 41.2489 51.0626 41.7253C50.7394 42.2365 49.9662 43.0266 49.3199 42.5037C49.1584 42.3527 48.9045 42.5967 49.0776 42.7361Z" fill="#FCFCFC"/>
<path d="M59.0256 17.3492C57.7215 17.4073 56.5789 16.3848 56.6482 15.0371C56.7174 13.6312 58.3677 12.3299 59.7642 12.7017C61.0106 13.0386 61.9684 14.4213 61.6568 15.7109C61.3452 17.0006 59.9026 17.2795 58.7947 17.4654C58.5755 17.5002 58.6678 17.8372 58.8871 17.8023C60.3181 17.5699 61.98 17.0587 62.0723 15.3159C62.1415 13.8984 60.8836 12.3648 59.441 12.3067C57.9177 12.237 56.3827 13.4918 56.302 15.0487C56.2327 16.5823 57.5368 17.7674 59.0256 17.7094C59.2448 17.6861 59.2448 17.3376 59.0256 17.3492Z" fill="#FCFCFC"/>
<path d="M63.942 11.2958C65.1538 8.06584 68.6391 6.41598 71.882 6.19523C74.0286 6.04418 76.1751 6.38113 78.2755 6.78778C80.2605 7.18282 82.3263 7.81023 84.3575 7.74051C86.0309 7.68242 87.7504 6.9853 88.5352 5.41678C88.6391 5.21926 88.339 5.04498 88.2351 5.2425C87.3234 7.05501 85.223 7.51976 83.365 7.36872C81.1953 7.19444 79.0603 6.54379 76.9253 6.18361C73.4631 5.60268 69.7701 5.52134 66.6887 7.4849C65.2923 8.37954 64.1844 9.63436 63.5958 11.2029C63.5265 11.412 63.8612 11.505 63.942 11.2958Z" fill="#FCFCFC"/>
<path d="M89.9319 5.21932H99.0836C99.3029 5.21932 99.3029 4.87076 99.0836 4.87076C96.0369 4.87076 92.9786 4.87076 89.9319 4.87076C89.7011 4.87076 89.7011 5.21932 89.9319 5.21932Z" fill="#FCFCFC"/>
<path d="M89.8043 4.84748C89.2619 4.31302 89.8505 3.40676 90.2775 3.00011C90.7968 2.48889 91.5123 2.29137 92.2048 2.57022C92.2625 2.59346 92.3779 2.5586 92.401 2.48889C92.8164 1.51292 93.7974 0.804178 94.8707 0.850653C95.9901 0.897127 96.9364 1.74529 97.2134 2.81421C97.2365 2.91878 97.375 2.97687 97.4673 2.91878C97.9751 2.60507 98.4944 2.97687 98.7022 3.45324C98.8868 3.89475 98.8406 4.39435 98.7945 4.87072C98.7714 5.09147 99.1176 5.09147 99.1407 4.87072C99.2099 4.1736 99.2561 3.34867 98.7022 2.81421C98.3098 2.44241 97.7674 2.32623 97.3057 2.61669C97.3865 2.65155 97.4789 2.68641 97.5596 2.72126C97.248 1.55939 96.2555 0.629898 95.0438 0.513711C93.7974 0.385906 92.5971 1.16436 92.1124 2.31461C92.1817 2.29137 92.2394 2.25651 92.3086 2.23328C91.3854 1.86148 90.416 2.25651 89.8158 3.02335C89.3658 3.59266 88.9734 4.51054 89.585 5.10309C89.7235 5.25414 89.9659 5.01014 89.8043 4.84748Z" fill="#FCFCFC"/>
<path d="M96.371 6.55543C97.7905 6.39277 98.6214 7.89158 98.8407 9.09992C99.0715 10.3431 98.8522 11.5863 98.7253 12.8295C98.5291 14.7001 98.6561 16.9542 100.422 18.0463C100.606 18.1625 100.791 17.8604 100.595 17.7442C98.1829 16.257 99.1869 12.9457 99.2793 10.6684C99.3485 8.93726 98.6676 5.95126 96.371 6.20687C96.1517 6.23011 96.1517 6.57867 96.371 6.55543Z" fill="#FCFCFC"/>
<path d="M102.338 16.0828C101.299 18.7202 100.272 21.3576 99.2332 23.9835C99.1524 24.1926 99.4871 24.2856 99.5679 24.0764C100.607 21.439 101.634 18.8015 102.672 16.1757C102.753 15.9666 102.418 15.8852 102.338 16.0828Z" fill="#FCFCFC"/>
<path d="M102.499 16.3035C104.3 16.2105 106.089 16.257 107.877 16.4661C107.82 16.3964 107.762 16.3151 107.716 16.2454C106.862 18.999 106.169 21.7875 105.615 24.6108C105.569 24.8316 105.904 24.9245 105.95 24.7038C106.504 21.8805 107.208 19.092 108.051 16.3383C108.085 16.2221 107.993 16.1292 107.889 16.1176C106.1 15.9084 104.311 15.862 102.511 15.9549C102.28 15.9665 102.28 16.3151 102.499 16.3035Z" fill="#FCFCFC"/>
<path d="M99.3139 24.3204C100.376 24.3668 101.426 24.4249 102.488 24.4946C103.515 24.5527 104.611 24.5295 105.58 24.9245C105.788 25.0059 105.881 24.6689 105.673 24.5876C104.75 24.2042 103.699 24.2274 102.718 24.1693C101.587 24.0996 100.456 24.0415 99.3139 23.9834C99.0946 23.9602 99.0946 24.3087 99.3139 24.3204Z" fill="#FCFCFC"/>
<path d="M102.661 17.4654C103.769 17.4886 104.877 17.5699 105.973 17.721C106.192 17.7558 106.285 17.4189 106.065 17.384C104.934 17.2214 103.803 17.1284 102.661 17.1052C102.43 17.1052 102.43 17.4538 102.661 17.4654Z" fill="#FCFCFC"/>
<path d="M102.326 18.2554C102.949 18.2322 103.572 18.2438 104.196 18.3019C104.415 18.3252 104.415 17.9766 104.196 17.9534C103.572 17.8953 102.949 17.872 102.326 17.9069C102.107 17.9185 102.107 18.2671 102.326 18.2554Z" fill="#FCFCFC"/>
<path d="M101.565 19.824C102.892 19.7427 104.15 19.6265 105.454 19.9518C105.673 20.0099 105.766 19.673 105.546 19.6149C104.208 19.2895 102.927 19.3941 101.565 19.4754C101.334 19.4871 101.334 19.8356 101.565 19.824Z" fill="#FCFCFC"/>
<path d="M101.622 20.8465C102.384 20.7884 103.145 20.7884 103.907 20.8581C104.126 20.8813 104.126 20.5328 103.907 20.5095C103.145 20.4398 102.384 20.4398 101.622 20.4979C101.403 20.5211 101.391 20.8697 101.622 20.8465Z" fill="#FCFCFC"/>
<path d="M101.022 22.1942C102.061 22.1245 103.077 22.1593 104.104 22.2987C104.323 22.3336 104.323 21.985 104.104 21.9502C103.077 21.8108 102.049 21.7759 101.022 21.8456C100.803 21.8572 100.803 22.2058 101.022 22.1942Z" fill="#FCFCFC"/>
<path d="M43.5961 6.60194C44.0577 7.22935 44.7271 7.48496 45.408 7.79866C46.2158 8.17046 46.9544 8.67006 47.5546 9.33233C48.9164 10.8079 49.3664 12.7947 49.4011 14.7583C49.4818 18.4414 48.247 22.2988 49.9088 25.7844C50.0012 25.9819 50.3012 25.8076 50.2089 25.6101C48.4663 21.9386 50.0127 17.8256 49.7127 13.9682C49.5857 12.2951 49.1125 10.6569 48.0393 9.35557C47.5315 8.73978 46.9083 8.20532 46.2158 7.81028C45.4426 7.36877 44.4386 7.17125 43.8962 6.42766C43.7692 6.25338 43.4692 6.42766 43.5961 6.60194Z" fill="#FCFCFC"/>
<path d="M33.1746 11.9581C32.286 12.388 31.455 12.9806 30.7972 13.7242C30.1279 14.491 29.9201 15.3159 29.8163 16.3151C29.5854 18.604 28.743 21.1137 26.4579 22.078C26.2502 22.1593 26.3425 22.4963 26.5502 22.4149C28.3737 21.6481 29.4354 19.9053 29.8855 18.0231C30.1509 16.8961 30.024 15.5599 30.6126 14.5491C31.2127 13.515 32.2975 12.7598 33.3477 12.2486C33.5554 12.1673 33.3823 11.8652 33.1746 11.9581Z" fill="#FCFCFC"/>
<path d="M21.5762 28.2475C20.8146 28.2708 19.949 27.9455 19.672 27.1554C19.3489 26.2259 20.0413 25.3196 20.7799 24.8433C22.211 23.9138 24.1383 23.5536 25.8001 23.5304C26.6426 23.5187 27.6005 23.5304 28.3391 23.9835C29.2854 24.5644 29.447 25.6566 28.7084 26.4815C27.5889 27.7363 25.6616 27.8641 24.1152 27.9803C23.8959 27.9919 23.8959 28.3405 24.1152 28.3289C25.6616 28.2127 27.3927 28.0733 28.6391 27.0276C29.7817 26.0749 29.8625 24.4947 28.5237 23.6698C27.1389 22.8216 25.0269 23.1005 23.5266 23.4258C22.084 23.7395 20.1106 24.3088 19.4643 25.8076C18.7949 27.3413 20.076 28.6193 21.5993 28.5729C21.8071 28.5845 21.8071 28.2359 21.5762 28.2475Z" fill="#FCFCFC"/>
<path d="M21.5184 28.387C21.2299 28.8517 20.9529 29.3165 20.6644 29.7696C20.5721 29.9206 20.7567 30.0833 20.9068 30.0136C21.6108 29.6302 22.3724 29.3862 23.088 29.0492C23.4804 28.875 23.8612 28.6658 24.2305 28.4335C24.3574 28.3521 24.5075 28.3056 24.5421 28.143C24.5652 28.0617 24.519 27.9455 24.4267 27.9338C24.4151 27.9338 24.4036 27.9338 24.3921 27.9222C24.3113 27.9106 24.1959 27.9455 24.1843 28.0384V28.0617C24.1382 28.2824 24.4728 28.3754 24.519 28.1546C24.519 28.143 24.519 28.143 24.519 28.1314C24.4498 28.1662 24.3805 28.2127 24.3113 28.2476C24.3228 28.2476 24.3344 28.2476 24.3459 28.2592C24.3113 28.1895 24.2651 28.1197 24.2305 28.05C24.1959 28.1662 23.5496 28.4335 23.4111 28.5148C23.0649 28.7007 22.7071 28.8517 22.3378 29.0028C21.7954 29.2235 21.2645 29.4327 20.7567 29.7115L20.9991 29.9555C21.2876 29.4908 21.5646 29.026 21.8531 28.5729C21.9339 28.3754 21.6338 28.2011 21.5184 28.387Z" fill="#FCFCFC"/>
<path d="M21.8995 26.3769C21.8879 26.3537 21.8879 26.3072 21.9225 26.3072C22.0149 26.3072 21.911 26.4234 21.8995 26.435C21.8418 26.4699 21.6456 26.5164 21.6571 26.4002C21.6686 26.2608 21.9341 26.1097 21.9802 26.3188C21.9918 26.3769 21.9456 26.4467 21.8879 26.4583C21.8533 26.4699 21.8302 26.4699 21.8071 26.4467C21.7956 26.435 21.7725 26.4234 21.7956 26.4234C22.0149 26.435 22.0149 26.0865 21.7956 26.0749C21.5648 26.0516 21.3917 26.2956 21.4494 26.5164C21.5071 26.7371 21.761 26.8533 21.9687 26.7952C22.1764 26.7371 22.338 26.5512 22.338 26.3305C22.338 26.1097 22.1649 25.9238 21.9687 25.8773C21.5417 25.7728 21.0916 26.4002 21.4609 26.7139C21.761 26.9695 22.3611 26.7371 22.3265 26.3072C22.3034 26.0749 22.0495 25.889 21.8187 25.9703C21.5879 26.0516 21.4955 26.3421 21.6109 26.5512C21.7033 26.7487 22.0033 26.5745 21.8995 26.3769Z" fill="#FCFCFC"/>
<path d="M24.4499 26.0632C24.4384 25.9935 24.4038 25.9005 24.473 25.8424C24.5076 25.8076 24.5653 25.8076 24.6115 25.8076C24.7269 25.8308 24.7038 25.9586 24.6231 26.0167C24.5769 26.0516 24.5307 26.0516 24.4961 26.0051C24.4615 25.9586 24.473 25.947 24.5076 25.9238C24.5307 25.9121 24.4615 25.9238 24.5192 25.9121C24.6577 25.8889 24.4269 26.0516 24.4615 25.9354C24.3922 26.1561 24.7269 26.2375 24.7962 26.0283C24.8539 25.8192 24.6577 25.6101 24.4499 25.6449C24.2076 25.6914 24.1499 25.9819 24.2999 26.1561C24.4384 26.3188 24.6923 26.2839 24.7962 26.098C24.9 25.9121 24.8308 25.6682 24.6231 25.5984C24.4153 25.5287 24.1845 25.6565 24.1383 25.8657C24.0806 26.098 24.2422 26.3304 24.473 26.3885C24.8885 26.4815 25.2347 25.9121 24.9347 25.5984C24.7846 25.4474 24.5423 25.4358 24.3576 25.5171C24.1037 25.6449 24.0922 25.9121 24.1383 26.1561C24.1499 26.3769 24.4846 26.2839 24.4499 26.0632Z" fill="#FCFCFC"/>
<path d="M27.0119 25.2847C27.058 25.2847 27.1042 25.2963 27.1619 25.2963V25.2847C27.1734 25.2731 27.1734 25.2498 27.185 25.2382C27.1965 25.215 27.2311 25.1917 27.2542 25.1801C27.3119 25.1569 27.3696 25.1569 27.4043 25.215C27.4504 25.3079 27.3696 25.4822 27.2542 25.4125C27.185 25.366 27.1734 25.2498 27.2773 25.2731C27.3004 25.2731 27.3119 25.2847 27.3235 25.2963C27.3235 25.2731 27.3235 25.3079 27.3119 25.3079C27.2773 25.3312 27.2658 25.3544 27.2311 25.3312C27.1504 25.2731 27.035 25.3195 26.9888 25.3893C26.9426 25.4822 26.9773 25.5752 27.0465 25.6332C27.3812 25.8772 27.8313 25.3893 27.5658 25.0639C27.3235 24.7735 26.8041 24.9594 26.8272 25.3428C26.8388 25.5403 26.9888 25.7146 27.1734 25.7611C27.3581 25.8075 27.5543 25.7146 27.6582 25.5519C27.889 25.1917 27.5658 24.6921 27.1388 24.8316C26.9426 24.9013 26.7695 25.0988 26.7926 25.3195C26.8157 25.5635 27.1619 25.6913 27.2889 25.4473C27.4043 25.2614 27.1157 25.0872 27.0119 25.2847Z" fill="#FCFCFC"/>
<path d="M33.9826 15.1533C35.4021 14.3632 36.6369 13.3175 37.664 12.0511C37.8025 11.8768 37.5602 11.6328 37.4217 11.8071C36.4176 13.0503 35.2059 14.0728 33.8094 14.8512C33.6133 14.9558 33.7864 15.2579 33.9826 15.1533Z" fill="#FCFCFC"/>
<path d="M51.2475 15.4554C50.9936 16.9193 50.8897 18.3949 50.9589 19.8821C50.9705 20.1029 51.3167 20.1029 51.3052 19.8821C51.2359 18.4298 51.3282 16.9774 51.5821 15.5483C51.6168 15.3276 51.2821 15.2346 51.2475 15.4554Z" fill="#FCFCFC"/>
<path d="M49.4819 49.4167C49.4819 47.6391 50.3129 45.9543 51.7324 44.8854C51.9055 44.7576 51.7324 44.4555 51.5593 44.5833C50.0359 45.722 49.1473 47.4996 49.1473 49.4167C49.1357 49.6375 49.4819 49.6375 49.4819 49.4167Z" fill="#FCFCFC"/>
<path d="M68.812 96.3331C68.9966 98.0062 69.2851 99.8419 69.7468 101.829C70.37 104.513 71.1663 106.86 71.9626 108.835C71.7433 109.032 71.0855 109.555 70.1161 109.625C69.5044 109.671 69.0197 109.52 68.7427 109.416C68.3273 107.963 67.9233 106.453 67.554 104.884C66.7924 101.654 66.2384 98.5755 65.8345 95.7057C66.8385 95.9148 67.831 96.124 68.812 96.3331Z" fill="#0E151A"/>
<path d="M94.7208 95.2409C94.5707 96.9024 94.3168 98.7498 93.8898 100.737C93.2897 103.548 92.4934 105.988 91.6855 108.045C91.801 108.149 92.4588 108.777 93.4744 108.73C94.3514 108.695 94.9169 108.173 95.0554 108.045C95.3209 106.639 95.5748 105.221 95.8287 103.804C96.3826 100.702 96.8789 97.646 97.352 94.6251C96.4749 94.8226 95.5978 95.0318 94.7208 95.2409Z" fill="#0E151A"/>
<path d="M74.0861 90.605C74.3515 92.3827 74.6631 94.2184 75.0209 96.1007C75.5402 98.831 76.1288 101.434 76.752 103.897C76.4865 104.059 75.9557 104.327 75.2286 104.373C74.6169 104.408 74.1322 104.269 73.8553 104.164C73.509 102.514 73.1744 100.841 72.8397 99.168C72.228 96.0658 71.6625 93.0101 71.1201 89.9892C72.1126 90.1867 73.0936 90.3959 74.0861 90.605Z" fill="#0E151A"/>
<path d="M90.3704 90.2565C90.0588 92.0109 89.7818 93.8466 89.5394 95.7521C89.2047 98.3779 88.9739 100.888 88.8354 103.281C89.0316 103.409 89.4933 103.676 90.1511 103.711C90.8551 103.734 91.3744 103.455 91.5706 103.339C91.4552 101.968 91.409 100.446 91.4783 98.8195C91.6168 95.206 92.2746 92.0922 93.0016 89.6407C92.1245 89.8382 91.2475 90.0473 90.3704 90.2565Z" fill="#0E151A"/>
<path d="M110.878 51.3804C112.898 55.0054 111.34 59.0138 107.554 68.9711C105.731 73.758 102.396 82.5533 97.6871 95.0899C93.0593 96.7862 85.3963 98.8776 75.9214 98.2153C70.4165 97.8319 65.8002 96.6352 62.3034 95.4036C61.7841 94.4625 59.9837 90.942 61.334 87.5261C62.0841 85.6323 63.596 84.2729 66.8043 82.6695C69.9664 81.0894 75.5406 78.8702 83.6421 78.4635C80.4684 62.5576 85.9041 49.5214 94.3634 46.5121C99.9145 44.5486 108.097 46.396 110.878 51.3804Z" fill="#FCFCFC" stroke="#0E151A" stroke-width="0.651448" stroke-miterlimit="10"/>
<path d="M110.14 52.6932C106.793 56.9573 106.031 62.6853 104.75 67.8092C103.377 73.2932 101.796 78.7656 99.4297 83.9127C98.1256 86.736 96.5907 89.4548 94.7558 91.9644C94.6288 92.1503 94.9289 92.3246 95.0558 92.1387C98.2757 87.7236 100.549 82.7159 102.303 77.5572C104.081 72.3056 105.258 66.8913 106.643 61.5351C107.427 58.491 108.431 55.4469 110.393 52.9489C110.52 52.763 110.278 52.519 110.14 52.6932Z" fill="#0E151A"/>
<path d="M62.3725 92.8823C70.0701 95.7289 78.4602 96.5654 86.5617 95.299C88.8814 94.9388 91.178 94.4043 93.4284 93.7072C93.6362 93.6375 93.5554 93.3006 93.3361 93.3703C85.4884 95.8102 77.0637 96.182 69.0314 94.4624C66.8041 93.9861 64.5998 93.3354 62.4648 92.5453C62.2571 92.464 62.1647 92.8009 62.3725 92.8823Z" fill="#0E151A"/>
<path d="M89.4696 83.75C91.4085 84.3891 93.0588 85.6787 94.1667 87.4215C94.2821 87.6074 94.5821 87.4332 94.4667 87.2473C93.3127 85.4347 91.5931 84.087 89.5619 83.4131C89.3427 83.3434 89.2503 83.6803 89.4696 83.75Z" fill="#0E151A"/>
<path d="M54.7555 98.7962C55.6788 100.19 56.602 101.596 57.5137 102.991C51.6049 108.335 50.8432 109.857 51.2818 110.229C52.1589 110.961 58.4485 107.708 59.0948 107.371C61.4376 106.162 63.2033 104.989 64.3804 104.152C63.965 103.014 63.411 101.736 62.6493 100.388C61.6453 98.6103 60.5374 97.1115 59.4872 95.8915C57.9061 96.8443 56.325 97.8202 54.7555 98.7962Z" fill="#0E151A"/>
<path d="M89.2854 71.4109C89.7008 72.3172 90.1394 73.6069 90.2086 75.1638C90.3125 77.5108 89.5508 79.3814 88.9738 80.4619C88.6622 80.8686 88.1082 81.5424 87.2888 82.2744C87.2888 82.2744 85.4308 83.9243 82.4764 85.1907C79.4642 86.492 70.7049 88.0605 58.8064 88.3626C59.1526 89.8498 59.7758 91.6739 60.8838 93.6375C61.4954 94.718 62.1648 95.6708 62.8226 96.4957C62.384 97.0766 61.1376 98.5522 58.6564 99.4817C56.2675 100.376 54.0747 100.272 53.2092 100.202C51.9628 99.0518 50.6818 97.6808 49.4931 96.0426C45.9963 91.1976 45.1769 86.5152 45.0269 83.506C45.8924 82.8786 47.1619 82.0188 48.8237 81.1009C52.2859 79.1839 55.4596 78.1382 58.0678 77.3597C62.5571 76.0352 66.8503 75.1173 76.7291 73.4326C79.822 72.9098 84.1036 72.1894 89.2854 71.4109Z" fill="#FCFCFC"/>
<path fill-rule="evenodd" clip-rule="evenodd" d="M89.3787 71.237L89.4281 71.3447C89.8495 72.2639 90.2952 73.574 90.3656 75.1567C90.4712 77.5419 89.6972 79.4414 89.1122 80.5368L89.1061 80.5483L89.0982 80.5585C88.7826 80.9704 88.222 81.6523 87.3932 82.3927L87.2932 82.2793C87.3928 82.3931 87.3928 82.3931 87.3927 82.3931L87.3911 82.3946L87.3866 82.3985L87.3697 82.4132C87.3548 82.4261 87.3329 82.4449 87.304 82.4692C87.2463 82.5177 87.161 82.5881 87.0495 82.6763C86.8266 82.8528 86.4991 83.1008 86.0789 83.3885C85.2387 83.9636 84.0266 84.6981 82.538 85.3362C81.0118 85.9955 78.0518 86.7151 73.9964 87.3079C69.9802 87.895 64.8777 88.3594 59.0046 88.5157C59.3559 89.9542 59.9673 91.6929 61.0204 93.5594C61.6273 94.6315 62.2917 95.5773 62.9452 96.3967L63.022 96.493L62.9477 96.5914C62.4979 97.1872 61.2293 98.6867 58.7112 99.6299C56.2907 100.536 54.071 100.43 53.1967 100.36L53.1429 100.355L53.1031 100.319C51.8504 99.1626 50.5621 97.7839 49.3663 96.1359C45.8468 91.2595 45.0211 86.5446 44.87 83.5139L44.8657 83.428L44.9351 83.3777C45.8047 82.7473 47.0796 81.8839 48.7481 80.9624C52.2249 79.0372 55.4111 77.9877 58.0232 77.2081L58.0237 77.208C62.5222 75.8807 66.8228 74.9616 76.7029 73.2767C79.796 72.7538 84.079 72.0332 89.2622 71.2545L89.3787 71.237ZM89.1915 71.585C84.0639 72.3565 79.8248 73.0697 76.7554 73.5886C66.878 75.273 62.5923 76.1897 58.1123 77.5114C55.5081 78.2887 52.347 79.3306 48.8995 81.2395C47.2884 82.1294 46.0477 82.9643 45.1883 83.5841C45.3485 86.5747 46.1792 91.1819 49.6201 95.9494C50.789 97.5604 52.0481 98.9119 53.2756 100.049C54.1666 100.117 56.2923 100.198 58.6017 99.3335C58.6017 99.3335 58.6017 99.3335 58.6017 99.3335C60.9165 98.4663 62.1371 97.1184 62.6228 96.4973C62.6486 96.53 62.6744 96.5624 62.7001 96.5947L62.8226 96.4957L62.6976 96.4C62.6749 96.43 62.65 96.4625 62.6228 96.4973C61.9856 95.6895 61.3397 94.7624 60.7473 93.7158C59.6312 91.7377 59.0028 89.899 58.6535 88.3987L58.6095 88.2094L58.8025 88.2045C64.7461 88.0536 69.9043 87.5864 73.9513 86.9949C78.0028 86.4026 80.9284 85.6874 82.4145 85.0454C83.8803 84.417 85.0748 83.6933 85.9022 83.1269C86.3158 82.8438 86.6375 82.6001 86.8553 82.4277C86.9642 82.3415 87.0471 82.2731 87.1026 82.2264C87.1303 82.2031 87.1511 82.1852 87.1649 82.1733L87.1803 82.1599L87.184 82.1567L87.1846 82.1561L87.2889 82.2744C87.185 82.1558 87.185 82.1558 87.185 82.1558L87.1846 82.1561C87.9876 81.4388 88.5325 80.7781 88.8416 80.3756C88.8395 80.3794 88.8375 80.3832 88.8355 80.387L88.9738 80.4619L88.8494 80.3653C88.8468 80.3687 88.8442 80.3721 88.8416 80.3756C89.4099 79.3082 90.1535 77.4713 90.0517 75.1709C89.9863 73.7004 89.5858 72.4713 89.1915 71.585ZM89.1915 71.585C89.2305 71.5791 89.2695 71.5733 89.3086 71.5674L89.2854 71.411L89.1428 71.4772C89.159 71.5126 89.1752 71.5485 89.1915 71.585Z" fill="#0E151A"/>
<path opacity="0.19" d="M78.3213 73.4095C77.9867 75.6286 77.0403 78.5101 74.109 80.2993C71.2584 82.0421 68.8695 81.3334 63.1569 82.7276C59.0484 83.7269 53.6127 85.0514 52.1009 87.9909C50.5198 91.0815 53.5089 95.4385 58.7368 99.017C59.1754 98.959 59.7293 98.8428 60.3179 98.6104C61.8297 98.0062 62.5683 97.0186 62.8453 96.5887C62.1759 95.7754 61.4835 94.8343 60.8488 93.7538C59.6485 91.7321 59.0022 89.8499 58.6329 88.3279C64.7495 88.0722 69.8851 87.5378 73.7859 87.0266C78.4829 86.4108 81.7374 85.795 84.8418 84.0289C87.4385 82.5534 88.4771 81.101 88.8464 80.5433C89.9659 78.8354 90.0582 77.2785 90.1044 76.4071C90.2198 74.2809 89.5273 72.5497 88.9503 71.4575C85.4073 72.1082 81.8643 72.7588 78.3213 73.4095Z" fill="#49708A"/>
<path opacity="0.19" d="M89.0662 71.7015C88.8354 73.8626 88.016 77.2784 84.75 79.974C82.7419 81.6355 80.5838 82.3791 72.1129 84.6796C68.3737 85.6904 63.8498 86.8871 58.7026 88.1884C65.2462 88.1187 70.5665 87.5726 74.3864 87.0498C78.3449 86.5037 80.2837 86.0273 82.2918 85.1559C84.196 84.331 88.039 82.6579 89.6086 79.1374C91.1204 75.7215 89.597 72.6542 89.0662 71.7015Z" fill="#49708A"/>
<path opacity="0.22" d="M58.7372 88.3627C58.6911 89.8963 58.7603 91.6508 59.0488 93.5795C59.3258 95.4849 59.7759 97.1929 60.2606 98.6801C60.653 98.4477 61.1031 98.134 61.5416 97.7506C62.0725 97.2858 62.4649 96.8443 62.7534 96.4609C62.084 95.5779 61.4031 94.5554 60.7684 93.4052C59.7413 91.5462 59.1296 89.8266 58.7372 88.3627Z" fill="#49708A"/>
<path d="M58.206 105.465C59.0947 107.22 59.9718 108.974 60.8604 110.74C55.1824 117.456 54.4438 119.361 54.8708 119.826C55.7133 120.756 61.7606 116.654 62.3838 116.236C64.6342 114.714 66.3422 113.238 67.4732 112.193C67.0693 110.763 66.5384 109.16 65.7998 107.452C64.8419 105.221 63.7686 103.339 62.7646 101.794C61.2412 103.025 59.7179 104.245 58.206 105.465Z" fill="#0E151A"/>
<path d="M91.3972 71.0508C91.8011 72.201 92.2166 73.8044 92.2859 75.7679C92.3897 78.7191 91.6511 81.0661 91.0972 82.4254C90.7971 82.9367 90.2662 83.7848 89.4815 84.7143C89.4815 84.7143 87.7042 86.7941 84.8652 88.3858C81.9685 90.0124 73.5438 91.9992 62.1185 92.371C62.4532 94.2417 63.0418 96.5305 64.115 98.9937C64.7036 100.353 65.3499 101.55 65.9846 102.584C65.5692 103.316 64.3689 105.163 61.98 106.337C59.6834 107.464 57.583 107.336 56.7405 107.231C55.5403 105.791 54.3055 104.059 53.1745 102.003C49.8046 95.9147 49.0198 90.0241 48.8813 86.248C49.7123 85.4695 50.9356 84.3774 52.5282 83.2271C55.8635 80.8221 58.8987 79.4975 61.4145 78.5216C65.7192 76.8601 69.8623 75.7098 79.3603 73.5836C82.2916 72.9214 86.4232 72.0267 91.3972 71.0508Z" fill="#FCFCFC"/>
<path fill-rule="evenodd" clip-rule="evenodd" d="M91.5001 70.8694L91.5453 70.998C91.9533 72.1598 92.3729 73.7792 92.4428 75.7623C92.5477 78.7429 91.8018 81.1129 91.2425 82.4854L91.2382 82.496L91.2324 82.5059C90.9296 83.0217 90.3937 83.8781 89.6011 84.8167L89.6005 84.8175L89.589 84.8075C89.6005 84.8175 89.6005 84.8175 89.6005 84.8175L89.6004 84.8176L89.6 84.818L89.5989 84.8194L89.5947 84.8242L89.5785 84.8428C89.5643 84.8589 89.5434 84.8826 89.5158 84.9131C89.4606 84.9742 89.379 85.0629 89.2724 85.174C89.0591 85.3963 88.7454 85.7087 88.3426 86.0711C87.5373 86.7955 86.3739 87.721 84.9416 88.524L84.8652 88.3858L84.9417 88.5239C84.9417 88.5239 84.9416 88.524 84.9416 88.524C83.4703 89.3502 80.6193 90.2572 76.7194 91.0043C72.8559 91.7445 67.9493 92.3304 62.3059 92.523C62.2947 92.4626 62.2838 92.4026 62.2731 92.343L62.1185 92.371L62.1236 92.5291C62.1844 92.5271 62.2452 92.5251 62.3059 92.523C62.644 94.3499 63.2257 96.5589 64.2589 98.9301L64.259 98.9305C64.8443 100.282 65.4869 101.472 66.1183 102.501L66.1674 102.581L66.121 102.662C65.6978 103.408 64.4777 105.286 62.0489 106.479L62.0488 106.479C59.714 107.625 57.5791 107.495 56.7213 107.388L56.6599 107.381L56.6202 107.333C55.4142 105.885 54.1734 104.146 53.0371 102.08C53.0371 102.08 53.0372 102.08 53.0372 102.08L53.1742 102.003L53.037 102.08C53.037 102.08 53.0371 102.08 53.0371 102.08C49.6513 95.9626 48.8634 90.0452 48.7243 86.2538L48.7217 86.1815L48.7743 86.1322C49.6081 85.3511 50.8367 84.2541 52.4366 83.0986L52.4367 83.0985C55.7872 80.6825 58.8361 79.3523 61.358 78.374L61.3583 78.3739C65.6742 76.708 69.8266 75.5558 79.326 73.4292C79.3259 73.4293 79.3259 73.4293 79.3259 73.4293L79.3603 73.5836L79.3262 73.4292C79.3261 73.4292 79.326 73.4292 79.326 73.4292C82.2586 72.7667 86.3915 71.8718 91.3671 70.8955L91.5001 70.8694ZM91.2937 71.2322C86.3809 72.1976 82.2985 73.0819 79.3947 73.7379L79.3944 73.738C69.8979 75.8639 65.7641 77.0121 61.4707 78.6692C58.961 79.6428 55.9396 80.9617 52.6198 83.3556C51.0677 84.4766 49.8678 85.5423 49.041 86.3145C49.1863 90.0777 49.9792 95.9053 53.3117 101.926L53.3119 101.926C54.425 103.95 55.6391 105.657 56.821 107.082C57.6855 107.182 59.7066 107.276 61.9111 106.195C64.1764 105.082 65.3548 103.352 65.8016 102.586C65.1794 101.565 64.5478 100.389 63.9712 99.0572C62.892 96.5805 62.3003 94.2793 61.9639 92.3991L61.9316 92.2189L62.1134 92.2129C67.8186 92.0273 72.7729 91.4384 76.6607 90.6936C80.5535 89.9478 83.3632 89.0481 84.7886 88.2477L84.7887 88.2476C86.1955 87.4589 87.3401 86.5486 88.1333 85.8352C88.5296 85.4786 88.8377 85.1717 89.0464 84.9542C89.1507 84.8455 89.2301 84.7593 89.2833 84.7004C89.3098 84.671 89.3298 84.6484 89.3431 84.6333L89.3578 84.6164L89.3614 84.6123L89.3617 84.6119C90.1337 83.6975 90.6577 82.8624 90.9561 82.3548C91.5042 81.007 92.2314 78.6876 92.1288 75.7735C92.0628 73.9017 91.679 72.3606 91.2937 71.2322Z" fill="#0E151A"/>
<path opacity="0.19" d="M80.8608 73.5605C80.5376 76.349 79.6259 79.9624 76.81 82.2164C74.0749 84.4123 71.7667 83.5177 66.2849 85.2721C62.338 86.5269 57.1101 88.2 55.6559 91.8948C54.1326 95.7754 57.0062 101.259 62.0264 105.744C62.4534 105.675 62.9843 105.523 63.5498 105.233C65.0039 104.478 65.7079 103.235 65.9733 102.689C65.327 101.666 64.6577 100.481 64.046 99.1216C62.8919 96.5771 62.2688 94.2185 61.9225 92.3014C67.8083 91.9761 72.7361 91.3138 76.4984 90.6748C81.0224 89.908 84.1383 89.1295 87.1274 86.9103C89.6202 85.0514 90.6242 83.2272 90.9704 82.5301C92.0437 80.3806 92.136 78.4287 92.1822 77.3365C92.2861 74.6642 91.6282 72.4915 91.0743 71.1205C87.6698 71.9222 84.2653 72.7355 80.8608 73.5605Z" fill="#49708A"/>
<path opacity="0.19" d="M91.1778 71.4109C90.9585 74.1181 90.1737 78.417 87.0347 81.8097C85.0958 83.901 83.03 84.8305 74.8939 87.7236C71.2932 89.0016 66.9539 90.5005 62.0029 92.1387C68.2926 92.0457 73.4167 91.3719 77.0866 90.7096C80.895 90.0241 82.7646 89.4315 84.6804 88.3394C86.5153 87.2937 90.1968 85.2023 91.7202 80.764C93.1628 76.4651 91.6971 72.6193 91.1778 71.4109Z" fill="#49708A"/>
<path opacity="0.22" d="M62.0376 92.3595C61.9914 94.2882 62.0607 96.4958 62.3377 98.9124C62.6146 101.318 63.0301 103.455 63.5033 105.314C63.8841 105.012 64.3111 104.629 64.7381 104.141C65.2459 103.56 65.6268 103.002 65.9037 102.526C65.2575 101.41 64.5996 100.132 63.9995 98.6801C63.007 96.3563 62.4069 94.1836 62.0376 92.3595Z" fill="#49708A"/>
<path d="M57.5484 52.9954C57.3291 52.8908 56.8905 52.6933 56.9021 52.4725C56.9252 52.1123 58.1139 51.8684 59.0025 51.88C59.6026 51.88 60.7105 52.0078 62.0031 52.914C60.7913 53.2974 59.0025 53.646 57.5484 52.9954Z" fill="#FCFCFC" stroke="#0E151A" stroke-width="0.651448" stroke-miterlimit="10"/>
<path d="M85.3041 37.9259C83.1114 37.6354 81.138 40.9468 80.9533 41.2488C80.2839 42.3991 80.2032 43.1659 79.7415 45.2689C78.6221 50.3927 78.022 52.9953 76.3601 54.5639C74.8598 55.9697 73.1056 56.3067 72.644 56.3764C70.6706 56.6901 68.8818 55.9465 65.3965 54.4477C62.4536 53.1812 62.0958 52.7165 60.4917 52.5306C59.6723 52.4376 57.2834 52.1704 55.7023 53.7157C54.6867 54.7033 54.2366 56.2834 54.6059 56.6087C55.0791 57.027 57.0179 55.5514 57.041 55.5863C57.0526 55.6095 56.464 55.8884 55.9793 56.4926C55.7369 56.783 55.3215 57.4104 55.4715 57.5731C55.7369 57.8984 57.3642 55.9232 59.153 56.2718C60.3763 56.5042 60.6071 57.6196 62.0266 57.8287C62.8575 57.9565 63.5846 57.7009 64.0462 57.4801C64.8541 58.3632 66.1697 59.618 68.0739 60.6404C69.2049 61.2446 73.198 63.3243 78.0797 62.116C83.2614 60.8379 85.8696 56.7598 86.689 55.4817C87.1506 54.7498 90.5436 49.289 88.9048 43.1659C88.6163 42.1783 87.5661 38.228 85.3041 37.9259Z" fill="#FCFCFC"/>
<path fill-rule="evenodd" clip-rule="evenodd" d="M82.2622 39.2556C83.0564 38.4225 84.1467 37.613 85.3245 37.7691L85.3247 37.7691C85.9349 37.8506 86.4548 38.1773 86.892 38.6219C87.3286 39.066 87.6896 39.6346 87.9844 40.217C88.5271 41.2894 88.8571 42.434 89.0178 42.9913C89.0316 43.0391 89.0441 43.0825 89.0554 43.1213L89.0564 43.1248L89.0564 43.1248C90.7142 49.3191 87.2843 54.8328 86.8215 55.5665L86.8209 55.5675L86.8157 55.5756C85.9888 56.8654 83.3519 60.9784 78.1171 62.2696C73.1754 63.4928 69.1368 61.3873 68.0001 60.7801L67.9998 60.78C66.1351 59.7787 64.8293 58.5573 64.0083 57.6717C63.5304 57.8862 62.8161 58.1101 62.0031 57.9851C61.2479 57.8737 60.8071 57.5175 60.414 57.1792C60.3953 57.1631 60.3768 57.1471 60.3583 57.1312C59.9887 56.8122 59.6611 56.5293 59.1237 56.4272L59.123 56.4271C58.2908 56.2649 57.4819 56.6419 56.8229 57.0486C56.6598 57.1493 56.5079 57.2504 56.3683 57.344C56.3549 57.353 56.3417 57.3619 56.3285 57.3707C56.2052 57.4535 56.0903 57.5306 55.9889 57.593C55.8791 57.6605 55.7719 57.7192 55.6776 57.7478C55.5897 57.7743 55.4496 57.7916 55.353 57.6771C55.2593 57.5719 55.2783 57.4281 55.301 57.3377C55.3274 57.2327 55.3799 57.1165 55.4401 57.0051C55.5216 56.8545 55.6253 56.6977 55.723 56.565C55.5545 56.6488 55.3862 56.7217 55.2299 56.7714C55.0978 56.8133 54.9662 56.8413 54.8457 56.8416C54.7254 56.8419 54.6003 56.8144 54.5022 56.7276C54.354 56.5969 54.315 56.3727 54.3215 56.1537C54.3282 55.9234 54.3862 55.6481 54.4863 55.3586C54.6865 54.7793 55.0651 54.1153 55.5929 53.6021C56.416 52.7976 57.4452 52.4692 58.3627 52.3519C59.2801 52.2346 60.0983 52.3268 60.5091 52.3734L60.5095 52.3735C61.3306 52.4686 61.8368 52.6366 62.5063 52.9397C62.7305 53.0411 62.97 53.1562 63.2447 53.2881C63.7915 53.5507 64.4774 53.8802 65.4581 54.3022C68.9577 55.8072 70.7001 56.5252 72.6194 56.2201L72.6206 56.2199C73.0697 56.1521 74.7867 55.8221 76.253 54.4481C77.0571 53.6889 77.6117 52.6738 78.1052 51.1991C78.5996 49.7218 79.0276 47.7996 79.588 45.2349L79.588 45.2348C79.6617 44.8988 79.7259 44.5962 79.7844 44.32C80.0896 42.879 80.2426 42.157 80.8176 41.1689L80.8193 41.1659L80.8194 41.1659C80.8227 41.1606 80.8265 41.1543 80.8309 41.147C80.9511 40.9496 81.4875 40.0684 82.2622 39.2556ZM81.0878 41.3303C80.5408 42.2709 80.399 42.9391 80.0938 44.377C80.0349 44.6545 79.97 44.9607 79.8948 45.303C79.3357 47.8621 78.904 49.8031 78.403 51.3001C77.9012 52.7996 77.3249 53.8699 76.4674 54.6792L76.467 54.6796C74.9334 56.1168 73.1429 56.4609 72.6678 56.5327C70.6405 56.8547 68.8052 56.0856 65.3346 54.5931L65.3346 54.5931C64.3501 54.1694 63.6472 53.832 63.0965 53.5675C62.825 53.4372 62.5906 53.3246 62.3775 53.2282C61.7315 52.9358 61.2568 52.7785 60.474 52.6877C60.0654 52.6414 59.2795 52.5535 58.4023 52.6657C57.5252 52.7778 56.5695 53.0885 55.8116 53.8292L55.8113 53.8294C55.3235 54.3038 54.9694 54.9235 54.783 55.4625C54.6898 55.7322 54.641 55.9746 54.6355 56.163C54.6297 56.3625 54.673 56.4577 54.7093 56.4897L54.7095 56.4899C54.7296 56.5077 54.7686 56.5255 54.8449 56.5253C54.9211 56.5251 55.0188 56.5067 55.1354 56.4697C55.3681 56.3958 55.6441 56.2582 55.9146 56.1037C56.1835 55.9502 56.4394 55.7843 56.6311 55.6579C56.663 55.6368 56.6934 55.6167 56.7218 55.5979C56.7779 55.5607 56.8265 55.5286 56.8643 55.5042C56.8926 55.486 56.9182 55.4699 56.9381 55.4586C56.9472 55.4535 56.9606 55.4462 56.9748 55.4405C56.9806 55.4382 56.9964 55.4319 57.0167 55.4291C57.0267 55.4277 57.0476 55.4256 57.0731 55.4311C57.1007 55.4371 57.1424 55.4545 57.1716 55.4986L57.177 55.5068L57.1814 55.5156C57.222 55.5973 57.178 55.666 57.1721 55.6752C57.1602 55.6937 57.1469 55.7061 57.1418 55.7108C57.1296 55.7219 57.1162 55.7314 57.1075 55.7375C57.0897 55.7497 57.0649 55.7655 57.0383 55.7824L57.0319 55.7865C56.9712 55.825 56.8867 55.879 56.7873 55.9503C56.5883 56.0933 56.3319 56.3045 56.1014 56.5919L56.0995 56.5943L56.0994 56.5943C55.9836 56.7331 55.8256 56.9539 55.7161 57.1563C55.6609 57.2585 55.6226 57.3478 55.6056 57.4152C55.6032 57.4249 55.6014 57.4333 55.6001 57.4406C55.6521 57.4225 55.7256 57.3842 55.8251 57.323C55.9209 57.2641 56.0303 57.1907 56.1551 57.107C56.1679 57.0983 56.1809 57.0896 56.1941 57.0808C56.334 56.987 56.4901 56.883 56.6587 56.7789C57.3269 56.3665 58.2259 55.9302 59.1824 56.1165C59.1825 56.1165 59.1826 56.1165 59.1827 56.1165L59.1528 56.2718L59.182 56.1164C59.1821 56.1164 59.1823 56.1164 59.1824 56.1165C59.8041 56.2347 60.1899 56.5684 60.5531 56.8825C60.5749 56.9014 60.5965 56.9201 60.6182 56.9387C61.0011 57.2683 61.3852 57.5744 62.0492 57.6722L62.0502 57.6723C62.8368 57.7933 63.5302 57.5517 63.9787 57.3373L64.0832 57.2873L64.1616 57.373C64.962 58.2478 66.2639 59.4894 68.1475 60.5007C68.1474 60.5007 68.1474 60.5007 68.1474 60.5007L68.0738 60.6404L68.1477 60.5009C68.1476 60.5008 68.1475 60.5008 68.1475 60.5007C69.2728 61.1019 73.2204 63.1559 78.042 61.9624L78.0422 61.9624C83.1556 60.7012 85.735 56.6779 86.5549 55.3991L86.5563 55.3969L86.6888 55.4817L86.6889 55.4817L86.6888 55.4817L86.5569 55.396L86.5563 55.3969C87.0167 54.6668 90.3721 49.2598 88.7535 43.2087C88.7536 43.2093 88.7538 43.2099 88.754 43.2105L88.9047 43.1659L88.753 43.2071C88.7532 43.2076 88.7533 43.2082 88.7535 43.2087C88.7422 43.1701 88.7298 43.1271 88.7163 43.0802C88.5552 42.5221 88.2328 41.4048 87.7044 40.3606C87.4178 39.7943 87.0741 39.2569 86.6687 38.8445C86.2637 38.4326 85.8042 38.1523 85.2835 38.0827L85.3039 37.9267L85.2834 38.0827C85.2834 38.0827 85.2835 38.0827 85.2835 38.0827C84.2686 37.9483 83.2758 38.6492 82.4889 39.4747C81.7381 40.2623 81.2162 41.1194 81.0982 41.3134C81.0943 41.3197 81.0908 41.3254 81.0878 41.3303ZM55.5553 57.4515C55.5554 57.4514 55.5564 57.4513 55.5581 57.4515C55.5561 57.4516 55.5553 57.4516 55.5553 57.4515ZM62.0265 57.8287L62.0265 57.8287L62.0265 57.8287Z" fill="#0E151A"/>
<path opacity="0.25" d="M85.0728 37.9608C84.3226 38.3558 85.7767 41.0978 85.5921 45.0249C85.419 48.801 83.8148 51.5895 83.0993 52.8675C82.1299 54.5755 80.8489 56.8063 78.2984 58.2586C74.8708 60.2105 70.6238 59.9201 67.6002 58.5955C66.7 58.2005 65.7883 56.9225 63.8033 56.144C62.9377 55.8071 62.2568 55.6676 61.4605 55.505C59.5102 55.1216 57.7791 54.773 56.1749 55.5863C55.4132 55.9813 54.7785 56.5855 54.8246 56.6668C54.8708 56.7482 55.7594 56.295 56.5442 55.8652C55.5979 57.1316 55.4478 57.4918 55.5171 57.5615C55.5979 57.6312 55.8864 57.364 56.625 56.9457C57.4213 56.5042 57.9983 56.1905 58.7023 56.2486C59.0601 56.2834 59.337 56.3996 59.4986 56.4693C60.1333 56.7482 60.2834 57.0735 60.9181 57.3988C61.3105 57.5963 61.6336 57.6777 61.8067 57.7125C62.176 57.7939 62.9377 57.8984 63.9418 57.5382C64.8189 58.4677 68.8466 62.5808 74.7438 62.4994C77.779 62.4529 80.0064 61.3143 80.8835 60.8612C85.6959 58.3399 87.6117 53.8667 88.0964 52.6352C89.5967 48.8242 90.1276 43.1775 87.3809 39.6338C86.7231 38.7741 85.5921 37.6935 85.0728 37.9608Z" fill="#49708A"/>
<path d="M54.813 56.6088C55.2631 55.9349 55.8516 55.4005 56.5556 55.0171C56.7056 54.9357 56.5672 54.715 56.4287 54.7963C55.6901 55.2029 55.0669 55.7723 54.5937 56.481C54.4898 56.6204 54.7206 56.7482 54.813 56.6088Z" fill="#0E151A"/>
<path d="M54.952 55.11C55.4021 54.4012 56.1291 54.0294 56.8562 53.6693C57.0062 53.5995 56.8793 53.3672 56.7292 53.4485C55.956 53.8203 55.1943 54.2269 54.7212 54.9822C54.6404 55.1216 54.8596 55.2494 54.952 55.11Z" fill="#0E151A"/>
<path opacity="0.29" d="M88.385 42.1434C88.2119 43.3169 87.9003 45.0132 87.3464 47.0117C86.2616 50.962 85.2806 54.5173 82.7186 57.3407C79.5449 60.8263 75.2402 61.779 72.7705 62.0695C74.6055 62.4994 76.0481 62.418 76.9598 62.2902C83.8842 61.3143 87.6234 53.8202 88.6389 50.5437C88.8121 49.9628 89.1814 48.7661 89.2275 47.1278C89.3083 44.9435 88.7774 43.1891 88.385 42.1434Z" fill="#49708A"/>
<path opacity="0.26" d="M59.3833 56.1324C60.0411 56.4577 60.9413 56.8179 62.0492 57.027C62.9263 57.1897 63.7111 57.2245 64.3342 57.2013C62.7532 58.0494 61.9338 57.9449 61.4722 57.666C61.1836 57.4917 60.8605 57.1432 59.9719 56.5274C59.7295 56.3531 59.5218 56.2137 59.3833 56.1324Z" fill="#49708A"/>
<path d="M36.0479 75.2335V91.9761C36.0479 92.65 37.0865 92.65 37.0865 91.9761C37.0865 86.3991 37.0865 80.8105 37.0865 75.2335C37.0865 74.5713 36.0479 74.5597 36.0479 75.2335Z" fill="#121212"/>
<path d="M54.9287 75.0129V77.6968C54.9287 78.3706 55.9674 78.3706 55.9674 77.6968C55.9674 76.8021 55.9674 75.9075 55.9674 75.0129C55.9674 74.339 54.9287 74.339 54.9287 75.0129Z" fill="#121212"/>
<path d="M21.7148 74.548C27.3121 69.2383 32.9093 63.9169 38.5181 58.6072C47.5775 58.7698 56.6254 58.9325 65.6848 59.0952C64.2076 64.2539 62.7304 69.4009 61.2532 74.5596C48.0738 74.548 34.8943 74.548 21.7148 74.548Z" fill="#FCFCFC" stroke="#0E151A" stroke-width="0.651448" stroke-miterlimit="10"/>
<path d="M22.0494 75.1521H52.4014H60.9069C61.5762 75.1521 61.5762 74.1064 60.9069 74.1064C50.7857 74.1064 40.676 74.1064 30.5549 74.1064C27.7159 74.1064 24.8884 74.1064 22.0494 74.1064C21.38 74.1064 21.38 75.1521 22.0494 75.1521Z" fill="#121212"/>
<path d="M25.0151 74.9779V109.648V119.361C25.0151 120.035 26.0538 120.035 26.0538 119.361C26.0538 107.801 26.0538 96.2401 26.0538 84.6911C26.0538 81.4495 26.0538 78.2195 26.0538 74.9779C26.0538 74.304 25.0151 74.304 25.0151 74.9779Z" fill="#121212"/>
<path d="M56.6714 74.9779V109.648V119.361C56.6714 120.035 57.71 120.035 57.71 119.361C57.71 107.801 57.71 96.2401 57.71 84.6911C57.71 81.4495 57.71 78.2195 57.71 74.9779C57.71 74.304 56.6714 74.304 56.6714 74.9779Z" fill="#121212"/>
<path d="M25.5347 96.5538H49.9779H56.9023C57.5717 96.5538 57.5717 95.5081 56.9023 95.5081C48.7546 95.5081 40.6069 95.5081 32.4591 95.5081C30.151 95.5081 27.8429 95.5081 25.5347 95.5081C24.8654 95.5081 24.8654 96.5538 25.5347 96.5538Z" fill="#121212"/>
<path d="M65.5462 59.0951C64.2305 64.2655 62.7187 69.3893 60.9876 74.4318C60.8376 74.8617 61.5069 75.036 61.657 74.6177C63.3881 69.5636 64.8999 64.4514 66.2155 59.281C66.3194 58.8512 65.6616 58.6653 65.5462 59.0951Z" fill="#121212"/>
<path d="M10.2891 120.5H28.6619C29.3313 120.5 29.3313 119.454 28.6619 119.454C22.5338 119.454 16.4172 119.454 10.2891 119.454C9.61977 119.454 9.61977 120.5 10.2891 120.5Z" fill="#121212"/>
<path d="M31.2359 120.268H35.4713C36.1407 120.268 36.1407 119.222 35.4713 119.222C34.0634 119.222 32.6439 119.222 31.2359 119.222C30.5665 119.222 30.5665 120.268 31.2359 120.268Z" fill="#121212"/>
<path d="M49.6085 120.419H66.1693C66.8387 120.419 66.8387 119.373 66.1693 119.373C60.6529 119.373 55.1364 119.373 49.6085 119.373C48.9391 119.373 48.9391 120.419 49.6085 120.419Z" fill="#121212"/>
<path d="M69.9434 120.047H72.8978C73.5672 120.047 73.5672 119.001 72.8978 119.001C71.9169 119.001 70.9359 119.001 69.9434 119.001C69.2741 119.001 69.2741 120.047 69.9434 120.047Z" fill="#121212"/>
<path d="M4.72663 116.817H11.8818C12.5512 116.817 12.5512 115.771 11.8818 115.771C9.49293 115.771 7.10401 115.771 4.72663 115.771C4.05727 115.771 4.05727 116.817 4.72663 116.817Z" fill="#121212"/>
<path d="M55.2059 72.3521C48.0853 72.1662 40.9531 71.9919 33.8325 71.806C38.0564 67.7395 42.2688 63.6613 46.4926 59.5948C51.3628 59.8504 56.2445 60.106 61.1147 60.3616C59.1412 64.3701 57.1793 68.3553 55.2059 72.3521Z" fill="#FCFCFC"/>
<path fill-rule="evenodd" clip-rule="evenodd" d="M46.4331 59.4333L46.5008 59.4368C48.9342 59.5645 51.3705 59.6922 53.8068 59.82L53.8125 59.8203C56.2502 59.9481 58.688 60.0759 61.1228 60.2037L61.3616 60.2162L61.1574 60.6309C59.217 64.5722 57.2873 68.4917 55.3465 72.4225L55.3019 72.5128L55.2017 72.5102C51.6415 72.4172 48.0784 72.3272 44.5152 72.2372C40.9521 72.1471 37.3887 72.0571 33.8284 71.9641L33.4512 71.9543L33.7239 71.6917C35.8355 69.6587 37.9443 67.6228 40.0532 65.5868L40.0538 65.5862C42.1628 63.5501 44.272 61.5138 46.384 59.4805L46.4331 59.4333ZM46.5522 59.7563C44.4567 61.7738 42.364 63.7941 40.2713 65.8145C38.253 67.7631 36.2347 69.7117 34.2138 71.6577C37.6474 71.7472 41.0837 71.834 44.52 71.9209L44.5231 71.9209C48.0527 72.0101 51.5828 72.0993 55.1097 72.1914C57.0327 68.2966 58.9449 64.4126 60.8677 60.507C58.5136 60.3835 56.1569 60.2599 53.8002 60.1364L53.7955 60.1361C51.3801 60.0095 48.9647 59.8829 46.5522 59.7563Z" fill="#0E151A"/>
<path d="M46.2502 59.5135C42.1071 63.5452 37.964 67.5885 33.8209 71.6202C33.6362 65.1602 33.44 58.6886 33.2554 52.2286L45.8578 44.2117C45.9732 49.3123 46.1117 54.4129 46.2502 59.5135Z" fill="#FCFCFC"/>
<path fill-rule="evenodd" clip-rule="evenodd" d="M46.0085 43.9287L46.0148 44.2081C46.1302 49.3078 46.2687 54.4075 46.4071 59.5077L46.4091 59.5788L46.3593 59.6272C44.2878 61.643 42.2163 63.6617 40.1447 65.6805C38.0732 67.6992 36.0016 69.718 33.93 71.7339L33.674 71.983L33.6638 71.6247C33.5715 68.3948 33.4762 65.162 33.381 61.9291C33.2858 58.6962 33.1906 55.4632 33.0983 52.2331L33.0957 52.143L46.0085 43.9287ZM33.4149 52.3141C33.5064 55.5141 33.6008 58.7168 33.6951 61.9196C33.7868 65.033 33.8785 68.1465 33.9676 71.2574C35.9538 69.3244 37.94 67.3888 39.9262 65.4532C41.9811 63.4507 44.0363 61.4479 46.0912 59.4482C45.9559 54.464 45.8206 49.4793 45.707 44.4947L33.4149 52.3141Z" fill="#0E151A"/>
<path d="M33.6358 52.8444C33.9705 58.5956 34.1898 64.3585 34.3052 70.1213C34.3052 70.2375 34.4783 70.2375 34.4783 70.1213C34.3629 64.3585 34.1436 58.5956 33.8089 52.8444C33.7974 52.7398 33.6243 52.7398 33.6358 52.8444Z" fill="#0E151A"/>
<path d="M33.7285 52.8675C37.5946 50.3347 41.4607 47.8018 45.3268 45.2689C45.4192 45.2108 45.3384 45.0598 45.2345 45.1179C41.3684 47.6507 37.5023 50.1836 33.6361 52.7165C33.5438 52.7862 33.6246 52.9372 33.7285 52.8675Z" fill="#0E151A"/>
<path d="M45.2809 45.2573C45.2694 49.8931 45.4079 54.5406 45.7079 59.1648C45.7195 59.281 45.8926 59.281 45.8811 59.1648C45.5925 54.529 45.4425 49.8931 45.454 45.2573C45.454 45.1527 45.2809 45.1527 45.2809 45.2573Z" fill="#0E151A"/>
<path d="M34.4206 70.3653C38.206 66.6822 42.0029 62.999 45.7882 59.3275C45.869 59.2462 45.742 59.13 45.6613 59.1997C41.8759 62.8828 38.079 66.566 34.2937 70.2375C34.2245 70.3188 34.3399 70.4466 34.4206 70.3653Z" fill="#0E151A"/>
<path d="M51.9515 68.3901C52.6555 67.263 53.3595 66.1244 54.0404 64.9742C54.0981 64.8812 53.9481 64.7883 53.8904 64.8812C53.2095 66.0315 52.5055 67.1701 51.8015 68.2971C51.7323 68.3901 51.8823 68.483 51.9515 68.3901Z" fill="#0E151A"/>
<path d="M53.9938 64.9393C54.9055 64.9742 55.8172 64.9742 56.7289 64.9277C56.8443 64.9277 56.8443 64.7534 56.7289 64.7534C55.8172 64.7883 54.9055 64.7883 53.9938 64.7651C53.8784 64.7651 53.8784 64.9393 53.9938 64.9393Z" fill="#0E151A"/>
<path d="M56.6137 64.8813C56.0944 66.0199 55.5635 67.1585 55.0326 68.2972C54.9865 68.4017 55.1365 68.4831 55.1827 68.3901C55.7135 67.2515 56.2444 66.1129 56.7637 64.9742C56.8099 64.858 56.6599 64.7767 56.6137 64.8813Z" fill="#0E151A"/>
<path d="M51.8935 68.483C52.9091 68.6341 53.9824 68.5644 55.0095 68.5179C55.1249 68.5179 55.1249 68.3436 55.0095 68.3436C54.0055 68.3901 52.9437 68.4598 51.9397 68.3204C51.8243 68.2971 51.7781 68.4714 51.8935 68.483Z" fill="#0E151A"/>
<path d="M55.6788 64.8929C55.2172 66.0548 54.6863 67.1818 54.0862 68.2739C54.0285 68.3669 54.1785 68.4598 54.2362 68.3669C54.8364 67.2515 55.3788 66.1129 55.8519 64.9394C55.8866 64.8348 55.725 64.7883 55.6788 64.8929Z" fill="#0E151A"/>
<path d="M38.9561 70.1562C41.495 66.9959 44.1263 63.9054 46.8384 60.8845C46.9076 60.8032 46.7922 60.6754 46.7114 60.7567C43.9994 63.7659 41.3681 66.8565 38.8291 70.0284C38.7599 70.1214 38.8868 70.2375 38.9561 70.1562Z" fill="#0E151A"/>
<path d="M42.0263 70.3537C44.2998 67.1585 46.7002 64.068 49.2161 61.0704C49.2853 60.989 49.1699 60.8612 49.0892 60.9426C46.5617 63.9518 44.1613 67.054 41.8762 70.2607C41.807 70.3537 41.957 70.4466 42.0263 70.3537Z" fill="#0E151A"/>
<path d="M45.3271 70.8301C47.3005 67.5072 49.4586 64.3004 51.7899 61.2214C51.8591 61.1285 51.7091 61.0472 51.6398 61.1285C49.3086 64.2074 47.1505 67.4142 45.177 70.7371C45.1193 70.8301 45.2694 70.923 45.3271 70.8301Z" fill="#0E151A"/>
<path d="M48.097 71.1204C50.0359 67.4838 52.3324 64.0563 54.9637 60.896C55.033 60.8146 54.9176 60.6868 54.8368 60.7682C52.194 63.9401 49.8858 67.3792 47.9354 71.0275C47.8893 71.132 48.0393 71.225 48.097 71.1204Z" fill="#0E151A"/>
<path d="M40.4339 68.2739C43.3883 67.9602 46.3427 68.332 49.2856 68.7271C49.401 68.7387 49.3894 68.5644 49.2856 68.5528C46.3542 68.1577 43.3998 67.7743 40.4339 68.0996C40.33 68.1113 40.33 68.2855 40.4339 68.2739Z" fill="#0E151A"/>
<path d="M41.9226 66.5776C44.7155 66.4731 47.5083 66.6822 50.255 67.2167C50.3589 67.2399 50.405 67.0656 50.3012 67.054C47.5429 66.5195 44.727 66.3104 41.9226 66.415C41.8188 66.4034 41.8188 66.5776 41.9226 66.5776Z" fill="#0E151A"/>
<path d="M43.2614 64.9393C45.9503 64.765 48.6393 65.009 51.2591 65.6596C51.3629 65.6829 51.4091 65.5202 51.3052 65.497C48.6739 64.8347 45.9734 64.5907 43.2614 64.765C43.146 64.7766 43.146 64.9509 43.2614 64.9393Z" fill="#0E151A"/>
<path d="M44.6463 63.3011C47.2314 63.3127 49.7934 63.5799 52.3208 64.1028C52.4247 64.126 52.4708 63.9517 52.367 63.9401C49.828 63.4173 47.2429 63.1501 44.6463 63.1384C44.5424 63.1268 44.5424 63.3011 44.6463 63.3011Z" fill="#0E151A"/>
<path d="M46.0197 61.7791C48.4778 61.8256 50.9244 62.1161 53.3134 62.6621C53.4172 62.6854 53.4634 62.5227 53.3595 62.4995C50.9475 61.9534 48.4894 61.6513 46.0197 61.6165C45.9043 61.6048 45.9043 61.7791 46.0197 61.7791Z" fill="#0E151A"/>
<path d="M53.9364 63.5452C52.8054 65.2182 51.686 66.8913 50.555 68.5644C50.4973 68.6574 50.6473 68.7503 50.705 68.6574C51.836 66.9843 52.9554 65.3112 54.0864 63.6381C54.1557 63.5335 54.0056 63.4522 53.9364 63.5452Z" fill="#0E151A"/>
<path d="M34.8247 61.0122C36.2672 60.3964 37.8252 60.7449 39.3486 60.7217C40.6296 60.7101 41.8529 60.3499 42.9493 59.6993C43.0416 59.6412 42.9608 59.4901 42.857 59.5482C41.5067 60.3499 40.0757 60.6055 38.5292 60.5358C37.2366 60.4777 35.9556 60.3499 34.7323 60.8727C34.64 60.9076 34.7208 61.0586 34.8247 61.0122Z" fill="#0E151A"/>
<path d="M38.7143 60.2919C41.184 58.8861 42.3265 55.9233 44.9001 54.6801C45.004 54.6336 44.9116 54.4826 44.8078 54.5291C42.2227 55.7839 41.0917 58.735 38.622 60.1409C38.5296 60.199 38.6104 60.35 38.7143 60.2919Z" fill="#0E151A"/>
<path d="M41.8531 52.0077C41.4261 51.6708 41.4954 51.1247 41.7377 50.6948C41.8531 50.4857 42.0262 50.2649 42.2224 50.1371C42.5802 49.9047 42.9149 50.0906 43.1918 50.3346C43.2726 50.4043 43.3996 50.2882 43.3188 50.2068C42.7418 49.7188 42.1993 49.7653 41.7262 50.3927C41.3453 50.9039 41.1491 51.6708 41.7262 52.1355C41.8185 52.2052 41.9454 52.0774 41.8531 52.0077Z" fill="#0E151A"/>
<path d="M77.3988 43.5144C74.2366 47.0465 73.3826 50.9272 72.921 53.1231C72.0785 57.1896 72.9672 58.8163 73.0249 66.5427C73.0479 69.8308 72.9095 72.4915 72.8056 74.1645C73.5211 74.7222 77.9527 78.0452 83.8731 76.953C88.2586 76.1513 90.9014 73.3861 91.7323 72.445C91.9285 71.3412 92.2055 69.7146 92.5286 67.7394C94.2366 57.0851 95.0791 51.6824 94.0174 47.8134C93.3826 45.4664 91.8131 41.7484 87.3584 37.9026C85.4888 38.2977 80.9995 39.506 77.3988 43.5144Z" fill="#CFFF55"/>
<path opacity="0.19" d="M80.6184 41.3767C81.7148 44.6764 82.3034 47.4997 82.6496 49.5679C83.5613 55.0403 84.9346 63.2431 81.0685 71.1903C79.8337 73.7231 78.3911 75.5821 77.3755 76.7324C78.7142 77.0461 81.3686 77.476 84.5307 76.651C88.293 75.6751 90.6473 73.4791 91.6167 72.4799C92.3668 68.1578 92.9669 64.4514 93.4286 61.5584C94.2249 56.4694 94.4095 54.9241 94.3287 52.7514C94.2364 49.9629 94.1095 47.035 92.4476 43.8747C90.855 40.8539 88.6161 39.0413 87.2428 38.1118C86.1233 38.3094 84.5423 38.7276 82.8689 39.7036C81.9456 40.2613 81.1955 40.8539 80.6184 41.3767Z" fill="#49708A"/>
<path opacity="0.18" d="M93.7285 46.9188C93.5208 46.9304 93.9593 50.1488 93.2784 54.5872C92.0205 62.8016 87.9812 68.4947 86.4232 70.5164C85.1191 72.2011 83.0764 74.5248 80.0874 76.8137C81.1607 76.9764 82.5917 77.0461 84.2305 76.7324C88.1197 76.0004 90.5894 73.5953 91.5358 72.5613C91.7781 71.1438 92.1705 68.9246 92.6667 66.1826C93.8324 59.7691 94.0632 59.0023 94.2478 57.0038C94.7556 51.5547 93.9708 46.9188 93.7285 46.9188Z" fill="#49708A"/>
<path d="M57.0638 55.5515C56.8445 55.4005 56.4059 55.1216 56.4521 54.8893C56.5444 54.5175 57.8716 54.4594 58.8295 54.622C59.4758 54.7266 60.6529 55.0635 61.8878 56.237C60.5029 56.4345 58.5063 56.4926 57.0638 55.5515Z" fill="#FCFCFC"/>
<path fill-rule="evenodd" clip-rule="evenodd" d="M56.6058 54.924C56.6059 54.9316 56.6088 54.9508 56.6305 54.9856C56.6572 55.0286 56.7021 55.0784 56.7628 55.1327C56.8669 55.2261 56.9941 55.3128 57.1005 55.3855C57.1179 55.3973 57.1347 55.4088 57.1507 55.4198C58.4318 56.2547 60.1823 56.279 61.5285 56.1239C60.4151 55.1602 59.3828 54.8718 58.8045 54.7782L58.8033 54.778L58.8033 54.778C58.3366 54.6987 57.7787 54.6734 57.3298 54.7128C57.1045 54.7326 56.9151 54.768 56.7809 54.8166C56.7138 54.8409 56.6673 54.8661 56.6379 54.8891C56.6162 54.9062 56.6085 54.9182 56.6058 54.924ZM58.855 54.466C58.3639 54.3826 57.7795 54.3558 57.3025 54.3976C57.0647 54.4185 56.8451 54.4572 56.6746 54.5189C56.5893 54.5498 56.5095 54.5889 56.4449 54.6396C56.3799 54.6905 56.3222 54.7598 56.2996 54.8509L56.2987 54.8545L56.298 54.8582C56.2754 54.9719 56.3153 55.075 56.3641 55.1535C56.4135 55.2328 56.4832 55.3057 56.5539 55.369C56.6751 55.4776 56.8221 55.5778 56.9274 55.6495C56.9445 55.6611 56.9604 55.672 56.975 55.682L56.9749 55.6821L56.9783 55.6842C58.4722 56.6589 60.5199 56.5919 61.9097 56.3936L62.2329 56.3475L61.9955 56.122C60.7338 54.923 59.526 54.5746 58.855 54.466Z" fill="#0E151A"/>
<path d="M89.6433 44.4208C87.3236 43.7352 84.6115 46.8839 84.3692 47.186C83.4459 48.2898 83.2266 49.0798 82.3611 51.2177C80.2607 56.4461 79.1643 59.0835 77.087 60.4545C75.2289 61.6861 73.2786 61.7326 72.7592 61.7326C70.5781 61.721 68.7777 60.6288 65.2693 58.4445C62.3149 56.5971 62.0149 56.0394 60.3069 55.5747C59.4413 55.3423 56.9024 54.6452 54.9289 56.0046C53.671 56.8644 52.8977 58.4677 53.244 58.8744C53.6825 59.3972 56.0368 58.1657 56.0483 58.2121C56.0599 58.2354 55.3674 58.4329 54.7442 58.9906C54.4326 59.2578 53.8787 59.8387 54.0056 60.0479C54.2365 60.4429 56.3369 58.6304 58.2065 59.3043C59.4759 59.7574 59.5452 60.9774 61.0339 61.4537C61.911 61.7326 62.7419 61.5815 63.2728 61.4305C63.9883 62.511 65.2001 64.0563 67.0697 65.4622C68.1891 66.2987 72.1361 69.1802 77.6179 68.7503C83.4344 68.2971 86.9658 64.4281 88.0622 63.2314C88.6969 62.5459 93.3017 57.3523 92.5977 50.5903C92.4938 49.4865 92.0437 45.1411 89.6433 44.4208Z" fill="#FCFCFC"/>
<path fill-rule="evenodd" clip-rule="evenodd" d="M86.134 45.3056C87.1372 44.5627 88.4507 43.9036 89.6873 44.269L89.688 44.2692C90.9694 44.6537 91.7035 45.9928 92.1309 47.3127C92.562 48.6442 92.7017 50.0206 92.7538 50.5745C93.4652 57.4105 88.8153 62.6498 88.1771 63.3391C88.177 63.3392 88.1771 63.3391 88.1771 63.3391L88.1678 63.3492C87.0578 64.5609 83.494 68.4511 77.6299 68.908C72.0879 69.3426 68.1009 66.4299 66.9759 65.5892C65.1421 64.2103 63.9349 62.6984 63.2051 61.6129C62.6587 61.7563 61.846 61.8779 60.9864 61.6046C60.199 61.3526 59.7855 60.9001 59.419 60.4738C59.402 60.4541 59.3852 60.4344 59.3684 60.4149C59.0235 60.0126 58.7161 59.6541 58.1538 59.4534L58.1533 59.4532C57.277 59.1374 56.3328 59.4007 55.5501 59.7182C55.356 59.797 55.1742 59.878 55.0071 59.953C54.993 59.9593 54.9791 59.9656 54.9652 59.9718C54.8154 60.0391 54.6762 60.1017 54.5545 60.1505C54.4242 60.2029 54.2997 60.2455 54.195 60.2587C54.0965 60.2711 53.9499 60.2635 53.8707 60.1292C53.796 60.0048 53.8383 59.8619 53.88 59.7677C53.9268 59.6619 54.0032 59.5492 54.0873 59.4427C54.2133 59.283 54.3695 59.1208 54.5077 58.9911C54.2935 59.0586 54.0805 59.1134 53.8879 59.1415C53.7387 59.1633 53.5936 59.1703 53.4659 59.1505C53.3388 59.1308 53.2125 59.0819 53.1242 58.977C52.9882 58.8168 52.9846 58.5753 53.03 58.3446C53.0776 58.1028 53.1885 57.8217 53.3472 57.5329C53.6647 56.9551 54.1883 56.3196 54.8402 55.8739C55.8641 55.1687 57.0293 55.0006 58.0384 55.0347C59.0304 55.0682 59.8844 55.2976 60.3245 55.4158L60.3477 55.422C61.2202 55.6594 61.737 55.9227 62.4059 56.3583C62.6307 56.5048 62.8699 56.6686 63.1445 56.8567C63.6877 57.2288 64.3694 57.6957 65.3518 58.31C68.8728 60.5022 70.6321 61.563 72.7596 61.5745C73.27 61.5744 75.1819 61.5279 77.0004 60.3225C78.0087 59.657 78.7871 58.6799 79.577 57.2075C80.3683 55.7326 81.164 53.7753 82.2153 51.1584C82.3542 50.8152 82.4769 50.5056 82.5886 50.2236C83.1682 48.7608 83.4575 48.0306 84.2478 47.0854C84.3769 46.9248 85.1238 46.0537 86.134 45.3056ZM86.3201 45.5605C85.3363 46.289 84.6072 47.1408 84.4912 47.2854L84.4892 47.2879C83.7329 48.1921 83.4635 48.8713 82.8842 50.3321C82.7719 50.6153 82.6479 50.928 82.5064 51.2774C81.4574 53.8887 80.6548 55.8642 79.8534 57.3578C79.0508 58.8539 78.2421 59.8811 77.1732 60.5867C75.2763 61.844 73.288 61.8908 72.7591 61.8908L72.7582 61.8908C70.5235 61.8789 68.6821 60.7554 65.1865 58.579C64.2006 57.9625 63.5026 57.4846 62.9554 57.1099C62.6839 56.924 62.4494 56.7635 62.2352 56.6239C61.5885 56.2027 61.1013 55.9548 60.266 55.7275C60.2659 55.7275 60.2661 55.7275 60.266 55.7275L60.247 55.7224C59.8093 55.6048 58.9838 55.3831 58.0279 55.3508C57.0579 55.3181 55.967 55.4811 55.0174 56.1351L55.017 56.1355C54.4111 56.5496 53.9192 57.1456 53.6222 57.686C53.4736 57.9564 53.3776 58.2061 53.3382 58.4061C53.2967 58.6172 53.3263 58.7283 53.3631 58.7715L53.3638 58.7724C53.3852 58.7978 53.4282 58.8246 53.5136 58.8378C53.5986 58.851 53.7094 58.8479 53.8428 58.8284C54.1092 58.7896 54.4329 58.6906 54.7523 58.5733C55.0699 58.4567 55.3754 58.3251 55.6039 58.2246C55.6384 58.2095 55.6713 58.1949 55.7023 58.1812C55.7732 58.1499 55.8343 58.123 55.8812 58.103C55.9146 58.0888 55.9446 58.0765 55.9677 58.0684C55.978 58.0648 55.9937 58.0595 56.0101 58.0563C56.0164 58.055 56.0357 58.0513 56.0594 58.0533C56.0689 58.0541 56.1628 58.0635 56.1957 58.1575C56.2305 58.2487 56.1675 58.3169 56.1622 58.3226C56.1465 58.3396 56.1303 58.3498 56.1249 58.3531C56.1112 58.3617 56.0961 58.3688 56.086 58.3734C56.0667 58.3822 56.0397 58.3935 56.0101 58.4058L55.9971 58.4113C55.9249 58.4414 55.8233 58.4843 55.7028 58.5432C55.4612 58.6613 55.1458 58.8427 54.8485 59.1088L54.846 59.111C54.6958 59.2398 54.4871 59.4446 54.3333 59.6394C54.2559 59.7376 54.1981 59.8261 54.167 59.8964C54.1577 59.9175 54.1522 59.9336 54.1489 59.9456C54.1512 59.9454 54.1536 59.9451 54.1561 59.9448C54.2177 59.9371 54.3099 59.9082 54.4381 59.8567C54.5536 59.8103 54.687 59.7504 54.8388 59.6822C54.8521 59.6762 54.8656 59.6702 54.8791 59.6641C55.0464 59.589 55.2328 59.5059 55.4326 59.4248C56.2251 59.1034 57.2657 58.7974 58.259 59.1553C58.9015 59.3847 59.2583 59.8016 59.5977 60.1982C59.6174 60.2211 59.637 60.244 59.6566 60.2668C60.0143 60.6829 60.3799 61.0785 61.0811 61.3029C61.9158 61.5683 62.7117 61.4258 63.2299 61.2783L63.3399 61.247L63.4034 61.3428C64.1119 62.4127 65.3119 63.9431 67.1632 65.3352C68.2771 66.1677 72.1839 69.0178 77.6055 68.5926C83.3465 68.1454 86.8396 64.3325 87.9404 63.1309L87.9465 63.1242L87.9471 63.1236C88.5789 62.4413 93.1375 57.2941 92.4413 50.6068L92.4411 50.6052C92.3893 50.0547 92.252 48.7073 91.8322 47.4108C91.4085 46.1021 90.7174 44.9084 89.5986 44.5724C88.5156 44.2526 87.3134 44.825 86.3201 45.5605ZM54.1149 59.9458C54.115 59.9457 54.1162 59.9458 54.118 59.9465C54.1157 59.9462 54.1148 59.9458 54.1149 59.9458Z" fill="#0E151A"/>
<path opacity="0.25" d="M89.3895 44.4208C88.5124 44.7112 89.6087 47.8599 88.7201 51.9845C87.8776 55.9465 85.6618 58.6188 84.6578 59.8388C83.3075 61.477 81.5418 63.6148 78.5297 64.707C74.4904 66.171 69.955 65.1369 66.9198 63.2198C66.0196 62.6389 65.2579 61.1401 63.2383 59.9666C62.3612 59.4554 61.6572 59.1997 60.8147 58.886C58.7836 58.1424 56.9602 57.4686 55.1021 58.0611C54.2135 58.34 53.4172 58.8744 53.4633 58.9674C53.5095 59.0719 54.5366 58.735 55.4599 58.4213C54.225 59.5948 53.9942 59.955 54.0519 60.0479C54.1212 60.1409 54.4905 59.8969 55.356 59.5948C56.3023 59.2578 56.9602 59.0371 57.7218 59.223C58.1027 59.3159 58.3797 59.4902 58.5528 59.5948C59.1875 59.9898 59.2914 60.3732 59.9146 60.8264C60.2954 61.1052 60.6416 61.2446 60.8263 61.3143C61.2071 61.4654 62.015 61.7094 63.1575 61.5002C63.9423 62.6389 67.5776 67.6814 73.9596 68.6109C77.2487 69.0873 79.8453 68.2739 80.8724 67.937C86.5043 66.1012 89.3548 61.7094 90.0934 60.4894C92.3785 56.725 93.9365 50.8459 91.5822 46.6167C91.0282 45.5594 89.9896 44.2233 89.3895 44.4208Z" fill="#49708A"/>
<path d="M53.4517 58.9093C54.0633 58.2703 54.7788 57.8055 55.6098 57.5267C55.7713 57.4686 55.7021 57.2246 55.5405 57.271C54.675 57.5731 53.9017 58.0611 53.267 58.7234C53.1516 58.8512 53.3362 59.0371 53.4517 58.9093Z" fill="#0E151A"/>
<path d="M53.8668 57.3524C54.4785 56.6669 55.3325 56.3996 56.1865 56.1556C56.3481 56.1092 56.2788 55.8536 56.1172 55.9C55.2286 56.1673 54.3284 56.4577 53.6937 57.1665C53.5668 57.2943 53.7514 57.4686 53.8668 57.3524Z" fill="#0E151A"/>
<path opacity="0.29" d="M92.2396 49.4168C91.8473 50.6252 91.2125 52.368 90.2777 54.3896C88.4197 58.3748 86.7463 61.965 83.4803 64.5095C79.4526 67.6465 74.6286 67.9138 71.9165 67.7859C73.8207 68.5644 75.4018 68.7271 76.4058 68.7503C84.0458 68.913 89.4006 61.628 91.0625 58.3516C91.351 57.7706 91.9511 56.5623 92.2974 54.8427C92.7474 52.5306 92.482 50.5903 92.2396 49.4168Z" fill="#49708A"/>
<path opacity="0.26" d="M58.4834 59.1881C59.1297 59.6412 60.0414 60.1757 61.207 60.594C62.1302 60.9193 62.9727 61.082 63.6421 61.1633C61.784 61.7791 60.9185 61.5351 60.4684 61.1633C60.1914 60.9309 59.9029 60.501 59.0373 59.6993C58.8181 59.4786 58.6219 59.3043 58.4834 59.1881Z" fill="#49708A"/>
<path d="M71.755 20.9859C71.6281 21.7295 71.5011 22.4731 71.3973 23.2515C70.9472 26.4118 70.7625 29.3978 70.751 32.1747C71.3857 32.105 72.0089 32.0353 72.6436 31.9772C72.5744 32.5929 72.3782 34.847 73.8093 37.0778C75.1595 39.1807 77.0984 39.9476 77.6985 40.1567C77.6292 41.2953 77.5715 42.4224 77.5023 43.561C78.7487 42.4456 80.4452 41.1327 82.6033 39.9592C84.2536 39.0646 85.8116 38.4488 87.1387 38.0305C85.65 36.1715 85.0845 34.4171 84.8421 33.4063C84.4267 31.6635 84.5075 30.1646 84.5883 28.8401C84.669 27.4807 84.8652 26.3537 85.0383 25.5636C85.5808 23.0772 84.1613 19.1385 81.3338 17.721C78.5409 16.3152 74.3748 17.5003 71.755 20.9859Z" fill="#FCFCFC"/>
<path fill-rule="evenodd" clip-rule="evenodd" d="M71.6299 20.8904C74.2812 17.3628 78.5247 16.1302 81.404 17.5795C82.8595 18.3092 83.943 19.6818 84.5938 21.178C85.2441 22.6732 85.4719 24.314 85.1919 25.5976C85.0202 26.3813 84.8254 27.5001 84.7452 28.8496C84.6645 30.1733 84.5855 31.6515 84.995 33.3693C85.2337 34.3649 85.7912 36.0957 87.2612 37.9312L87.406 38.112L87.1858 38.1814C85.867 38.5971 84.3184 39.2091 82.6779 40.0985C80.5326 41.265 78.846 42.5702 77.6068 43.6792L77.3223 43.9337L77.3456 43.5513C77.3802 42.9824 77.4119 42.4164 77.4436 41.8499C77.4732 41.323 77.5027 40.7956 77.5346 40.2659C76.8192 40.0028 74.9803 39.1927 73.6774 37.1636C72.3395 35.078 72.3951 32.9738 72.4681 32.1524C71.9568 32.2012 71.4513 32.2568 70.9383 32.3132C70.8817 32.3194 70.825 32.3257 70.7681 32.3319L70.5933 32.3511L70.594 32.174C70.6056 29.3907 70.7906 26.3977 71.2418 23.2298C71.346 22.4488 71.4733 21.7031 71.6 20.9607L71.6068 20.9211L71.6299 20.8904ZM71.9035 21.0508C71.7786 21.782 71.6547 22.5107 71.5531 23.2726L71.5529 23.274C71.1135 26.3593 70.9277 29.2782 70.9092 31.9982C71.4835 31.935 72.0517 31.8725 72.6295 31.8196L72.8216 31.8021L72.7999 31.9949C72.7319 32.5993 72.5402 34.8078 73.9413 36.9919M71.9035 21.0508C74.4927 17.6311 78.5653 16.5042 81.2636 17.8625C82.6356 18.5503 83.6757 19.8559 84.306 21.3049C84.9367 22.7552 85.1474 24.3269 84.885 25.5297C84.7105 26.3261 84.5129 27.4614 84.4315 28.8307C84.3507 30.1559 84.2681 31.6755 84.6895 33.4432C84.9276 34.4363 85.4727 36.1342 86.8745 37.9492C85.5875 38.3679 84.0997 38.9684 82.5289 39.8199C80.5176 40.9136 78.9049 42.1276 77.6818 43.1923C77.7079 42.7497 77.7326 42.3086 77.7573 41.8678C77.7891 41.3013 77.8208 40.7353 77.8554 40.1664L77.8627 40.0465L77.75 40.0072C77.1631 39.8027 75.2636 39.0513 73.9413 36.9919" fill="#121212"/>
<path d="M72.3786 32.0584C72.7018 32.012 73.0365 31.9771 73.3596 31.9423C73.475 31.9306 73.475 31.7564 73.3596 31.768C73.0134 31.8028 72.6787 31.8493 72.3325 31.8958C72.2286 31.8958 72.2748 32.0701 72.3786 32.0584Z" fill="#121212"/>
<path d="M82.7877 22.7868C81.3913 23.147 81.1374 24.3669 79.3717 26.9114C77.5829 29.4908 76.4519 31.1058 74.4323 32.0469C73.1282 32.651 72.4819 32.4884 71.9049 33.2668C70.9124 34.6146 71.5817 36.8338 72.1703 37.9724C72.8512 39.2853 73.8899 40.0754 74.7439 40.726C75.5633 41.3418 76.3134 41.7485 76.8443 41.9925C76.2788 41.1211 76.2442 40.8538 76.3134 40.7725C76.4981 40.5866 77.2828 41.5858 78.2061 41.458C78.4715 41.4232 78.9447 41.2721 79.9949 39.6106C80.7104 38.4836 81.1951 37.7052 81.5183 36.5898C82.2222 34.1963 81.2297 33.5457 81.5183 30.397C81.5644 29.9207 81.8876 26.1911 83.2032 25.9471C83.6764 25.8541 84.1611 26.2491 84.3919 26.5512C84.8766 27.1903 84.8189 28.2127 84.2188 29.0957C84.415 28.9563 86.2961 27.6782 86.273 25.5985C86.273 25.2732 86.2615 24.0765 85.3613 23.298C84.3342 22.415 82.9031 22.7635 82.7877 22.7868Z" fill="#121212" stroke="#121212" stroke-width="0.651448" stroke-miterlimit="10"/>
<path d="M73.4862 28.0733C73.7539 28.0733 73.9709 27.6832 73.9709 27.2019C73.9709 26.7206 73.7539 26.3305 73.4862 26.3305C73.2185 26.3305 73.0015 26.7206 73.0015 27.2019C73.0015 27.6832 73.2185 28.0733 73.4862 28.0733Z" fill="#121212"/>
<path d="M69.7933 28.4799C70.061 28.4799 70.278 28.0897 70.278 27.6085C70.278 27.1272 70.061 26.7371 69.7933 26.7371C69.5256 26.7371 69.3086 27.1272 69.3086 27.6085C69.3086 28.0897 69.5256 28.4799 69.7933 28.4799Z" fill="#121212"/>
<path d="M69.0659 26.1794C69.3775 25.8192 69.8622 25.7844 70.2084 26.1329C70.37 26.2956 70.6124 26.04 70.4508 25.889C69.9776 25.4242 69.2506 25.4358 68.812 25.9354C68.6851 26.1097 68.9274 26.3537 69.0659 26.1794Z" fill="#121212"/>
<path d="M72.8515 25.5753C73.2554 25.2384 73.7863 25.2848 74.1325 25.6682C74.2825 25.8309 74.5249 25.5869 74.3748 25.4243C73.8901 24.9014 73.14 24.8782 72.5976 25.3313C72.436 25.4707 72.6784 25.7147 72.8515 25.5753Z" fill="#121212"/>
<path d="M71.3628 22.3685C71.4897 21.532 71.8129 20.161 72.7015 18.7435C73.0131 18.2439 73.6825 17.1866 74.7442 16.4662C76.7754 15.1068 79.9029 15.2114 82.1764 16.8845C84.4038 18.5227 85.5117 21.4506 85.027 24.3553C80.4684 23.7047 75.9214 23.0424 71.3628 22.3685Z" fill="#D0E0EB"/>
<path d="M63.9074 22.473C70.9126 23.3792 77.9293 24.2855 84.9345 25.1801C85.5924 25.2615 85.5924 24.2158 84.9345 24.1344C77.9293 23.2282 70.9126 22.3219 63.9074 21.4273C63.2496 21.3343 63.2496 22.38 63.9074 22.473Z" fill="#121212"/>
<path d="M77.2944 15.6181C79.0948 16.0131 80.4566 17.477 80.6874 19.2315C80.8951 20.7651 80.2258 22.322 78.9563 23.2748C80.9528 23.542 82.9609 23.8208 84.9574 24.0881C85.0613 23.5536 85.1536 22.7403 85.0267 21.7876C84.7266 19.5568 83.4456 18.1277 83.0301 17.6978C82.5801 17.233 80.9875 15.6761 78.6216 15.5367C78.0792 15.5135 77.6176 15.56 77.2944 15.6181Z" fill="#88ABC2"/>
<path fill-rule="evenodd" clip-rule="evenodd" d="M40.7771 2.7826C40.9002 2.7059 40.9973 2.55012 41.0712 2.39982C41.0766 2.38905 41.0818 2.37817 41.087 2.36719L41.0883 2.37588L41.0883 2.37589C41.0999 2.45116 41.1107 2.52163 41.1186 2.58846C41.1546 2.89377 41.1679 3.20466 41.1768 3.5202C41.179 3.59614 41.1808 3.67249 41.1827 3.74909L41.1827 3.7491C41.1887 3.98899 41.1946 4.23135 41.2088 4.47111C41.2131 4.54481 41.276 4.60102 41.3492 4.59664C41.4224 4.59226 41.4782 4.52897 41.4739 4.45526C41.4601 4.22054 41.4542 3.98465 41.4483 3.74586L41.4483 3.74579C41.4464 3.66839 41.4445 3.59068 41.4423 3.51261C41.4334 3.19546 41.4198 2.87469 41.3823 2.55694C41.3738 2.48511 41.3622 2.40969 41.3508 2.3351L41.3508 2.3351L41.3464 2.30632C41.3334 2.22132 41.3209 2.13692 41.3123 2.05333C41.3021 1.95424 41.2978 1.86053 41.3036 1.77382C41.3332 1.67079 41.3545 1.58364 41.3658 1.52869C41.3697 1.50983 41.373 1.49195 41.3748 1.47755C41.3755 1.472 41.377 1.4595 41.3766 1.44582L41.3765 1.44543C41.3764 1.44152 41.3758 1.41775 41.3639 1.39192C41.3574 1.3778 41.3379 1.34212 41.2928 1.32379C41.2423 1.30329 41.1984 1.31932 41.1768 1.3317C41.157 1.34311 41.1449 1.35693 41.1402 1.36254C41.1344 1.3695 41.1304 1.37574 41.1281 1.37956C41.1234 1.38719 41.1202 1.39406 41.1184 1.398C41.1146 1.40638 41.1113 1.41519 41.1087 1.42272C41.1032 1.43845 41.0966 1.45955 41.0891 1.48556C41.087 1.49271 41.0856 1.49989 41.0847 1.50705C41.0818 1.5133 41.0793 1.51986 41.0773 1.5267C41.0586 1.59138 41.0472 1.65798 41.0411 1.72513C41.032 1.75614 41.0221 1.78865 41.0115 1.82217C40.9637 1.97339 40.9025 2.14037 40.8333 2.28109C40.7604 2.42908 40.6909 2.52182 40.6373 2.55525C40.5749 2.59411 40.5557 2.6765 40.5943 2.73929C40.6329 2.80207 40.7147 2.82146 40.7771 2.7826Z" fill="#FCFCFC"/>
<path fill-rule="evenodd" clip-rule="evenodd" d="M39.2668 7.0398C39.3899 6.9631 39.487 6.80732 39.561 6.65702C39.5663 6.64625 39.5715 6.63537 39.5767 6.6244L39.5781 6.63308C39.5896 6.70836 39.6004 6.77883 39.6083 6.84566C39.6443 7.15097 39.6577 7.46187 39.6666 7.7774C39.6687 7.8533 39.6706 7.92961 39.6725 8.00618L39.6725 8.0063C39.6784 8.24619 39.6844 8.48855 39.6985 8.72831C39.7029 8.80202 39.7657 8.85822 39.839 8.85384C39.9122 8.84947 39.968 8.78617 39.9636 8.71246C39.9498 8.47774 39.944 8.24186 39.9381 8.00307L39.9381 8.00306C39.9362 7.92564 39.9342 7.84791 39.932 7.76981C39.9231 7.45266 39.9095 7.13189 39.872 6.81414C39.8636 6.74231 39.852 6.66689 39.8405 6.59231L39.8405 6.5923L39.8361 6.56353C39.8231 6.47852 39.8106 6.39412 39.802 6.31053C39.7918 6.21144 39.7875 6.11773 39.7934 6.03102C39.8229 5.92799 39.8443 5.84084 39.8556 5.78589C39.8595 5.76703 39.8627 5.74915 39.8646 5.73476C39.8653 5.7292 39.8668 5.7167 39.8663 5.70302L39.8663 5.70263C39.8662 5.69873 39.8656 5.67496 39.8537 5.64913C39.8472 5.635 39.8277 5.59933 39.7825 5.58099C39.7321 5.56049 39.6882 5.57652 39.6666 5.5889C39.6467 5.60032 39.6346 5.61413 39.6299 5.61975C39.6242 5.62671 39.6201 5.63294 39.6178 5.63676C39.6131 5.64439 39.6099 5.65126 39.6081 5.6552C39.6044 5.66358 39.6011 5.6724 39.5985 5.67992C39.5929 5.69566 39.5864 5.71675 39.5789 5.74276C39.5768 5.74991 39.5753 5.75709 39.5745 5.76425C39.5715 5.7705 39.5691 5.77706 39.5671 5.7839C39.5484 5.84858 39.5369 5.91518 39.5308 5.98233C39.5217 6.01334 39.5119 6.04585 39.5013 6.07937C39.4535 6.2306 39.3923 6.39757 39.323 6.53829C39.2502 6.68628 39.1807 6.77902 39.1271 6.81245C39.0647 6.85131 39.0454 6.93371 39.084 6.99649C39.1226 7.05927 39.2045 7.07866 39.2668 7.0398Z" fill="#FCFCFC"/>
<path fill-rule="evenodd" clip-rule="evenodd" d="M31.1111 7.0398C31.2342 6.9631 31.3313 6.80732 31.4052 6.65702C31.4105 6.64625 31.4158 6.63537 31.421 6.6244L31.4223 6.63308L31.4223 6.63308C31.4339 6.70836 31.4447 6.77883 31.4525 6.84566C31.4885 7.15097 31.5019 7.46187 31.5108 7.7774C31.5129 7.85334 31.5148 7.92968 31.5167 8.00628L31.5167 8.0063C31.5226 8.24619 31.5286 8.48855 31.5428 8.72831C31.5471 8.80202 31.61 8.85822 31.6832 8.85384C31.7564 8.84947 31.8122 8.78617 31.8079 8.71246C31.794 8.47774 31.7882 8.24185 31.7823 8.00306C31.7804 7.92564 31.7785 7.84791 31.7763 7.76981C31.7673 7.45266 31.7537 7.13189 31.7163 6.81414C31.7078 6.74231 31.6962 6.66689 31.6848 6.5923L31.6804 6.56353C31.6674 6.47852 31.6549 6.39412 31.6463 6.31053C31.636 6.21144 31.6318 6.11773 31.6376 6.03102C31.6671 5.92799 31.6885 5.84084 31.6998 5.78589C31.7037 5.76703 31.707 5.74915 31.7088 5.73476C31.7095 5.7292 31.711 5.7167 31.7105 5.70302L31.7105 5.70263C31.7104 5.69873 31.7098 5.67496 31.6979 5.64913C31.6914 5.635 31.6719 5.59933 31.6268 5.58099C31.5763 5.56049 31.5324 5.57652 31.5108 5.5889C31.4909 5.60032 31.4789 5.61413 31.4742 5.61975C31.4684 5.6267 31.4644 5.63294 31.462 5.63676C31.4574 5.64439 31.4542 5.65126 31.4524 5.6552C31.4486 5.66358 31.4453 5.6724 31.4427 5.67992C31.4372 5.69566 31.4306 5.71675 31.4231 5.74276C31.421 5.74991 31.4196 5.75709 31.4187 5.76425C31.4158 5.7705 31.4133 5.77706 31.4113 5.7839C31.3926 5.84858 31.3812 5.91518 31.375 5.98233C31.366 6.01334 31.3561 6.04585 31.3455 6.07937C31.2977 6.2306 31.2365 6.39757 31.1673 6.53829C31.0944 6.68628 31.0249 6.77902 30.9713 6.81245C30.9089 6.85131 30.8897 6.93371 30.9283 6.99649C30.9669 7.05927 31.0487 7.07866 31.1111 7.0398Z" fill="#FCFCFC"/>
<path fill-rule="evenodd" clip-rule="evenodd" d="M32.9236 7.0398C33.0467 6.9631 33.1438 6.80732 33.2177 6.65702C33.223 6.64625 33.2283 6.63537 33.2335 6.6244L33.2348 6.63308L33.2348 6.63308C33.2464 6.70836 33.2572 6.77883 33.265 6.84566C33.301 7.15097 33.3144 7.46187 33.3233 7.7774C33.3254 7.85334 33.3273 7.92969 33.3292 8.0063L33.3292 8.0063C33.3351 8.24619 33.3411 8.48855 33.3553 8.72831C33.3596 8.80202 33.4225 8.85822 33.4957 8.85384C33.5689 8.84947 33.6247 8.78617 33.6204 8.71246C33.6065 8.47774 33.6007 8.24185 33.5948 8.00306L33.5948 8.00292C33.5929 7.92555 33.591 7.84786 33.5888 7.76981C33.5798 7.45266 33.5662 7.13189 33.5288 6.81414C33.5203 6.74231 33.5087 6.66689 33.4973 6.5923L33.4929 6.56353C33.4799 6.47852 33.4674 6.39412 33.4588 6.31053C33.4485 6.21144 33.4443 6.11773 33.4501 6.03102C33.4796 5.92799 33.501 5.84084 33.5123 5.78589C33.5162 5.76703 33.5195 5.74915 33.5213 5.73476C33.522 5.7292 33.5235 5.7167 33.523 5.70302L33.523 5.70263C33.5229 5.69873 33.5223 5.67496 33.5104 5.64913C33.5039 5.635 33.4844 5.59933 33.4393 5.58099C33.3888 5.56049 33.3449 5.57652 33.3233 5.5889C33.3034 5.60032 33.2914 5.61413 33.2867 5.61975C33.2809 5.62671 33.2769 5.63294 33.2745 5.63676C33.2699 5.64439 33.2667 5.65126 33.2649 5.6552C33.2611 5.66358 33.2578 5.6724 33.2552 5.67992C33.2497 5.69566 33.2431 5.71675 33.2356 5.74276C33.2335 5.74991 33.2321 5.75709 33.2312 5.76425C33.2283 5.7705 33.2258 5.77706 33.2238 5.7839C33.2051 5.84858 33.1937 5.91518 33.1875 5.98233C33.1785 6.01334 33.1686 6.04585 33.158 6.07937C33.1102 6.2306 33.049 6.39757 32.9798 6.53829C32.9069 6.68628 32.8374 6.77902 32.7838 6.81245C32.7214 6.85131 32.7022 6.93371 32.7408 6.99649C32.7794 7.05927 32.8612 7.07866 32.9236 7.0398Z" fill="#FCFCFC"/>
<path fill-rule="evenodd" clip-rule="evenodd" d="M38.9646 2.7826C39.0877 2.7059 39.1848 2.55012 39.2587 2.39982C39.2641 2.38905 39.2693 2.37817 39.2745 2.36719L39.2758 2.37588C39.2874 2.45116 39.2982 2.52163 39.3061 2.58846C39.3421 2.89377 39.3554 3.20466 39.3643 3.5202C39.3665 3.59608 39.3683 3.67237 39.3702 3.74891L39.3702 3.74909C39.3762 3.98898 39.3821 4.23134 39.3963 4.47111C39.4006 4.54481 39.4635 4.60102 39.5367 4.59664C39.6099 4.59227 39.6657 4.52897 39.6614 4.45526C39.6476 4.22054 39.6417 3.98465 39.6358 3.74586C39.6339 3.66844 39.632 3.59071 39.6298 3.51261C39.6209 3.19546 39.6073 2.87469 39.5698 2.55694C39.5613 2.48511 39.5497 2.40969 39.5383 2.3351L39.5383 2.3351L39.5339 2.30632C39.5209 2.22132 39.5084 2.13692 39.4998 2.05333C39.4896 1.95424 39.4853 1.86053 39.4911 1.77382C39.5207 1.67079 39.542 1.58364 39.5533 1.52869C39.5572 1.50983 39.5605 1.49195 39.5623 1.47755C39.563 1.472 39.5645 1.4595 39.5641 1.44582L39.564 1.44543C39.5639 1.44152 39.5633 1.41775 39.5514 1.39192C39.5449 1.3778 39.5254 1.34212 39.4803 1.32379C39.4298 1.30329 39.3859 1.31932 39.3643 1.3317C39.3445 1.34311 39.3324 1.35693 39.3277 1.36254C39.3219 1.3695 39.3179 1.37574 39.3156 1.37956C39.3109 1.38719 39.3077 1.39406 39.3059 1.398C39.3021 1.40638 39.2988 1.41519 39.2962 1.42272C39.2907 1.43845 39.2841 1.45955 39.2766 1.48556C39.2745 1.49271 39.2731 1.49989 39.2722 1.50705C39.2693 1.5133 39.2668 1.51986 39.2648 1.5267C39.2461 1.59138 39.2347 1.65798 39.2286 1.72513C39.2195 1.75614 39.2096 1.78865 39.199 1.82217C39.1512 1.97339 39.09 2.14037 39.0208 2.28109C38.9479 2.42908 38.8784 2.52182 38.8248 2.55525C38.7624 2.59411 38.7432 2.6765 38.7818 2.73929C38.8204 2.80207 38.9022 2.82146 38.9646 2.7826Z" fill="#FCFCFC"/>
<path fill-rule="evenodd" clip-rule="evenodd" d="M34.7567 1.38557C34.8881 1.2751 35.0668 1.19174 35.2788 1.25397C35.4227 1.29623 35.4797 1.42802 35.5065 1.51508C35.5211 1.56225 35.5312 1.61085 35.5392 1.65034L35.5393 1.65073C35.5481 1.69347 35.5541 1.72282 35.5611 1.74486C35.6451 2.00979 35.6261 2.27154 35.6089 2.50915C35.6054 2.55749 35.6019 2.60483 35.5995 2.65099C35.5961 2.71413 35.5641 2.86706 35.5185 3.04045C35.4714 3.21929 35.4056 3.43591 35.3283 3.6325C35.2532 3.82349 35.1598 4.01524 35.051 4.12738C34.9967 4.18337 34.9188 4.23995 34.8206 4.23909C34.7166 4.23818 34.6374 4.17427 34.5809 4.09587C34.3189 3.73199 34.2309 3.26399 34.2314 2.80555C34.2318 2.34534 34.3214 1.87975 34.4298 1.5056C34.4503 1.43472 34.524 1.39401 34.5944 1.41468C34.6261 1.42397 34.6517 1.44407 34.6684 1.46982C34.6961 1.44024 34.7256 1.41177 34.7567 1.38557ZM34.5925 1.95063C34.5356 2.22167 34.4972 2.5164 34.4969 2.80583C34.4965 3.23576 34.58 3.63913 34.7959 3.93893C34.8095 3.95778 34.8191 3.96641 34.8244 3.97017C34.8302 3.96732 34.8423 3.95983 34.861 3.94056C34.9293 3.87011 35.0068 3.72351 35.0814 3.53404C35.1537 3.35017 35.2164 3.14422 35.2617 2.97201C35.3084 2.79435 35.3326 2.66777 35.3343 2.63656C35.3373 2.58038 35.341 2.52638 35.3447 2.47406C35.3611 2.23871 35.3751 2.03754 35.3081 1.82616C35.2967 1.79018 35.2881 1.74805 35.2808 1.71243C35.2802 1.70971 35.2797 1.70703 35.2791 1.70439C35.2708 1.66373 35.2631 1.62737 35.2529 1.59443C35.2303 1.52128 35.2101 1.51231 35.2045 1.51067C35.1085 1.4825 35.0197 1.51278 34.927 1.5908C34.8316 1.67094 34.7505 1.78725 34.6833 1.89134C34.662 1.9245 34.6284 1.94496 34.5925 1.95063ZM34.8291 3.97279C34.8291 3.97286 34.8286 3.97273 34.8277 3.97224C34.8287 3.97248 34.8291 3.97273 34.8291 3.97279Z" fill="#FCFCFC"/>
<path fill-rule="evenodd" clip-rule="evenodd" d="M35.2152 5.94712C35.3466 5.83666 35.5253 5.75329 35.7373 5.81553C35.8812 5.85778 35.9382 5.98958 35.965 6.07664C35.9796 6.12381 35.9897 6.17241 35.9977 6.21189L35.9978 6.21228C36.0066 6.25503 36.0126 6.28438 36.0196 6.30641C36.1036 6.57135 36.0846 6.83309 36.0674 7.0707C36.0639 7.11904 36.0604 7.16638 36.058 7.21254C36.0546 7.27568 36.0226 7.42861 35.9769 7.602C35.9299 7.78084 35.8641 7.99747 35.7868 8.19406C35.7117 8.38505 35.6183 8.57679 35.5095 8.68893C35.4552 8.74492 35.3773 8.8015 35.2791 8.80064C35.1751 8.79973 35.0958 8.73582 35.0394 8.65743C34.7774 8.29355 34.6894 7.82554 34.6899 7.36711C34.6903 6.9069 34.7799 6.4413 34.8883 6.06715C34.9088 5.99627 34.9825 5.95556 35.0529 5.97623C35.0846 5.98552 35.1102 6.00562 35.1269 6.03137C35.1546 6.00179 35.184 5.97332 35.2152 5.94712ZM35.051 6.51219C34.9941 6.78322 34.9557 7.07795 34.9554 7.36739C34.955 7.79731 35.0385 8.20069 35.2544 8.50049C35.268 8.51933 35.2776 8.52797 35.2829 8.53172C35.2887 8.52887 35.3008 8.52138 35.3195 8.50211C35.3878 8.43166 35.4653 8.28506 35.5399 8.09559C35.6122 7.91172 35.6749 7.70577 35.7202 7.53356C35.7669 7.35591 35.7911 7.22932 35.7928 7.19811C35.7958 7.14193 35.7995 7.08793 35.8032 7.03562C35.8196 6.80026 35.8336 6.59909 35.7666 6.38772C35.7552 6.35174 35.7466 6.3096 35.7393 6.27398C35.7387 6.27126 35.7382 6.26858 35.7376 6.26594C35.7293 6.22528 35.7216 6.18892 35.7114 6.15599C35.6888 6.08283 35.6686 6.07386 35.663 6.07222C35.567 6.04405 35.4782 6.07434 35.3855 6.15235C35.2901 6.23249 35.2089 6.34881 35.1418 6.4529C35.1204 6.48606 35.0869 6.50651 35.051 6.51219ZM35.2876 8.53435C35.2876 8.53441 35.2871 8.53429 35.2862 8.53379C35.2872 8.53403 35.2876 8.53428 35.2876 8.53435Z" fill="#FCFCFC"/>
<path fill-rule="evenodd" clip-rule="evenodd" d="M37.0277 1.38557C37.1591 1.2751 37.3378 1.19174 37.5498 1.25397C37.6937 1.29623 37.7507 1.42802 37.7775 1.51508C37.7921 1.56225 37.8022 1.61085 37.8102 1.65034L37.8103 1.65073C37.8191 1.69347 37.8251 1.72282 37.8321 1.74486C37.9161 2.00979 37.8971 2.27154 37.8799 2.50915C37.8764 2.55749 37.8729 2.60483 37.8705 2.65099C37.8671 2.71413 37.8351 2.86706 37.7894 3.04045C37.7424 3.21929 37.6766 3.43591 37.5993 3.6325C37.5242 3.82349 37.4308 4.01524 37.322 4.12738C37.2677 4.18337 37.1898 4.23995 37.0916 4.23909C36.9876 4.23818 36.9083 4.17427 36.8519 4.09587C36.5899 3.73199 36.5019 3.26399 36.5024 2.80555C36.5028 2.34534 36.5924 1.87975 36.7008 1.5056C36.7213 1.43472 36.795 1.39401 36.8654 1.41468C36.8971 1.42397 36.9227 1.44407 36.9394 1.46982C36.9671 1.44024 36.9965 1.41177 37.0277 1.38557ZM36.8635 1.95063C36.8066 2.22167 36.7682 2.5164 36.7679 2.80583C36.7675 3.23576 36.851 3.63913 37.0669 3.93893C37.0805 3.95778 37.0901 3.96641 37.0954 3.97017C37.1012 3.96732 37.1133 3.95983 37.132 3.94056C37.2003 3.87011 37.2778 3.72351 37.3524 3.53404C37.4247 3.35017 37.4874 3.14422 37.5327 2.97201C37.5794 2.79435 37.6036 2.66777 37.6053 2.63656C37.6083 2.58038 37.612 2.52638 37.6157 2.47406C37.6321 2.23871 37.6461 2.03754 37.5791 1.82616C37.5677 1.79018 37.5591 1.74805 37.5518 1.71243C37.5512 1.70971 37.5507 1.70703 37.5501 1.70439C37.5418 1.66373 37.5341 1.62737 37.5239 1.59443C37.5013 1.52128 37.4811 1.51231 37.4755 1.51067C37.3795 1.4825 37.2907 1.51278 37.198 1.5908C37.1026 1.67094 37.0214 1.78725 36.9543 1.89134C36.9329 1.9245 36.8994 1.94496 36.8635 1.95063ZM37.1001 3.97279C37.1001 3.97286 37.0996 3.97273 37.0987 3.97224C37.0997 3.97248 37.1001 3.97273 37.1001 3.97279Z" fill="#FCFCFC"/>
<path fill-rule="evenodd" clip-rule="evenodd" d="M37.4872 5.94712C37.6186 5.83666 37.7973 5.75329 38.0093 5.81553C38.1532 5.85778 38.2101 5.98958 38.237 6.07664C38.2516 6.12381 38.2616 6.17241 38.2697 6.21189L38.2698 6.21228C38.2786 6.25503 38.2846 6.28438 38.2916 6.30641C38.3756 6.57135 38.3566 6.83309 38.3394 7.0707C38.3358 7.11904 38.3324 7.16638 38.3299 7.21254C38.3265 7.27568 38.2945 7.42861 38.2489 7.602C38.2019 7.78084 38.1361 7.99747 38.0588 8.19406C37.9836 8.38505 37.8903 8.57679 37.7815 8.68893C37.7272 8.74492 37.6493 8.8015 37.5511 8.80064C37.4471 8.79973 37.3678 8.73582 37.3114 8.65743C37.0493 8.29355 36.9613 7.82554 36.9618 7.36711C36.9623 6.9069 37.0519 6.4413 37.1602 6.06715C37.1808 5.99627 37.2545 5.95556 37.3249 5.97623C37.3565 5.98552 37.3821 6.00562 37.3988 6.03137C37.4266 6.00179 37.456 5.97332 37.4872 5.94712ZM37.323 6.51219C37.2661 6.78322 37.2277 7.07795 37.2274 7.36739C37.227 7.79731 37.3105 8.20069 37.5264 8.50049C37.54 8.51933 37.5495 8.52797 37.5548 8.53172C37.5606 8.52887 37.5728 8.52138 37.5915 8.50211C37.6598 8.43166 37.7373 8.28506 37.8118 8.09559C37.8842 7.91172 37.9469 7.70577 37.9922 7.53356C38.0389 7.35591 38.0631 7.22932 38.0647 7.19811C38.0677 7.14193 38.0715 7.08793 38.0752 7.03562C38.0916 6.80026 38.1056 6.59909 38.0386 6.38772C38.0271 6.35174 38.0185 6.3096 38.0113 6.27398C38.0107 6.27126 38.0102 6.26858 38.0096 6.26594C38.0013 6.22528 37.9935 6.18892 37.9834 6.15599C37.9608 6.08283 37.9405 6.07386 37.9349 6.07222C37.839 6.04405 37.7502 6.07434 37.6574 6.15235C37.5621 6.23249 37.4809 6.34881 37.4138 6.4529C37.3924 6.48606 37.3589 6.50651 37.323 6.51219ZM37.5596 8.53435C37.5596 8.53441 37.5591 8.53429 37.5581 8.53379C37.5591 8.53403 37.5596 8.53428 37.5596 8.53435Z" fill="#FCFCFC"/>
</svg>
