<svg width="149" height="117" viewBox="0 0 149 117" fill="none" xmlns="http://www.w3.org/2000/svg">
<path d="M117.942 72.8842C117.929 74.9664 117.903 77.0614 117.89 79.1436C117.89 79.6577 117.877 80.1718 117.877 80.6731C117.877 81.0201 117.8 81.4571 117.942 81.7913C118.161 82.3568 118.897 82.2026 119.168 82.6781C119.194 82.5882 119.22 82.4982 119.233 82.4082C118.29 82.8709 118.045 83.912 117.967 84.876C117.903 85.8014 117.864 87.2923 119.078 87.4723C119.065 87.3566 119.052 87.2409 119.026 87.1252C117.193 87.9607 117.929 91.2253 118.703 92.5363C119.271 93.5002 120.11 94.2843 120.975 94.9783C121.466 95.3768 121.956 95.7495 122.46 96.1351C122.757 96.3664 123.054 96.5849 123.338 96.8163C123.493 96.932 124.151 97.2918 124.177 97.5103C124.229 97.4461 124.267 97.3818 124.319 97.3304H124.345C124.371 97.4204 124.396 97.5104 124.409 97.6003C124.422 97.5875 124.422 97.5746 124.435 97.5618C124.538 97.3433 124.216 97.1505 124.099 97.369C124.087 97.3818 124.087 97.3947 124.074 97.4075C124.022 97.5104 124.048 97.6003 124.138 97.6774C124.229 97.7546 124.293 97.7546 124.409 97.716C124.487 97.6903 124.564 97.6132 124.551 97.5361C124.5 97.1376 124.099 96.9577 123.79 96.7263C123.338 96.3664 122.873 96.0194 122.421 95.6595C121.569 95.004 120.704 94.3485 119.968 93.5774C119.142 92.7162 118.574 91.7137 118.406 90.5184C118.264 89.5416 118.135 87.9735 119.22 87.4723C119.362 87.408 119.336 87.1381 119.168 87.1252C118.135 86.971 118.277 85.5058 118.355 84.7217C118.432 83.9506 118.652 83.1408 119.413 82.7681C119.504 82.7167 119.529 82.5882 119.478 82.4982C119.207 82.0355 118.548 82.1255 118.303 81.7142C118.109 81.4057 118.239 80.6859 118.251 80.3132C118.251 79.7991 118.264 79.285 118.264 78.7837C118.277 76.8301 118.29 74.8636 118.316 72.9099C118.329 72.64 117.942 72.6272 117.942 72.8842Z" fill="#D0E0EB"/>
<path d="M118.148 72.987C119.956 73.077 121.221 74.4522 122.305 75.7375C122.821 76.3545 123.364 76.9328 123.893 77.5112C124.435 78.0896 125.145 79.2592 124.164 79.8247C123.996 79.9276 124.074 80.1846 124.267 80.1846C125.765 80.2232 126.423 82.0354 126.888 83.1793C127.443 84.5674 127.882 85.9941 128.205 87.4465C128.863 90.4284 128.992 93.5002 128.618 96.5206C128.592 96.7648 128.979 96.7648 129.005 96.5206C129.405 93.1532 129.199 89.7343 128.36 86.4568C127.972 84.9145 127.456 83.3593 126.759 81.9197C126.268 80.8915 125.507 79.8247 124.267 79.799C124.306 79.9147 124.332 80.0432 124.371 80.1589C126.255 79.0793 123.919 77.0228 123.157 76.136C121.802 74.5679 120.433 72.7042 118.161 72.5886C117.903 72.5886 117.903 72.9741 118.148 72.987Z" fill="#D0E0EB"/>
<path d="M124.629 77.614C125.532 74.4265 126.797 71.3547 128.424 68.4628C128.334 68.4885 128.243 68.5142 128.153 68.527C128.502 68.7327 128.863 68.9383 129.212 69.144C129.392 69.2468 129.56 69.0411 129.483 68.874C128.553 67.0232 131.342 65.8408 132.284 64.7354C132.207 64.7483 132.129 64.7611 132.052 64.7611C132.232 64.864 132.426 64.9668 132.607 65.0696C132.697 65.121 132.813 65.0953 132.878 65.0053C133.911 63.2573 135.731 62.2805 137.487 61.3808C137.396 61.3037 137.293 61.2394 137.203 61.1623C136.648 62.9746 137.525 64.9539 137.693 66.7662C137.784 67.743 137.796 68.7327 137.719 69.7223C137.68 70.2107 137.719 70.9434 137.525 71.3804C137.525 71.7017 137.345 71.8816 136.97 71.9459C136.854 71.9587 136.751 71.9716 136.635 71.9844C136.376 72.0102 136.105 72.0359 135.847 72.0616C135.744 72.0744 135.641 72.1387 135.653 72.2544C135.666 72.5114 135.744 72.5885 135.937 72.7556C136.183 72.9613 136.376 72.987 136.493 73.3468C136.557 73.5396 136.557 73.7581 136.557 73.9509C136.544 74.992 136.389 76.0588 136.209 77.087C136.028 78.0896 135.77 79.0792 135.46 80.0432C135.189 80.8529 134.827 82.0611 133.82 82.1896C133.691 82.2025 133.562 82.3439 133.652 82.4852C134.401 83.6292 133.291 85.0173 132.749 86.0069C132.155 87.0609 131.613 88.1405 131.109 89.233C130.102 91.4051 129.276 93.6544 128.605 95.9551C128.54 96.1993 128.915 96.3021 128.979 96.0579C129.741 93.4102 130.735 90.8396 131.948 88.3719C132.516 87.2023 133.201 86.0969 133.794 84.9401C134.221 84.1047 134.556 83.1279 134.001 82.2796C133.949 82.3824 133.885 82.4724 133.833 82.5752C134.595 82.4852 135.085 81.9454 135.421 81.2899C135.925 80.2874 136.196 79.1306 136.441 78.0381C136.712 76.83 136.893 75.5961 136.957 74.3622C136.983 73.9509 137.022 73.4882 136.841 73.1026C136.738 72.8456 136.079 72.4472 136.067 72.2672C136.002 72.3315 135.937 72.3957 135.873 72.46C136.596 72.3829 137.629 72.5628 137.874 71.7402C138.197 70.712 138.184 69.4396 138.171 68.3856C138.171 67.2546 138.055 66.1364 137.848 65.031C137.616 63.7843 137.203 62.5376 137.59 61.278C137.642 61.1109 137.448 60.9824 137.306 61.0595C135.486 61.9978 133.614 63.0131 132.555 64.8254C132.646 64.7997 132.736 64.774 132.826 64.7611C132.646 64.6583 132.452 64.5555 132.271 64.4527C132.207 64.4141 132.09 64.4141 132.039 64.4784C130.954 65.7508 128.101 66.959 129.173 69.0797C129.263 68.9897 129.354 68.8998 129.444 68.8098C129.095 68.6041 128.734 68.3985 128.385 68.1928C128.295 68.1414 128.166 68.1671 128.114 68.2571C126.488 71.1876 125.197 74.2851 124.28 77.4983C124.177 77.7554 124.551 77.8582 124.629 77.614Z" fill="#D0E0EB"/>
<path d="M115.502 64.4785C113.333 64.6327 112.184 62.1007 112.545 60.2756C112.894 58.489 114.65 57.2294 116.444 57.2809C118.807 57.3323 120.02 59.6329 119.594 61.7794C119.22 63.6944 117.283 65.1083 115.347 64.3499C115.114 64.26 115.011 64.6327 115.244 64.7227C116.793 65.3268 118.6 64.6199 119.452 63.2189C120.356 61.728 120.252 59.5944 119.207 58.2063C118.148 56.7924 116.121 56.5997 114.585 57.2809C113.049 57.9492 112.042 59.453 112.081 61.1239C112.119 62.949 113.475 65.0054 115.489 64.8641C115.747 64.8512 115.76 64.4656 115.502 64.4785Z" fill="#D0E0EB"/>
<path d="M135.318 36.2406C134.57 37.6288 133.705 38.9398 132.724 40.1736C132.569 40.3664 132.84 40.6363 132.995 40.4435C134.002 39.184 134.892 37.8473 135.654 36.4334C135.77 36.2149 135.435 36.0221 135.318 36.2406Z" fill="#D0E0EB"/>
<path d="M135.305 36.5492C135.77 37.7702 136.261 38.9913 136.764 40.1994C136.855 40.4308 137.229 40.328 137.139 40.0966C136.635 38.8884 136.145 37.6674 135.68 36.4464C135.589 36.215 135.215 36.3179 135.305 36.5492Z" fill="#D0E0EB"/>
<path d="M135.215 36.729C135.124 41.5103 134.505 46.2658 133.356 50.9057C133.291 51.1499 133.665 51.2527 133.73 51.0085C134.892 46.3301 135.512 41.5488 135.602 36.729C135.615 36.4719 135.227 36.4719 135.215 36.729Z" fill="#D0E0EB"/>
<path d="M137.448 44.5822C137.784 47.3327 137.707 50.1089 137.203 52.8337C137.164 53.078 137.526 53.1808 137.577 52.9366C138.081 50.1732 138.171 47.3713 137.836 44.5822C137.797 44.338 137.41 44.338 137.448 44.5822Z" fill="#D0E0EB"/>
<path d="M135.963 49.929C136.415 50.9572 137.203 51.8955 137.254 53.0522C137.267 53.245 137.512 53.3222 137.616 53.1551C138.068 52.371 138.532 51.587 138.984 50.803C139.113 50.5845 138.778 50.3917 138.649 50.6102C138.197 51.3942 137.732 52.1783 137.28 52.9623C137.396 53.0008 137.525 53.0265 137.642 53.0651C137.59 51.8184 136.777 50.8544 136.299 49.7491C136.196 49.5049 135.86 49.6976 135.963 49.929Z" fill="#D0E0EB"/>
<path d="M47.8812 115.003C55.6657 114.284 63.4632 113.345 71.2735 113.024C79.1484 112.703 87.062 112.908 94.9368 113.114C99.4552 113.23 103.974 113.448 108.466 113.872C108.711 113.898 108.711 113.512 108.466 113.487C100.565 112.741 92.6389 112.651 84.7124 112.561C80.7362 112.51 76.7601 112.471 72.7968 112.6C68.9368 112.716 65.0898 113.037 61.2427 113.384C56.7889 113.795 52.3351 114.207 47.8812 114.618C47.6359 114.631 47.6359 115.016 47.8812 115.003Z" fill="#D0E0EB"/>
<path d="M88.3917 109.323C91.632 109.927 94.8336 109.901 98.0998 109.605C101.456 109.297 104.8 109.104 108.169 108.95C114.934 108.654 121.699 108.384 128.45 108.101C132.31 107.934 136.17 107.78 140.03 107.613C140.276 107.6 140.276 107.215 140.03 107.227C133.253 107.51 126.488 107.793 119.71 108.076C113.049 108.359 106.349 108.5 99.7006 109.065C97.8932 109.22 96.0859 109.425 94.2785 109.451C92.3421 109.477 90.4056 109.297 88.495 108.937C88.2497 108.911 88.1464 109.284 88.3917 109.323Z" fill="#D0E0EB"/>
<path d="M0.554484 106.598C6.57037 106.765 12.5863 106.739 18.6022 106.52C18.8474 106.508 18.8474 106.122 18.6022 106.135C12.5863 106.353 6.57037 106.379 0.554484 106.212C0.296292 106.199 0.296292 106.585 0.554484 106.598Z" fill="#D0E0EB"/>
<path d="M7.12549 111.765C9.32013 111.302 11.6439 111.597 13.8643 111.7C16.0977 111.816 18.3181 111.919 20.5515 112.034C25.0957 112.266 29.627 112.497 34.1712 112.716C34.4164 112.728 34.4164 112.343 34.1712 112.33C29.5495 112.099 24.915 111.867 20.2933 111.636C17.9825 111.52 15.6717 111.405 13.3608 111.289C11.2566 111.186 9.11358 110.942 7.03513 111.392C6.78984 111.443 6.89312 111.816 7.12549 111.765Z" fill="#D0E0EB"/>
<path d="M41.9301 101.971C49.9082 102.51 57.7573 100.454 65.7225 100.48C65.9678 100.48 65.9678 100.094 65.7225 100.094C57.7573 100.068 49.9082 102.112 41.9301 101.585C41.6848 101.559 41.6848 101.958 41.9301 101.971Z" fill="#D0E0EB"/>
<path d="M35.9523 62.0235C36.0169 61.805 36.0814 61.5865 36.1847 61.3808C36.2493 61.2909 36.3009 61.2137 36.3655 61.1238C36.6366 61.0981 36.9206 61.0595 37.1917 61.0338C37.2691 61.0852 37.3337 61.2394 37.3853 61.3166C37.579 61.5865 37.7855 61.8178 38.0824 61.9978C38.6505 62.3319 39.3347 62.4091 39.9414 62.1777C41.5293 61.5993 42.1232 59.5043 44.0596 59.71C44.576 59.7614 45.0665 59.967 45.4409 60.3269C45.7249 60.5968 45.9444 60.931 46.2413 61.188C46.7706 61.625 47.429 61.6893 48.0616 61.4579C48.8362 61.188 49.43 60.6097 50.0109 60.057C50.7984 59.3244 51.9474 58.4375 52.9931 59.2215C53.6773 59.7228 54.0775 60.494 54.9295 60.7639C55.7299 61.0209 56.5819 60.8667 57.2532 60.3654C57.4469 60.2241 57.2532 59.877 57.0596 60.0313C56.1301 60.7253 54.9682 60.6097 54.1549 59.7999C53.6127 59.273 53.148 58.6175 52.3476 58.5275C50.4628 58.2961 49.4816 60.5839 47.8808 61.1109C46.6673 61.5094 46.2671 60.4297 45.4667 59.8385C44.8729 59.4015 44.1241 59.2215 43.3883 59.3372C42.6137 59.4529 42.0199 59.9156 41.4777 60.4426C40.8451 61.0724 40.1738 61.9335 39.1927 61.9335C38.5343 61.9335 38.0308 61.5736 37.6693 61.0595C37.4628 60.7767 37.295 60.5454 36.9206 60.5068C36.1073 60.4297 35.7587 61.278 35.5651 61.9078C35.5005 62.152 35.8749 62.2548 35.9523 62.0235Z" fill="#D0E0EB"/>
<path d="M55.8593 55.3785C56.3241 54.029 57.9507 55.1729 58.5704 55.6741C59.1126 56.1111 59.7451 56.561 60.481 56.5353C61.6945 56.4839 62.34 55.25 63.334 54.7359C64.7153 54.029 65.5545 55.8669 66.8971 55.687C67.4909 55.6099 67.8007 55.1343 68.1751 54.723C68.5753 54.286 68.9884 54.286 69.5565 54.4146C70.0858 54.5431 70.628 54.6716 71.1572 54.8001C71.4025 54.8644 71.5058 54.4917 71.2605 54.4274C70.7312 54.2989 70.189 54.1703 69.6597 54.0418C69.2983 53.9519 68.9368 53.849 68.5753 53.9519C67.8653 54.1704 67.6587 55.1086 66.9487 55.2757C66.187 55.4556 65.4383 54.6074 64.7799 54.3374C64.2248 54.1061 63.6826 54.1061 63.1533 54.3889C62.5853 54.6845 62.1592 55.1857 61.6558 55.5842C61.3201 55.8541 60.9457 56.0983 60.5068 56.124C59.8355 56.1625 59.2804 55.6998 58.7898 55.3143C58.196 54.8516 57.5634 54.2989 56.7501 54.3631C56.1692 54.4017 55.6915 54.7102 55.4979 55.2628C55.4075 55.507 55.7819 55.6099 55.8593 55.3785Z" fill="#D0E0EB"/>
<path d="M114.224 17.8739C114.108 20.2774 114.03 22.6938 114.004 25.1101C114.004 25.3543 114.392 25.3543 114.392 25.1101C114.418 22.6938 114.495 20.2903 114.611 17.8739C114.624 17.6297 114.237 17.6297 114.224 17.8739Z" fill="#D0E0EB"/>
<path d="M114.482 18.0539C117.464 17.6426 120.498 17.2441 123.467 17.9382C123.713 17.9896 123.816 17.6297 123.571 17.5654C120.537 16.8457 117.426 17.257 114.379 17.6811C114.134 17.7068 114.237 18.0796 114.482 18.0539Z" fill="#D0E0EB"/>
<path d="M123.222 18.0666C123.286 22.9507 123.196 27.8477 122.938 32.7318C122.925 32.976 123.312 32.976 123.325 32.7318C123.583 27.8477 123.674 22.9636 123.609 18.0666C123.609 17.8224 123.222 17.8224 123.222 18.0666Z" fill="#D0E0EB"/>
<path d="M114.327 31.4208C114.391 32.0378 114.417 32.6804 114.533 33.2845C114.598 33.5801 114.701 33.7858 114.959 33.9657C115.773 34.4927 117.09 34.1842 117.98 34.1328C119.245 34.0557 120.524 33.9786 121.789 33.9014C122.357 33.8629 123.26 33.7086 122.912 32.9246C122.809 32.6933 122.473 32.8989 122.576 33.1174C122.641 33.2588 121.918 33.4901 121.789 33.5159C121.582 33.5544 121.363 33.5416 121.156 33.5544C120.782 33.5801 120.394 33.6058 120.02 33.6187C119.258 33.6701 118.497 33.7086 117.735 33.7601C117.038 33.7986 116.263 33.94 115.566 33.7858C114.688 33.5801 114.805 32.1663 114.714 31.4337C114.688 31.1766 114.301 31.1766 114.327 31.4208Z" fill="#D0E0EB"/>
<path d="M111.977 30.9453C110.841 32.6034 109.666 34.2357 108.479 35.8551C108.44 35.9065 108.44 35.9965 108.479 36.0479C108.685 36.3692 109.034 36.4978 109.408 36.3821C109.963 36.215 110.234 35.5852 110.518 35.1482C110.983 34.4285 111.513 33.7473 112.081 33.0918C112.326 32.8219 112.571 32.5519 112.829 32.2949C113.126 31.9993 113.63 31.3695 114.056 31.3052C114.301 31.2667 114.198 30.8939 113.952 30.9325C113.565 30.9967 113.307 31.3052 113.023 31.5623C112.649 31.9093 112.287 32.2692 111.939 32.6548C111.267 33.4002 110.648 34.1971 110.105 35.0325C109.95 35.2639 109.821 35.5467 109.628 35.7523C109.421 36.0479 109.202 36.0736 108.943 35.8294C109.021 35.7266 109.098 35.6238 109.163 35.521C109.512 35.0454 109.86 34.5698 110.196 34.0943C110.906 33.1046 111.603 32.1149 112.287 31.1124C112.455 30.9325 112.119 30.7397 111.977 30.9453Z" fill="#D0E0EB"/>
<path d="M113.992 31.4209C115.593 31.4594 117.129 30.4955 117.761 29.0302C118.329 27.7064 118.02 25.9841 116.819 25.1101C115.438 24.1204 113.669 24.8659 112.598 25.9455C111.965 26.5882 111.436 27.3979 111.307 28.2976C111.255 28.6575 111.268 29.0174 111.358 29.3644C111.41 29.5701 111.487 29.7628 111.591 29.9428C111.616 29.9942 112.21 30.8296 111.952 30.8168C111.707 30.7911 111.707 31.1767 111.952 31.2024C112.352 31.2409 112.559 30.8811 112.443 30.5212C112.352 30.2256 112.068 30.0199 111.913 29.75C111.681 29.3259 111.629 28.8374 111.694 28.3619C111.913 26.7167 113.669 24.9944 115.373 25.0201C117.051 25.033 117.929 26.8967 117.581 28.3619C117.193 29.9556 115.618 31.0738 113.992 31.0224C113.734 31.0353 113.734 31.4209 113.992 31.4209Z" fill="#D0E0EB"/>
<path d="M115.825 19.4163L115.812 19.4034V19.6734C115.98 19.4806 117.142 19.4934 117.452 19.4549C117.942 19.4034 118.446 19.3649 118.936 19.3392C119.427 19.3135 119.93 19.2878 120.434 19.2749C120.653 19.2749 121.802 19.3777 121.88 19.1721C121.789 19.4034 122.164 19.5063 122.254 19.2749C122.267 19.2492 122.267 19.2364 122.28 19.2106C122.306 19.1464 122.28 19.0693 122.228 19.0179C121.944 18.7351 121.428 18.8636 121.053 18.8636C120.343 18.8636 119.646 18.8893 118.936 18.9407C118.278 18.9793 117.619 19.0436 116.948 19.1078C116.612 19.1464 115.773 19.095 115.528 19.3777C115.463 19.4548 115.451 19.5705 115.528 19.6476L115.541 19.6605C115.735 19.8661 116.006 19.5834 115.825 19.4163Z" fill="#D0E0EB"/>
<path d="M115.644 21.2928C116.948 21.4727 118.213 21.4213 119.517 21.3699C119.762 21.357 119.762 20.9714 119.517 20.9843C118.239 21.0357 117.012 21.0871 115.747 20.92C115.502 20.8943 115.398 21.2671 115.644 21.2928Z" fill="#D0E0EB"/>
<path d="M114.766 22.7452C114.727 22.7837 114.688 22.8351 114.65 22.8737C114.534 23.0022 114.611 23.195 114.792 23.2079C117.038 23.2464 119.284 23.1436 121.518 22.8994C121.763 22.8737 121.763 22.4881 121.518 22.5138C119.284 22.758 117.038 22.8608 114.792 22.8223C114.843 22.938 114.882 23.0408 114.934 23.1564C114.972 23.1179 115.011 23.0665 115.05 23.0279C115.205 22.8351 114.934 22.5652 114.766 22.7452Z" fill="#D0E0EB"/>
<path d="M117.541 24.853C118.716 24.943 119.891 24.8916 121.053 24.6988C121.298 24.6602 121.195 24.2875 120.949 24.326C119.813 24.506 118.677 24.5574 117.541 24.4674C117.283 24.4546 117.283 24.8402 117.541 24.853Z" fill="#D0E0EB"/>
<path d="M114.392 30.0585C113.346 30.1099 112.455 29.1973 112.791 28.1434C113.049 27.308 114.017 26.4211 114.895 26.2797C115.321 26.2155 115.786 26.3183 116.109 26.6139C116.586 27.0509 116.457 27.6935 116.238 28.2205C115.863 29.1459 115.179 29.9813 114.133 30.097C113.888 30.1227 113.888 30.5083 114.133 30.4826C115.476 30.3412 116.431 29.1973 116.754 27.9377C117.064 26.7553 116.186 25.7785 114.96 25.8813C113.824 25.9841 112.571 27.128 112.365 28.2462C112.145 29.4929 113.165 30.5083 114.392 30.4441C114.637 30.4312 114.637 30.0456 114.392 30.0585Z" fill="#D0E0EB"/>
<path d="M114.611 26.4468C114.095 27.5521 113.617 28.6703 113.191 29.8014C113.101 30.0327 113.475 30.1356 113.566 29.9042C113.992 28.7989 114.443 27.7064 114.947 26.6396C115.05 26.4082 114.727 26.2154 114.611 26.4468Z" fill="#D0E0EB"/>
<path d="M115.205 27.5522C114.869 28.2462 114.547 28.9403 114.211 29.6344C114.108 29.8529 114.443 30.0585 114.547 29.8271C114.882 29.1331 115.205 28.439 115.541 27.745C115.644 27.5265 115.321 27.3208 115.205 27.5522Z" fill="#D0E0EB"/>
<path d="M19.2349 6.5634V10.0851C19.2349 10.3293 19.6222 10.3293 19.6222 10.0851C19.6222 8.91548 19.6222 7.73301 19.6222 6.5634C19.6222 6.3192 19.2349 6.3192 19.2349 6.5634Z" fill="#D0E0EB"/>
<path d="M19.4799 10.2522H22.7589C23.0042 10.2522 23.0042 9.86658 22.7589 9.86658C21.6616 9.86658 20.5772 9.86658 19.4799 9.86658C19.2346 9.86658 19.2346 10.2522 19.4799 10.2522Z" fill="#D0E0EB"/>
<path d="M22.9913 9.84083C22.9913 8.56839 22.9913 7.2831 22.9913 6.01067C22.9913 5.76646 22.604 5.76646 22.604 6.01067V9.84083C22.604 10.085 22.9913 10.085 22.9913 9.84083Z" fill="#D0E0EB"/>
<path d="M22.8495 5.76654C21.7264 5.76654 20.6033 5.76654 19.493 5.76654C19.2478 5.76654 19.2478 6.15213 19.493 6.15213H22.8495C23.0948 6.15213 23.0948 5.76654 22.8495 5.76654Z" fill="#D0E0EB"/>
<path d="M20.8745 10.4578V14.3779C20.8745 14.6221 21.2618 14.6221 21.2618 14.3779C21.2618 13.0669 21.2618 11.7687 21.2618 10.4578C21.2618 10.2135 20.8745 10.2135 20.8745 10.4578Z" fill="#D0E0EB"/>
<path d="M16.3302 14.3265C17.7632 12.9641 19.2607 11.6531 20.8099 10.4064C21.0035 10.2522 20.7324 9.98227 20.5388 10.1365C18.9896 11.3832 17.505 12.6814 16.0591 14.0566C15.8784 14.2237 16.1495 14.4936 16.3302 14.3265Z" fill="#D0E0EB"/>
<path d="M21.2872 10.5348C22.8364 11.7044 24.3856 12.8741 25.9347 14.0437C26.1284 14.1979 26.322 13.8637 26.1284 13.7095C24.5792 12.5399 23.03 11.3703 21.4809 10.2007C21.2872 10.0464 21.0936 10.3806 21.2872 10.5348Z" fill="#D0E0EB"/>
<path d="M14.8324 14.7893H17.4014C17.6467 14.7893 17.6467 14.4037 17.4014 14.4037C16.5494 14.4037 15.6973 14.4037 14.8324 14.4037C14.5871 14.4037 14.5871 14.7893 14.8324 14.7893Z" fill="#D0E0EB"/>
<path d="M17.1694 14.8663V17.7711C17.1694 18.0153 17.5567 18.0153 17.5567 17.7711C17.5567 16.8071 17.5567 15.8303 17.5567 14.8663C17.5567 14.6093 17.1694 14.6093 17.1694 14.8663Z" fill="#D0E0EB"/>
<path d="M14.5488 14.6863V18.0795C14.5488 18.3237 14.9361 18.3237 14.9361 18.0795C14.9361 16.9484 14.9361 15.8174 14.9361 14.6863C14.9361 14.4293 14.5488 14.4293 14.5488 14.6863Z" fill="#D0E0EB"/>
<path d="M14.703 18.3109H17.0913C17.3366 18.3109 17.3366 17.9253 17.0913 17.9253C16.2909 17.9253 15.5034 17.9253 14.703 17.9253C14.4577 17.9253 14.4577 18.3109 14.703 18.3109Z" fill="#D0E0EB"/>
<path d="M19.6865 14.7764V18.1181C19.6865 18.3623 20.0738 18.3623 20.0738 18.1181C20.0738 16.9999 20.0738 15.8817 20.0738 14.7764C20.0738 14.5193 19.6865 14.5193 19.6865 14.7764Z" fill="#D0E0EB"/>
<path d="M19.8803 18.2209H22.2298C22.4751 18.2209 22.4751 17.8353 22.2298 17.8353C21.4423 17.8353 20.6677 17.8353 19.8803 17.8353C19.635 17.8353 19.635 18.2209 19.8803 18.2209Z" fill="#D0E0EB"/>
<path d="M20.0092 14.9691H22.0876C22.3329 14.9691 22.3329 14.5836 22.0876 14.5836C21.3905 14.5836 20.7063 14.5836 20.0092 14.5836C19.7639 14.5836 19.7639 14.9691 20.0092 14.9691Z" fill="#D0E0EB"/>
<path d="M21.9458 14.7249V17.8996C21.9458 18.1438 22.3331 18.1438 22.3331 17.8996C22.3331 16.8456 22.3331 15.7917 22.3331 14.7249C22.3331 14.4807 21.9458 14.4807 21.9458 14.7249Z" fill="#D0E0EB"/>
<path d="M25.1598 14.7249C25.121 15.5603 25.0952 16.3958 25.0952 17.2312C25.0952 17.4754 25.4825 17.4754 25.4825 17.2312C25.4825 16.3958 25.5083 15.5603 25.5471 14.7249C25.56 14.4807 25.1727 14.4807 25.1598 14.7249Z" fill="#D0E0EB"/>
<path d="M25.328 14.8149C26.18 14.7249 27.0321 14.6221 27.8841 14.5321C28.1294 14.5064 28.1294 14.1208 27.8841 14.1466C27.0321 14.2365 26.18 14.3393 25.328 14.4293C25.0827 14.455 25.0698 14.8406 25.328 14.8149Z" fill="#D0E0EB"/>
<path d="M27.7551 14.4166C27.6647 15.2777 27.6906 16.126 27.8455 16.9743C27.8842 17.2185 28.2586 17.1157 28.2199 16.8715C28.0778 16.0489 28.052 15.2391 28.1424 14.4166C28.1682 14.1723 27.7809 14.1723 27.7551 14.4166Z" fill="#D0E0EB"/>
<path d="M25.4574 17.5654L28.0135 17.1798C28.2588 17.1413 28.1555 16.7686 27.9102 16.8071C27.0582 16.9356 26.2062 17.0642 25.3541 17.1927C25.1088 17.2313 25.2121 17.5911 25.4574 17.5654Z" fill="#D0E0EB"/>
<path d="M20.8227 18.3367C20.3451 19.0565 19.932 19.8148 19.5576 20.5859C19.4543 20.8044 19.79 21.0101 19.8932 20.7787C20.2676 19.9947 20.6936 19.2493 21.1584 18.5295C21.2875 18.3238 20.9518 18.1311 20.8227 18.3367Z" fill="#D0E0EB"/>
<path d="M20.9386 18.4909C21.4163 19.1335 21.8294 19.8018 22.1779 20.5088C22.2941 20.7273 22.6298 20.5345 22.5136 20.316C22.1521 19.6091 21.739 18.9279 21.2743 18.2981C21.1323 18.0924 20.7966 18.2852 20.9386 18.4909Z" fill="#D0E0EB"/>
<path d="M18.8607 21.087C19.1318 21.087 19.4029 21.087 19.6869 21.0998C19.816 21.0998 19.9322 21.1127 20.0613 21.1255C20.2937 21.1384 20.2679 21.0613 20.3066 21.2669C20.397 21.7553 20.2937 22.3851 20.255 22.8864C20.2291 23.1306 20.6164 23.1306 20.6422 22.8864C20.6681 22.5008 20.6939 22.1024 20.6939 21.7168C20.6939 21.4983 20.7584 21.1384 20.6422 20.9327C20.5261 20.7399 20.255 20.7657 20.0613 20.7528C19.6611 20.7271 19.2609 20.7142 18.8607 20.7142C18.6154 20.7014 18.6154 21.087 18.8607 21.087Z" fill="#D0E0EB"/>
<path d="M18.6018 21.0742C18.6405 21.5241 18.6793 21.9611 18.718 22.4109C18.7438 22.7708 18.6922 23.2978 18.8342 23.6448C18.8858 23.7862 18.9504 23.8376 19.0924 23.8633C19.428 23.9276 19.9315 23.7605 20.2672 23.7091C20.5124 23.6705 20.4092 23.3106 20.1639 23.3363C19.9315 23.362 19.57 23.5034 19.3506 23.452C19.1053 23.3878 19.1569 23.0536 19.144 22.7965C19.0924 22.2181 19.0407 21.6526 18.9891 21.0742C18.9633 20.83 18.576 20.8172 18.6018 21.0742Z" fill="#D0E0EB"/>
<path d="M21.5194 21.0229C21.4936 21.3957 21.4807 21.7812 21.4936 22.154C21.4936 22.2439 21.6098 23.0922 21.5711 23.1179C21.6356 23.1051 21.7001 23.0794 21.7647 23.0665C21.7518 23.0665 21.7389 23.0537 21.7131 23.0537C21.7647 23.1179 21.8034 23.1822 21.8551 23.2336C21.8551 23.2208 21.8551 23.2079 21.8551 23.1822C21.8034 23.2465 21.7647 23.3107 21.7131 23.3621C21.726 23.3621 21.7389 23.3621 21.7518 23.3493C21.9971 23.2979 21.8938 22.9251 21.6485 22.9766C21.6356 22.9766 21.6227 22.9766 21.6098 22.9894C21.5194 23.0023 21.4678 23.0922 21.4678 23.1693V23.2208C21.4678 23.2979 21.5323 23.3878 21.6098 23.4007C21.9454 23.465 21.9454 23.1565 21.9325 22.9123C21.8809 22.2696 21.8551 21.6399 21.9067 20.9844C21.9196 20.7659 21.5323 20.7787 21.5194 21.0229Z" fill="#D0E0EB"/>
<path d="M21.752 21.1128C21.752 21.0228 22.5783 20.9971 22.6944 21.0099C23.0172 21.0614 22.9526 21.0871 23.0043 21.3184C23.043 21.4727 22.9914 21.6912 22.9785 21.8454C22.9655 22.1667 22.9655 22.4752 22.9785 22.7965C22.9785 22.9764 23.1075 23.5163 23.0172 23.6448C23.1075 23.6191 23.1979 23.5934 23.2883 23.5805C23.2754 23.5805 23.2625 23.5677 23.2496 23.5677C23.2754 23.6448 23.3141 23.7091 23.3399 23.7862C23.3399 23.7733 23.3528 23.7605 23.3528 23.7476C23.4174 23.5034 23.043 23.4006 22.9785 23.6448C22.9785 23.6576 22.9655 23.6705 22.9655 23.6833C22.9397 23.7605 22.9785 23.8633 23.0559 23.9018C23.0688 23.9018 23.0817 23.9147 23.0946 23.9147C23.1979 23.9533 23.3012 23.9404 23.3657 23.8504C23.4561 23.7219 23.4174 23.5934 23.4045 23.4391C23.3916 23.0921 23.3657 22.7322 23.3657 22.3852C23.3657 22.0382 23.3786 21.6783 23.3916 21.3313C23.4045 21.177 23.4432 20.9714 23.3399 20.83C23.1205 20.5344 22.4233 20.6244 22.1393 20.6629C21.8166 20.7015 21.3906 20.74 21.3647 21.1256C21.3647 21.357 21.752 21.357 21.752 21.1128Z" fill="#D0E0EB"/>
<path d="M21.7903 23.7219C22.1776 23.6962 22.5649 23.7348 22.9393 23.8247C23.1846 23.889 23.2878 23.5163 23.0426 23.452C22.6295 23.3363 22.2163 23.2978 21.7903 23.3235C21.5321 23.3492 21.5321 23.7348 21.7903 23.7219Z" fill="#D0E0EB"/>
<path d="M26.6448 17.6425C26.335 18.3237 26.0639 19.0306 25.8186 19.7375C25.7411 19.9689 26.1155 20.0717 26.193 19.8404C26.4253 19.1592 26.6835 18.4908 26.9805 17.8353C27.0837 17.604 26.7481 17.4112 26.6448 17.6425Z" fill="#D0E0EB"/>
<path d="M24.6693 20.6887C25.3148 20.5087 25.9732 20.4187 26.6574 20.4445C26.9027 20.4573 26.9027 20.0717 26.6574 20.0589C25.9474 20.0332 25.2502 20.1231 24.566 20.3159C24.3207 20.3802 24.424 20.7529 24.6693 20.6887Z" fill="#D0E0EB"/>
<path d="M24.6568 20.5087C24.5406 20.8686 24.631 21.2028 24.6697 21.5627C24.7085 21.9997 24.7085 22.4238 24.6956 22.8608C24.6697 23.4263 24.8118 23.4906 25.3798 23.4392C25.7671 23.4006 26.2964 23.5035 26.4384 23.0793C26.5675 22.668 26.5287 22.1154 26.5675 21.6784C26.6062 21.2157 26.6578 20.7401 26.6966 20.2774C26.7224 20.0332 26.3351 20.0332 26.3093 20.2774C26.2576 20.8172 26.206 21.3699 26.1544 21.9097C26.1285 22.1282 26.1414 22.3981 26.0898 22.6166C26.0123 22.9765 25.9736 23.0022 25.5992 23.0408C25.483 23.0536 25.3798 23.0665 25.2636 23.0793C25.0441 23.1564 24.9796 23.0922 25.0699 22.8737C25.0183 22.6937 25.0958 22.411 25.0829 22.2182C25.0699 21.7298 24.8763 21.0743 25.0183 20.6116C25.1087 20.3674 24.7343 20.2645 24.6568 20.5087Z" fill="#D0E0EB"/>
<path d="M27.1871 18.0023C27.4841 18.4522 27.7423 18.9278 27.9875 19.4162C28.0908 19.6347 28.4265 19.4419 28.3232 19.2234C28.0908 18.735 27.8197 18.2723 27.5228 17.8096C27.3808 17.5911 27.0451 17.7839 27.1871 18.0023Z" fill="#D0E0EB"/>
<path d="M27.6263 19.9818H29.5627C29.808 19.9818 29.808 19.5962 29.5627 19.5962C29.524 19.5962 29.4852 19.5962 29.4465 19.5962C29.2012 19.5962 29.2012 19.9818 29.4465 19.9818H29.5627C29.808 19.9818 29.808 19.5962 29.5627 19.5962C28.9172 19.5962 28.2717 19.5962 27.6263 19.5962C27.3681 19.5962 27.3681 19.9818 27.6263 19.9818Z" fill="#D0E0EB"/>
<path d="M27.4324 19.9688C27.484 20.4572 27.5228 20.9456 27.5357 21.434C27.5486 21.781 27.4324 22.3723 27.5873 22.6936C27.6777 22.8864 27.7939 22.9121 28.0004 22.9121C28.4781 22.8992 28.9945 22.7836 29.4721 22.7193C29.5496 22.7064 29.6141 22.6036 29.6141 22.5394C29.6012 21.6654 29.5883 20.8042 29.5754 19.9302C29.5754 19.686 29.1881 19.686 29.1881 19.9302C29.201 20.8042 29.2139 21.6654 29.2268 22.5394C29.2785 22.4751 29.3172 22.4108 29.3688 22.3594C29.059 22.398 28.7492 22.4365 28.4393 22.4879C28.3361 22.5008 28.0391 22.5908 27.9488 22.5136C27.8842 22.4622 27.9488 22.0638 27.9488 21.9867C27.9359 21.3183 27.8971 20.65 27.8326 19.9945C27.7939 19.7246 27.4066 19.7246 27.4324 19.9688Z" fill="#D0E0EB"/>
<path d="M13.1027 21.0228C13.774 20.4059 14.4582 19.8275 15.194 19.3005C15.3877 19.1591 15.194 18.825 15.0004 18.9663C14.2387 19.519 13.5158 20.1103 12.8316 20.7529C12.6508 20.92 12.9219 21.1899 13.1027 21.0228Z" fill="#D0E0EB"/>
<path d="M15.0778 19.1335C15.4651 19.6862 15.7878 20.2645 16.046 20.8686C16.1493 21.1 16.4849 20.8943 16.3816 20.6758C16.1105 20.0589 15.7878 19.4805 15.4134 18.9407C15.2714 18.7351 14.9358 18.9278 15.0778 19.1335Z" fill="#D0E0EB"/>
<path d="M11.386 21.7298C11.7346 21.7041 12.0702 21.6784 12.4188 21.6527C12.5737 21.6398 12.7415 21.6013 12.8835 21.6141C13.0642 21.5498 13.1159 21.5627 13.0384 21.6655C12.9868 21.7426 12.961 21.8198 12.9739 21.9097C12.8319 22.5395 12.8061 23.2079 12.7802 23.8505C12.8964 23.7991 12.9997 23.7605 13.1159 23.7091C13.103 23.6963 13.0901 23.6834 13.0772 23.6577C12.9093 23.4778 12.6382 23.7477 12.8061 23.9276C12.819 23.9405 12.8319 23.9533 12.8448 23.979C12.961 24.1076 13.1675 24.0047 13.1804 23.8377C13.1933 23.285 13.245 22.7323 13.3224 22.1925C13.3612 21.9611 13.529 21.5755 13.387 21.3442C13.2708 21.1643 13.0772 21.2028 12.8964 21.2157C12.3929 21.2542 11.9024 21.2928 11.3989 21.3313C11.1407 21.3699 11.1407 21.7555 11.386 21.7298Z" fill="#D0E0EB"/>
<path d="M11.6437 21.3571C11.6308 21.3571 11.6179 21.3571 11.5921 21.3571C11.5275 21.3571 11.463 21.3956 11.4243 21.447C11.2177 21.7941 11.2306 22.3981 11.1661 22.7966C11.0757 23.3621 10.9853 23.9276 10.895 24.4932C10.8821 24.596 10.9208 24.7117 11.0241 24.7245C11.6308 24.853 12.1988 24.8273 12.7798 24.6088C13.0122 24.5189 12.9089 24.1461 12.6765 24.2361C12.1601 24.4289 11.6696 24.4675 11.1273 24.3518C11.1661 24.4289 11.2177 24.506 11.2564 24.5831C11.2952 24.3261 11.747 21.7426 11.6179 21.7298C11.889 21.7684 11.889 21.3828 11.6437 21.3571Z" fill="#D0E0EB"/>
<path d="M15.1556 21.2928L15.1427 21.3056H15.4138C15.4009 21.3056 15.4009 21.2928 15.388 21.2928V21.5627C15.4009 21.5498 15.6333 21.5498 15.6849 21.5498C15.8269 21.537 15.9818 21.5241 16.1238 21.5241C16.3949 21.5113 16.666 21.5241 16.9371 21.5498C16.8855 21.4341 16.8468 21.3313 16.7951 21.2156C16.7693 21.2285 16.7435 21.2542 16.7306 21.2671C16.4853 21.2928 16.4853 21.6783 16.7306 21.6526C16.8726 21.6398 16.9759 21.6012 17.0791 21.4855C17.1953 21.357 17.1179 21.1642 16.9371 21.1514C16.5627 21.1257 16.1884 21.1128 15.814 21.1385C15.6333 21.1514 15.2589 21.1128 15.1298 21.2799C15.0652 21.357 15.0394 21.4855 15.1298 21.5498C15.1427 21.5498 15.1427 21.5627 15.1556 21.5627C15.2331 21.6269 15.3622 21.6526 15.4267 21.5627L15.4396 21.5498C15.5945 21.3827 15.3234 21.1128 15.1556 21.2928Z" fill="#D0E0EB"/>
<path d="M15.0005 21.3827C14.9618 21.9097 14.9231 22.4367 14.8972 22.9637C14.8843 23.2593 14.7165 24.0176 14.8972 24.2875C14.9876 24.416 15.078 24.4674 15.2458 24.4546C15.4136 24.4546 15.5944 24.3389 15.7493 24.3004C16.0591 24.2104 16.3818 24.1847 16.7046 24.1847C16.9499 24.1847 16.9499 23.7991 16.7046 23.7991C16.4206 23.7991 16.1366 23.8248 15.8526 23.8891C15.7235 23.9148 15.4782 24.0561 15.362 24.0304C15.2716 24.0947 15.2329 24.0819 15.2587 23.979C15.2458 23.8762 15.2458 23.7734 15.2587 23.6577C15.2716 22.9122 15.3362 22.1539 15.3878 21.4085C15.4136 21.1257 15.0263 21.1257 15.0005 21.3827Z" fill="#D0E0EB"/>
<path d="M16.6659 21.4213C16.5627 22.2825 16.511 23.1436 16.5239 24.0176C16.5239 24.2618 16.9112 24.2618 16.9112 24.0176C16.8983 23.1436 16.9499 22.2825 17.0532 21.4213C17.0919 21.1771 16.7047 21.1771 16.6659 21.4213Z" fill="#D0E0EB"/>
<path d="M119.788 75.3391C122.834 82.0098 124.964 89.0532 126.139 96.2893C126.178 96.5335 126.552 96.4307 126.513 96.1865C125.326 88.9246 123.183 81.8427 120.123 75.1463C120.02 74.9278 119.684 75.1206 119.788 75.3391Z" fill="#D0E0EB"/>
<path d="M135.86 64.0541C132.091 69.7865 128.812 75.8273 126.488 82.2923C126.398 82.5237 126.772 82.6265 126.862 82.3952C129.173 75.9559 132.439 69.9536 136.196 64.2469C136.325 64.0413 135.99 63.8485 135.86 64.0541Z" fill="#D0E0EB"/>
<path d="M118.471 82.3825C120.562 82.948 122.357 84.2333 123.557 86.0327C123.699 86.2383 124.035 86.0455 123.893 85.8399C122.641 83.9634 120.769 82.601 118.574 82.0097C118.329 81.9455 118.226 82.3182 118.471 82.3825Z" fill="#D0E0EB"/>
<path d="M123.506 77.0485C122.796 78.2181 122.318 79.4905 122.124 80.8529C122.086 81.0971 122.46 81.2 122.499 80.9558C122.692 79.6319 123.144 78.3852 123.841 77.2413C123.97 77.0356 123.635 76.8428 123.506 77.0485Z" fill="#D0E0EB"/>
<path d="M127.521 69.8252C128.153 70.5193 128.592 71.3162 128.928 72.1773C129.083 72.5629 129.212 72.9613 129.328 73.3469C129.444 73.7196 129.715 74.2723 129.56 74.6451C129.47 74.8764 129.844 74.9792 129.935 74.7479C130.09 74.3751 129.935 74.0024 129.819 73.6425C129.664 73.1156 129.496 72.5886 129.289 72.0745C128.928 71.1491 128.45 70.2879 127.779 69.5425C127.624 69.3625 127.353 69.6324 127.521 69.8252Z" fill="#D0E0EB"/>
<path d="M131.896 71.3033C133.51 69.4524 135.602 68.1414 137.977 67.4988C138.222 67.4345 138.119 67.0618 137.874 67.1261C135.447 67.7816 133.278 69.1311 131.625 71.0205C131.47 71.2133 131.742 71.4961 131.896 71.3033Z" fill="#D0E0EB"/>
<path d="M127.34 81.6241C128.502 80.5959 129.87 79.8761 131.316 79.3363C131.975 79.0921 132.633 78.8993 133.304 78.7065C133.679 78.6037 134.04 78.5137 134.415 78.4109C134.595 78.3724 135.357 78.0639 135.499 78.141C135.473 78.051 135.447 77.9611 135.434 77.8711C135.422 77.884 135.422 77.8968 135.409 77.9097C135.499 77.8839 135.589 77.8582 135.68 77.8454C135.667 77.8454 135.654 77.8325 135.641 77.8325C135.422 77.7169 135.228 78.051 135.447 78.1667C135.46 78.1667 135.473 78.1796 135.486 78.1796C135.576 78.231 135.693 78.2053 135.757 78.1153C135.77 78.1025 135.77 78.0896 135.783 78.0767C135.835 77.9868 135.809 77.8711 135.718 77.8068C135.538 77.704 135.344 77.794 135.15 77.8325C134.712 77.9354 134.273 78.0382 133.834 78.1539C132.995 78.3724 132.155 78.6166 131.329 78.8993C129.78 79.452 128.308 80.2103 127.082 81.3157C126.888 81.5085 127.159 81.7912 127.34 81.6241Z" fill="#D0E0EB"/>
<path d="M120.756 97.4849C123.686 98.1918 126.669 97.6648 129.599 97.3178C132.775 96.945 135.964 96.8808 139.152 96.8294C139.397 96.8294 139.397 96.4438 139.152 96.4438C136.041 96.4952 132.93 96.5595 129.844 96.9065C126.862 97.2535 123.828 97.8319 120.859 97.1121C120.627 97.0479 120.524 97.4206 120.756 97.4849Z" fill="#D0E0EB"/>
<path d="M129.999 96.3926C135.215 96.1227 140.43 95.8399 145.646 95.57C145.891 95.5571 145.891 95.1715 145.646 95.1844C140.43 95.4543 135.215 95.7371 129.999 96.007C129.754 96.0198 129.754 96.4054 129.999 96.3926Z" fill="#D0E0EB"/>
<path d="M115.063 59.286C113.785 59.5302 112.223 58.3091 112.261 56.9596C112.313 55.4301 114.237 54.916 115.463 54.9031C116.818 54.9031 117.774 55.9442 117.451 57.3066C117.309 57.8978 116.935 58.3863 116.47 58.759C116.199 58.9775 115.101 59.7744 114.792 59.3888C114.637 59.196 114.366 59.4659 114.521 59.6587C114.934 60.1728 115.786 59.6458 116.225 59.4016C116.896 59.0032 117.503 58.3991 117.761 57.6536C118.277 56.1499 117.361 54.6461 115.773 54.5304C114.262 54.4147 111.926 55.1088 111.887 56.9596C111.861 58.579 113.643 59.9415 115.179 59.6587C115.411 59.6201 115.308 59.2474 115.063 59.286Z" fill="#D0E0EB"/>
<path d="M15.969 65.3397C15.4913 65.8795 15.0782 66.4707 14.7297 67.1134C14.6135 67.3319 14.9491 67.5246 15.0653 67.3062C15.401 66.7021 15.7882 66.1365 16.253 65.6096C16.4079 65.4296 16.1368 65.1469 15.969 65.3397Z" fill="#49708A"/>
<path d="M15.9554 65.4938C16.3427 66.0336 16.73 66.5606 17.1173 67.1004C17.2593 67.306 17.5949 67.1133 17.4529 66.9076C17.0656 66.3678 16.6783 65.8408 16.2911 65.301C16.1361 65.0953 15.8005 65.2881 15.9554 65.4938Z" fill="#49708A"/>
<path d="M15.9295 66.2523C16.0457 70.7893 16.149 75.3264 16.2652 79.8763C16.2652 80.1205 16.6525 80.1205 16.6525 79.8763C16.5363 75.3393 16.433 70.8022 16.3168 66.2523C16.3039 66.0081 15.9166 65.9952 15.9295 66.2523Z" fill="#49708A"/>
<path d="M16.6913 80.2362H33.8869C34.1322 80.2362 34.1322 79.8506 33.8869 79.8506C28.155 79.8506 22.4232 79.8506 16.6913 79.8506C16.446 79.8506 16.446 80.2362 16.6913 80.2362Z" fill="#49708A"/>
<path d="M33.1383 79.8505C33.5385 80.0048 33.9258 80.159 34.326 80.3132C34.2743 80.1718 34.2098 80.0305 34.1582 79.8891C33.9645 80.2361 33.6934 80.506 33.3578 80.7117C33.035 80.9045 33.3319 81.4057 33.6547 81.2129C34.0807 80.9687 34.4293 80.6088 34.6745 80.1847C34.7778 80.0048 34.6745 79.8248 34.5067 79.7605C34.1065 79.6063 33.7192 79.4521 33.319 79.2978C32.9446 79.1565 32.7897 79.7091 33.1383 79.8505Z" fill="#49708A"/>
<path d="M132.284 10.4321C131.768 9.7509 132.504 8.70981 133.304 9.22393C133.666 9.45528 133.834 9.93084 133.575 10.3036C133.343 10.6377 132.865 10.7791 132.504 10.5992C132.284 10.4835 132.091 10.8177 132.31 10.9334C132.84 11.1904 133.485 11.0362 133.859 10.5735C134.26 10.0722 134.118 9.36531 133.627 8.97972C133.149 8.60699 132.478 8.60699 132.065 9.06969C131.691 9.49384 131.626 10.175 131.975 10.6377C132.091 10.8177 132.426 10.6249 132.284 10.4321Z" fill="#49708A"/>
<path d="M143.025 59.3117C142.999 58.7076 143.451 58.2963 144.045 58.2963C144.29 58.2963 144.484 58.3606 144.716 58.2578C145.155 58.065 145.323 57.5637 145.465 57.1396C145.672 56.5226 145.827 56.227 146.601 56.4198C146.808 56.4712 146.937 56.574 147.156 56.4969C147.802 56.2527 147.415 55.1474 148.396 55.3273C148.641 55.3787 148.744 55.006 148.499 54.9546C148.189 54.8903 147.892 54.916 147.621 55.1088C147.376 55.2887 147.35 55.5072 147.208 55.7386C147.195 55.9828 147.027 56.0856 146.717 56.0471C146.653 56.0085 146.575 55.9699 146.511 55.9442C146.369 55.9314 146.291 55.8543 146.137 55.8671C145.853 55.88 145.633 56.0599 145.465 56.2656C145.22 56.5612 145.155 56.9211 145.013 57.2809C144.871 57.6408 144.729 57.8979 144.29 57.9364C144.097 57.9493 143.916 57.885 143.722 57.9107C143.038 58.0136 142.599 58.6433 142.625 59.3117C142.651 59.5687 143.038 59.5687 143.025 59.3117Z" fill="#49708A"/>
<path d="M20.5515 79.5034C22.3718 75.866 22.6558 71.766 23.7273 67.8973C23.9984 66.9076 24.2695 65.7508 25.0183 65.0054C26.1156 63.9129 27.5098 64.684 27.9617 65.9693C28.2973 66.9461 28.3102 68.0772 28.3748 69.1054C28.4393 70.2108 28.491 71.3161 28.5555 72.4215C28.6975 74.7864 28.9428 77.1642 29.7432 79.4134C29.8207 79.6448 30.195 79.542 30.1176 79.3106C29.2784 76.9457 29.0461 74.4394 28.917 71.9459C28.8524 70.7249 28.8008 69.491 28.7104 68.27C28.633 67.2932 28.5942 66.2264 28.1295 65.3395C27.768 64.6455 27.0709 64.08 26.2576 64.08C25.4185 64.08 24.7213 64.6583 24.2953 65.3267C23.7402 66.2135 23.482 67.3317 23.2238 68.3343C22.9398 69.4525 22.7074 70.5835 22.4751 71.7146C21.9587 74.3108 21.4294 76.92 20.2288 79.3106C20.0997 79.5291 20.4353 79.7219 20.5515 79.5034Z" fill="#88ABC2"/>
<path d="M22.3201 63.5659C22.0619 63.1932 22.5912 62.6919 22.901 63.1032C23.1979 63.4888 22.6428 63.8744 22.333 63.5787C22.1523 63.4117 21.8812 63.6816 22.0619 63.8487C22.333 64.1057 22.7719 64.1314 23.0818 63.9129C23.4303 63.6687 23.469 63.206 23.2109 62.8718C22.9527 62.5377 22.475 62.4477 22.1523 62.7305C21.8683 62.9875 21.7779 63.4374 21.9973 63.7587C22.1264 63.9643 22.4621 63.7715 22.3201 63.5659Z" fill="#88ABC2"/>
<path d="M25.1733 61.8566C24.9668 61.5609 25.4186 61.291 25.6122 61.5995C25.8188 61.9337 25.2379 62.3064 25.0442 61.9337C24.928 61.7152 24.6053 61.908 24.7086 62.1265C24.8764 62.4735 25.3282 62.5635 25.651 62.3707C25.9866 62.1779 26.1415 61.7409 25.935 61.3938C25.7542 61.0982 25.3282 60.944 25.0184 61.1368C24.7215 61.3296 24.6182 61.7409 24.8118 62.0365C24.9797 62.255 25.3153 62.0622 25.1733 61.8566Z" fill="#88ABC2"/>
<path d="M24.0499 59.0288C23.9466 58.7332 24.2693 58.4247 24.5275 58.669C24.7857 58.9132 24.4888 59.2602 24.1919 59.1574C23.9595 59.0802 23.8562 59.453 24.0886 59.5301C24.7599 59.7486 25.3279 58.9003 24.7986 58.399C24.5663 58.1677 24.2048 58.1291 23.9337 58.3219C23.6884 58.5019 23.5593 58.836 23.6755 59.1317C23.7659 59.363 24.1402 59.273 24.0499 59.0288Z" fill="#88ABC2"/>
<path d="M28.9813 62.4605C28.9426 62.4348 28.9942 62.4734 29.0071 62.4991V62.5377C29.0071 62.5505 29.0071 62.5505 29.0071 62.5248V62.5377H29.0588C29.0975 62.5377 29.1362 62.5505 29.175 62.5634C29.1233 62.4991 29.0846 62.4348 29.0329 62.3834V62.6919C29.0846 62.6276 29.1233 62.5634 29.175 62.512C29.0717 62.5505 28.9684 62.5634 28.8651 62.5377C28.6327 62.4605 28.5295 62.8333 28.7618 62.9104C28.9297 62.9618 29.1233 62.9618 29.2782 62.8847C29.3557 62.8461 29.4202 62.7947 29.4202 62.7047C29.4202 62.6019 29.4202 62.4991 29.4202 62.3963C29.4202 62.3063 29.3557 62.2292 29.2782 62.2163C29.0717 62.1649 28.8264 62.1392 28.6973 62.3449C28.594 62.4991 28.6069 62.7433 28.8006 62.8204C28.8909 62.8718 29.0071 62.8461 29.0717 62.7562C29.1104 62.6405 29.0846 62.5119 28.9813 62.4605Z" fill="#88ABC2"/>
<path d="M50.5403 11.2933C50.6048 11.319 50.4628 11.9617 50.5274 12.1159C50.6178 12.3087 50.8243 12.4244 51.0309 12.4501C51.3149 12.5015 51.5602 12.373 51.7925 12.2316C52.0249 12.0902 52.58 11.6018 52.7478 12.1416C52.7866 12.2573 52.6575 12.54 52.6962 12.6943C52.8124 13.2084 53.303 13.1827 53.6515 12.9128C53.7806 12.81 53.8581 12.6814 53.9613 12.5658C54.0904 12.2573 54.2841 12.193 54.5294 12.373C54.5294 12.4501 54.5423 12.5272 54.5681 12.5915C54.6972 12.7843 54.7617 12.9128 55.0199 12.8999C55.2652 12.8871 55.2652 12.5015 55.0199 12.5143C55.0328 12.5143 54.7488 11.936 54.5939 11.8717C54.4132 11.7946 54.2066 11.8588 54.0388 11.9617C53.9226 12.0259 53.8323 12.1288 53.7419 12.2187C53.5482 12.4115 53.5611 12.6943 53.2513 12.5015C52.9544 12.3215 53.1997 12.0388 52.9931 11.7817C52.6575 11.3576 52.0894 11.5889 51.728 11.8203C51.5214 11.9488 51.005 12.4115 50.8759 11.7303C50.863 11.6403 50.9405 11.499 50.9405 11.409C50.9405 11.2033 50.9018 11.0877 50.721 10.9977C50.5145 10.8435 50.3208 11.1776 50.5403 11.2933Z" fill="#49708A"/>
<path d="M37.0374 41.3561C37.1923 43.1555 37.3472 44.9549 37.515 46.7543C37.5408 46.9985 37.8765 46.9985 37.9023 46.7543C37.9023 46.7157 37.9152 46.6643 37.9152 46.6258C37.941 46.3816 37.5538 46.3816 37.5279 46.6258C37.5279 46.6643 37.515 46.7157 37.515 46.7543H37.9023C37.7474 44.9549 37.5925 43.1555 37.4247 41.3561C37.3988 41.1119 37.0115 41.099 37.0374 41.3561Z" fill="#49708A"/>
<path d="M37.3339 41.4976C37.8761 41.3819 38.8185 41.2148 39.2316 41.6647C39.606 42.0631 39.5156 42.8472 39.5672 43.387C39.6576 44.4666 39.748 45.5463 39.8383 46.613C39.8642 46.8573 40.2514 46.8573 40.2256 46.613C40.0965 45.0707 40.0836 43.4512 39.8254 41.9217C39.6318 40.7264 38.1343 40.9449 37.2306 41.1249C36.9853 41.1763 37.0886 41.549 37.3339 41.4976Z" fill="#49708A"/>
<path d="M40.6389 34.2485C41.052 38.3614 41.194 42.4872 41.065 46.6258C41.052 46.87 41.4393 46.87 41.4522 46.6258C41.5813 42.5 41.4393 38.3614 41.0262 34.2485C41.0004 34.0043 40.6131 33.9914 40.6389 34.2485Z" fill="#49708A"/>
<path d="M41.1036 34.2485C41.6329 34.3256 42.2784 34.3256 42.769 34.5055C43.4274 34.7369 43.3241 35.9193 43.3886 36.5234C43.5048 37.693 43.5823 38.8627 43.6597 40.0323C43.8017 42.4615 43.8534 44.8907 43.905 47.3198C43.905 47.564 44.2923 47.564 44.2923 47.3198C44.2278 44.5179 44.1632 41.7031 43.9696 38.9012C43.8792 37.5902 43.8147 36.2664 43.6081 34.9682C43.4274 33.8629 42.0977 34.0043 41.2069 33.8629C40.9616 33.85 40.8583 34.2099 41.1036 34.2485Z" fill="#49708A"/>
<path d="M44.3822 31.8323C44.8211 36.7164 45.2729 41.5876 45.7118 46.4717C45.7377 46.7159 46.1249 46.7159 46.0991 46.4717C45.6602 41.5876 45.2084 36.7164 44.7694 31.8323C44.7565 31.5881 44.3692 31.5881 44.3822 31.8323Z" fill="#49708A"/>
<path d="M44.6278 32.0249C45.2475 31.9092 45.88 31.8707 46.5126 31.9349C47.0419 31.9864 47.4163 32.0892 47.4421 32.6547C47.455 32.8475 47.455 33.0531 47.455 33.2459C47.4937 34.2099 47.5325 35.1739 47.5841 36.1378C47.7519 39.8266 47.9456 43.5025 48.1392 47.1913C48.1521 47.4355 48.5394 47.4355 48.5265 47.1913C48.32 43.2069 48.1134 39.2354 47.9327 35.251C47.8939 34.4155 47.8552 33.593 47.8294 32.7575C47.8165 32.3848 47.8165 32.0121 47.4679 31.7678C47.1452 31.5494 46.6417 31.5365 46.2673 31.5236C45.6864 31.4851 45.1055 31.5365 44.5245 31.6522C44.2792 31.7036 44.3825 32.0763 44.6278 32.0249Z" fill="#49708A"/>
<path d="M34.2614 30.5983C33.8354 31.4338 33.4223 32.2692 32.9963 33.1046C32.8801 33.3231 33.2157 33.5159 33.3319 33.2974C33.7579 32.462 34.171 31.6266 34.5971 30.7911C34.7003 30.5726 34.3647 30.367 34.2614 30.5983Z" fill="#49708A"/>
<path d="M34.3126 30.9839C34.4934 31.7294 34.8936 32.3849 35.4874 32.8733C35.681 33.0275 35.9522 32.7576 35.7585 32.6034C35.2163 32.1535 34.8548 31.5752 34.687 30.894C34.6225 30.6369 34.2481 30.7397 34.3126 30.9839Z" fill="#49708A"/>
<path d="M34.0422 31.1637C33.9647 36.7933 34.7005 42.41 36.2368 47.8339C36.3013 48.0781 36.6757 47.9753 36.6112 47.7311C35.0878 42.3457 34.352 36.7676 34.4294 31.1637C34.4294 30.9195 34.0422 30.9195 34.0422 31.1637Z" fill="#49708A"/>
<path d="M36.7011 48.1682C39.7219 47.8854 42.7557 47.7312 45.7894 47.7183C48.6166 47.7055 51.6762 47.5898 54.284 48.8622C54.5034 48.965 54.6971 48.6437 54.4776 48.528C51.9473 47.2942 49.0556 47.3199 46.2929 47.3327C43.0913 47.3327 39.8897 47.487 36.7011 47.7826C36.4558 47.8083 36.4558 48.1939 36.7011 48.1682Z" fill="#49708A"/>
<path d="M52.6962 47.5384C53.3933 47.9626 54.0646 48.4253 54.6842 48.9394C54.6971 48.8366 54.7101 48.7337 54.723 48.6309C54.1937 49.0294 53.6773 49.4278 53.148 49.8262C52.9543 49.9805 53.148 50.3147 53.3416 50.1604C53.8709 49.762 54.3873 49.3635 54.9166 48.9651C55.007 48.9008 55.0586 48.7466 54.9553 48.6566C54.2969 48.1168 53.6127 47.6284 52.8898 47.2043C52.6703 47.0886 52.4767 47.4099 52.6962 47.5384Z" fill="#49708A"/>
<path d="M35.2423 37.6803C35.4359 37.9117 35.6295 38.1431 35.8232 38.3744C35.9007 38.4644 36.0685 38.4387 36.133 38.3358C37.1658 36.3179 38.1857 34.2872 39.2313 32.2693C39.5024 31.7552 39.8768 32.1793 40.2641 32.3207C40.5094 32.4107 40.7676 32.385 41.0129 32.295C41.6325 32.0636 42.0456 31.421 42.3296 30.8555C42.7944 29.8915 43.2075 28.889 43.6593 27.9122C43.7755 27.6423 43.9046 27.3723 44.0208 27.1153C44.0854 26.9611 44.1628 26.6397 44.2919 26.5241C44.6921 26.1642 45.6732 26.9868 46.0089 27.1924C46.564 27.5266 47.3644 28.272 48.0873 28.0792C48.6295 27.9379 48.8877 27.3466 49.0427 26.8582C49.7914 24.6604 50.7467 22.6682 52.2184 20.8559C52.3346 20.7146 52.2313 20.4703 52.0248 20.5346C51.3535 20.7531 50.7467 21.0873 50.1916 21.5114C50.0109 21.6528 50.2433 21.9099 50.424 21.8199C50.9275 21.5757 51.4438 21.3186 51.9473 21.0744C51.857 21.0359 51.7537 20.9973 51.6633 20.9588C51.8182 21.7299 51.9731 22.5011 52.1151 23.2723C52.1668 23.5165 52.5412 23.4137 52.4895 23.1695C52.3346 22.3983 52.1797 21.6271 52.0377 20.8559C52.0119 20.7274 51.857 20.6888 51.7537 20.7403C51.2502 20.9845 50.7338 21.2415 50.2303 21.4857C50.3078 21.5885 50.3853 21.6914 50.4627 21.7942C50.9662 21.3958 51.5084 21.113 52.1281 20.9073C52.0635 20.8045 51.999 20.6888 51.9344 20.586C50.8113 21.9741 49.8818 23.5036 49.2105 25.1616C49.0297 25.5986 48.8748 26.0485 48.7328 26.4983C48.6166 26.8582 48.4359 27.6294 47.9582 27.7065C47.416 27.7965 46.7189 27.1795 46.28 26.9096C45.8411 26.6397 45.4151 26.3441 44.9632 26.0999C44.4468 25.83 44.1241 25.9328 43.8659 26.4341C43.3753 27.398 42.9751 28.4263 42.5233 29.4159C42.1876 30.1614 41.7616 31.6652 40.845 31.9094C40.2254 32.0765 39.6574 31.1511 39.1022 31.6909C38.7795 31.9994 38.6117 32.5778 38.418 32.9633C38.1211 33.5417 37.8371 34.1072 37.5402 34.6856C36.9592 35.8295 36.3654 36.9734 35.7845 38.1173C35.8877 38.1045 35.991 38.0916 36.0943 38.0788C35.9007 37.8474 35.707 37.6161 35.5134 37.3847C35.3455 37.2176 35.0744 37.4876 35.2423 37.6803Z" fill="#49708A"/>
<path d="M91.4384 5.74082C90.1732 5.04677 89.631 3.28592 90.4314 2.03919C91.2447 0.76676 93.2199 0.535409 94.3689 1.47367C95.5436 2.45049 95.5565 4.45553 94.4334 5.47091C93.2715 6.5377 91.3222 6.25494 90.3669 5.07247C90.2119 4.87968 89.9408 5.14959 90.0958 5.34238C90.9865 6.42202 92.5744 6.80761 93.8783 6.26779C95.1434 5.74082 95.8018 4.37842 95.634 3.05457C95.4662 1.69217 94.4463 0.676789 93.0779 0.522555C91.774 0.36832 90.3798 1.01096 89.8892 2.27055C89.347 3.65866 89.9538 5.34238 91.2576 6.04929C91.4642 6.19067 91.6578 5.8565 91.4384 5.74082Z" fill="#49708A"/>
<path d="M97.0413 8.10574C96.4991 7.10321 97.8933 5.99786 98.5905 7.07751C99.2101 8.02862 97.6868 8.74838 97.1962 7.86153C97.08 7.64303 96.7444 7.83583 96.8606 8.05432C97.1704 8.61985 97.8933 8.77409 98.4614 8.52988C99.1327 8.24712 99.3005 7.47594 98.9261 6.88471C98.5388 6.26777 97.7384 6.02357 97.1188 6.46057C96.5378 6.87186 96.3571 7.68159 96.6928 8.31138C96.8348 8.51703 97.1704 8.32423 97.0413 8.10574Z" fill="#49708A"/>
<path d="M90.2508 105.325H120.717C120.963 105.325 120.963 104.939 120.717 104.939C110.558 104.939 100.411 104.939 90.2508 104.939C89.9926 104.939 89.9926 105.325 90.2508 105.325Z" fill="#49708A"/>
<path d="M127.095 105.325H132.904C133.15 105.325 133.15 104.939 132.904 104.939C130.968 104.939 129.032 104.939 127.095 104.939C126.85 104.939 126.85 105.325 127.095 105.325Z" fill="#49708A"/>
<path d="M60.9843 111.16H81.2524C81.4977 111.16 81.4977 110.775 81.2524 110.775C74.5006 110.775 67.736 110.775 60.9843 110.775C60.739 110.775 60.739 111.16 60.9843 111.16Z" fill="#49708A"/>
<path d="M80.9945 109.618H98.5516C98.7969 109.618 98.7969 109.232 98.5516 109.232C92.7035 109.232 86.8426 109.232 80.9945 109.232C80.7492 109.232 80.7492 109.618 80.9945 109.618Z" fill="#49708A"/>
<path d="M33.8096 108.564H39.1025C39.4769 108.564 39.4769 107.985 39.1025 107.985C37.3339 107.985 35.5782 107.985 33.8096 107.985C33.4352 107.985 33.4352 108.564 33.8096 108.564Z" fill="#49708A"/>
<path d="M40.9102 108.564H42.7175C43.0919 108.564 43.0919 107.985 42.7175 107.985C42.1108 107.985 41.5169 107.985 40.9102 107.985C40.5358 107.985 40.5358 108.564 40.9102 108.564Z" fill="#49708A"/>
<path d="M26.296 85.223C26.5413 85.2615 26.877 85.57 27.1352 87.0352C27.8968 87.0866 28.6585 87.1381 29.4202 87.1895C30.0528 86.6625 30.6853 86.1355 31.3179 85.5957C31.4083 86.1098 31.5244 86.8681 31.6277 87.7936C31.8601 89.94 31.7181 90.4541 31.8601 91.6494C31.9246 92.1764 32.2216 94.3999 33.6029 96.5592C34.6615 98.2172 35.3586 98.2686 36.1848 99.8881C36.8303 101.161 37.024 102.356 37.1014 103.14C37.2305 103.127 38.87 102.999 39.9157 104.271C40.3934 104.862 40.9227 105.968 40.5225 106.842C40.1352 107.69 39.2444 107.561 37.6307 108.962C37.0627 109.451 36.5205 109.939 36.6496 110.325C36.7787 110.723 37.4758 110.646 38.7022 111.301C39.3477 111.648 39.6575 111.828 39.7608 112.137C40.1481 113.255 37.6952 114.977 37.3338 115.234C36.1461 116.057 34.7002 116.7 34.5195 116.443C34.2484 116.057 37.166 113.936 36.727 113.114C36.4043 112.497 34.5711 113.268 34.1451 112.587C33.6804 111.841 35.3199 109.978 36.1977 108.962C37.8889 107.009 38.9604 106.52 38.7797 105.865C38.586 105.171 37.1143 104.708 36.3527 105.183C35.7072 105.582 35.8363 106.482 35.591 107.073C35.1262 108.204 32.9058 109.129 25.2633 108.281C25.3666 108.075 25.5215 107.831 25.7151 107.6C26.3735 106.842 27.1997 106.572 27.6128 106.469C27.4966 106.276 26.8253 105.132 27.2385 103.744C27.5483 102.69 28.2841 102.112 28.5294 101.932C28.013 100.916 27.4966 99.811 27.0061 98.6028C26.6962 97.8188 26.4122 97.0605 26.167 96.3279C25.444 96.3279 24.6049 96.1993 23.9594 95.6467C22.9912 94.7984 23.3785 93.7573 22.3715 92.999C21.4291 92.2792 20.306 92.6005 20.1123 91.9836C20.022 91.688 20.2027 91.3409 20.3963 91.161C20.8869 90.6983 21.7648 90.9296 22.7201 91.1867C23.3785 91.3666 24.3209 91.7008 25.3666 92.3306C25.018 91.8294 24.3854 90.7754 24.3467 89.3745C24.2563 87.2666 25.5473 85.1202 26.296 85.223Z" fill="#49708A"/>
<path d="M25.8442 94.4514C24.9535 94.837 25.2891 97.4461 25.6119 99.8239C25.8184 101.328 26.167 103.32 26.8254 105.646C25.018 107.034 25.1084 107.433 25.16 107.536C25.3278 107.883 26.5284 107.677 26.9028 107.613C27.303 107.548 27.871 107.446 28.1938 107.24C29.1104 106.636 28.6327 104.798 28.3487 101.868C27.9356 97.6261 28.4262 95.8524 27.0577 94.837C26.877 94.6956 26.2832 94.2586 25.8442 94.4514Z" fill="#88ABC2"/>
<path d="M17.0141 99.7725C17.0528 99.7597 17.3885 99.5926 17.3756 99.5797C17.3497 99.5669 17.3497 99.7725 17.3497 99.8239C17.3368 99.991 17.2852 100.197 17.311 100.377C17.3626 100.634 17.5563 100.762 17.8145 100.737C17.9565 100.724 18.0598 100.659 18.1759 100.569C18.2018 100.544 18.3825 100.389 18.3954 100.389C18.4212 100.402 18.4212 100.685 18.4341 100.711C18.4858 100.955 18.6665 101.161 18.9376 101.135C19.1829 101.109 19.1829 100.724 18.9376 100.749C18.8085 100.762 18.7698 100.068 18.5503 99.991C18.46 99.9525 18.3567 99.9782 18.2792 100.017C18.0856 100.107 17.8016 100.518 17.7112 100.158C17.6467 99.8882 17.9178 99.5026 17.6725 99.2713C17.4401 99.0528 17.0528 99.3098 16.8333 99.4255C16.601 99.554 16.7946 99.8882 17.0141 99.7725Z" fill="#FCFCFC"/>
<path d="M25.8959 89.4131C26.1153 89.2074 26.4897 89.2589 26.6446 89.5159C26.7479 89.6701 26.9932 89.5288 26.8899 89.3745C26.6317 88.9632 26.0379 88.8861 25.6893 89.2074C25.5602 89.336 25.7668 89.5416 25.8959 89.4131Z" fill="#FCFCFC"/>
<path d="M28.659 89.323C28.8914 89.0917 29.2787 89.0788 29.524 89.2973C29.666 89.4259 29.8726 89.2202 29.7305 89.0917C29.3691 88.7575 28.8011 88.7704 28.4525 89.1174C28.3234 89.2459 28.53 89.4516 28.659 89.323Z" fill="#FCFCFC"/>
<path d="M26.3995 90.8268C26.2575 91.1096 25.6507 92.0864 26.3091 92.1635C26.5802 92.1892 26.8384 91.945 26.9933 91.7651C27.2128 91.508 27.3419 91.1867 27.4581 90.8782C27.5484 90.6469 27.174 90.5441 27.0837 90.7754C26.9417 91.1353 26.7868 91.4695 26.4769 91.7265C26.4124 91.7779 26.3737 91.8679 26.3995 91.7522C26.4124 91.6751 26.4511 91.598 26.4898 91.5337C26.5673 91.3667 26.6448 91.1996 26.7351 91.0325C26.8384 90.7883 26.5027 90.5955 26.3995 90.8268Z" fill="#CFFF55"/>
<path d="M26.7482 91.0325C26.916 90.9553 27.0451 90.8525 27.2 90.7497C27.1484 90.7625 27.0967 90.7625 27.0451 90.7754C27.058 90.7754 27.0709 90.7882 27.0838 90.7882C27.0451 90.7625 27.0064 90.724 26.9676 90.6983C26.9676 90.6212 26.9547 90.6212 26.9031 90.7111C26.8644 90.7497 26.8385 90.7883 26.7998 90.8397C26.7353 90.9168 26.6836 90.9939 26.632 91.071C26.5158 91.251 26.4125 91.4309 26.3092 91.6237C26.1931 91.8422 26.5287 92.035 26.6449 91.8165C26.7611 91.6108 26.8773 91.3923 27.0064 91.1995C27.1096 91.0453 27.3291 90.8782 27.342 90.6854C27.3549 90.544 27.2387 90.4155 27.1096 90.4155C27.0193 90.4027 26.9547 90.4541 26.8902 90.5055C26.774 90.5955 26.6707 90.6597 26.5287 90.724C26.3351 90.7882 26.5287 91.1224 26.7482 91.0325Z" fill="#CFFF55"/>
<path d="M26.3611 90.8141C26.7871 90.8269 27.1873 90.5185 27.2647 90.0943C27.2905 89.9144 27.0194 89.8373 26.9807 90.0172C26.9291 90.3257 26.6709 90.5442 26.3611 90.5313C26.1674 90.5185 26.1674 90.8012 26.3611 90.8141Z" fill="#FCFCFC"/>
<path d="M27.019 90.0043C27.0706 90.5184 27.5225 90.9297 28.0518 90.8911C28.2325 90.8783 28.2325 90.5827 28.0518 90.5955C27.6903 90.6212 27.3417 90.377 27.303 90.0043C27.2901 89.8243 27.0061 89.8243 27.019 90.0043Z" fill="#FCFCFC"/>
<path d="M105.471 65.7767C101.198 70.9307 96.9376 76.0718 92.6646 81.2258C99.3646 82.8838 106.065 84.5419 112.765 86.1999C112.984 83.4365 113.036 77.7941 109.951 71.8946C108.556 69.2212 106.891 67.2162 105.471 65.7767Z" fill="#88ABC2"/>
<path d="M91.4121 82.2668C98.1768 83.9634 104.954 85.6471 111.719 87.3437C111.641 88.4233 111.422 89.9271 110.777 91.598C110.015 93.603 108.943 95.0554 108.169 95.9551C102.592 91.3923 97.002 86.8296 91.4121 82.2668Z" fill="#CFFF55"/>
<path fill-rule="evenodd" clip-rule="evenodd" d="M90.4187 59.5277C78.1833 59.5277 68.2505 69.6544 68.2505 82.164C68.2505 94.6735 78.1833 104.8 90.4187 104.8C102.654 104.8 112.587 94.6735 112.587 82.164C112.587 69.6544 102.654 59.5277 90.4187 59.5277ZM67.584 82.164C67.584 69.3036 77.7997 58.8641 90.4187 58.8641C103.038 58.8641 113.253 69.3036 113.253 82.164C113.253 95.0243 103.038 105.464 90.4187 105.464C77.7997 105.464 67.584 95.0243 67.584 82.164Z" fill="#D0E0EB"/>
<path d="M90.7024 81.6756C90.754 81.6242 90.8831 81.6628 90.9089 81.727C90.9218 81.6756 90.9218 81.6242 90.9347 81.5728C90.9218 81.5985 90.8831 81.5857 90.8702 81.5728C90.7669 81.5342 90.6636 81.6114 90.6378 81.7013C90.612 81.8042 90.6765 81.907 90.7669 81.9327C90.9218 81.9841 91.1025 81.9455 91.2058 81.8299C91.3349 81.7013 91.2962 81.5214 91.18 81.4057C90.9735 81.2001 90.6507 81.1872 90.4442 81.38C90.2376 81.56 90.5087 81.8427 90.7024 81.6756Z" fill="#0E151A"/>
<path d="M104.309 64.2471C100.191 70.2108 95.7627 75.9689 91.0507 81.4828C90.8957 81.6756 91.1668 81.9455 91.3218 81.7527C96.0596 76.2131 100.501 70.4422 104.644 64.4399C104.786 64.2342 104.451 64.0415 104.309 64.2471Z" fill="#49708A"/>
<path d="M90.8575 81.9198C98.1386 83.218 105.368 84.7475 112.546 86.5212C112.791 86.5854 112.894 86.2127 112.649 86.1484C105.471 84.3876 98.2418 82.8452 90.9608 81.5471C90.7155 81.5085 90.6123 81.8813 90.8575 81.9198Z" fill="#49708A"/>
<path d="M90.8315 81.8556C96.3439 86.881 102.024 91.7137 107.872 96.3665C108.066 96.5207 108.337 96.2508 108.143 96.0965C102.308 91.4567 96.615 86.6111 91.1026 81.5857C90.9219 81.4186 90.6379 81.6885 90.8315 81.8556Z" fill="#49708A"/>
<path opacity="0.21" d="M90.4315 59.2474C90.9091 61.3681 91.2319 64.3885 90.0571 67.4732C87.3848 74.5166 79.6261 74.8636 76.6827 80.6089C75.0819 83.7321 74.6817 88.899 79.7423 97.896V102.433C78.2448 101.598 76.5924 100.467 75.0045 98.9242C68.9757 93.0504 68.0462 85.3773 67.8525 82.4597C67.8654 80.3518 68.1624 73.5012 73.2359 67.3832C74.3848 65.9951 78.4643 61.2396 85.4096 59.7101C87.4364 59.2731 89.1922 59.2088 90.4315 59.2474Z" fill="#D0E0EB"/>
<path d="M52.2188 95.2868C53.1096 97.5232 54.0003 99.7467 54.8782 101.983C54.3489 103.14 53.5356 104.849 52.4125 106.893C50.9408 109.566 50.2436 110.466 50.476 110.736C50.8117 111.122 52.9934 110.158 61.4621 103.847C60.9328 102.382 60.3906 100.903 59.8613 99.3997C59.0867 97.2147 58.338 95.0554 57.6021 92.909C55.8206 93.7059 54.0262 94.5028 52.2188 95.2868Z" fill="#49708A"/>
<path d="M76.0239 56.1113C77.4568 58.5404 76.437 62.3063 76.295 62.8076C75.5075 65.7252 73.7259 66.008 67.1937 72.1645C63.1013 76.0332 61.9265 77.6013 61.0616 79.3235C59.8868 81.6885 59.4608 83.8863 59.293 85.3773C59.8223 88.4619 60.3516 91.5338 60.8809 94.6185C59.5254 95.4925 57.6276 96.5336 55.2006 97.2662C53.4966 97.7803 51.9474 98.0373 50.6693 98.153C49.4817 95.1583 47.7776 89.6316 48.6942 82.9095C49.8044 74.7222 54.1549 69.3626 57.7696 64.9155C63.2691 58.1549 69.6336 53.772 75.0815 50.9444C74.9007 51.9084 74.7975 53.2965 75.3397 54.7617C75.5978 55.4558 75.8819 55.8671 76.0239 56.1113Z" fill="#D0E0EB"/>
<path opacity="0.2" d="M73.8809 52.6281C72.2672 56.9724 70.3308 60.3398 68.575 62.8719C63.3466 70.4422 59.4867 71.0591 56.4013 78.0897C54.4261 82.5882 54.0001 86.881 53.871 88.4234C53.5482 92.0093 53.8323 95.0555 54.1937 97.2919C54.9167 97.2662 55.8203 97.1633 56.8144 96.8806C58.7379 96.3279 60.1063 95.3639 60.8938 94.6827C60.6744 93.6416 60.3516 92.0993 59.9901 90.2099C59.4996 87.5879 59.2543 86.2641 59.2543 85.3258C59.2543 82.5625 60.4291 80.4803 61.3844 78.8223C61.8362 78.0383 63.153 75.8661 67.7617 71.6632C72.6287 67.229 74.6555 66.4578 75.9335 63.206C76.6952 61.2653 76.6823 59.7229 76.6694 59.2216C76.5532 55.8413 74.6426 53.4764 73.8809 52.6281Z" fill="#49708A"/>
<path opacity="0.27" d="M76.657 60.2756C74.0105 62.4863 70.228 65.7895 65.8774 70.0309C59.5646 76.2003 58.4415 77.9997 57.9509 78.8994C56.5825 81.4057 54.2329 87.1124 56.5567 96.6364C57.3183 96.3279 58.1058 95.9809 58.932 95.5824C59.5904 95.2611 60.223 94.9269 60.8168 94.6056C60.3005 91.598 59.7841 88.5905 59.2677 85.57C59.3064 84.439 59.4872 82.7424 60.2488 80.853C60.4296 80.4032 60.9588 79.1565 62.2885 77.3571C63.3471 75.9175 64.367 74.9407 66.368 73.0513C67.9688 71.5347 69.5179 69.9409 71.1833 68.5014C74.1783 65.918 75.5209 65.2111 76.2439 63.2189C76.6699 62.0493 76.6957 60.9825 76.657 60.2756Z" fill="#49708A"/>
<path d="M66.4321 95.0041L72.3189 99.5155C69.7112 106.096 69.7112 107.806 70.2405 108.101C71.1183 108.602 73.9972 105.505 75.6367 103.23C77.0955 101.186 77.9475 99.2713 78.4381 97.9346C77.6377 96.9192 76.7211 95.8653 75.7012 94.7856C74.2941 93.2947 72.9128 92.0223 71.6089 90.9169C69.8919 92.2922 68.162 93.6417 66.4321 95.0041Z" fill="#49708A"/>
<path d="M86.5712 56.1113C87.7201 59.1445 87.023 62.075 86.8423 62.8076C85.5255 68.2572 80.6327 72.7557 78.9028 74.3238C75.9465 77.0229 73.4937 78.3724 72.1253 81.9712C71.6476 83.2051 71.454 84.2976 71.3765 85.0431C72.3189 87.1895 73.2613 89.3359 74.2037 91.4695C73.5841 92.7934 72.2286 95.2354 69.4917 97.0991C68.3299 97.896 67.1938 98.3844 66.2643 98.7057C64.3021 96.7135 58.9833 90.8012 59.2673 82.8966C59.4868 76.8301 62.9336 71.946 65.593 68.1544C68.2653 64.3628 68.9495 64.8255 72.3189 59.98C75.2365 55.7771 75.7916 53.862 78.2445 53.0137C80.7102 52.1526 84.3249 52.6281 85.9128 54.7617C86.2226 55.2116 86.3646 55.5843 86.5712 56.1113Z" fill="#D0E0EB"/>
<path opacity="0.24" d="M80.5689 55.5329C80.7109 56.7153 80.8142 58.7461 80.2203 61.0853C78.1548 69.0412 70.5898 69.7353 66.9492 78.3467C66.2392 80.0304 64.5868 84.1048 65.8907 88.8218C66.8976 92.4977 69.2472 94.8884 70.5768 96.0451C71.0932 95.7752 71.9453 95.2354 72.694 94.2843C73.6235 93.1018 73.9204 91.8936 74.0237 91.2896C73.1071 89.0917 72.1906 86.881 71.2869 84.6832C71.4547 83.7064 71.8033 82.3054 72.6166 80.8016C73.7268 78.7194 75.0694 77.6655 76.7993 76.1103C79.9751 73.2698 82.0019 71.4704 83.7576 68.9898C84.8678 67.4089 86.4815 65.0825 87.0108 61.6765C87.4497 58.9003 86.985 56.5739 86.5848 55.173C84.5838 55.3015 82.5699 55.4172 80.5689 55.5329Z" fill="#49708A"/>
<path opacity="0.25" d="M87.139 59.6586C86.1191 61.5223 84.3634 64.427 81.6524 67.5374C76.4369 73.514 72.8997 74.7608 70.4726 79.3621C69.427 81.3414 68.4717 84.6061 69.6464 89.85C71.131 90.4413 72.6286 91.0325 74.1132 91.6366C73.1708 89.4259 72.2413 87.228 71.2989 85.0174C71.3892 83.9249 71.6603 82.3054 72.5769 80.6345C73.3902 79.1436 74.2939 78.3596 76.282 76.5602C79.5739 73.5783 81.2264 72.0874 81.8977 71.3419C83.4339 69.6582 85.1122 67.7688 86.1708 64.8512C86.9453 62.7819 87.1132 60.9182 87.139 59.6586Z" fill="#49708A"/>
<path d="M55.7172 38.1944C55.3687 37.4232 54.7619 36.305 53.6517 35.2896C52.2574 34.0172 50.3081 33.1047 49.9983 33.4774C49.8692 33.6316 49.8821 34.1714 52.2316 36.7549" fill="#FCFCFC"/>
<path fill-rule="evenodd" clip-rule="evenodd" d="M51.5157 33.5678C52.2345 33.9174 53.0882 34.4754 53.8017 35.1266L53.8019 35.1267C54.9425 36.1699 55.5644 37.3175 55.9197 38.1036L55.5145 38.2852C55.1727 37.529 54.5812 36.4402 53.5014 35.4527C52.8207 34.8314 52.0027 34.297 51.3207 33.9653C50.9787 33.799 50.6805 33.6884 50.457 33.6406C50.3446 33.6166 50.2624 33.611 50.2083 33.6162C50.1947 33.6175 50.1846 33.6193 50.1772 33.621C50.1776 33.6289 50.1787 33.6394 50.1811 33.6532C50.1942 33.7278 50.242 33.8638 50.3771 34.0934C50.6458 34.55 51.2236 35.3171 52.3962 36.6064L52.0668 36.9033C50.8899 35.6092 50.2865 34.8146 49.9937 34.317C49.8479 34.0694 49.7699 33.88 49.7434 33.7293C49.7154 33.5699 49.7434 33.4365 49.8273 33.3361C49.9187 33.2262 50.0508 33.1869 50.1656 33.1759C50.2828 33.1646 50.4146 33.1791 50.5503 33.2081C50.823 33.2664 51.1574 33.3936 51.5157 33.5678ZM50.1783 33.602C50.1783 33.6021 50.1782 33.603 50.1776 33.6046C50.1779 33.6027 50.1782 33.6019 50.1783 33.602Z" fill="#0E151A"/>
<path d="M50.8504 36.0865C50.3469 36.395 49.4562 37.0505 48.9785 38.1815C48.7978 38.6185 48.5654 39.184 48.7332 39.8395C49.0301 40.9706 50.3986 41.4461 50.5148 41.4975C51.0699 41.6903 51.2119 41.549 51.6121 41.7803C52.2576 42.153 52.2317 42.6543 52.7094 43.117C53.6905 44.0553 55.6786 43.6825 55.769 43.2841C55.8206 43.0656 55.2526 42.86 55.3042 42.4615C55.3301 42.2173 55.5753 42.1145 55.7432 41.9603C56.6468 41.1377 55.7819 38.7342 55.627 38.3357C55.485 37.963 55.2655 37.4232 54.8782 36.8191" fill="#FCFCFC"/>
<path d="M50.8504 36.0865C50.3469 36.395 49.4562 37.0505 48.9785 38.1815C48.7978 38.6185 48.5654 39.184 48.7332 39.8395C49.0301 40.9706 50.3986 41.4461 50.5148 41.4975C51.0699 41.6903 51.2119 41.549 51.6121 41.7803C52.2576 42.153 52.2317 42.6543 52.7094 43.117C53.6905 44.0553 55.6786 43.6825 55.769 43.2841C55.8206 43.0656 55.2526 42.86 55.3042 42.4615C55.3301 42.2173 55.5753 42.1145 55.7432 41.9603C56.6468 41.1377 55.7819 38.7342 55.627 38.3357C55.485 37.963 55.2655 37.4232 54.8782 36.8191" stroke="#0E151A" stroke-width="0.737184" stroke-miterlimit="10"/>
<path d="M48.5135 39.6725C48.8104 40.4436 49.3784 41.1248 50.1659 41.4333C50.9663 41.7546 51.5601 41.3305 51.5731 40.4822C51.5731 40.238 51.1858 40.238 51.1858 40.4822C51.1729 41.4719 50.1917 41.112 49.7012 40.7135C49.3268 40.4179 49.0557 40.0195 48.8878 39.5696C48.7975 39.3383 48.4231 39.4282 48.5135 39.6725Z" fill="#0E151A"/>
<path d="M49.4821 38.6185C49.8694 39.3383 50.3858 40.1351 51.1862 40.4308C51.9091 40.7007 52.3351 40.2637 52.4126 39.5825C52.4384 39.3383 52.0511 39.3383 52.0253 39.5825C51.9091 40.5978 50.9151 39.8909 50.5665 39.5311C50.2567 39.2097 50.0243 38.8241 49.8177 38.4257C49.7016 38.2072 49.3659 38.4 49.4821 38.6185Z" fill="#0E151A"/>
<path d="M50.644 36.8832C50.8764 37.3973 51.1088 37.9243 51.4315 38.387C51.651 38.7083 51.9608 39.171 52.3868 39.2482C53.3938 39.441 53.071 38.0143 52.8774 37.5259C52.787 37.2945 52.4126 37.3973 52.503 37.6287C52.5934 37.8472 52.787 38.297 52.7096 38.5412C52.4901 39.2482 51.8962 38.3742 51.7671 38.1942C51.4444 37.7315 51.212 37.2046 50.9797 36.6904C50.8764 36.4591 50.5407 36.6519 50.644 36.8832Z" fill="#0E151A"/>
<path d="M50.8371 36.3049C51.2243 36.1121 51.702 36.4591 51.9731 36.7162C52.2442 36.9732 52.4249 37.3074 52.5669 37.6416C52.6573 37.8729 53.0317 37.7701 52.9413 37.5387C52.6186 36.7419 51.6633 35.4694 50.6434 35.9707C50.424 36.0735 50.6176 36.4077 50.8371 36.3049Z" fill="#0E151A"/>
<path d="M78.8383 32.3592C79.2514 33.5802 78.6188 34.6213 76.8502 37.7574C73.881 42.9756 73.7003 43.4383 73.016 44.2609C71.4023 46.1889 70.4858 47.2814 68.7946 47.9883C65.7092 49.2736 62.2881 48.1425 60.4162 47.4356C58.6734 46.7672 57.3825 45.9061 56.5434 45.2635C55.9753 44.8007 55.5364 44.4409 55.2524 44.2224C54.6585 43.7468 54.3874 43.5412 54.1551 43.1299C54.1422 43.117 53.9227 42.7186 53.8711 42.2687C53.6774 40.8935 55.0458 39.7367 55.1491 39.6467C53.5096 40.0323 52.9416 39.9552 52.8383 39.7239C52.593 39.2098 54.3745 37.3204 55.6268 37.7445C56.2206 37.9373 56.5175 38.6057 56.737 39.0941C57.163 40.0195 57.1114 40.8806 57.0597 41.3176C57.8472 41.8574 58.9704 42.4872 60.4033 42.9114C63.2305 43.734 65.6576 43.297 66.8582 42.9885C67.5165 41.9346 68.588 40.2123 69.8919 38.0658C73.455 32.1792 74.3974 30.3156 76.0369 30.2899C77.2633 30.277 78.4768 31.2924 78.8383 32.3592Z" fill="#FCFCFC"/>
<path fill-rule="evenodd" clip-rule="evenodd" d="M77.6262 31.0948C77.1539 30.7319 76.5915 30.5054 76.0398 30.511C75.3318 30.5223 74.7432 30.9163 73.865 32.1107C73.1619 33.0669 72.3051 34.4904 71.0745 36.5348C70.768 37.0439 70.4384 37.5915 70.0822 38.18L70.082 38.1803C68.7775 40.3278 67.7055 42.051 67.0468 43.1053L66.9998 43.1805L66.9137 43.2027C65.6929 43.5163 63.2216 43.9618 60.341 43.1237L60.34 43.1234C58.8799 42.6912 57.7358 42.0496 56.9337 41.4998L56.8234 41.4242L56.8391 41.2918C56.8888 40.8715 56.9363 40.0579 56.535 39.1862L56.5342 39.1844L56.5342 39.1844L56.5334 39.1827C56.4224 38.9355 56.3015 38.6664 56.1398 38.4346C55.9786 38.2034 55.791 38.0305 55.5579 37.9548L55.5552 37.954L55.5552 37.9539C55.3064 37.8697 55.0155 37.8953 54.7057 38.0099C54.3966 38.1242 54.0863 38.3211 53.8149 38.5509C53.5434 38.7807 53.3208 39.035 53.1829 39.2551C53.1137 39.3656 53.0706 39.4599 53.0505 39.5326C53.0309 39.6034 53.0395 39.6295 53.0393 39.6296C53.0393 39.6296 53.0392 39.6295 53.0392 39.6294L53.0399 39.6308C53.0441 39.6349 53.057 39.6445 53.0882 39.6557C53.1473 39.6771 53.2503 39.6955 53.4176 39.6955C53.7513 39.6955 54.2831 39.6231 55.098 39.4315L55.9686 39.2267L55.2954 39.8132C55.2936 39.8148 55.2915 39.8167 55.2889 39.8189C55.2208 39.8779 54.8841 40.1695 54.581 40.6023C54.2639 41.055 54.0056 41.6307 54.0911 42.238L54.0919 42.2436L54.0918 42.2436C54.1147 42.4427 54.1755 42.6349 54.234 42.7814C54.263 42.8539 54.2907 42.9133 54.3112 42.9542C54.3193 42.9703 54.326 42.9831 54.3311 42.9923L54.3338 42.995L54.3487 43.0214C54.5486 43.3753 54.7718 43.5539 55.33 44.0007C55.3496 44.0164 55.3696 44.0324 55.39 44.0487C55.6376 44.2393 56.0001 44.5347 56.4572 44.9074C56.5296 44.9664 56.6044 45.0274 56.6814 45.0901C57.509 45.7237 58.7803 46.5711 60.4955 47.229C62.3711 47.9372 65.7135 49.032 68.7088 47.7842C70.3418 47.1016 71.2257 46.0544 72.8452 44.1195C73.1754 43.7226 73.3843 43.4137 73.8835 42.5475C74.1184 42.14 74.4151 41.6134 74.8166 40.9008C75.2733 40.0902 75.8656 39.039 76.6567 37.6487C76.7243 37.5288 76.7902 37.4121 76.8544 37.2984C77.6336 35.918 78.1601 34.9853 78.4565 34.2571C78.7718 33.4823 78.8118 32.9738 78.6278 32.4299M53.0393 39.6303C53.039 39.6298 53.0387 39.6294 53.0385 39.6292C53.0383 39.6289 53.0381 39.6288 53.0381 39.6288C53.0381 39.6288 53.0382 39.629 53.0384 39.6293C53.0386 39.6295 53.0389 39.6299 53.0393 39.6303ZM77.6262 31.0948C78.0989 31.4579 78.4631 31.944 78.6277 32.4298L77.6262 31.0948ZM77.8977 30.7445C78.4287 31.1525 78.8519 31.7075 79.0488 32.2885L79.0488 32.2886C79.2779 32.9656 79.2082 33.5881 78.8683 34.4232C78.5607 35.179 78.0198 36.1371 77.2501 37.5004C77.1831 37.6191 77.1144 37.7408 77.0439 37.8657L77.0435 37.8664C76.2552 39.2518 75.6627 40.3034 75.2052 41.1154C74.8022 41.8306 74.5039 42.3599 74.269 42.7676C73.7646 43.6427 73.5411 43.9765 73.1872 44.402L73.1867 44.4025L73.1737 44.4181C71.5739 46.3295 70.6251 47.463 68.8806 48.1922L68.8804 48.1923C65.7052 49.515 62.2058 48.348 60.3374 47.6424L60.3364 47.642C58.5681 46.9639 57.2585 46.0902 56.4079 45.4388L56.4026 45.4347L56.4027 45.4347C56.3244 45.3709 56.2486 45.3091 56.1754 45.2495C55.716 44.8749 55.3588 44.5838 55.1165 44.3974L55.1131 44.3948L55.1131 44.3947C55.0799 44.3681 55.0475 44.3423 55.016 44.3171C54.4981 43.9031 54.2089 43.672 53.9671 43.2483C53.965 43.2451 53.9631 43.2421 53.9616 43.2397C53.957 43.2323 53.9522 43.2241 53.9476 43.216C53.9382 43.1993 53.9267 43.1777 53.9138 43.1521C53.888 43.1007 53.8551 43.0299 53.8212 42.945C53.7541 42.7772 53.6797 42.5464 53.6507 42.2967C53.5437 41.5298 53.8724 40.8406 54.2165 40.3492C54.3016 40.2277 54.3891 40.1163 54.4733 40.0168C54.0231 40.1006 53.6781 40.1379 53.4176 40.1379C53.2251 40.1379 53.0642 40.1177 52.9366 40.0716C52.807 40.0247 52.6945 39.9441 52.6364 39.8163C52.5741 39.6835 52.5884 39.537 52.6221 39.4151C52.6574 39.2876 52.723 39.1533 52.8059 39.021C52.9722 38.7555 53.2273 38.4676 53.527 38.2138C53.8269 37.96 54.1814 37.7319 54.5509 37.5952C54.9192 37.459 55.3201 37.4074 55.697 37.5347C56.057 37.652 56.3145 37.9094 56.5048 38.1823C56.6903 38.4484 56.8255 38.7494 56.9326 38.9877L56.9394 39.0028C57.3489 39.8929 57.3399 40.7246 57.2946 41.2092C58.0607 41.7217 59.1252 42.3022 60.466 42.6992C63.174 43.487 65.5091 43.0972 66.7167 42.7961C67.3782 41.7368 68.4292 40.0463 69.7016 37.9516C70.0542 37.3692 70.3815 36.8254 70.6867 36.3184C71.919 34.271 72.7901 32.8236 73.5065 31.8494C74.3999 30.6342 75.1021 30.0833 76.0334 30.0687L76.0346 30.0687C76.7091 30.0616 77.3664 30.3364 77.8977 30.7445Z" fill="#0E151A"/>
<path d="M55.033 39.9809C53.9228 39.9295 53.7679 41.3562 53.6259 42.1659C53.755 42.1787 53.8841 42.2045 54.0003 42.2173C54.0132 41.7032 54.2455 41.279 54.4908 40.842C54.6199 40.6235 54.2843 40.4308 54.1552 40.6493C53.6517 41.459 53.3419 42.4615 54.039 43.2584C54.1294 43.1684 54.2197 43.0784 54.3101 42.9885C54.1164 42.8214 54.0132 42.6029 54.0003 42.333C53.8712 42.3458 53.7421 42.3715 53.6259 42.3844C53.6904 42.59 53.7679 42.7828 53.8712 42.9756C53.9873 43.1941 54.323 43.0013 54.2068 42.7828C54.1164 42.6286 54.039 42.4615 54.0003 42.2816C53.9486 42.0759 53.6001 42.1145 53.6259 42.333C53.6646 42.7057 53.7808 42.9885 54.0519 43.2584C54.2326 43.4383 54.4908 43.1684 54.323 42.9885C53.755 42.333 54.1164 41.4975 54.5037 40.842C54.3875 40.7778 54.2843 40.7135 54.1681 40.6493C53.8841 41.1505 53.6388 41.6261 53.6259 42.2173C53.613 42.4358 53.9744 42.4872 54.0003 42.2687C54.1035 41.6775 54.1939 40.3408 55.033 40.3665C55.2783 40.3793 55.2783 39.9938 55.033 39.9809Z" fill="#FCFCFC"/>
<path opacity="0.21" d="M76.8635 30.8168C76.0502 32.9889 74.7334 36.0865 72.6549 39.5953C70.5377 43.1812 69.4275 44.9806 67.5169 45.9318C63.5924 47.8725 57.5377 46.5615 55.498 42.8471C54.8784 41.716 54.7364 40.5721 54.7364 39.711C54.2458 39.8781 53.4841 40.058 52.7483 39.7752C51.0958 39.1197 50.9409 36.6648 50.0631 36.6905C49.4821 36.7162 49.0561 37.8087 48.9012 38.2072C48.7592 38.5671 48.5268 39.1583 48.6688 39.7752C48.8754 40.6878 49.8436 41.4075 51.0571 41.6389C51.6897 41.9474 52.0899 42.2944 52.3352 42.5643C52.7612 43.027 52.8774 43.3869 53.3292 43.6054C53.7294 43.7982 54.1554 43.7725 54.4394 43.7211C55.0462 44.2095 56.0015 44.9421 57.2408 45.7004C59.9002 47.3199 63.1147 49.2735 66.7552 48.6052C68.4722 48.2967 69.647 47.5127 70.3699 47.0371C71.5447 46.2531 72.8098 45.0706 75.211 40.7649C76.2051 38.9783 77.4315 36.6006 78.6579 33.6701C78.7095 33.5416 78.9936 32.7833 78.5934 31.9864C78.1028 30.9324 76.928 30.8168 76.8635 30.8168Z" fill="#49708A"/>
<path opacity="0.22" d="M52.4382 39.7495C52.2574 39.8781 52.3349 40.1351 52.1154 40.3279C51.9605 40.4564 51.754 40.4564 51.6249 40.4564C51.6249 40.6364 51.5991 40.8677 51.4571 41.0734C51.2763 41.3304 51.031 41.3818 51.0439 41.4847C51.0698 41.6003 51.4312 41.5361 51.7798 41.7289C52.0251 41.8702 52.18 42.0887 52.2704 42.2558C53.1224 41.4461 53.9744 40.6492 54.8265 39.8395C54.181 40.0837 53.7033 40.0451 53.3806 39.968C52.9675 39.8395 52.6576 39.5953 52.4382 39.7495Z" fill="#49708A"/>
<path d="M78.7351 29.84C77.8701 30.7012 77.4183 31.678 76.5404 33.6316C75.8433 35.1611 74.7202 37.7188 74.3458 41.1248C73.9327 44.9293 74.9009 45.7904 74.1263 48.6181C73.5454 50.7516 72.4481 52.3197 71.6348 53.2708C72.6804 54.3119 74.5782 55.9185 77.4054 56.9082C82.1948 58.579 86.4034 57.3195 87.7847 56.831C88.9337 53.7464 90.0697 50.6617 91.2187 47.5898C91.2316 44.9807 91.3349 42.7571 91.4381 41.0349C91.6963 36.9219 92.1223 33.773 92.3934 31.8579C92.7033 29.6087 93.026 27.7193 93.2713 26.3312C90.3666 26.4854 87.9654 26.8196 86.2485 27.1281C80.6199 28.1563 79.2902 29.2873 78.7351 29.84Z" fill="#FCFCFC"/>
<path fill-rule="evenodd" clip-rule="evenodd" d="M93.5384 26.0955L93.49 26.3695C93.2449 27.7563 92.9227 29.6426 92.6134 31.8879L92.6133 31.8888C92.3425 33.8014 91.9174 36.944 91.6597 41.0486C91.5566 42.7682 91.4536 44.9873 91.4407 47.5909L91.4405 47.6302L91.4267 47.667C90.7627 49.4423 90.1033 51.2211 89.4431 53.0021C88.9608 54.303 88.4781 55.6052 87.9929 56.9079L87.9568 57.0049L87.8589 57.0395C86.4597 57.5342 82.1923 58.8126 77.3317 57.1169L77.3315 57.1168C74.4625 56.1125 72.5373 54.4824 71.4775 53.4272L71.3325 53.2828L71.4654 53.1274C72.2652 52.1921 73.342 50.6525 73.9117 48.5602L73.9118 48.5598C74.2892 47.1823 74.2427 46.2899 74.1502 45.2574C74.1431 45.1782 74.1357 45.0982 74.1282 45.0171C74.0372 44.0289 73.9315 42.8811 74.1247 41.101L74.1248 41.1008C74.503 37.6594 75.638 35.0759 76.3377 33.5408C77.2112 31.5968 77.6785 30.579 78.5778 29.6836C79.1787 29.0853 80.5597 27.9423 86.2082 26.9105L86.2089 26.9104C87.9337 26.6005 90.3442 26.2651 93.2593 26.1103L93.5384 26.0955ZM86.2881 27.3457C80.6797 28.3702 79.4013 29.4893 78.892 29.9964C78.0615 30.8232 77.6251 31.7589 76.7431 33.7219L76.7426 33.723C76.048 35.2469 74.9369 37.7786 74.5665 41.1488C74.3781 42.8842 74.4804 43.9953 74.5708 44.9779C74.5783 45.0587 74.5856 45.1387 74.5927 45.2181C74.6874 46.2741 74.7377 47.2261 74.3406 48.6761C73.7795 50.7366 72.7466 52.278 71.9364 53.2566C72.9938 54.2829 74.8192 55.7684 77.4789 56.6995C82.0896 58.3079 86.1571 57.1598 87.6125 56.6567C88.085 55.388 88.5555 54.1187 89.0258 52.8502C89.6817 51.0806 90.3372 49.3126 90.9966 47.5494C91.0103 44.9521 91.1133 42.738 91.2162 41.0217L91.2162 41.021C91.475 36.8999 91.9018 33.7446 92.1733 31.8271M86.2881 27.3457C87.9419 27.0485 90.2351 26.7272 93.004 26.5675L86.2881 27.3457Z" fill="#0E151A"/>
<path opacity="0.19" d="M85.5773 27.2181C86.1582 28.5933 86.907 30.8169 87.0748 33.6059C87.475 40.238 84.2605 45.4306 81.8206 49.3636C80.7104 51.1501 78.9934 53.6307 76.4502 56.317C77.4313 56.8311 78.8385 57.4095 80.6071 57.6922C83.8087 58.2063 86.4164 57.4352 87.7074 56.9468C88.7918 53.8364 89.8633 50.7388 90.9477 47.6284C91.0123 45.5077 91.1284 43.3099 91.2963 41.0735C91.6836 35.8552 92.3161 30.9582 93.0907 26.4083C90.5862 26.6782 88.0818 26.9481 85.5773 27.2181Z" fill="#49708A"/>
<path opacity="0.11" d="M87.8885 26.8194C88.818 29.2101 89.7862 32.6932 89.5667 36.8832C88.9471 48.5408 79.6779 55.597 78.0771 56.7795C79.0583 57.1265 80.388 57.4864 82.0017 57.5892C84.4029 57.7435 86.3522 57.2551 87.5528 56.8438C88.7405 53.7334 89.9411 50.6358 91.1288 47.5254C91.1288 44.6849 91.2321 41.6517 91.4773 38.4384C91.813 34.107 92.3681 30.0969 93.0394 26.4724C91.3224 26.5881 89.6054 26.7038 87.8885 26.8194Z" fill="#49708A"/>
<path d="M92.794 26.1639C93.8397 26.5495 95.376 27.295 96.4862 28.7988C97.7255 30.4825 97.9966 32.5133 97.2866 38.9526C96.6282 44.942 96.0602 46.2273 95.8407 49.8261C95.5954 53.7848 95.9698 57.0237 96.3184 59.093C97.7901 58.746 99.2618 58.399 100.733 58.0519C102.334 58.4761 103.302 59.2601 103.78 59.7357C104.258 60.1984 105.265 61.1752 104.981 61.9721C104.8 62.4862 104.142 62.7432 103.858 62.846C103.302 63.0645 102.838 63.0388 102.334 63.0003C101.263 62.936 100.191 62.8975 99.1198 62.846C98.5647 62.8203 97.7643 62.7946 96.796 62.846C98.0999 63.9642 98.655 64.684 98.4872 65.0053C98.2548 65.4295 96.7057 65.1339 93.8268 64.1313C93.6977 63.0903 93.4912 61.5093 93.1813 59.5814C92.3809 54.5431 91.8 52.7437 91.4127 50.0703C91.0125 47.3069 91.1416 44.8135 91.4127 39.8394C91.6193 36.3177 91.9937 31.665 92.794 26.1639Z" fill="#FCFCFC"/>
<path fill-rule="evenodd" clip-rule="evenodd" d="M92.6135 25.8615L92.8712 25.9565C93.935 26.3488 95.518 27.1139 96.6652 28.6678C97.9626 30.4304 98.2162 32.5492 97.5074 38.9767C97.1875 41.8874 96.8887 43.6903 96.6411 45.1839C96.6334 45.2302 96.6258 45.2761 96.6183 45.3218C96.3668 46.8402 96.1715 48.052 96.0625 49.8395C95.8275 53.6313 96.1642 56.7593 96.4989 58.8231L100.737 57.8239L100.791 57.8382C102.437 58.2743 103.437 59.0819 103.936 59.5782C103.937 59.5786 103.937 59.5789 103.937 59.5793L103.938 59.5798C104.175 59.8096 104.56 60.1827 104.849 60.6037C105.132 61.0151 105.37 61.5402 105.19 62.046C105.076 62.3701 104.818 62.5967 104.577 62.7498C104.335 62.9038 104.082 63.0001 103.936 63.0529C103.332 63.2899 102.824 63.2596 102.319 63.221C101.607 63.1783 100.897 63.147 100.184 63.1157C99.8265 63.1 99.4684 63.0842 99.1094 63.067C98.6672 63.0465 98.0704 63.0262 97.3576 63.0451C97.8029 63.4483 98.1409 63.7966 98.3689 64.0888C98.5156 64.2768 98.6252 64.4522 98.6852 64.6123C98.7445 64.7702 98.7676 64.9478 98.6843 65.1074L98.6823 65.1113C98.566 65.3235 98.3186 65.392 98.082 65.4093C97.8306 65.4276 97.503 65.3951 97.1081 65.3207C96.3151 65.1713 95.1954 64.8423 93.7535 64.3401L93.6232 64.2948L93.6063 64.1584C93.4774 63.1189 93.2712 61.5408 92.9619 59.6164C92.5625 57.1019 92.2178 55.3958 91.9245 53.9838C91.8963 53.8481 91.8686 53.715 91.8413 53.5841C91.5849 52.3538 91.3689 51.3174 91.1928 50.1019C90.7888 47.3125 90.9201 44.7954 91.1909 39.8274L91.1909 39.8265C91.3977 36.3004 91.7726 31.6411 92.5742 26.1322L92.6135 25.8615ZM92.9742 26.4701C92.2023 31.8434 91.8374 36.3933 91.6345 39.8518C91.3631 44.8317 91.2362 47.3015 91.6326 50.0387C91.8066 51.2401 92.0199 52.2634 92.2767 53.4954C92.3038 53.6259 92.3315 53.7586 92.3597 53.8942C92.6537 55.3098 92.9998 57.0229 93.4007 59.5467C93.6978 61.3955 93.9002 62.9257 94.0303 63.9677C95.4033 64.4422 96.4544 64.7473 97.1907 64.886C97.572 64.9578 97.8552 64.9823 98.0496 64.9681C98.1464 64.961 98.2101 64.945 98.2493 64.928C98.2682 64.9198 98.279 64.9124 98.2847 64.9075C98.288 64.9048 98.2898 64.9027 98.2909 64.9013C98.294 64.8928 98.3025 64.8564 98.269 64.767C98.2314 64.6668 98.1521 64.5321 98.018 64.3602C97.7509 64.0179 97.2994 63.5697 96.651 63.0136L96.2322 62.6545L96.7842 62.6252C97.7628 62.5732 98.5714 62.5992 99.1301 62.6251C99.4853 62.6421 99.8419 62.6578 100.199 62.6735C100.914 62.705 101.632 62.7365 102.348 62.7795L102.351 62.7797C102.852 62.818 103.272 62.8388 103.776 62.6403L103.782 62.6381C103.921 62.5878 104.137 62.5046 104.338 62.3768C104.542 62.2472 104.704 62.0885 104.771 61.899L104.771 61.8981C104.875 61.607 104.752 61.2453 104.483 60.8534C104.221 60.4727 103.866 60.1273 103.625 59.8942L103.623 59.8921C103.171 59.4424 102.252 58.6951 100.73 58.2801L96.1385 59.3627L96.0992 59.1296C95.7487 57.0486 95.3724 53.7923 95.6189 49.8127C95.7294 48.0014 95.9279 46.7711 96.1798 45.2498C96.1874 45.2042 96.195 45.1582 96.2027 45.112C96.4498 43.6209 96.7471 41.8272 97.0657 38.9285C97.777 32.4776 97.4882 30.5344 96.3071 28.9296C95.3205 27.5934 93.9821 26.8722 92.9742 26.4701Z" fill="#0E151A"/>
<path d="M98.7842 61.1367C99.7783 60.7254 100.811 60.9567 101.766 61.3809C102.58 61.7279 103.38 62.152 104.013 62.769C104.193 62.9361 104.464 62.6661 104.284 62.4991C103.548 61.7922 102.631 61.3166 101.689 60.9439C100.721 60.5454 99.675 60.3655 98.668 60.7768C98.4615 60.8539 98.5648 61.2266 98.7842 61.1367Z" fill="#0E151A"/>
<path d="M100.049 59.9542C101.766 59.6201 103.806 60.6354 104.748 62.0878C104.89 62.2935 105.226 62.1007 105.084 61.895C104.025 60.2884 101.857 59.2216 99.9459 59.5944C99.7006 59.6329 99.8039 60.0057 100.049 59.9542Z" fill="#0E151A"/>
<path d="M101.534 59.0674C102.218 59.0931 102.812 59.3887 103.405 59.71C103.625 59.8257 103.819 59.4915 103.599 59.3758C102.941 59.0288 102.282 58.7075 101.534 58.6818C101.288 58.6689 101.288 59.0545 101.534 59.0674Z" fill="#0E151A"/>
<path opacity="0.16" d="M92.9746 26.4724C93.6201 27.9248 94.5367 30.2897 95.0014 33.323C96.1246 40.752 93.3619 44.6207 93.8525 52.6537C93.9686 54.6459 94.343 57.6149 95.5307 61.2266C96.5635 60.8924 98.1385 60.5582 99.9845 60.7639C101.288 60.9181 101.934 60.9952 102.579 61.4579C103.225 61.9206 103.599 62.5376 104.258 62.499C104.516 62.4862 104.864 62.3705 105.006 62.1006C105.355 61.4708 104.4 60.3912 104.077 60.0313C103.612 59.5043 102.657 58.6046 100.901 58.0776C99.3778 58.3861 97.8544 58.6946 96.3311 59.003C96.0342 57.692 95.6211 55.5071 95.5824 52.7951C95.5436 50.4816 95.9567 47.6797 96.7959 42.1529C96.9508 41.1247 97.1444 39.0554 97.5446 34.9039C97.6737 33.5415 97.777 32.3205 97.3122 30.8167C97.0799 30.0584 96.5118 28.3361 94.8336 27.2564C94.1236 26.768 93.4394 26.5752 92.9746 26.4724Z" fill="#49708A"/>
<path opacity="0.22" d="M95.8018 62.769C95.9696 63.1803 96.3311 63.8872 97.0669 64.4399C97.5187 64.7741 98.3062 65.1854 98.4482 65.0183C98.629 64.8126 97.9448 63.6816 96.8862 63.1161C96.486 62.8976 96.0858 62.8076 95.8018 62.769Z" fill="#49708A"/>
<path opacity="0.4" d="M97.2475 37.0504C96.0727 40.2636 94.6655 45.4176 95.0528 51.7798C95.2465 55.0315 95.879 57.8335 96.5503 60.057C95.879 57.5121 95.6854 55.4043 95.6208 53.9647C95.4659 50.1217 96.163 47.9624 96.886 40.9062C97.0667 39.2739 97.1829 37.9243 97.2475 37.0504Z" fill="#49708A"/>
<path opacity="0.22" d="M99.8549 59.6585C99.8291 59.5043 101.12 58.9131 102.398 59.1958C104.115 59.5814 104.915 61.3808 105.057 61.7278C104.451 61.0466 103.47 60.1598 102.05 59.8256C100.849 59.5557 99.8678 59.787 99.8549 59.6585Z" fill="#49708A"/>
<path d="M73.9848 23.5292C73.4426 24.0305 73.3265 25.0844 73.107 27.1538C72.8617 29.5315 72.7584 30.7397 73.2619 31.3438C74.1785 32.4491 76.1537 32.5134 77.5221 31.9093C79.1358 31.1896 79.6909 29.6344 79.8329 29.2488C80.4655 27.4622 80.2589 24.7631 78.3483 23.5292C77.0573 22.681 75.0563 22.5396 73.9848 23.5292Z" fill="#49708A"/>
<path d="M76.7727 25.4058C76.9664 26.3312 77.9991 26.4083 78.877 27.8864C79.5096 28.9532 79.6387 30.0457 79.6516 30.8297C80.4391 30.8169 81.8979 30.6626 83.4728 29.8529C84.6993 29.2103 85.5255 28.4005 86.0031 27.8479C85.6804 27.3209 85.2027 26.5497 84.6347 25.6243C82.1819 21.7042 81.8204 21.3957 81.3298 21.2672C79.3417 20.7916 76.3984 23.6835 76.7727 25.4058Z" fill="#FCFCFC"/>
<path fill-rule="evenodd" clip-rule="evenodd" d="M79.64 21.2672C80.2164 21.0248 80.8234 20.9185 81.3818 21.0521L81.3864 21.0532L81.3864 21.0532C81.5305 21.091 81.6739 21.1454 81.8438 21.2756C82.0067 21.4005 82.1879 21.5903 82.4214 21.8876C82.8883 22.4816 83.5979 23.5489 84.8233 25.5073L84.8243 25.5089L84.8243 25.5089C85.118 25.9874 85.3883 26.4259 85.6254 26.8105C85.8458 27.1681 86.0376 27.4792 86.1929 27.7327L86.277 27.8701L86.1716 27.9921C85.6815 28.5591 84.8343 29.3894 83.5764 30.0486L83.5748 30.0494L83.5748 30.0494C81.9608 30.8792 80.4657 31.0376 79.6553 31.0509L79.4331 31.0545L79.4295 30.8333C79.4169 30.0689 79.291 29.0196 78.6857 27.9988C78.2677 27.295 77.8159 26.9266 77.4276 26.61C77.4206 26.6043 77.4137 26.5987 77.4068 26.5931C77.0312 26.287 76.6687 25.9916 76.5554 25.4517C76.4472 24.9526 76.5827 24.3955 76.8486 23.8666C77.1166 23.3337 77.5288 22.8052 78.0131 22.3512C78.4975 21.8972 79.0618 21.5104 79.64 21.2672ZM77.246 24.0647C77.0033 24.5472 76.9113 24.9971 76.9899 25.359L76.9903 25.3607L76.9903 25.3607C77.0688 25.7358 77.308 25.9406 77.7091 26.2677L77.7132 26.271C78.1085 26.5933 78.6101 27.0023 79.0683 27.7738L79.0684 27.7739C79.6689 28.7867 79.8325 29.8185 79.867 30.6016C80.6661 30.5643 81.971 30.3759 83.3701 29.6567C84.4781 29.076 85.251 28.3551 85.7284 27.8242C85.59 27.5987 85.4283 27.3365 85.247 27.0424C85.0105 26.6587 84.7406 26.221 84.4457 25.7404C83.2186 23.7793 82.5212 22.7324 82.0715 22.1602C81.8468 21.8742 81.6923 21.7178 81.5727 21.6262C81.4611 21.5406 81.3758 21.5081 81.2756 21.4817C80.8405 21.3783 80.3349 21.4552 79.8129 21.6748C79.2917 21.8939 78.7708 22.2486 78.3177 22.6733C77.8645 23.0982 77.4867 23.5859 77.246 24.0647Z" fill="#0E151A"/>
<path opacity="0.74" d="M73.2354 27.835C73.3516 29.3259 74.72 30.4056 76.153 30.1999C77.5343 29.9943 78.5284 28.6576 78.2831 27.2309C78.5413 27.5265 78.9027 28.0149 79.1609 28.6833C79.3675 29.2102 79.4449 29.6858 79.4708 30.0328C79.2771 30.3541 78.2702 31.9479 76.3854 32.2564C76.0626 32.3078 74.2295 32.5777 73.3645 31.4852C72.9514 30.9454 72.9127 30.2899 72.8869 29.7629C72.861 28.9018 73.0805 28.2206 73.2354 27.835Z" fill="#0E151A"/>
<path d="M67.8136 14.6094C67.2197 15.7019 67.3617 16.8072 67.6457 18.9665C67.9814 21.4085 68.4203 23.4521 68.9496 24.8017C69.0271 25.0073 69.2336 25.123 69.4531 25.0973C69.7371 25.0716 70.1631 24.8531 70.4084 24.776C70.7182 25.3287 71.2346 26.0741 72.035 26.7682C73.6229 28.1306 75.3657 28.4519 76.1403 28.5419C76.902 28.2591 78.7868 27.4237 80.039 25.4186C80.8652 24.0819 81.033 22.8481 81.0718 22.5653C81.2912 20.7145 80.6716 19.275 80.3746 18.6837C80.6457 18.5166 81.0589 18.221 81.3429 17.7198C81.9367 16.6787 81.9109 14.9564 80.9685 14.4937C80.2585 14.1467 79.1353 14.5322 78.3736 15.5219C78.1284 15.0978 77.754 14.5322 77.186 13.9667C77.044 13.8253 75.9983 12.7714 74.8106 12.2958C72.4869 11.3833 69.0271 12.3858 67.8136 14.6094Z" fill="#FCFCFC"/>
<path fill-rule="evenodd" clip-rule="evenodd" d="M70.8283 12.0658C72.1734 11.6393 73.6731 11.6114 74.8921 12.0901L74.8935 12.0906L74.8935 12.0906C76.1057 12.576 77.1634 13.6311 77.3343 13.8015C77.3376 13.8048 77.3405 13.8077 77.3431 13.8103C77.815 14.2801 78.1569 14.7496 78.4036 15.1418C78.7664 14.7461 79.1879 14.4609 79.6112 14.2999C80.1146 14.1085 80.6402 14.0868 81.0664 14.2951L81.0668 14.2953C81.641 14.5772 81.9006 15.221 81.9533 15.8721C82.0066 16.5312 81.8567 17.2669 81.5361 17.829C81.2813 18.2784 80.9333 18.5741 80.6596 18.7625C80.9836 19.4543 81.4995 20.8447 81.2924 22.5912L81.292 22.5952L81.2919 22.5952L81.2918 22.5964C81.2513 22.8919 81.0775 24.1605 80.2282 25.5346L80.2277 25.5354C78.9374 27.6014 76.9982 28.4595 76.2179 28.7491L76.1678 28.7678L76.1146 28.7616C75.3192 28.6692 73.5258 28.3392 71.89 26.9357L71.8891 26.935C71.142 26.2871 70.6353 25.5959 70.3093 25.048C70.278 25.0605 70.245 25.0739 70.2102 25.0881C70.1538 25.1111 70.0927 25.136 70.0265 25.1618C69.8563 25.2283 69.6529 25.3007 69.4761 25.3173C69.1644 25.3526 68.8583 25.187 68.7422 24.8809C68.2033 23.5064 67.7618 21.4423 67.4257 18.9965L67.4255 18.9952L67.4255 18.9952L67.4198 18.9523C67.1424 16.8433 66.9874 15.6647 67.6182 14.5041L67.6184 14.5038C68.26 13.3281 69.4836 12.4922 70.8283 12.0658ZM68.0089 14.7148C67.4565 15.7312 67.579 16.755 67.866 18.9371C68.201 21.3743 68.6371 23.3968 69.1566 24.7212L69.1577 24.724L69.1577 24.724C69.1966 24.8273 69.3015 24.8923 69.4272 24.8776L69.433 24.8769L69.433 24.877C69.5396 24.8674 69.6898 24.8181 69.8641 24.75C69.9131 24.7309 69.9651 24.7097 70.0175 24.6885C70.1332 24.6414 70.2507 24.5936 70.3415 24.5651L70.5142 24.5108L70.6024 24.6682C70.9028 25.2039 71.4039 25.9275 72.1806 26.601C73.6852 27.8918 75.335 28.2198 76.1129 28.3158C76.8853 28.0228 78.6624 27.2037 79.8501 25.3022C80.6498 24.0082 80.8135 22.8137 80.8514 22.5375C81.0629 20.7489 80.4639 19.3561 80.176 18.7826L80.0852 18.602L80.2577 18.4956C80.5158 18.3366 80.8922 18.065 81.1494 17.6111L81.1497 17.6105C81.4229 17.1315 81.5571 16.4855 81.5103 15.9076C81.463 15.3217 81.2385 14.873 80.8704 14.6922C80.5867 14.5536 80.1957 14.5512 79.7697 14.7132C79.3466 14.8741 78.908 15.1914 78.55 15.6564L78.3474 15.9198L78.1811 15.6323C77.9422 15.2191 77.579 14.6708 77.0289 14.1231L77.0229 14.1172C76.8584 13.9532 75.8537 12.9521 74.7284 12.5013C73.6238 12.0678 72.2321 12.0849 70.9632 12.4873C69.6938 12.8899 68.5808 13.667 68.0089 14.7148Z" fill="#0E151A"/>
<path d="M80.788 23.8506C80.1942 25.0973 79.5874 26.3312 78.7612 27.4494C78.8645 27.4366 78.9677 27.4237 79.071 27.4109C78.9936 27.3209 78.9161 27.2181 78.8516 27.1281C78.8387 27.2052 78.8257 27.2823 78.8257 27.3595C79.1614 27.0767 79.4196 26.7682 79.652 26.3955C79.5358 26.3312 79.4325 26.267 79.3163 26.2027C79.1356 26.5883 78.9032 26.8196 78.5288 26.9867C78.6063 27.0895 78.6837 27.1924 78.7612 27.2952C79.4325 26.6654 80.0392 25.9713 80.5814 25.2259C80.7235 25.0202 80.3878 24.8274 80.2458 25.0331C79.7294 25.7528 79.1356 26.4212 78.4901 27.0253C78.3223 27.1795 78.5417 27.4109 78.7225 27.3337C79.1485 27.141 79.4583 26.8325 79.652 26.4083C79.7552 26.1898 79.4583 25.997 79.3163 26.2155C79.0968 26.5497 78.8516 26.8325 78.5546 27.1024C78.4901 27.1538 78.4772 27.2695 78.5288 27.3337C78.645 27.5137 78.6579 27.5394 78.8128 27.6936C78.9032 27.7965 79.0452 27.745 79.1227 27.6551C79.9489 26.5497 80.5556 25.303 81.1495 24.0563C81.2269 23.8249 80.8913 23.6321 80.788 23.8506Z" fill="#0E151A"/>
<path d="M71.1312 25.7657C72.022 25.5343 72.5384 24.7888 72.9902 24.0562C73.1193 23.8506 72.7837 23.6578 72.6546 23.8634C72.2544 24.5061 71.8025 25.1873 71.0279 25.4058C70.7827 25.4572 70.8859 25.8299 71.1312 25.7657Z" fill="#0E151A"/>
<path d="M72.3709 23.7862C72.6291 23.7991 72.8356 23.9019 73.0035 24.0947C73.1713 24.2875 73.4424 24.0047 73.2746 23.8248C73.0422 23.5549 72.7195 23.4135 72.3709 23.4006C72.1127 23.3878 72.1127 23.7734 72.3709 23.7862Z" fill="#0E151A"/>
<path d="M71.88 21.4727C71.88 21.4599 71.88 21.447 71.88 21.4342C71.88 21.3314 71.7896 21.2414 71.6863 21.2414C71.583 21.2414 71.4927 21.3314 71.4927 21.4342V21.4727C71.4927 21.5756 71.583 21.6655 71.6863 21.6655C71.7896 21.6527 71.88 21.5756 71.88 21.4727Z" fill="#0E151A"/>
<path d="M72.745 20.4444C72.9903 20.4444 72.9903 20.0588 72.745 20.0588C72.4997 20.0588 72.4997 20.4444 72.745 20.4444Z" fill="#0E151A"/>
<path d="M72.6288 21.4212C72.8741 21.4212 72.8741 21.0356 72.6288 21.0356C72.3835 21.0356 72.3835 21.4212 72.6288 21.4212Z" fill="#0E151A"/>
<path d="M67.7235 18.3622C67.3104 18.2209 66.4325 17.8481 65.9291 16.987C65.1416 15.6503 65.7742 14.0951 66.084 13.3625C66.2518 12.9512 66.7166 11.9358 68.9628 9.94361C70.6669 8.41412 71.5319 7.6558 72.5001 7.23166C75.9599 5.72787 79.4971 7.16739 80.1426 7.4373C81.0979 7.82289 81.795 8.29844 83.1763 9.22385C84.8546 10.3549 85.9261 11.0875 86.7652 12.3471C87.7851 13.8894 87.1654 14.2879 88.0433 16.023C89.4375 18.7735 91.361 18.4394 92.51 20.9842C92.7036 21.4084 93.7751 23.7733 92.5616 25.8426C91.5676 27.5264 89.5408 28.1304 88.0433 28.0919C85.3193 28.0148 83.5894 25.7269 82.6083 24.416C80.9559 22.231 80.4911 19.9432 80.3362 18.6065C81.5885 17.861 82.0145 16.5243 81.5755 15.676C81.2528 15.0719 80.362 14.4678 79.5746 14.802C79.0323 15.0334 78.6838 15.6503 78.6967 16.3315C78.1803 16.4215 76.5924 16.6143 74.9529 15.7146C73.7394 15.0591 73.081 14.1337 72.797 13.6709C72.0741 13.9537 70.9122 14.4935 69.7632 15.5603C68.6659 16.5886 68.0463 17.6682 67.7235 18.3622Z" fill="#88ABC2"/>
<path opacity="0.24" d="M76.1403 19.108C77.5733 20.4447 78.2704 21.9227 78.4899 22.424C79.3935 24.4805 79.3419 26.3698 79.2515 27.3338C79.7163 26.5498 80.1681 25.7657 80.6329 24.9689C81.3816 26.6397 82.1175 28.3106 82.8662 29.9686C83.2664 29.8787 84.0539 29.6473 84.8156 28.979C85.3965 28.4649 85.7064 27.9122 85.8613 27.5651C84.7381 26.7554 82.6339 25.0074 81.4074 22.0384C80.8782 20.766 80.6329 19.5964 80.5296 18.6581C81.6398 17.8741 82.0529 16.6145 81.6398 15.7148C81.3816 15.1364 80.6329 14.4038 79.7937 14.6352C79.0837 14.8279 78.5931 15.5863 78.7093 16.4346C78.1671 16.4988 76.8762 16.5888 75.4432 15.959C73.9586 15.3035 73.1453 14.2367 72.8354 13.7869C73.184 16.0618 74.0619 17.2957 74.7977 18.0026C75.2625 18.4782 75.4561 18.4782 76.1403 19.108Z" fill="#49708A"/>
<path opacity="0.24" d="M80.5295 19.7247C80.4391 19.7247 80.4907 21.0486 80.3617 22.2696C80.1938 23.8377 79.7291 25.0844 79.3418 25.9198C79.6904 25.7013 80.2067 25.29 80.6586 24.6474C81.3041 23.7091 81.4202 22.7837 81.459 22.3339C81.3428 22.1539 81.1879 21.8969 81.0459 21.5755C80.594 20.5473 80.6069 19.7247 80.5295 19.7247Z" fill="#49708A"/>
<path opacity="0.19" d="M80.9814 24.1847C81.2913 24.5061 81.7302 24.9302 82.2982 25.3929C84.0152 26.8196 85.6806 27.6293 85.7322 27.5393C85.7838 27.4494 84.1572 26.7939 82.9179 25.0202C82.1433 23.9148 81.6915 22.6038 81.4978 22.6681C81.4075 22.6938 81.4849 23.0023 81.33 23.5035C81.2267 23.7992 81.0847 24.0305 80.9814 24.1847Z" fill="#49708A"/>
<path opacity="0.74" d="M82.4141 8.74841C83.9374 11.3704 85.0218 13.6582 85.7577 15.3548C87.8103 20.1232 87.6425 21.4342 87.3585 22.2825C86.7259 24.1976 84.9702 25.2772 83.9245 25.7913C84.1827 26.1512 85.2542 27.5779 87.2164 27.9763C87.5908 28.0534 89.85 28.4776 91.567 26.9224C92.8451 25.7785 93.0387 24.2618 93.0774 23.8634C93.3098 21.7041 92.0188 20.0846 91.6057 19.6219C91.0635 19.0179 90.9473 19.1592 89.6822 17.9382C88.7011 17 88.2234 16.5244 87.9394 15.9332C87.4875 14.9692 87.7845 14.5579 87.2552 13.3369C86.9712 12.6685 86.6355 12.2187 86.3902 11.8717C85.138 10.1879 83.3306 9.19826 82.4141 8.74841Z" fill="#0E151A"/>
<path d="M70.8091 19.8276C70.9382 20.0846 70.9382 20.4574 70.7703 20.5345C70.6025 20.6245 70.2798 20.3803 70.1636 20.0975C70.0732 19.8533 70.099 19.5063 70.2669 19.442C70.4476 19.3777 70.7058 19.6091 70.8091 19.8276Z" fill="#0E151A"/>
<path d="M69.7502 19.5319C70.202 19.3777 70.6667 19.262 71.1444 19.1849C71.3251 19.1592 71.2477 18.8764 71.0669 18.9021C70.5893 18.9792 70.1245 19.0949 69.6727 19.2491C69.492 19.3134 69.5694 19.5833 69.7502 19.5319Z" fill="#0E151A"/>
</svg>
