<svg width="182" height="109" viewBox="0 0 182 109" fill="none" xmlns="http://www.w3.org/2000/svg">
<path d="M164.515 96.889C163.634 95.7837 162.973 94.5353 162.416 93.248C162.144 92.6108 161.885 91.9476 161.638 91.2974C161.522 90.9853 161.392 90.6863 161.301 90.3742C161.198 90.0491 161.159 89.88 161.314 89.5679C161.314 89.3469 161.405 89.2559 161.574 89.2819C161.716 89.2429 161.807 89.3079 161.859 89.4769C161.988 89.4639 162.118 89.4379 162.234 89.4249C161.457 87.0713 160.951 84.6396 160.731 82.1819C160.628 80.9856 160.589 79.7762 160.615 78.5669C160.628 78.0078 160.653 77.4486 160.705 76.8764C160.718 76.6554 160.692 76.0312 160.822 75.8492C160.964 75.8101 161.094 75.7711 161.237 75.7451C161.47 75.5501 161.651 75.5501 161.768 75.7581C161.91 75.8752 162.001 76.0832 162.092 76.2393C164.463 80.1924 166.044 84.6526 166.809 89.1908C167.249 91.8046 167.418 94.4443 167.301 97.097C167.288 97.3441 167.677 97.3441 167.69 97.097C167.897 91.8306 167.029 86.5381 165.124 81.6228C164.645 80.4004 164.113 79.2041 163.517 78.0338C163.245 77.4876 162.947 76.9545 162.649 76.4343C162.403 76.0052 162.157 75.4851 161.742 75.199C160.939 74.6528 160.472 75.433 160.381 76.1482C160.213 77.5006 160.187 78.879 160.226 80.2444C160.316 83.4042 160.861 86.5251 161.846 89.5159C161.91 89.724 162.234 89.698 162.221 89.4639C162.221 88.9438 161.638 88.7227 161.198 88.9438C160.42 89.3209 160.861 90.4002 161.068 90.9723C161.872 93.1569 162.74 95.3155 164.204 97.149C164.399 97.3701 164.671 97.084 164.515 96.889Z" fill="#88ABC2"/>
<path d="M166.796 87.1622C166.9 85.4327 167.12 83.7163 167.496 82.0128C167.677 81.2196 167.872 80.4264 168.118 79.6461C168.234 79.256 168.364 78.8659 168.494 78.4888C168.558 78.2938 168.623 78.0987 168.701 77.9167C168.727 77.8386 168.753 77.7606 168.792 77.6826C168.843 77.4095 169.025 77.2535 169.323 77.2015C169.297 77.4225 169.647 77.4615 169.699 77.2535C169.958 76.3952 172.057 70.8687 173.34 71.818C173.716 72.0911 173.82 72.7282 173.884 73.1573C173.988 73.7555 174.079 74.3667 174.144 74.9649C174.26 75.9921 174.338 77.0194 174.364 78.0597C174.481 82.2859 173.846 86.5381 172.498 90.5562C171.72 92.8578 170.71 95.0554 169.491 97.149C169.362 97.37 169.699 97.5651 169.828 97.344C172.278 93.1569 173.846 88.5016 174.468 83.7033C174.779 81.2846 174.856 78.8399 174.675 76.4082C174.584 75.2509 174.455 74.0936 174.247 72.9493C174.131 72.3251 173.846 71.4019 173.107 71.2848C172.135 71.1288 171.383 72.7412 170.995 73.3914C170.282 74.5747 169.738 75.8361 169.336 77.1495C169.466 77.1625 169.595 77.1885 169.712 77.2015C169.789 76.5773 169.012 76.5383 168.701 76.9414C168.468 77.2405 168.364 77.6826 168.247 78.0337C168.027 78.6449 167.833 79.269 167.651 79.8932C166.964 82.2599 166.563 84.6915 166.42 87.1492C166.394 87.4093 166.783 87.4093 166.796 87.1622Z" fill="#88ABC2"/>
<path d="M160.706 75.706C163.531 82.3248 165.306 89.3597 165.954 96.5247C165.98 96.7718 166.369 96.7718 166.343 96.5247C165.682 89.2817 163.894 82.1947 161.043 75.4979C160.939 75.2768 160.602 75.4849 160.706 75.706Z" fill="#88ABC2"/>
<path d="M160.627 84.2753C161.975 84.9515 163.219 85.7967 164.347 86.785C164.528 86.9541 164.813 86.681 164.619 86.5119C163.452 85.4976 162.195 84.6394 160.809 83.9372C160.602 83.8332 160.394 84.1713 160.627 84.2753Z" fill="#88ABC2"/>
<path d="M164.23 80.4653C163.867 81.1805 163.595 81.9347 163.426 82.7279C163.374 82.975 163.75 83.079 163.802 82.832C163.971 82.0778 164.217 81.3496 164.567 80.6604C164.683 80.4393 164.346 80.2443 164.23 80.4653Z" fill="#88ABC2"/>
<path d="M172.705 72.117C171.863 79.6721 170.943 87.4743 167.276 94.2621C167.159 94.4832 167.496 94.6783 167.613 94.4572C171.319 87.6043 172.239 79.7501 173.094 72.117C173.12 71.8699 172.731 71.8699 172.705 72.117Z" fill="#88ABC2"/>
<path d="M167.859 79.5161C168.895 81.9608 169.66 84.4965 170.165 87.0972C170.217 87.3442 170.593 87.2402 170.541 86.9931C170.023 84.3534 169.232 81.7917 168.196 79.321C168.092 79.087 167.768 79.282 167.859 79.5161Z" fill="#88ABC2"/>
<path d="M171.759 81.4797C172.731 80.2444 173.703 79.009 174.675 77.7867C174.83 77.5916 174.558 77.3186 174.403 77.5136C173.431 78.7489 172.459 79.9843 171.487 81.2066C171.331 81.3887 171.603 81.6748 171.759 81.4797Z" fill="#88ABC2"/>
<path d="M10.7187 95.1594C9.87639 94.2491 9.02111 93.3129 8.33429 92.2726C8.01031 91.7654 7.71226 91.2453 7.479 90.6861C7.34941 90.374 6.74035 88.7096 7.58267 89.0477C7.79002 89.1257 7.88073 88.8526 7.77706 88.7226C6.92177 87.6303 6.35158 86.3559 5.85914 85.0686C5.39262 83.8462 4.93906 82.6109 4.51142 81.3756C4.0449 80.0232 3.64317 78.6318 3.48767 77.2144C3.37104 76.0961 3.25441 74.5617 4.05786 73.6384C5.23712 72.299 6.42933 74.5097 6.98656 75.3419C7.73818 76.4602 8.47683 77.6045 9.18957 78.7488C10.6021 81.0765 11.885 83.4951 12.831 86.0699C13.9066 89.0087 14.5027 92.1165 14.3602 95.2504C14.3472 95.4975 14.736 95.4975 14.7489 95.2504C15.034 88.9046 12.3256 82.988 9.02111 77.7345C8.2047 76.4472 7.38829 75.1468 6.49413 73.9115C5.98873 73.2223 5.18528 72.5071 4.27816 72.9622C3.44879 73.3653 3.13778 74.4446 3.06003 75.2899C2.91748 76.8243 3.21553 78.3847 3.63022 79.8541C4.09674 81.5186 4.73172 83.131 5.32783 84.7435C5.88506 86.2519 6.50709 87.7213 7.50492 88.9957C7.56971 88.8916 7.63451 88.7746 7.6993 88.6706C7.36237 88.5405 7.06432 88.5795 6.77922 88.7876C6.72739 88.8266 6.67555 88.8916 6.68851 88.9566C6.9736 91.5834 8.74897 93.5989 10.4595 95.4454C10.615 95.6275 10.8872 95.3544 10.7187 95.1594Z" fill="#88ABC2"/>
<path d="M11.7818 82.793C11.38 79.152 11.8595 75.498 13.1813 72.078C13.0776 72.104 12.961 72.13 12.8573 72.169C13.2591 72.5331 13.5312 72.9492 13.6867 73.4694C13.7386 73.6514 14.0107 73.6644 14.0625 73.4694C14.9437 70.4005 16.2267 67.4747 17.9113 64.757C17.7947 64.744 17.6781 64.731 17.5614 64.705C18.5722 67.2927 19.2072 70.0234 19.4145 72.8062C19.596 75.3029 19.6608 78.1767 18.1446 80.2963C18.0668 80.4003 18.1446 80.5564 18.2612 80.5824C19.4275 80.8554 19.0776 82.7019 18.9739 83.5342C18.8184 84.9126 18.5852 86.2909 18.2871 87.6433C17.7169 90.257 16.8876 92.8187 15.8379 95.2764C15.7342 95.5105 16.0711 95.7055 16.1748 95.4715C17.4059 92.6107 18.326 89.6199 18.9091 86.564C19.1683 85.1596 19.4664 83.6772 19.4923 82.2468C19.5053 81.4276 19.2979 80.4003 18.3778 80.1923C18.4167 80.2833 18.4556 80.3873 18.4945 80.4783C20.0106 78.3587 19.9847 75.524 19.8292 73.0273C19.6478 70.1275 18.9999 67.2797 17.9502 64.5879C17.8854 64.4319 17.691 64.3929 17.6003 64.5359C15.9027 67.2797 14.6068 70.2315 13.7126 73.3394H14.0884C13.907 72.7542 13.609 72.2861 13.1554 71.87C13.0388 71.7659 12.8833 71.8179 12.8314 71.961C11.4967 75.4069 11.0172 79.113 11.4189 82.78C11.4189 83.04 11.8077 83.04 11.7818 82.793Z" fill="#88ABC2"/>
<path d="M4.20049 73.5734C6.00177 77.1494 7.84193 80.7124 9.56546 84.3274C11.2501 87.8903 12.7404 91.5704 13.5438 95.4454C13.5957 95.6925 13.9715 95.5885 13.9196 95.3414C13.1162 91.5053 11.6648 87.8773 9.99311 84.3404C8.25662 80.6473 6.36462 77.0193 4.52446 73.3653C4.42079 73.1573 4.08386 73.3523 4.20049 73.5734Z" fill="#88ABC2"/>
<path d="M17.6393 65.2511C17.3672 69.1132 16.175 72.8062 15.2938 76.5513C14.4126 80.2963 13.8035 84.1064 13.4666 87.9424C13.4407 88.1895 13.8294 88.1895 13.8553 87.9424C14.2052 83.9763 14.8532 80.0362 15.7862 76.1742C16.6674 72.5592 17.756 68.9832 18.0281 65.2511C18.0411 64.9911 17.6523 64.9911 17.6393 65.2511Z" fill="#88ABC2"/>
<path d="M3.99381 81.0245C5.9506 81.6876 7.73893 82.7019 9.33287 84.0283C9.52725 84.1843 9.79939 83.9113 9.60501 83.7552C7.95923 82.3898 6.11907 81.3496 4.09748 80.6474C3.85127 80.5563 3.74759 80.9334 3.99381 81.0245Z" fill="#88ABC2"/>
<path d="M12.7407 72.3901C13.1813 74.7438 13.8292 77.0584 14.6716 79.295C14.7623 79.5291 15.1381 79.425 15.0474 79.191C14.2051 76.9414 13.5701 74.6397 13.1165 72.2861C13.0647 72.039 12.7018 72.143 12.7407 72.3901Z" fill="#88ABC2"/>
<path d="M14.1404 88.8007C15.54 86.9542 16.9784 85.0947 19.0259 83.9373C19.2462 83.8203 19.0518 83.4822 18.8315 83.5992C16.7322 84.7956 15.2419 86.7071 13.8035 88.6056C13.6609 88.8007 13.9979 88.9957 14.1404 88.8007Z" fill="#88ABC2"/>
<path d="M148.913 97.5911H181.621C182.126 97.5911 182.126 96.8109 181.621 96.8109C170.723 96.8109 159.811 96.8109 148.913 96.8109C148.407 96.8109 148.407 97.5911 148.913 97.5911Z" fill="#121212"/>
<path d="M30.5332 94.9904C21.9804 94.9904 13.4275 94.9904 4.87465 94.9904C4.36926 94.9904 4.36926 95.7707 4.87465 95.7707H30.5332C31.0257 95.7707 31.0257 94.9904 30.5332 94.9904Z" fill="#121212"/>
<path d="M117.643 103.937H153.098H163.193C163.699 103.937 163.699 103.157 163.193 103.157C151.375 103.157 139.556 103.157 127.738 103.157C124.368 103.157 121.012 103.157 117.643 103.157C117.15 103.157 117.137 103.937 117.643 103.937Z" fill="#121212"/>
<path d="M145.621 97.7991C107.911 97.0449 70.2005 96.2907 32.4902 95.5365C25.7386 95.4064 21.0216 88.7876 23.0691 82.3378L46.3562 8.8155C47.678 4.64135 51.5397 1.78056 55.9069 1.75455C90.8051 1.50749 125.703 1.24741 160.602 1.00034C166.977 0.948331 171.811 6.78695 170.58 13.0677L155.716 89.6068C154.796 94.4442 150.533 97.9031 145.621 97.7991Z" fill="#CFFF55"/>
<path fill-rule="evenodd" clip-rule="evenodd" d="M170.1 12.9729C171.271 6.99782 166.672 1.44225 160.606 1.49174C143.157 1.61528 125.707 1.74207 108.258 1.86885C90.8089 1.99564 73.3597 2.12242 55.9105 2.24596L55.91 2.24596C51.7557 2.2707 48.0808 4.9926 46.8231 8.96433L23.536 82.4867C21.5878 88.6236 26.0761 94.9215 32.4998 95.0452L145.631 97.3078L145.632 97.3078C150.305 97.4068 154.36 94.1161 155.235 89.5147L170.1 12.9729ZM171.061 13.1625C172.352 6.57619 167.283 0.454602 160.598 0.508965C143.149 0.632499 125.7 0.759284 108.251 0.886069C90.8019 1.01285 73.3529 1.13964 55.9039 1.26317C51.324 1.29056 47.2755 4.29021 45.8897 8.6667L22.6027 82.1887C22.6026 82.1888 22.6027 82.1886 22.6027 82.1887M156.197 89.699C155.232 94.7723 150.761 98.3995 145.611 98.2904L32.481 96.0278C25.4017 95.8915 20.4561 88.9513 22.6027 82.1887M156.197 89.699L171.061 13.1625L156.197 89.699Z" fill="#121212"/>
<path d="M144.895 97.1619C107.185 96.4467 69.4744 95.7445 31.7641 95.0293C25.0125 94.8993 20.2955 88.6576 22.343 82.5719L45.6301 13.1717C46.9519 9.23162 50.8137 6.53988 55.1808 6.50087C90.079 6.2668 124.977 6.01973 159.876 5.78567C166.251 5.74666 171.085 11.2472 169.854 17.1768L154.99 89.4378C154.07 93.9891 149.806 97.253 144.895 97.1619Z" fill="#FCFCFC"/>
<path fill-rule="evenodd" clip-rule="evenodd" d="M169.374 17.0766C170.534 11.4894 165.98 6.23974 159.879 6.27707C142.43 6.3941 124.981 6.51438 107.532 6.63467C90.0828 6.75495 72.6336 6.87523 55.1846 6.99226C51.0103 7.02977 47.3444 9.60179 46.0942 13.3285L22.8071 82.7287C20.8781 88.4623 25.3126 94.4136 31.7735 94.538C50.6286 94.8956 69.4836 95.25 88.3387 95.6043C107.194 95.9587 126.049 96.313 144.904 96.6706C149.6 96.7577 153.641 93.6387 154.51 89.3401L154.51 89.3385L169.374 17.0775L169.374 17.0766ZM170.333 17.2771C171.635 11.005 166.522 5.25359 159.873 5.29428C142.423 5.41131 124.974 5.5316 107.525 5.65188C90.0757 5.77217 72.6266 5.89245 55.1775 6.00948L55.1764 6.00949C50.6166 6.05022 46.5593 8.86162 45.166 13.0149L21.879 82.4147C19.713 88.8525 24.7124 95.385 31.7547 95.5207C50.5574 95.8773 69.3602 96.2306 88.1629 96.584L88.4459 96.5893C107.259 96.9429 126.073 97.2964 144.886 97.6533C150.012 97.7483 154.499 94.3394 155.47 89.5355L170.333 17.2771Z" fill="#121212"/>
<path d="M154.563 91.3753C153.319 94.119 150.921 96.1866 148.031 96.9928C147.785 97.0579 147.889 97.435 148.135 97.3699C151.116 96.5377 153.617 94.3921 154.9 91.5703C154.99 91.3493 154.666 91.1412 154.563 91.3753Z" fill="#121212"/>
<path d="M56.9047 4.62828C56.5159 4.58926 56.3733 4.17315 56.477 3.83506C56.6196 3.40594 57.0342 3.31491 57.423 3.50997C57.6951 3.65301 57.8377 3.9911 57.7211 4.29018C57.5915 4.61527 57.2157 4.7193 56.9047 4.60227C56.6714 4.51124 56.5677 4.88835 56.801 4.97937C57.3064 5.17442 57.9284 4.91436 58.1098 4.38121C58.2913 3.80905 57.9284 3.24989 57.3841 3.08085C56.7751 2.8988 56.2438 3.18488 56.0882 3.82205C55.9587 4.40721 56.3215 4.95337 56.9047 5.01838C57.1509 5.04439 57.1509 4.65428 56.9047 4.62828Z" fill="#121212"/>
<path d="M56.451 4.3162C56.6065 4.71931 57.1767 4.84935 57.5137 4.60228C57.734 4.43323 57.8376 4.10814 57.734 3.82206C57.6173 3.50998 57.2804 3.32793 56.9824 3.37994C56.5677 3.45796 56.2955 3.9391 56.451 4.3162Z" fill="#FCFCFC"/>
<path d="M61.285 4.51133C60.8963 4.47232 60.7537 4.05621 60.8574 3.71811C60.9999 3.28899 61.4146 3.19797 61.8034 3.39302C62.0755 3.53606 62.2181 3.87416 62.1014 4.17324C61.9718 4.49833 61.596 4.60236 61.285 4.48532C61.0518 4.3943 60.9481 4.7714 61.1814 4.86243C61.6868 5.05748 62.3088 4.79741 62.4902 4.26426C62.6716 3.6921 62.3088 3.13295 61.7645 2.9639C61.1554 2.78185 60.6241 3.06793 60.4686 3.70511C60.339 4.29027 60.7019 4.83642 61.285 4.90144C61.5312 4.92745 61.5312 4.53734 61.285 4.51133Z" fill="#121212"/>
<path d="M60.8314 4.19922C60.9869 4.60234 61.5571 4.73237 61.894 4.4853C62.1143 4.31626 62.218 3.99117 62.1143 3.70509C61.9977 3.393 61.6608 3.21095 61.3627 3.26297C60.948 3.34099 60.6759 3.82212 60.8314 4.19922Z" stroke="#121212" stroke-width="0.303109" stroke-miterlimit="10"/>
<path d="M56.6456 3.51004C56.827 3.91315 57.0343 4.30326 57.2805 4.68036C57.4101 4.88842 57.7471 4.69337 57.6175 4.48531C57.3842 4.10821 57.1769 3.7181 56.9825 3.31499C56.8788 3.09393 56.5419 3.28898 56.6456 3.51004Z" fill="#121212"/>
<path d="M56.684 4.68041C56.8654 4.52437 57.0339 4.35532 57.2153 4.19928C57.3708 4.05624 57.5263 3.88719 57.7207 3.78317C57.941 3.66613 57.7466 3.32804 57.5263 3.44507C57.332 3.5491 57.1765 3.71815 57.008 3.87419C56.8136 4.05624 56.6063 4.23829 56.4119 4.42034C56.2305 4.57638 56.5026 4.84946 56.684 4.68041Z" fill="#121212"/>
<path d="M104.814 13.4578C103.66 17.1768 102.494 20.9088 101.341 24.6279C100.628 26.9425 102.326 29.2832 104.736 29.3222C120.818 29.5172 136.887 29.6993 152.969 29.8943C154.731 29.9203 156.248 28.646 156.559 26.9035C157.245 22.9504 157.945 18.9973 158.632 15.0442C159.021 12.8336 157.323 10.8051 155.081 10.8051C139.466 10.8441 123.85 10.8831 108.248 10.9221C106.68 10.9221 105.28 11.9494 104.814 13.4578Z" fill="#FCFCFC" stroke="#121212" stroke-width="0.909327" stroke-miterlimit="10"/>
<path d="M43.1032 65.3031C40.8613 71.7659 38.6194 78.2287 36.3776 84.6915C34.991 88.6966 38.2825 92.7797 42.9477 92.8317C74.0749 93.1568 105.215 93.4949 136.342 93.82C139.763 93.859 142.705 91.6614 143.288 88.6316C144.636 81.7787 145.971 74.9128 147.318 68.0599C148.07 64.2108 144.779 60.6998 140.437 60.6998C110.204 60.7648 79.9712 60.8299 49.7382 60.8949C46.6928 60.9079 44.0103 62.6894 43.1032 65.3031Z" fill="#CFFF55" stroke="#121212" stroke-width="0.909327" stroke-miterlimit="10"/>
<path d="M109.686 35.733C107.6 42.0007 105.513 48.2684 103.427 54.5362C103.349 54.7702 103.725 54.8743 103.803 54.6402C105.889 48.3725 107.976 42.1047 110.062 35.837C110.14 35.5899 109.764 35.4859 109.686 35.733Z" fill="#88ABC2"/>
<path d="M109.933 35.772C115.35 35.4859 120.792 35.0438 126.222 35.0438C131.626 35.0438 137.017 35.5119 142.395 35.9801C142.641 36.0061 142.641 35.616 142.395 35.5899C137.017 35.1218 131.626 34.6667 126.222 34.6537C120.792 34.6537 115.35 35.0958 109.933 35.3819C109.687 35.3949 109.674 35.785 109.933 35.772Z" fill="#88ABC2"/>
<path d="M142.33 35.967C140.878 42.1827 139.414 48.3854 137.962 54.6011C137.911 54.8482 138.286 54.9522 138.338 54.7052C139.79 48.4895 141.254 42.2867 142.705 36.071C142.757 35.837 142.381 35.7329 142.33 35.967Z" fill="#88ABC2"/>
<path d="M103.66 55.2122C112.55 54.7311 121.453 54.614 130.356 54.8871C132.895 54.9651 135.422 55.0692 137.962 55.2122C138.209 55.2252 138.209 54.8351 137.962 54.8221C129.073 54.328 120.17 54.2239 111.267 54.497C108.727 54.575 106.2 54.6791 103.66 54.8221C103.414 54.8351 103.401 55.2252 103.66 55.2122Z" fill="#88ABC2"/>
<path d="M120.922 54.5492C126.468 51.6494 132.805 51.2203 138.935 50.8432C139.181 50.8302 139.181 50.4401 138.935 50.4531C132.74 50.8432 126.339 51.2853 120.727 54.2111C120.494 54.3282 120.688 54.6662 120.922 54.5492Z" fill="#88ABC2"/>
<path d="M129.772 42.1696C130.382 45.1475 130.693 48.1773 130.706 51.2202C130.706 51.4672 131.094 51.4672 131.094 51.2202C131.068 48.1383 130.757 45.0825 130.148 42.0656C130.096 41.8186 129.721 41.9226 129.772 42.1696Z" fill="#88ABC2"/>
<path d="M129.63 42.1047C128.84 43.262 128.062 44.4323 127.272 45.5896C127.388 45.6286 127.518 45.6547 127.634 45.6937C127.57 44.5233 127.868 43.431 128.529 42.4688C128.671 42.2607 128.334 42.0657 128.192 42.2737C127.492 43.288 127.168 44.4713 127.233 45.6937C127.246 45.8887 127.479 45.9537 127.596 45.7977C128.386 44.6404 129.164 43.4701 129.954 42.3127C130.11 42.0917 129.773 41.8966 129.63 42.1047Z" fill="#88ABC2"/>
<path d="M128.321 42.0007C127.88 41.8057 127.44 41.7147 126.96 41.7407C126.675 41.7537 125.522 42.1048 125.69 41.6757C125.755 41.5066 126.118 41.2855 126.26 41.1685C126.532 40.9474 126.818 40.7394 127.116 40.5703C127.776 40.1932 128.515 40.0112 129.267 40.1282C129.513 40.1672 129.617 39.7901 129.37 39.7511C127.867 39.5171 126.299 40.3363 125.327 41.4676C125.068 41.7667 125.107 42.1828 125.535 42.3128C125.768 42.3779 126.027 42.2868 126.247 42.2348C126.882 42.0918 127.504 42.0398 128.126 42.3128C128.347 42.4429 128.541 42.1048 128.321 42.0007Z" fill="#88ABC2"/>
<path d="M129.617 39.7251C130.109 38.5547 131.081 37.6965 132.286 37.3324C132.221 37.2284 132.157 37.1113 132.092 37.0073C131.651 37.5795 131.392 38.2036 131.301 38.9188C131.275 39.1659 131.664 39.1659 131.69 38.9188C131.768 38.3077 132.001 37.7615 132.364 37.2804C132.468 37.1373 132.377 36.8903 132.169 36.9553C130.822 37.3584 129.772 38.3207 129.228 39.621C129.15 39.8551 129.526 39.9591 129.617 39.7251Z" fill="#88ABC2"/>
<path d="M131.587 39.1529C132.597 38.5677 133.79 38.5547 134.813 39.1138C134.813 38.9968 134.813 38.8928 134.813 38.7758C133.997 39.1659 133.22 39.634 132.481 40.1541C132.274 40.2972 132.468 40.6353 132.675 40.4922C133.414 39.9721 134.191 39.504 135.008 39.1138C135.137 39.0488 135.124 38.8408 135.008 38.7758C133.855 38.1386 132.52 38.1516 131.392 38.8148C131.172 38.9448 131.366 39.2829 131.587 39.1529Z" fill="#88ABC2"/>
<path d="M132.339 40.5183C133.181 40.9864 133.997 41.7536 133.764 42.8199C133.881 42.8069 133.997 42.7939 134.114 42.7679C133.57 41.8966 132.637 41.4025 131.613 41.4415C131.367 41.4545 131.367 41.8446 131.613 41.8316C132.507 41.7926 133.311 42.2087 133.777 42.9629C133.855 43.093 134.101 43.093 134.127 42.9109C134.386 41.6756 133.531 40.7263 132.52 40.1672C132.313 40.0631 132.118 40.4012 132.339 40.5183Z" fill="#88ABC2"/>
<path d="M131.275 41.7666C131.872 44.8875 132.092 48.0474 131.923 51.2202C131.91 51.4673 132.299 51.4673 132.312 51.2202C132.481 48.0214 132.26 44.8095 131.651 41.6626C131.599 41.4155 131.224 41.5196 131.275 41.7666Z" fill="#88ABC2"/>
<path d="M130.848 47.8913C131.275 47.9433 131.677 47.8653 132.066 47.6962C132.299 47.5922 132.092 47.2541 131.871 47.3581C131.548 47.5142 131.198 47.5532 130.848 47.5012C130.602 47.4622 130.602 47.8523 130.848 47.8913Z" fill="#88ABC2"/>
<path d="M105.345 49.8939C107.47 50.0239 109.621 50.0629 111.733 50.31C112.77 50.427 113.768 50.7391 114.792 50.8951C115.79 51.0382 116.761 50.8951 117.759 50.7131C122.126 49.9459 126.519 50.362 130.887 50.8301C131.133 50.8561 131.133 50.466 130.887 50.44C126.662 49.9849 122.373 49.5428 118.148 50.245C116.956 50.44 115.828 50.6741 114.623 50.466C113.651 50.297 112.718 50.0369 111.746 49.9199C109.634 49.6728 107.483 49.6338 105.358 49.5037C105.098 49.4777 105.098 49.8678 105.345 49.8939Z" fill="#88ABC2"/>
<path d="M130.395 45.1995C130.446 45.4206 130.667 45.4726 130.874 45.4336C131.276 45.3686 131.69 45.2255 132.079 45.1085C132.325 45.0435 132.222 44.6664 131.976 44.7314C131.742 44.7964 131.509 44.8614 131.276 44.9134C131.172 44.9394 131.055 44.9654 130.952 45.0045C130.9 45.0175 130.848 45.0305 130.796 45.0435C130.706 45.0305 130.706 45.0435 130.77 45.0825C130.719 44.8484 130.343 44.9524 130.395 45.1995Z" fill="#88ABC2"/>
<path d="M113.976 40.2322C112.693 39.8161 114.364 37.6055 115.259 38.5938C115.583 38.9449 115.57 39.556 115.272 39.9201C114.935 40.3363 114.352 40.4013 113.898 40.1412C113.678 40.0112 113.483 40.3493 113.704 40.4793C114.364 40.8564 115.259 40.7134 115.673 40.0502C116.049 39.439 115.945 38.4897 115.285 38.1126C113.846 37.3064 112.123 40.0502 113.885 40.6223C114.118 40.6874 114.222 40.3102 113.976 40.2322Z" fill="#88ABC2"/>
<path d="M143.936 37.0984C148.122 37.3194 152.269 37.8136 156.39 38.5938C156.636 38.6458 156.739 38.2687 156.493 38.2167C152.346 37.4235 148.161 36.9163 143.936 36.6953C143.69 36.6953 143.69 37.0854 143.936 37.0984Z" fill="#88ABC2"/>
<path d="M143.872 38.2296C147.863 38.6588 151.867 39.1139 155.846 39.595C156.092 39.621 156.092 39.2309 155.846 39.2049C151.854 38.7238 147.863 38.2687 143.872 37.8395C143.625 37.8135 143.625 38.2036 143.872 38.2296Z" fill="#88ABC2"/>
<path d="M143.742 39.4C146.153 39.8031 148.576 40.0632 151.012 40.1412C151.258 40.1542 151.258 39.7641 151.012 39.7511C148.615 39.6601 146.217 39.426 143.846 39.0229C143.6 38.9839 143.496 39.361 143.742 39.4Z" fill="#88ABC2"/>
<path d="M142.29 46.4089C145.569 46.8771 148.86 47.2672 152.152 47.5792C152.398 47.6053 152.398 47.2151 152.152 47.1891C148.886 46.8771 145.634 46.4869 142.394 46.0318C142.148 45.9928 142.044 46.3699 142.29 46.4089Z" fill="#88ABC2"/>
<path d="M142.045 47.5272C144.649 47.9823 147.254 48.3594 149.872 48.6715C150.118 48.6975 150.118 48.3074 149.872 48.2814C147.28 47.9823 144.714 47.6052 142.148 47.1501C141.902 47.098 141.798 47.4751 142.045 47.5272Z" fill="#88ABC2"/>
<path d="M141.772 49.1787C145.038 49.8289 148.329 50.271 151.647 50.479C151.893 50.492 151.893 50.1019 151.647 50.0889C148.368 49.8679 145.103 49.4387 141.876 48.8016C141.63 48.7496 141.526 49.1267 141.772 49.1787Z" fill="#88ABC2"/>
<path d="M48.7144 65.9143C54.6755 66.2134 60.6625 65.9013 66.6236 65.8103C72.5847 65.7193 78.5328 65.6933 84.4939 65.7063C96.4549 65.7323 108.403 65.9533 120.364 66.2264C127.103 66.3825 133.828 66.5645 140.567 66.7336C140.813 66.7466 140.813 66.3565 140.567 66.3435C128.619 66.0314 116.658 65.7063 104.697 65.5112C92.7357 65.3162 80.7876 65.2251 68.8266 65.3812C62.1268 65.4592 55.4012 65.8623 48.7144 65.5112C48.4552 65.5112 48.4552 65.9013 48.7144 65.9143Z" fill="#88ABC2"/>
<path d="M48.4813 20.1156C49.2588 20.2326 49.8031 19.6995 51.3452 18.5552C53.6648 16.8257 54.1573 16.7737 54.5071 16.7997C54.6756 16.8127 54.9866 16.8647 56.451 17.97C58.5892 19.5824 58.7188 20.0766 59.4185 20.1156C60.6885 20.1676 60.8699 18.5552 62.3861 18.4121C63.7598 18.2821 64.1874 19.5434 65.885 19.4784C67.1939 19.4394 67.9585 18.6332 68.0751 18.8022C68.2176 19.0233 66.9865 20.7268 65.2112 20.9998C63.9023 21.1949 63.6172 20.4277 62.3473 20.6097C60.5849 20.8698 60.2479 22.4822 58.952 22.3652C58.1875 22.2872 58.0838 21.715 56.762 20.8048C56.0622 20.3237 54.8441 19.4914 53.5093 19.3874C51.0601 19.2053 49.7901 21.585 48.3128 20.8958C47.6001 20.5707 47.1983 19.6865 47.289 19.5824C47.3538 19.4784 47.8074 20.0116 48.4813 20.1156Z" fill="#49708A"/>
<path d="M109.194 13.4449C108.403 17.0469 107.431 20.6098 106.291 24.1208C106.213 24.3549 106.589 24.4589 106.667 24.2248C107.807 20.7139 108.779 17.1509 109.569 13.5489C109.621 13.3018 109.245 13.1978 109.194 13.4449Z" fill="#88ABC2"/>
<path d="M106.524 24.4199C107.859 24.576 109.194 24.5109 110.541 24.4849C111.941 24.4459 113.34 24.4199 114.753 24.3809C117.552 24.3159 120.364 24.2379 123.163 24.1729C123.409 24.1729 123.409 23.7827 123.163 23.7827C120.364 23.8478 117.552 23.9258 114.753 23.9908C113.392 24.0298 112.032 24.0558 110.671 24.0948C109.284 24.1338 107.911 24.1989 106.524 24.0428C106.278 24.0038 106.278 24.3939 106.524 24.4199Z" fill="#88ABC2"/>
<path d="M111.345 17.073C110.852 19.3877 110.438 21.7153 110.088 24.056C110.049 24.303 110.425 24.4071 110.464 24.16C110.813 21.8193 111.228 19.4917 111.721 17.1771C111.772 16.93 111.397 16.826 111.345 17.073Z" fill="#88ABC2"/>
<path d="M111.643 17.281C112.33 17.32 113.004 17.385 113.678 17.515C113.639 17.437 113.587 17.359 113.548 17.281C112.939 19.4786 112.421 21.7022 111.993 23.9388C111.941 24.1859 112.317 24.2899 112.369 24.0428C112.796 21.8062 113.315 19.5826 113.924 17.385C113.95 17.294 113.898 17.1639 113.794 17.1509C113.081 17.0209 112.382 16.9429 111.656 16.9039C111.384 16.8779 111.384 17.268 111.643 17.281Z" fill="#88ABC2"/>
<path d="M114.986 19.2835C114.792 20.87 114.532 22.4304 114.209 23.9908C114.157 24.2379 114.532 24.3419 114.584 24.0949C114.921 22.5084 115.18 20.896 115.375 19.2835C115.401 19.0365 115.012 19.0365 114.986 19.2835Z" fill="#88ABC2"/>
<path d="M115.181 19.3096C115.907 19.2836 116.645 19.2966 117.371 19.3486C117.306 19.2706 117.242 19.1795 117.19 19.1015C116.905 20.6489 116.658 22.1964 116.451 23.7568C116.412 24.0039 116.801 24.0039 116.84 23.7568C117.047 22.2354 117.28 20.727 117.565 19.2055C117.591 19.0755 117.514 18.9715 117.384 18.9585C116.658 18.9065 115.92 18.9065 115.194 18.9195C114.922 18.9195 114.922 19.3096 115.181 19.3096Z" fill="#88ABC2"/>
<path d="M119.716 15.7466C119.263 18.4644 118.732 21.1821 118.148 23.8739C118.097 24.1209 118.472 24.225 118.524 23.9779C119.107 21.2861 119.639 18.5684 120.092 15.8506C120.144 15.6036 119.768 15.4996 119.716 15.7466Z" fill="#88ABC2"/>
<path d="M120.027 15.5515V15.6165C120.027 15.7205 120.118 15.8115 120.222 15.8115C120.325 15.8115 120.416 15.7205 120.416 15.6165C120.416 15.5905 120.416 15.5775 120.416 15.5515C120.416 15.4474 120.325 15.3564 120.222 15.3564C120.118 15.3694 120.027 15.4474 120.027 15.5515Z" fill="#88ABC2"/>
<path d="M120.118 15.8766C120.714 16.0066 121.284 16.0716 121.893 16.0586C121.829 15.9806 121.764 15.8896 121.712 15.8115C121.207 18.5293 120.74 21.26 120.299 23.9908C120.261 24.2379 120.636 24.3419 120.675 24.0948C121.116 21.3641 121.582 18.6333 122.088 15.9156C122.114 15.7985 122.036 15.6685 121.906 15.6685C121.336 15.6685 120.792 15.6165 120.235 15.4995C119.975 15.4474 119.872 15.8115 120.118 15.8766Z" fill="#88ABC2"/>
<path d="M126.04 14.9922C130.446 14.9402 134.839 14.9662 139.245 15.0833C139.491 15.0833 139.491 14.6931 139.245 14.6931C134.839 14.5891 130.446 14.5631 126.04 14.6021C125.794 14.6021 125.794 14.9922 126.04 14.9922Z" fill="#88ABC2"/>
<path d="M126.338 16.5788C129.073 16.7608 131.82 16.7218 134.554 16.4617C134.801 16.4357 134.801 16.0456 134.554 16.0716C131.82 16.3317 129.073 16.3707 126.338 16.1886C126.092 16.1756 126.092 16.5658 126.338 16.5788Z" fill="#88ABC2"/>
<path d="M125.742 18.5424C129.5 18.4774 133.258 18.5424 137.016 18.7374C137.263 18.7504 137.263 18.3603 137.016 18.3473C133.258 18.1393 129.5 18.0743 125.742 18.1523C125.496 18.1523 125.496 18.5424 125.742 18.5424Z" fill="#88ABC2"/>
<path d="M145.906 24.576C144.584 24.4069 143.949 23.0806 143.574 21.9493C143.224 20.883 143.094 19.7646 143.496 18.6984C144.196 16.8258 146.101 15.3174 148.019 14.8883C150.014 14.4332 152.036 15.4995 152.995 17.281C154.006 19.1535 153.656 21.5591 152.476 23.2626C151.025 25.3562 147.967 25.5903 145.841 24.485C145.621 24.3679 145.427 24.706 145.647 24.823C147.682 25.8763 150.494 25.8243 152.217 24.1729C153.902 22.5604 154.446 19.6866 153.565 17.554C152.723 15.5385 150.597 14.1341 148.394 14.4202C146.217 14.7062 144.027 16.3707 143.198 18.4123C142.641 19.8037 142.874 21.2601 143.418 22.6124C143.885 23.7568 144.623 24.797 145.919 24.9661C146.152 24.9921 146.152 24.602 145.906 24.576Z" fill="#88ABC2"/>
<path d="M146.451 15.4085C147.06 16.9819 147.617 18.5813 148.148 20.1938C148.226 20.4278 148.602 20.3238 148.524 20.0898C147.993 18.4773 147.435 16.8909 146.826 15.3044C146.736 15.0834 146.36 15.1744 146.451 15.4085Z" fill="#88ABC2"/>
<path d="M148.55 20.4148C150.079 19.3485 151.595 18.2432 153.073 17.1119C153.267 16.9559 153.073 16.6178 152.878 16.7738C151.388 17.9051 149.885 19.0104 148.356 20.0767C148.148 20.2198 148.343 20.5579 148.55 20.4148Z" fill="#88ABC2"/>
<path d="M148.485 20.4279C150.221 20.3499 151.932 20.0638 153.604 19.5697C153.837 19.5047 153.746 19.1276 153.5 19.1926C151.867 19.6737 150.196 19.9598 148.485 20.0248C148.239 20.0508 148.239 20.4409 148.485 20.4279Z" fill="#88ABC2"/>
<path d="M148.174 20.2978C147.137 21.6372 146.113 22.9766 145.077 24.3159C144.921 24.511 145.258 24.7061 145.414 24.511C146.45 23.1716 147.474 21.8323 148.511 20.4929C148.666 20.2978 148.329 20.1028 148.174 20.2978Z" fill="#88ABC2"/>
<path d="M48.9738 65.2512C48.6498 65.1602 48.8442 64.7311 48.9867 64.588C49.1422 64.432 49.531 64.445 49.7383 64.445C50.1141 64.432 50.4899 64.445 50.8787 64.432C51.6562 64.432 52.4338 64.419 53.2113 64.419C54.7664 64.406 56.3214 64.406 57.8765 64.393C60.9478 64.38 64.0061 64.354 67.0773 64.341C73.2587 64.302 79.4271 64.276 85.6085 64.2629C97.9194 64.2239 110.217 64.2239 122.528 64.289C125.898 64.315 129.28 64.315 132.649 64.458C134.321 64.523 135.993 64.627 137.664 64.7831C138.494 64.8611 139.336 64.9521 140.165 65.0562C140.437 65.0952 140.71 65.1212 140.982 65.1732C141.202 65.2122 141.332 65.1732 141.409 65.3813C141.617 65.8754 140.956 66.3825 140.554 66.4085C140.308 66.4215 140.308 66.8117 140.554 66.7987C141.422 66.7336 142.031 65.8494 141.707 65.0172C141.682 64.9521 141.643 64.8871 141.578 64.8871C135.396 63.9639 129.137 63.9639 122.904 63.9249C116.464 63.8858 110.036 63.8728 103.595 63.8598C90.6884 63.8598 77.7684 63.9119 64.8613 63.9769C61.2329 64.0029 57.6044 64.0159 53.9759 64.0419C53.1076 64.0419 52.2524 64.0549 51.3841 64.0549C50.6584 64.0549 49.8031 63.9379 49.1033 64.1459C48.4295 64.341 47.9889 65.4073 48.8701 65.6543C49.1033 65.6933 49.207 65.3162 48.9738 65.2512Z" fill="#88ABC2"/>
<path d="M48.0146 67.5399C46.7187 72.2342 45.1377 76.8504 43.2586 81.3497C43.1679 81.5837 43.5437 81.6878 43.6345 81.4537C45.5135 76.9545 47.0945 72.3382 48.3904 67.6439C48.4552 67.3968 48.0793 67.2928 48.0146 67.5399Z" fill="#88ABC2"/>
<path d="M48.1441 67.93C51.4746 68.3331 54.9087 68.06 58.2521 68.021C58.4983 68.021 58.4983 67.6309 58.2521 67.6309C54.9087 67.6829 51.4746 67.943 48.1441 67.5399C47.885 67.5139 47.8979 67.904 48.1441 67.93Z" fill="#88ABC2"/>
<path d="M57.838 67.9949C56.7365 72.078 55.5702 76.1352 54.3391 80.1923C54.2614 80.4394 54.6372 80.5304 54.7149 80.2963C55.946 76.2522 57.1123 72.1821 58.2138 68.0989C58.2786 67.8519 57.9028 67.7478 57.838 67.9949Z" fill="#88ABC2"/>
<path d="M43.44 81.5448C45.2672 81.5318 47.0815 81.5188 48.9087 81.5058C49.8028 81.5058 50.684 81.4928 51.5782 81.4928C52.3687 81.4928 53.1592 81.5188 53.9367 81.3367C54.1829 81.2847 54.0793 80.9076 53.8331 80.9596C53.0166 81.1547 52.1614 81.1027 51.319 81.1027C50.4249 81.1027 49.5437 81.1157 48.6495 81.1157C46.913 81.1287 45.1765 81.1417 43.44 81.1417C43.1938 81.1547 43.1938 81.5448 43.44 81.5448Z" fill="#88ABC2"/>
<path d="M59.8722 68.086C68.6324 67.839 77.4055 67.852 86.1657 68.1381C86.4119 68.1511 86.4119 67.7609 86.1657 67.7479C77.4055 67.4619 68.6324 67.4359 59.8722 67.6959C59.6259 67.6959 59.6259 68.086 59.8722 68.086Z" fill="#88ABC2"/>
<path d="M59.5093 70.3746C64.5892 70.3616 69.6691 70.3616 74.7619 70.3486C75.0081 70.3486 75.0081 69.9585 74.7619 69.9585C69.682 69.9715 64.6022 69.9715 59.5093 69.9845C59.2501 69.9845 59.2501 70.3746 59.5093 70.3746Z" fill="#88ABC2"/>
<path d="M54.287 81.0896C54.5202 80.6995 54.6887 80.2834 54.7794 79.8542C54.8312 79.6072 54.4554 79.5032 54.4036 79.7502C54.3129 80.1533 54.1703 80.5434 53.95 80.8945C53.8205 81.1026 54.1574 81.2976 54.287 81.0896Z" fill="#88ABC2"/>
<path d="M102.909 69.2303C101.872 74.1977 100.874 79.165 99.9024 84.1324C99.8505 84.3795 100.226 84.4835 100.278 84.2364C101.25 79.2691 102.248 74.3017 103.285 69.3343C103.336 69.0873 102.961 68.9832 102.909 69.2303Z" fill="#88ABC2"/>
<path d="M99.9801 84.4576C105.306 84.6006 110.619 84.7436 115.945 84.8867C121.207 85.0297 126.468 85.2508 131.729 85.2508C131.976 85.2508 131.976 84.8607 131.729 84.8607C126.468 84.8607 121.207 84.6266 115.945 84.4966C110.619 84.3535 105.306 84.2105 99.9801 84.0675C99.7339 84.0545 99.7339 84.4446 99.9801 84.4576Z" fill="#88ABC2"/>
<path d="M100.369 84.4185C101.975 82.676 103.582 80.9205 105.189 79.1781C105.099 79.1781 105.008 79.1781 104.917 79.1781C105.448 79.8412 106.071 80.3874 106.796 80.8295C107.017 80.9595 107.211 80.6215 106.991 80.4914C106.291 80.0753 105.695 79.5422 105.189 78.905C105.125 78.827 104.982 78.84 104.917 78.905C103.31 80.6475 101.703 82.4029 100.096 84.1454C99.928 84.3275 100.2 84.6006 100.369 84.4185Z" fill="#88ABC2"/>
<path d="M106.9 80.6995C108.623 78.658 110.36 76.6294 112.083 74.5878C112.239 74.3928 111.967 74.1197 111.811 74.3148C110.088 76.3563 108.351 78.3849 106.628 80.4264C106.459 80.6085 106.731 80.8816 106.9 80.6995Z" fill="#88ABC2"/>
<path d="M111.811 74.3927C112.161 74.8608 112.511 75.316 112.861 75.7841C112.939 75.8881 113.056 75.9141 113.172 75.8231C114.753 74.5228 116.295 73.1574 117.785 71.753C117.967 71.5839 117.695 71.3109 117.513 71.4799C116.023 72.8843 114.481 74.2497 112.9 75.55L113.211 75.589C112.861 75.1209 112.511 74.6658 112.161 74.1977C111.993 73.9896 111.656 74.1847 111.811 74.3927Z" fill="#88ABC2"/>
<path d="M117.371 71.9221C119.535 73.6385 121.621 75.446 123.643 77.3185C123.824 77.4876 124.096 77.2145 123.915 77.0455C121.893 75.1599 119.807 73.3655 117.643 71.649C117.448 71.4929 117.176 71.766 117.371 71.9221Z" fill="#88ABC2"/>
<path d="M123.876 77.2666C126.546 75.5631 128.464 72.9364 131.068 71.1419C131.276 70.9988 131.081 70.6607 130.874 70.8038C128.269 72.5983 126.351 75.225 123.682 76.9285C123.475 77.0585 123.669 77.3966 123.876 77.2666Z" fill="#88ABC2"/>
<path d="M128.801 71.5451C129.617 71.402 130.408 71.194 131.198 70.9469C131.12 70.8689 131.043 70.7908 130.965 70.7128C130.822 71.363 130.693 72.0132 130.55 72.6634C130.498 72.9104 130.874 73.0145 130.926 72.7674C131.068 72.1172 131.198 71.467 131.341 70.8169C131.367 70.6738 131.25 70.5308 131.107 70.5828C130.317 70.8299 129.526 71.0379 128.71 71.181C128.464 71.22 128.567 71.5971 128.801 71.5451Z" fill="#88ABC2"/>
<path d="M107.678 70.2577C107.224 74.9 106.758 79.5423 106.304 84.1845C106.278 84.4316 106.667 84.4316 106.693 84.1845C107.146 79.5423 107.613 74.9 108.066 70.2577C108.079 70.0106 107.691 70.0106 107.678 70.2577Z" fill="#88ABC2"/>
<path d="M113.431 69.4384C112.952 74.4188 112.563 79.4121 112.278 84.4055C112.265 84.6526 112.654 84.6526 112.667 84.4055C112.952 79.4121 113.341 74.4188 113.82 69.4384C113.833 69.1783 113.444 69.1913 113.431 69.4384Z" fill="#88ABC2"/>
<path d="M124.291 69.2953C123.786 74.4967 123.423 79.6981 123.202 84.9256C123.19 85.1726 123.578 85.1726 123.591 84.9256C123.812 79.7111 124.174 74.4967 124.68 69.2953C124.706 69.0482 124.317 69.0482 124.291 69.2953Z" fill="#88ABC2"/>
<path d="M117.799 67.3968C117.462 73.1964 117.125 78.983 116.788 84.7826C116.775 85.0297 117.164 85.0297 117.177 84.7826C117.514 78.983 117.851 73.1964 118.187 67.3968C118.2 67.1368 117.812 67.1368 117.799 67.3968Z" fill="#88ABC2"/>
<path d="M77.4054 70.3096C80.036 70.5437 82.6667 69.9585 85.2973 70.2836C85.5435 70.3096 85.5435 69.9195 85.2973 69.8935C82.6667 69.5684 80.036 70.1536 77.4054 69.9195C77.1462 69.9065 77.1592 70.2966 77.4054 70.3096Z" fill="#88ABC2"/>
<path d="M36.5982 46.8512C41.1856 46.175 45.6046 48.0215 49.6737 49.946C53.4447 51.7405 57.1769 53.574 61.3626 54.1072C70.3042 55.2255 78.8701 51.4544 87.2804 49.0748C92.2177 47.6834 97.3365 46.7081 102.481 47.3583C102.727 47.3843 102.727 46.9942 102.481 46.9682C93.371 45.8109 84.7663 49.6599 76.1876 52.0396C71.8334 53.2489 67.3237 54.1592 62.7881 53.8601C58.2395 53.561 54.2352 51.7145 50.1791 49.777C45.9156 47.7354 41.3282 45.7719 36.4945 46.4871C36.2483 46.5131 36.3649 46.8902 36.5982 46.8512Z" fill="#88ABC2"/>
<path d="M61.1422 50.4012C72.559 51.0123 83.1334 45.9019 94.0577 43.4442C97.2067 42.742 100.408 42.2479 103.647 42.1829C103.894 42.1829 103.894 41.7928 103.647 41.7928C92.2435 42.0529 81.8116 47.3193 70.7188 49.3349C67.5568 49.907 64.356 50.1931 61.1422 50.0241C60.896 49.9851 60.896 50.3752 61.1422 50.4012Z" fill="#88ABC2"/>
<path d="M39.1769 37.0984C44.3475 37.4625 49.0645 39.7772 53.8333 41.5847C58.68 43.4182 63.7339 44.4455 68.9175 44.3154C71.8851 44.2374 74.8397 43.8083 77.7166 43.0541C77.9628 42.9891 77.8591 42.612 77.6129 42.677C72.3905 44.0554 66.9089 44.3154 61.5828 43.3922C56.5029 42.5079 51.9284 40.2843 47.1207 38.5548C44.5548 37.6316 41.9112 36.9034 39.1769 36.7213C38.9177 36.6953 38.9306 37.0854 39.1769 37.0984Z" fill="#88ABC2"/>
<path d="M74.3346 12.0925C74.2309 12.7427 74.0624 13.3799 73.8292 14.0041C73.7773 14.1341 73.9069 14.2511 74.0106 14.2511C82.2654 14.6152 90.5202 14.6933 98.775 14.4722C99.0212 14.4592 99.0212 14.0691 98.775 14.0821C90.5202 14.3031 82.2525 14.2381 74.0106 13.861C74.0754 13.939 74.1402 14.0301 74.192 14.1081C74.4253 13.4839 74.5938 12.8597 74.6974 12.1966C74.7493 11.9495 74.3735 11.8455 74.3346 12.0925Z" fill="#88ABC2"/>
<path d="M74.5938 12.2355C82.9005 12.3396 91.1942 12.4436 99.5008 12.5476C99.747 12.5476 99.747 12.1575 99.5008 12.1575C91.1942 12.0535 82.9005 11.9495 74.5938 11.8454C74.3476 11.8324 74.3476 12.2225 74.5938 12.2355Z" fill="#88ABC2"/>
<path d="M99.4619 12.3136C99.2027 12.9247 99.0083 13.5619 98.9047 14.2251C98.8658 14.4722 99.2416 14.5762 99.2805 14.3291C99.3842 13.705 99.5526 13.0938 99.7988 12.5086C99.8895 12.2746 99.5526 12.0795 99.4619 12.3136Z" fill="#88ABC2"/>
<path d="M7.66086 86.9412C5.44489 87.4743 3.21597 88.0075 1 88.5406C2.15334 95.8486 3.06046 99.4896 3.69545 99.4376C4.23972 99.3986 4.58961 96.6679 4.74511 91.2454C5.97621 90.8162 7.2073 90.4001 8.43839 89.971C8.17922 88.9697 7.92004 87.9554 7.66086 86.9412Z" fill="#121212" stroke="#121212" stroke-width="0.909327" stroke-miterlimit="10"/>
<path d="M22.8099 59.6985C22.5248 60.5568 22.0971 61.9221 21.6565 63.6516C20.7365 67.2536 20.6976 68.788 19.7645 73.3653C18.6501 78.8138 18.0799 79.7501 17.717 80.2832C16.0713 82.6499 13.7905 83.7292 12.5464 84.3143C9.53999 85.7317 6.74087 85.8618 5.08213 85.7967C5.01734 86.564 4.95254 88.4365 6.06701 90.322C6.62424 91.2583 7.28514 91.8954 7.79054 92.2985C9.46223 92.3896 12.3391 92.3245 15.5788 91.0632C16.9654 90.5301 20.5032 89.0997 23.1986 85.5497C25.2721 82.8189 25.8423 80.1532 26.4772 77.1624C27.7083 71.4018 26.1792 70.5305 27.7083 65.6412C28.6284 62.6763 29.691 61.2199 28.9394 60.1276C28.0453 58.7883 25.2332 59.1394 22.8099 59.6985Z" fill="#49708A"/>
<path opacity="0.09" d="M22.9655 59.7117C22.836 61.1031 22.6416 63.0276 22.3694 65.3162C22.1232 67.3318 21.8511 69.5164 21.4105 72.0651C20.6459 76.4343 20.2571 78.6189 19.4278 80.4394C18.7021 82.0258 17.3025 84.9646 14.0887 87.1883C10.7453 89.4899 7.2853 89.711 5.7432 89.724C5.56177 89.3078 5.38035 88.7747 5.26372 88.1635C5.09525 87.2793 5.09525 86.5121 5.14709 85.9399C6.14492 85.9529 7.51856 85.8749 9.1125 85.5238C11.8857 84.8996 13.7388 83.7683 14.2183 83.4692C15.3976 82.728 16.6287 81.9608 17.6394 80.4524C18.3263 79.4381 18.6114 78.5149 19.0779 76.5903C19.7647 73.7555 20.1146 72.3512 20.3997 70.2706C20.7107 67.8649 21.3975 64.354 22.9655 59.7117Z" fill="#88ABC2"/>
<path opacity="0.12" d="M5.17246 85.9009C5.12063 86.4731 5.09471 87.2533 5.27613 88.1505C5.40572 88.8137 5.6001 89.3599 5.78153 89.789C7.55689 89.4119 13.1422 87.9815 16.6022 82.8581C17.6259 81.3366 18.235 79.8412 18.6108 78.5539C18.2609 79.3731 17.6519 80.5694 16.5763 81.7267C14.7232 83.7163 12.5979 84.4445 11.0687 84.9646C9.77286 85.4198 7.75128 85.9399 5.17246 85.9009Z" fill="#88ABC2"/>
<path d="M21.8634 98.8784C20.8526 101.674 19.8418 104.47 18.8311 107.279C25.9325 108.111 29.548 108.228 29.6776 107.604C29.7813 107.123 27.682 106.173 23.4055 104.782C23.9887 103.053 24.5848 101.323 25.1679 99.5936C24.0664 99.3596 22.9649 99.1125 21.8634 98.8784Z" fill="#121212" stroke="#121212" stroke-width="0.909327" stroke-miterlimit="10"/>
<path d="M32.3997 61.1809C32.5422 63.1054 32.6718 65.7321 32.6459 68.827C32.5811 77.3704 31.4277 83.7811 31.0908 85.5236C30.2226 90.0879 28.7193 95.9785 26.0109 102.558C25.1556 102.597 23.0434 102.571 20.9311 101.245C19.6352 100.426 18.8317 99.4375 18.3911 98.7743C19.1816 97.2659 20.1535 95.2763 21.0995 92.8446C22.7712 88.5535 23.4969 85.1335 23.9634 82.8839C25.0131 77.8255 25.5444 75.3028 25.1168 72.598C24.7021 70.0363 24.0282 69.5942 24.1319 67.4096C24.1578 66.9285 24.4818 61.3239 27.9807 60.2576C29.782 59.7245 31.5703 60.6607 32.3997 61.1809Z" fill="#49708A"/>
<path opacity="0.14" d="M29.3281 60.2058C30.4814 60.6999 30.1056 63.9508 30.0019 64.809C28.6153 77.0584 30.5203 70.4656 28.8486 78.0207C26.5549 88.3976 23.4577 98.3713 22.3691 101.804C22.11 101.804 21.7471 101.778 21.3584 101.596C20.9955 101.427 20.9178 101.206 20.4772 100.855C19.9977 100.478 19.8292 100.504 19.4664 100.244C19.1424 100.01 18.7407 99.5937 18.4556 98.8264C19.1294 97.5001 19.9329 95.7966 20.7493 93.742C21.786 91.1413 22.3562 89.1648 22.9782 87.0322C22.9782 87.0322 24.922 80.3093 25.2719 75.1729C25.3367 74.1456 25.2849 73.4434 25.2071 72.9363C25.0905 72.1301 24.922 71.7269 24.6629 70.7647C24.5981 70.5176 24.2352 69.1132 24.1186 68.0599C23.7946 64.9521 25.4404 62.4554 26.2179 61.5581C26.4901 61.2331 26.8529 60.8819 27.3713 60.6089C27.5657 60.5178 28.6931 59.9327 29.3281 60.2058Z" fill="#88ABC2"/>
<path opacity="0.11" d="M26.3606 81.3626C26.1403 84.5225 25.4017 85.4587 23.2505 93.2219C22.3045 96.6288 21.6047 99.4246 21.1512 101.219C20.7883 101.076 20.3347 100.842 19.8682 100.478C19.1685 99.9317 18.7538 99.3336 18.5205 98.9174C19.1685 97.5781 20.0367 95.6665 20.879 93.2869C21.216 92.3506 21.4363 91.6354 21.6436 90.9852C24.5982 81.4796 25.0647 78.5928 25.2073 76.6163C25.3239 74.9388 25.2332 73.5864 25.2073 73.1573C25.0777 71.3628 24.7667 70.1275 24.7667 70.1275C24.7667 70.1275 26.7883 75.2249 26.3606 81.3626Z" fill="#88ABC2"/>
<path d="M9.98049 55.3684C10.0064 55.3293 10.136 55.3424 10.3952 55.3684C10.8358 55.4074 10.9783 55.4724 11.2634 55.4984C11.5356 55.5114 11.8984 55.5374 12.0021 55.3684C12.1446 55.1473 11.6911 54.7182 11.0561 53.7949C9.96753 52.2345 10.0194 51.6883 10.1101 51.4413C10.136 51.3763 10.2137 51.1292 10.3822 51.0902C10.6025 51.0382 10.8487 51.3372 11.082 51.6363C11.4708 52.1175 11.6263 52.4946 11.6651 52.4686C11.7429 52.4426 11.2893 51.4673 11.393 50.2709C11.4189 49.9459 11.4708 49.4777 11.704 49.4127C11.9114 49.3477 12.2224 49.6078 12.4686 50.0239C12.4686 49.9719 12.5334 49.2567 12.7796 49.2047C12.974 49.1656 13.1943 49.5427 13.4146 49.9068C13.596 50.2059 13.7126 50.479 13.7774 50.6611C13.7645 50.297 13.9589 49.9979 14.231 49.9068C14.5291 49.8158 14.8012 50.0499 14.8141 50.0629C15.1122 50.336 15.0863 50.8171 15.0863 50.9861C15.0604 51.7273 15.1381 52.9757 15.3066 54.7962C15.6435 54.6662 16.136 54.4321 16.6802 54.068C17.2375 53.6909 17.8206 53.1968 19.259 51.4673C19.8163 50.7911 20.1014 50.453 20.5938 49.7898C22.3692 47.4102 23.4188 46.0058 24.4815 44.0162C24.8184 43.379 25.3627 42.2997 26.4901 41.3375C26.8529 41.0254 27.5657 40.4402 27.9804 40.6613C28.2784 40.8173 28.3043 41.3115 28.2914 42.0397C28.2784 43.6261 28.2655 44.4063 27.9933 45.4856C27.3713 47.9823 26.218 49.7248 25.9588 50.1149C24.935 51.6233 23.9113 52.4946 22.5895 53.6259C21.2158 54.7962 20.0755 55.7585 18.2742 56.4867C17.0949 56.9548 16.1619 57.1238 15.177 57.3059C13.5442 57.592 12.7019 57.735 11.8595 57.3709C10.6544 56.8508 9.83794 55.5634 9.98049 55.3684Z" fill="#FCFCFC"/>
<path d="M27.9286 40.4792C26.5291 40.6743 25.6997 41.9877 24.9481 43.067C23.9891 44.4453 23.082 45.8627 22.149 47.2541C21.2159 48.6585 20.244 50.0369 19.1425 51.3242C18.6112 51.9354 18.0669 52.5336 17.4708 53.0797C16.8099 53.7039 16.0842 54.4191 15.216 54.7182C14.9827 54.7962 15.0864 55.1733 15.3196 55.0953C16.6803 54.6402 17.8336 53.3398 18.7796 52.3125C19.8682 51.1292 20.8401 49.8418 21.7602 48.5155C22.6932 47.1631 23.5874 45.7717 24.4945 44.4063C25.3498 43.132 26.3606 41.0904 28.0323 40.8563C28.2785 40.8173 28.1748 40.4532 27.9286 40.4792Z" fill="#121212"/>
<path d="M15.6692 57.514C17.328 57.3579 18.7275 56.5907 20.1141 55.7065C21.4878 54.8352 22.7966 53.834 23.9629 52.6896C25.4661 51.2332 26.7361 49.5038 27.5784 47.5662C28.4078 45.6287 28.7966 43.5091 28.5244 41.4025C28.4985 41.1555 28.1097 41.1555 28.1357 41.4025C28.5763 44.9265 27.1767 48.4245 24.9219 51.1032C23.9111 52.2995 22.7318 53.3528 21.4878 54.2891C19.7772 55.5634 17.8334 56.9288 15.6563 57.1369C15.423 57.1499 15.423 57.54 15.6692 57.514Z" fill="#121212"/>
<path d="M15.6695 57.1109C14.905 57.0979 14.1663 57.28 13.4147 57.332C12.5465 57.397 11.8208 57.1369 11.108 56.6558C10.8229 56.4607 10.5119 56.2267 10.3305 55.9146C9.95468 55.2514 10.7322 55.6415 11.0044 55.7195C11.445 55.8496 11.8467 55.7975 12.1836 55.4985C12.378 55.3294 12.0929 55.0563 11.9115 55.2254C11.3283 55.7455 10.2398 54.5882 9.85101 55.2514C9.55296 55.7585 10.2398 56.4867 10.5767 56.7598C11.1599 57.2409 11.8726 57.6311 12.6372 57.7221C13.648 57.8391 14.6588 57.488 15.6695 57.514C15.9158 57.501 15.9158 57.1109 15.6695 57.1109Z" fill="#121212"/>
<path d="M12.2098 55.2773C11.9507 54.4061 11.3675 53.7299 10.901 52.9627C10.8362 52.8586 10.0587 51.4412 10.3178 51.3242C10.7714 51.1161 11.4193 52.4295 11.5101 52.6896C11.5878 52.9236 11.9636 52.8196 11.8859 52.5856C11.6785 51.9874 11.3157 51.4282 10.7714 51.0641C10.4863 50.8691 10.0716 50.726 9.94203 51.1682C9.77356 51.7663 10.2142 52.5725 10.5122 53.0667C10.9787 53.8339 11.5878 54.4971 11.847 55.3813C11.9118 55.6284 12.2876 55.5244 12.2098 55.2773Z" fill="#121212"/>
<path d="M12.002 52.5726C11.8854 52.0915 11.7299 51.5973 11.6521 51.1032C11.6003 50.8041 11.5873 50.505 11.6133 50.2059C11.6521 49.8158 11.7299 49.4257 12.0409 49.8808C12.5204 50.596 12.6759 51.5713 12.9091 52.3775C12.9739 52.6246 13.3497 52.5206 13.2849 52.2735C13.0906 51.5843 12.9351 50.8561 12.65 50.1929C12.5074 49.8678 12.1834 49.1396 11.7299 49.1396C11.2634 49.1396 11.2504 49.8678 11.2245 50.1929C11.1597 51.0382 11.4189 51.8444 11.6262 52.6506C11.678 52.9237 12.0539 52.8197 12.002 52.5726Z" fill="#121212"/>
<path d="M12.9093 50.7261C12.8445 50.453 12.7149 49.9979 12.8186 49.7248C13.013 49.2177 13.2981 50.128 13.3758 50.323C13.6609 51.0122 13.8164 51.7404 13.8553 52.4816C13.8682 52.7287 14.257 52.7287 14.2441 52.4816C14.1922 51.7664 14.0756 51.0772 13.8294 50.414C13.6868 50.0109 13.4795 49.2957 13.0907 49.0747C12.2095 48.5675 12.4557 50.5181 12.5205 50.8432C12.5853 51.0772 12.9611 50.9732 12.9093 50.7261Z" fill="#121212"/>
<path d="M14.2182 51.1812C14.2052 51.0512 14.1145 50.349 14.27 50.219C14.6976 49.8419 14.8143 50.5311 14.8661 50.7391C14.9568 51.1812 14.9439 51.6754 14.9827 52.1305C15.0475 53.0668 15.1123 53.99 15.1771 54.9263C15.1901 55.1734 15.5788 55.1734 15.5659 54.9263C15.5011 53.99 15.4363 53.0668 15.3715 52.1305C15.3326 51.4803 15.3845 50.6221 15.0475 50.0369C14.8661 49.7248 14.5551 49.4388 14.1922 49.6728C13.7257 49.9849 13.7905 50.8171 13.8553 51.2853C13.8812 51.5323 14.257 51.4283 14.2182 51.1812Z" fill="#121212"/>
<path opacity="0.09" d="M28.071 40.9343C28.0062 40.9343 28.058 41.9616 27.6563 43.392C27.3453 44.4843 26.8399 45.5246 25.2071 47.6832C23.7038 49.6727 22.6153 51.1161 20.7233 52.8066C18.6499 54.6661 17.6132 55.5894 16.1877 55.9404C13.1035 56.7077 10.2655 54.9262 9.99335 55.5243C9.85081 55.8494 10.6283 56.4996 10.9264 56.7207C11.3022 56.9937 12.0279 57.4229 13.7385 57.4489C15.5657 57.4749 16.9652 57.0327 17.2762 56.9287C20.5678 55.8364 22.7319 53.6778 23.8853 52.4815C25.4144 50.9211 26.6585 49.6467 27.4749 47.5141C28.7837 44.1982 28.2006 40.9343 28.071 40.9343Z" fill="#88ABC2"/>
<path opacity="0.13" d="M27.8118 45.9538C27.7211 45.9018 27.1769 46.812 26.3993 47.8913C26.3993 47.8913 24.5332 50.492 22.1229 52.7026C20.8011 53.912 18.3907 55.7845 14.5679 57.2539C15.3584 57.3059 16.5376 57.2799 17.8465 56.8378C18.2612 56.6947 19.2979 56.3046 21.7989 54.12C23.7946 52.3776 24.9091 51.4153 26.0235 49.7248C27.2287 47.9173 27.9414 46.0188 27.8118 45.9538Z" fill="#88ABC2"/>
<path d="M29.4318 39.0489C28.6154 39.3349 28.11 39.8421 27.5787 40.3752C26.1014 41.8706 25.57 43.5611 25.1554 44.9265C23.9113 49.0356 23.2763 51.0772 22.9912 52.8717C22.6543 54.9132 22.3692 57.618 22.4599 60.8169C23.1338 61.285 24.0927 61.8832 25.3109 62.4033C26.7104 63.0015 27.9674 63.5346 29.5873 63.4046C30.2352 63.3526 31.3497 63.1705 32.5938 62.4033C32.6585 61.5581 32.8011 60.2447 33.1769 58.6973C33.8248 55.9535 34.5246 55.1603 35.665 51.7534C36.5592 49.0616 36.9998 47.6833 36.935 46.0318C36.8831 44.8745 36.7795 42.6118 35.0819 40.8434C33.786 39.504 31.4663 38.3337 29.4318 39.0489Z" fill="#FCFCFC"/>
<path d="M28.8487 39.1398C27.2936 40.0761 26.3476 41.6365 25.5701 43.2359C24.7407 44.9654 24.1187 46.7859 23.6652 48.6584C22.7192 52.5595 22.4859 56.6036 22.3304 60.6087C22.3174 60.8558 22.7062 60.8558 22.7192 60.6087C22.8617 56.7857 23.082 52.9496 23.9373 49.2046C24.352 47.3711 24.9222 45.5636 25.7127 43.8471C26.4772 42.1697 27.4232 40.4402 29.0431 39.4779C29.2504 39.3479 29.0561 39.0098 28.8487 39.1398Z" fill="#121212"/>
<path d="M33.8636 39.9851C35.328 41.1294 36.3388 42.7419 36.6627 44.5754C37.0256 46.6689 36.5202 48.8015 35.8204 50.7651C35.1465 52.6636 34.2653 54.4711 33.6563 56.3956C33.0472 58.2812 32.6714 60.2447 32.5159 62.2213C32.49 62.4683 32.8787 62.4683 32.9047 62.2213C33.0861 59.9976 33.5526 57.8 34.3042 55.7065C35.0169 53.7039 35.9629 51.7924 36.572 49.7508C37.1163 47.9173 37.4014 45.9277 36.9478 44.0292C36.5461 42.3127 35.5353 40.7913 34.1487 39.725C33.9414 39.556 33.6692 39.8291 33.8636 39.9851Z" fill="#121212"/>
<path d="M22.408 60.8689C23.976 62.2733 25.9198 63.1965 28.0062 63.4956C29.6649 63.7297 31.8032 63.7427 32.8917 62.2473C33.0343 62.0392 32.6973 61.8442 32.5548 62.0522C31.4662 63.5346 29.0559 63.3396 27.4749 63.0145C25.6866 62.6504 24.0408 61.8052 22.6801 60.5958C22.4987 60.4268 22.2266 60.6999 22.408 60.8689Z" fill="#121212"/>
<path opacity="0.11" d="M31.1034 39.1008C31.544 39.868 29.9112 41.2854 28.6541 43.496C27.8507 44.9004 27.5397 46.1228 26.9306 48.5674C25.5051 54.289 25.7773 60.7908 25.8939 62.6763C24.7794 62.0782 23.6779 61.493 22.5635 60.8948C22.6153 59.6205 22.719 57.8 22.9263 55.6154C23.2633 52.1564 23.4576 50.2709 24.1185 47.8262C24.7017 45.7067 25.2719 43.7301 26.8269 41.6105C27.8377 40.2321 28.9133 39.2829 29.6909 38.6847C30.1833 38.6587 30.8701 38.6977 31.1034 39.1008Z" fill="#88ABC2"/>
<path opacity="0.15" d="M26.1529 43.028C26.3214 43.0801 25.6345 45.7978 24.533 51.8055C23.8073 55.7456 23.6389 57.163 24.222 58.9184C24.9736 61.1681 26.4898 62.5334 26.2047 62.8325C26.0233 63.0146 25.2458 62.7545 22.5633 60.7389C22.4985 57.9042 22.6799 53.9901 23.8073 49.5038C24.7015 45.9539 25.9715 42.963 26.1529 43.028Z" fill="#88ABC2"/>
<path d="M38.2438 33.7434C38.8528 34.3025 38.7751 35.3948 38.6584 36.9813C38.5807 38.0866 38.5418 38.6457 38.166 39.1789C37.3885 40.2842 35.6261 40.7913 34.2395 40.1672C34.071 40.0891 33.2157 39.686 32.7492 38.7107C32.0753 37.3064 32.7751 35.902 32.9177 35.6419C34.0062 33.6003 37.1552 32.7291 38.2438 33.7434Z" fill="#49708A"/>
<path d="M38.27 26.5524C38.7624 26.6564 39.0605 27.3456 39.6566 28.737C40.162 29.9203 40.3952 30.8826 40.4989 31.3377C40.6674 32.1309 40.7581 32.8071 40.7969 33.3143C40.4471 33.4183 40.0972 33.5093 39.7473 33.6133C39.6695 34.0685 39.5011 34.7446 39.1641 35.4989C38.6976 36.5391 38.3088 37.4364 37.4017 37.8525C36.3521 38.3336 35.2246 37.9045 34.8488 37.7225C34.7063 38.0866 34.4989 38.5027 34.2268 38.9448C34.0324 39.2569 33.8251 39.517 33.6437 39.738C32.4644 40.0371 31.9201 39.725 31.7128 39.569C30.6242 38.7628 30.7149 36.162 32.3866 33.2232C32.2959 33.0802 32.1534 32.8721 31.972 32.6381C31.5961 32.1699 31.4666 32.1569 31.2981 31.8839C31.2463 31.8058 30.8445 31.1166 31.1685 30.4925C31.324 30.1934 31.648 29.9333 32.0108 29.9073C32.4514 29.8683 32.594 30.2194 32.9698 30.3234C33.6177 30.5185 34.3305 29.8163 36.1058 28.1388C37.5961 26.7344 37.8942 26.4744 38.27 26.5524Z" fill="#FCFCFC"/>
<path d="M39.5134 28.6851C40.1225 30.2195 40.5112 31.8189 40.6538 33.4704C40.6668 33.6524 40.9648 33.6524 40.9519 33.4704C40.8093 31.7929 40.4205 30.1675 39.7985 28.607C39.7337 28.425 39.4486 28.503 39.5134 28.6851Z" fill="#121212"/>
<path d="M40.7321 33.3403C40.3822 33.3793 40.0323 33.4313 39.6825 33.4703C39.501 33.4963 39.501 33.7824 39.6825 33.7694C40.0323 33.7304 40.3822 33.6784 40.7321 33.6393C40.9136 33.6003 40.9136 33.3143 40.7321 33.3403Z" fill="#121212"/>
<path d="M39.6042 33.6004C39.3709 34.9007 38.8396 36.1621 37.9714 37.1634C36.9346 38.3857 35.2889 37.7485 34.0189 37.2284C33.8504 37.1504 33.7727 37.4364 33.9411 37.5145C35.1334 38.0086 36.8439 38.6848 37.9195 37.6445C38.9822 36.6302 39.6171 35.1088 39.8763 33.6784C39.9152 33.4964 39.6431 33.4183 39.6042 33.6004Z" fill="#121212"/>
<path d="M34.6541 37.7876C34.382 38.4118 34.0451 38.9969 33.6563 39.5561C33.5526 39.7121 33.7989 39.8552 33.9025 39.6991C34.2913 39.14 34.6282 38.5418 34.9004 37.9306C34.9781 37.7616 34.7319 37.6185 34.6541 37.7876Z" fill="#121212"/>
<path d="M33.9157 37.5534C34.1101 37.7615 34.3304 37.9435 34.5766 38.0735C34.7451 38.1646 34.8876 37.9175 34.7191 37.8265C34.4859 37.6964 34.2915 37.5404 34.1101 37.3454C33.9934 37.2023 33.7861 37.4104 33.9157 37.5534Z" fill="#121212"/>
<path d="M38.4252 30.8045C38.3474 30.6485 38.3604 30.4534 38.4641 30.3234C38.3863 30.2974 38.2956 30.2844 38.2178 30.2584C38.2567 30.4794 38.2567 30.6875 38.2438 30.9086C38.2956 30.8565 38.3474 30.8045 38.3863 30.7655C38.3993 30.7915 38.4122 30.8175 38.4381 30.8435C38.477 30.6615 38.1919 30.5835 38.153 30.7655C38.1142 30.9216 38.2178 31.0646 38.3863 31.0646C38.477 31.0646 38.5289 30.9996 38.5289 30.9216C38.5548 30.6745 38.5418 30.4404 38.5029 30.1934C38.49 30.0893 38.3215 30.0503 38.2567 30.1283C38.0623 30.3754 38.0235 30.6875 38.179 30.9606C38.2567 31.1166 38.5159 30.9736 38.4252 30.8045Z" fill="#121212"/>
<path d="M37.6476 29.049C37.8291 28.5939 38.3474 28.4639 38.7491 28.7239C38.9046 28.828 39.0472 28.5679 38.8917 28.4769C38.3215 28.0998 37.6217 28.3468 37.3625 28.971C37.2977 29.1531 37.5828 29.2311 37.6476 29.049Z" fill="#121212"/>
<path d="M37.0514 31.3897C36.9995 31.3897 36.9347 31.3897 36.8829 31.3897C36.8699 31.3637 36.8699 31.3377 36.857 31.3117C36.8829 31.2207 36.9218 31.1947 36.9995 31.2207L37.0514 31.2727C37.0514 31.2727 37.0514 31.2727 37.0514 31.2597C37.0125 31.1947 36.9218 31.1687 36.857 31.2077C36.7922 31.2467 36.7663 31.3377 36.8052 31.4027C36.857 31.4678 36.9347 31.5068 37.0125 31.4938C37.0902 31.4678 37.155 31.4027 37.155 31.3117C37.155 31.1167 36.8829 31.0647 36.7922 31.2207C36.7533 31.2857 36.7792 31.3767 36.844 31.4157C36.9218 31.4808 37.0125 31.4548 37.0514 31.3897Z" fill="#121212"/>
<path d="M37.6993 31.9879C37.6734 32.0139 37.6345 32.0529 37.5957 32.0789H37.6086C37.5827 32.0789 37.5568 32.0789 37.5309 32.0789C37.5309 32.0789 37.5179 32.0789 37.5179 32.0659C37.5049 32.0529 37.479 32.0269 37.4661 32.0139V32.0269C37.4661 31.9879 37.4531 31.9489 37.4531 31.9099L37.492 31.8709C37.4272 31.9229 37.4013 32.0009 37.4401 32.0659C37.479 32.1309 37.5827 32.17 37.6345 32.1179C37.7252 32.0529 37.79 31.9229 37.6864 31.8319C37.6475 31.7928 37.5827 31.7668 37.5179 31.7928C37.4531 31.8059 37.4272 31.8449 37.4013 31.9099C37.3754 31.9879 37.4272 32.0659 37.5049 32.0919C37.5957 32.1179 37.6734 32.0659 37.6993 31.9879Z" fill="#121212"/>
<path d="M36.6757 32.0008C36.6627 32.0008 36.6627 32.0008 36.6498 32.0008C36.4683 32.0008 36.4554 32.2999 36.6498 32.2999H36.6757C36.8701 32.2999 36.8701 32.0008 36.6757 32.0008Z" fill="#121212"/>
<path d="M37.842 33.9254C38.0493 34.5626 38.3733 35.1348 39.0212 35.3818C39.1897 35.4469 39.2674 35.1738 39.099 35.0958C38.5677 34.8877 38.2955 34.3546 38.1271 33.8344C38.0623 33.6654 37.7901 33.7434 37.842 33.9254Z" fill="#121212"/>
<path d="M37.8032 34.0816C37.8809 33.9645 38.0105 33.8995 38.166 33.8735C38.2438 33.8605 38.2827 33.7565 38.2697 33.6915C38.2438 33.6004 38.166 33.5744 38.0883 33.5874C37.868 33.6134 37.6865 33.7435 37.557 33.9255C37.4403 34.0816 37.6865 34.2376 37.8032 34.0816Z" fill="#121212"/>
<path d="M32.2956 32.391C31.5051 32.6771 31.0775 31.4547 31.2201 30.8826C31.2978 30.5835 31.5051 30.2324 31.8162 30.1414C32.2438 30.0113 32.6326 30.3494 32.9047 30.6095C33.0343 30.7395 33.2416 30.5315 33.112 30.4015C32.7622 30.0634 32.3345 29.7383 31.8162 29.8423C31.3496 29.9333 31.0645 30.3754 30.9479 30.8046C30.7406 31.5978 31.3756 33.0282 32.3734 32.6771C32.5548 32.6121 32.4771 32.326 32.2956 32.391Z" fill="#121212"/>
<path d="M37.2459 26.8385C37.0904 27.0205 36.8572 27.3196 36.585 27.7097C35.6002 29.1531 35.6909 29.7383 35.0041 30.1544C34.4727 30.4795 33.6563 30.5835 33.0343 30.3235C32.5678 30.1284 32.4382 29.8293 32.0365 29.8423C31.5959 29.8553 31.1812 30.2194 31.0127 30.6486C30.8054 31.1557 31.0127 31.6238 31.1553 31.9229C31.2849 32.196 31.4663 32.5991 31.855 32.6901C32.1013 32.7421 32.3216 32.6511 32.4382 32.5861C32.4252 32.7291 32.3993 32.9502 32.3864 33.2233C32.3216 34.3546 32.4511 35.1348 32.503 35.6419C32.6326 36.8643 32.7492 37.8395 32.3864 38.7628C31.8291 40.1412 30.4425 40.7523 29.9371 40.9734C27.786 41.9227 25.7903 41.1295 25.5182 41.0124C25.0905 40.8304 23.043 39.9851 22.5376 38.0606C22.2266 36.9033 22.5765 35.733 22.719 35.2388C22.7838 35.0308 22.9523 34.5106 23.2892 33.9125C24.0279 32.5861 25.0905 31.7799 25.8292 31.3247C26.0754 30.4275 26.4901 29.1401 27.2158 27.6707C28.0322 26.0063 28.4857 25.083 29.5224 24.2248C31.1682 22.8594 33.0343 22.6904 33.6434 22.6513C33.9544 22.6253 35.4835 22.5343 37.2978 23.2755C38.5807 23.7957 40.0839 24.4198 40.706 25.9673C41.4187 27.7748 40.4079 29.5693 40.2135 29.9073C40.1617 29.6863 40.058 29.3482 39.8377 29.0231C39.5137 28.542 39.1509 28.3469 38.6066 27.9698C38.2567 27.6967 37.7902 27.3456 37.2459 26.8385Z" fill="#49708A"/>
<path d="M31.907 39.686C32.4642 40.0111 33.1121 40.0891 33.7342 39.881C33.9674 39.803 33.8638 39.4259 33.6305 39.5039C33.1121 39.673 32.5808 39.6209 32.1014 39.3479C31.881 39.2308 31.6867 39.5689 31.907 39.686Z" fill="#121212"/>
<path opacity="0.14" d="M31.2982 31.91C31.4019 32.209 31.674 32.4171 31.972 32.4561C32.296 32.4951 32.62 32.3391 32.7885 32.053C32.7237 32.4821 32.6589 33.3534 33.0606 34.3156C33.6049 35.642 34.6675 36.2662 35.134 36.5392C36.2744 37.1894 37.3629 37.2284 37.8942 37.2154C37.7776 37.4235 37.5184 37.7616 37.0778 37.9826C36.0282 38.5028 34.9267 37.8006 34.8619 37.7616C34.5768 38.3858 34.2787 38.8409 34.0455 39.166C33.7215 39.6081 33.5919 39.7121 33.5012 39.7511C32.8792 40.1152 32.0628 39.7381 31.8295 39.6211C31.5703 39.8682 31.1945 40.1803 30.7021 40.4793C30.2874 40.7264 29.1729 41.3766 27.6308 41.3896C27.6308 41.3896 25.5574 41.3896 23.8857 39.9852C23.2378 39.439 22.9656 38.9579 22.8879 38.8019C22.8231 38.6718 22.5509 38.1517 22.4861 37.3065C22.3436 35.681 23.0434 34.3026 23.4321 33.6785C24.1319 32.5601 25.0261 31.897 25.5963 31.5459C25.5574 31.6889 25.0779 33.7045 26.1405 34.6797C27.4753 35.8891 30.4947 34.7447 31.1556 33.0023C31.3241 32.5731 31.3241 32.17 31.2982 31.91Z" fill="#0E151A"/>
<path opacity="0.07" d="M32.8789 35.5119C32.7752 35.5639 33.0214 36.2401 33.2547 36.7212C33.6305 37.5144 34.097 38.0996 34.4339 38.4507C34.5246 38.2166 34.6154 37.9825 34.7061 37.7615C35.0041 37.8915 35.5614 38.0736 36.2611 38.0346C36.7277 38.0085 37.1035 37.8915 37.3626 37.7875C35.367 37.7485 34.3562 37.1373 33.799 36.5781C33.3454 36.123 32.9825 35.4598 32.8789 35.5119Z" fill="#88ABC2"/>
<path d="M65.0687 23.5096C64.8873 23.4055 64.8484 23.1585 64.8225 22.9894C64.7318 22.3782 65.1853 21.8841 65.2631 21.7801C65.7426 21.2469 66.0147 21.52 66.4683 21.0259C66.8052 20.6618 66.7793 20.3627 67.2976 19.8816C67.6346 19.5565 67.7512 19.5955 67.7771 19.6085C67.9585 19.6865 67.803 20.0896 67.9844 20.7138C68.14 21.2339 68.3343 21.2339 68.3991 21.6761C68.4121 21.7931 68.5028 22.3782 68.1529 22.7163C67.9974 22.8724 67.7901 22.9114 67.3624 22.9894C66.87 23.0804 66.8052 23.0284 66.4683 23.0934C65.6519 23.2495 65.3668 23.6786 65.0687 23.5096Z" fill="#FCFCFC"/>
<path d="M65.0297 22.9635C63.0729 24.9921 61.1161 27.0337 59.1593 29.0622C58.9131 29.3483 58.9001 29.7774 59.1204 30.0635C59.3666 30.3756 59.8072 30.4536 60.1571 30.2325C62.1657 27.8919 64.1614 25.5382 66.17 23.1976C65.7942 23.1196 65.4184 23.0416 65.0297 22.9635Z" fill="#121212"/>
<path d="M57.9546 34.0685C58.0194 34.2376 57.812 34.5887 56.6846 35.3429C56.3606 35.2779 56.0885 35.0958 56.0367 34.8618C55.9589 34.4716 56.5161 34.1466 56.7624 34.0295C57.2159 33.8215 57.8639 33.8345 57.9546 34.0685Z" fill="#121212"/>
<path d="M35.1596 39.4259C34.4598 39.5819 33.2287 39.881 32.6585 40.8953C32.2827 41.5585 32.3605 42.2607 32.3864 42.5077C32.516 43.613 33.2806 44.5363 34.1488 44.9394C35.2114 45.4205 36.313 45.0564 36.8702 44.8614C41.7168 43.1839 44.1401 42.3517 45.125 41.8575C47.9759 40.4141 51.1509 38.7887 54.7664 35.7719C55.6994 34.9916 56.4381 34.3025 56.9564 33.8083C57.1638 33.9253 57.6303 34.1464 58.1875 34.0814C58.6411 34.0294 58.9391 33.8213 59.3797 33.5092C59.6908 33.2882 60.0536 33.0281 60.3776 32.547C60.6886 32.0918 60.7923 31.6887 60.883 31.3506C60.9737 30.9735 61.1551 30.2973 60.9219 30.1543C60.7534 30.0503 60.572 30.3364 60.1184 30.3494C60.0795 30.3494 59.5223 30.3494 59.2761 29.9983C59.0428 29.6732 59.289 29.3741 59.0817 29.114C58.8614 28.8279 58.2912 28.8539 57.9284 28.958C57.086 29.2181 56.6843 30.1543 56.4251 30.6484C55.7124 32.0658 54.6886 32.833 52.7837 34.2764C51.3064 35.3948 49.9846 35.9149 48.2092 36.6301C47.5094 36.9162 46.1747 37.4363 44.4122 37.8654C41.4447 38.5676 39.0991 38.5416 35.1596 39.4259Z" fill="#FCFCFC"/>
<path d="M33.0342 40.7653C34.369 39.4259 36.4683 39.3739 38.2308 39.1269C40.2912 38.8408 42.3517 38.5287 44.3733 38.0476C47.9629 37.2153 51.5266 35.8239 54.3386 33.3793C55.0773 32.7291 55.7641 32.0139 56.3343 31.1947C56.8527 30.4535 57.8375 28.2689 59.0557 29.3091C59.25 29.4652 59.5222 29.1921 59.3278 29.0361C58.8613 28.633 58.2393 28.607 57.695 28.88C56.9304 29.2701 56.5805 30.1284 56.127 30.8176C54.9477 32.6121 53.1594 33.9904 51.3192 35.0437C47.4445 37.2543 42.9867 38.0476 38.6325 38.6847C36.6627 38.9708 34.2783 38.9968 32.7751 40.4922C32.5807 40.6613 32.8528 40.9344 33.0342 40.7653Z" fill="#121212"/>
<path d="M32.7487 40.2972C31.8805 41.7796 32.049 43.7432 33.5003 44.7965C35.2368 46.0578 37.6731 44.8615 39.4485 44.2503C43.6342 42.7939 47.6255 40.8174 51.3318 38.3727C53.3922 37.0203 55.349 35.5119 57.2021 33.8864C57.3965 33.7174 57.1114 33.4443 56.93 33.6134C51.1115 38.7108 44.0489 42.7419 36.5586 44.7575C35.2757 45.1086 33.9409 45.0305 33.1116 43.8602C32.3859 42.8589 32.4766 41.5326 33.0857 40.5053C33.2152 40.2842 32.8783 40.0892 32.7487 40.2972Z" fill="#121212"/>
<path d="M60.6755 29.8814C60.7403 30.1805 60.8051 30.5056 60.7792 30.8177C60.7274 31.2468 60.52 31.3898 60.3645 31.7409C60.2997 31.897 60.2868 32.053 60.2349 32.209C60.1313 32.5601 59.9887 32.6382 59.7425 32.8462C59.4703 33.0673 59.3148 33.3274 59.0816 33.5744C58.7058 33.9775 58.4855 33.8475 58.019 33.7955C57.682 33.7565 57.3321 33.7045 56.9952 33.6654C56.749 33.6394 56.749 34.0295 56.9952 34.0556C57.5524 34.1336 58.4984 34.4587 59.0168 34.1856C59.2241 34.0816 59.3408 33.8865 59.4704 33.7045C59.6388 33.4704 59.7943 33.2753 60.0535 33.1453C60.1831 33.0803 60.2479 33.1323 60.3645 33.0283C60.5071 32.9112 60.5459 32.7162 60.5848 32.5471C60.6755 32.131 60.8051 31.8579 60.9865 31.4938C61.2587 30.9607 61.168 30.3625 61.0513 29.8034C60.9995 29.5303 60.6237 29.6343 60.6755 29.8814Z" fill="#121212"/>
<path d="M59.0816 29.1532C58.7836 29.5953 59.0168 30.2325 59.4834 30.4405C60.0276 30.6876 60.6367 30.3235 60.9088 29.8424C61.0384 29.6213 60.7015 29.4263 60.5719 29.6473C60.4034 29.9464 60.0535 30.2195 59.7037 30.1025C59.3926 30.0114 59.2242 29.6213 59.4186 29.3482C59.5482 29.1402 59.2112 28.9451 59.0816 29.1532Z" fill="#121212"/>
<path d="M59.3281 29.3352C61.2849 27.2937 63.2157 25.2261 65.1207 23.1325C65.2891 22.9505 65.017 22.6644 64.8485 22.8594C62.9436 24.953 61.0127 27.0206 59.0559 29.0622C58.8745 29.2312 59.1466 29.5173 59.3281 29.3352Z" fill="#121212"/>
<path d="M60.8959 29.7512C62.762 27.5926 64.6151 25.434 66.4812 23.2754C66.6497 23.0804 66.3646 22.8073 66.2091 23.0023C64.343 25.1609 62.4899 27.3195 60.6238 29.4781C60.4553 29.6732 60.7275 29.9463 60.8959 29.7512Z" fill="#121212"/>
<path d="M57.7987 34.0165C57.5525 34.2636 57.3063 34.5236 57.06 34.7707C56.9823 34.8487 56.8657 35.0178 56.7749 35.0698C56.451 35.2388 56.2825 34.9137 56.1659 34.7057C56.0363 34.4846 55.6994 34.6797 55.829 34.9007C56.0233 35.2258 56.3473 35.6419 56.7749 35.5119C57.0082 35.4469 57.1767 35.2128 57.3322 35.0438C57.5784 34.7967 57.8246 34.5366 58.0708 34.2896C58.2523 34.1075 57.9672 33.8344 57.7987 34.0165Z" fill="#121212"/>
<path d="M66.3773 23.2235C67.1549 23.5745 68.1009 23.3665 68.5026 22.5603C68.697 22.1702 68.7099 21.702 68.5674 21.2989C68.3212 20.6487 67.427 20.0766 68.2175 19.4004C68.4119 19.2313 68.1268 18.9583 67.9454 19.1273C67.4918 19.5174 67.3622 20.1156 67.6603 20.6357C67.9454 21.1429 68.3989 21.429 68.2564 22.0921C68.1009 22.8724 67.2715 23.1974 66.5847 22.8854C66.3385 22.7813 66.1441 23.1194 66.3773 23.2235Z" fill="#121212"/>
<path d="M65.0946 22.7943C65.1723 22.2221 65.3797 21.845 65.8851 21.559C66.1443 21.4159 66.4164 21.2989 66.6497 21.1168C67.1291 20.7267 67.2717 20.0115 67.8419 19.7255C68.0622 19.6084 67.8678 19.2833 67.6475 19.3874C67.3235 19.5434 67.1291 19.7905 66.9477 20.1026C66.6626 20.5577 66.4034 20.8568 65.924 21.1038C65.1464 21.5069 64.8225 21.9101 64.7058 22.7943C64.6799 23.0414 65.0687 23.0414 65.0946 22.7943Z" fill="#121212"/>
<path d="M65.0301 23.1715C65.3929 23.0284 65.7688 23.0804 66.0798 23.3145C66.2741 23.4705 66.4685 23.1324 66.2741 22.9764C65.8854 22.6773 65.367 22.6123 64.9135 22.7944C64.6932 22.8854 64.7968 23.2625 65.0301 23.1715Z" fill="#121212"/>
<path d="M66.3123 21.3769C66.8177 21.2078 67.3361 21.1948 67.8544 21.3249C68.1006 21.3899 68.2043 21.0128 67.9581 20.9478C67.3749 20.8047 66.7788 20.8177 66.2086 20.9998C65.9754 21.0778 66.079 21.4549 66.3123 21.3769Z" fill="#0E151A"/>
<path d="M66.0924 21.3771C67.0384 20.9739 67.3235 19.8686 68.2047 19.3745C68.1269 19.2705 68.0492 19.1664 67.9714 19.0624C67.2975 19.6736 67.8937 20.5058 68.0621 21.182C68.1528 21.104 68.2565 21.039 68.3472 20.9609C67.8548 20.7529 67.3623 20.6619 66.831 20.7009C66.8829 20.8049 66.9477 20.8959 66.9995 20.9999C67.1809 20.6489 67.4012 20.3368 67.6474 20.0247C67.5438 19.9597 67.4271 19.8946 67.3235 19.8296C67.2198 20.1027 67.0902 20.4408 67.142 20.7269C67.155 20.8049 67.2457 20.8699 67.3235 20.8699C67.6345 20.8569 67.7122 20.4278 67.8159 20.1937C67.6993 20.1547 67.5697 20.1287 67.453 20.0897C67.479 20.2848 67.5438 20.5188 67.5178 20.7269C67.5438 20.6749 67.5826 20.6098 67.6086 20.5578C67.5178 20.6098 67.168 20.5708 67.0124 20.6098C66.7533 20.6619 66.533 20.7529 66.2997 20.8829C66.1312 20.9739 66.209 21.26 66.4034 21.247C66.7274 21.221 67.0513 21.182 67.3753 21.156C67.6215 21.13 67.6215 20.7399 67.3753 20.7659C67.0513 20.7919 66.7274 20.8309 66.4034 20.8569C66.4423 20.9739 66.4682 21.104 66.507 21.221C66.7792 21.078 67.0772 20.9739 67.3883 20.9609C67.5049 20.9479 67.6863 20.9999 67.79 20.9219C68.0232 20.7529 67.8677 20.3498 67.8418 20.1027C67.8159 19.9337 67.5697 19.8036 67.479 19.9987C67.466 20.0377 67.2587 20.4798 67.3235 20.4798C67.3883 20.5318 67.4531 20.5708 67.5049 20.6228C67.466 20.4278 67.6215 20.1027 67.6863 19.9337C67.7511 19.7516 67.479 19.5956 67.3623 19.7386C67.0902 20.0637 66.8569 20.4148 66.6496 20.7919C66.5848 20.9089 66.6626 21.104 66.8181 21.091C67.2846 21.052 67.7122 21.117 68.1399 21.299C68.2954 21.364 68.4768 21.26 68.425 21.078C68.2954 20.5578 67.7252 19.7906 68.2306 19.3355C68.399 19.1794 68.1787 18.9194 67.9973 19.0234C67.1291 19.5175 66.8181 20.6228 65.885 21.026C65.6647 21.143 65.8721 21.4681 66.0924 21.3771Z" fill="#49708A"/>
<path d="M67.9841 18.9713C67.4398 19.3093 67.1029 19.8165 66.7012 20.2976C66.455 20.5967 66.1828 20.7787 65.9107 21.0388C65.807 21.1298 65.7163 21.1819 65.7163 21.3249C65.7163 21.3509 65.7293 21.3899 65.7681 21.4029C66.5845 21.754 67.4917 20.8178 68.2951 21.4809C68.347 21.52 68.4118 21.52 68.4506 21.4549C68.6839 21.1168 68.1655 20.7918 67.9711 20.5837C67.9064 20.5187 67.7768 20.5837 67.8027 20.6747C67.8416 20.8048 67.8286 20.7918 67.9193 20.8958C67.9971 20.9998 68.1655 20.8958 68.0878 20.7918C68.0619 20.7267 68.023 20.6747 67.9971 20.6097C67.9452 20.6357 67.8934 20.6747 67.8286 20.7007C67.9193 20.7918 68.3988 21.1689 68.2822 21.3379C68.334 21.3249 68.3858 21.3249 68.4377 21.3119C68.1655 21.0908 67.8545 20.9868 67.4917 20.9998C67.2843 21.0128 67.077 21.0518 66.8696 21.0908C66.7012 21.1298 66.5457 21.1689 66.3772 21.1819C66.1958 21.2079 65.9755 21.3119 66.118 21.0648C66.1958 20.9348 66.429 20.8178 66.5327 20.7137C66.6882 20.5577 66.8308 20.3886 66.9604 20.2066C67.2973 19.7905 67.6083 19.3744 68.0619 19.0883C68.1914 19.0753 68.0878 18.9062 67.9841 18.9713Z" fill="#49708A"/>
<path d="M65.9886 21.468C66.3774 21.52 66.7532 21.39 67.142 21.338C67.466 21.299 67.7251 21.351 68.0232 21.455C68.1916 21.52 68.2953 21.559 68.4767 21.533C68.5415 21.52 68.5804 21.481 68.5675 21.416C68.5415 21.2469 68.5027 21.1559 68.4119 21.0129C68.3472 20.9088 68.1787 21.0129 68.2435 21.1169C68.3342 21.2209 68.3731 21.338 68.386 21.468C68.4119 21.429 68.4508 21.39 68.4767 21.351C68.1139 21.39 67.751 21.1299 67.3752 21.1299C66.9346 21.1429 66.4811 21.351 66.0405 21.286C65.9109 21.2599 65.859 21.442 65.9886 21.468Z" fill="#49708A"/>
<path d="M67.8292 19.3094C67.894 19.2184 67.9717 19.1404 68.0754 19.0884C68.1013 19.0754 68.192 19.0104 68.2179 19.0364C68.2568 19.0624 68.1531 19.1404 68.1272 19.1534C67.9717 19.2834 67.868 19.4525 67.7903 19.6345C67.7385 19.7516 67.9328 19.8036 67.9717 19.6866C68.0495 19.5045 68.1791 19.3875 68.3216 19.2444C68.4123 19.1664 68.4642 19.0494 68.3734 18.9323C68.1791 18.6723 67.8032 19.0104 67.6737 19.1794C67.6089 19.2704 67.7514 19.4135 67.8292 19.3094Z" fill="#49708A"/>
<path d="M68.2698 18.8803C68.0495 19.0233 67.894 19.2444 67.8292 19.5045C67.8033 19.6215 67.9847 19.6735 68.0106 19.5565C68.0625 19.3484 68.1791 19.1794 68.3605 19.0493C68.4771 18.9713 68.3735 18.8023 68.2698 18.8803Z" fill="#49708A"/>
<path d="M32.9048 40.7394C33.3195 39.9202 34.8228 39.6081 35.6521 39.5041C35.8983 39.4651 35.7947 39.088 35.5485 39.127C34.6154 39.257 33.0474 39.6211 32.5679 40.5444C32.4642 40.7654 32.8012 40.9735 32.9048 40.7394Z" fill="#121212"/>
<path opacity="0.13" d="M32.4644 42.6249C33.6307 42.5469 35.3283 42.3908 37.3369 42.0007C43.0906 40.8954 47.1856 38.7498 49.6867 37.4234C51.7601 36.3181 54.5074 34.6667 57.5268 32.287C58.8486 31.8579 59.665 31.2727 60.1834 30.8046C60.5333 30.4925 60.7925 30.1804 60.922 30.2455C61.1294 30.3625 60.8054 31.4418 60.3648 32.222C59.976 32.9242 59.5225 33.3273 59.3799 33.4573C59.0171 33.7694 58.8097 33.9905 58.4599 34.0815C57.8119 34.2506 57.2288 33.8995 57.0344 33.7694C56.5549 34.1465 55.8551 34.7057 54.9869 35.3689C51.488 38.0346 49.7256 39.374 47.4059 40.6483C45.2677 41.8187 43.4794 42.5209 39.9935 43.8732C39.6695 44.0033 39.2418 44.1463 38.3866 44.4324C36.1058 45.1996 35.5615 45.2906 34.9265 45.1736C34.6674 45.1216 34.0324 45.0045 33.4492 44.4974C32.6847 43.8082 32.5162 42.924 32.4644 42.6249Z" fill="#88ABC2"/>
<path opacity="0.19" d="M42.7404 42.7159C42.7145 42.6769 42.9348 42.4948 47.7944 39.4C54.1961 35.3169 53.7425 35.681 54.4164 35.1868C57.2155 33.1062 58.4595 31.7019 59.1075 32.118C59.5481 32.4041 59.6258 33.4443 59.1464 33.8995C58.7317 34.3026 57.8634 34.2636 57.0859 33.6914C55.5179 35.0958 53.1853 37.0073 50.114 38.9449C46.4855 41.1945 42.8311 42.8719 42.7404 42.7159Z" fill="#88ABC2"/>
</svg>
