<svg width="125" height="118" viewBox="0 0 125 118" fill="none" xmlns="http://www.w3.org/2000/svg">
<path d="M75.2005 9.55642C72.5964 11.1112 71.8523 13.7918 71.5441 14.8962C71.4697 15.1643 70.5981 18.4561 72.1074 21.8873C72.5538 22.9059 73.0321 23.9567 74.1163 24.4607C74.7434 24.7609 75.3067 24.7394 77.5176 24.5464C78.5486 24.4607 79.6646 24.3534 80.8551 24.2248C81.6948 23.1418 83.1403 20.9759 83.5655 17.9307C83.6399 17.3624 84.5114 10.5858 80.8551 8.7844C78.4635 7.59421 75.5831 9.32053 75.2005 9.55642Z" fill="#CFFF55"/>
<path d="M27.115 25.5437C28.4417 25.5437 29.5172 24.3435 29.5172 22.8631C29.5172 21.3826 28.4417 20.1825 27.115 20.1825C25.7884 20.1825 24.7129 21.3826 24.7129 22.8631C24.7129 24.3435 25.7884 25.5437 27.115 25.5437Z" fill="#49708A"/>
<path d="M81.5884 68.4978C82.5746 68.4978 83.3741 67.7201 83.3741 66.7608C83.3741 65.8014 82.5746 65.0237 81.5884 65.0237C80.6022 65.0237 79.8027 65.8014 79.8027 66.7608C79.8027 67.7201 80.6022 68.4978 81.5884 68.4978Z" fill="#49708A"/>
<path d="M27.1362 58.0112C27.87 58.0112 28.4649 57.4111 28.4649 56.6709C28.4649 55.9307 27.87 55.3306 27.1362 55.3306C26.4025 55.3306 25.8076 55.9307 25.8076 56.6709C25.8076 57.4111 26.4025 58.0112 27.1362 58.0112Z" fill="#49708A"/>
<path d="M24.6596 24.6536C25.8278 24.6536 26.7748 23.6503 26.7748 22.4126C26.7748 21.175 25.8278 20.1716 24.6596 20.1716C23.4914 20.1716 22.5444 21.175 22.5444 22.4126C22.5444 23.6503 23.4914 24.6536 24.6596 24.6536Z" fill="#0E151A"/>
<path d="M81.0994 65.7529C81.8214 65.7529 82.4067 65.1384 82.4067 64.3804C82.4067 63.6224 81.8214 63.0079 81.0994 63.0079C80.3773 63.0079 79.792 63.6224 79.792 64.3804C79.792 65.1384 80.3773 65.7529 81.0994 65.7529Z" fill="#0E151A"/>
<path d="M98.5736 27.9026C99.3661 27.9026 100.008 27.2113 100.008 26.3585C100.008 25.5058 99.3661 24.8145 98.5736 24.8145C97.7811 24.8145 97.1387 25.5058 97.1387 26.3585C97.1387 27.2113 97.7811 27.9026 98.5736 27.9026Z" fill="#0E151A"/>
<path d="M67.4093 37.4455C67.1755 37.0702 66.7928 37.424 66.6334 37.6814C66.3039 38.2175 66.0913 38.8823 66.3358 39.4935C66.5165 39.9545 66.9629 40.3406 67.4837 40.2655C67.962 40.2012 68.3234 39.8044 68.3128 39.3219C68.3128 39.1933 68.1321 39.0968 68.0364 39.204C67.4731 39.9224 66.7822 40.941 67.3455 41.8632C67.7388 42.4958 68.706 42.5816 69.0887 41.8953C68.993 41.8846 68.8974 41.8739 68.8017 41.8524C68.8548 42.1527 68.908 42.4529 68.9505 42.7531C68.9824 42.9568 69.2906 42.8711 69.2587 42.6673C69.2056 42.3671 69.1525 42.0669 69.1099 41.7666C69.0887 41.6273 68.8761 41.6165 68.823 41.7238C68.6529 42.024 68.2703 42.1312 67.962 41.9811C67.6219 41.8095 67.4731 41.4235 67.4731 41.0482C67.4731 40.4263 67.9089 39.8795 68.2703 39.4184C68.1746 39.3755 68.0896 39.3434 67.9939 39.3005C68.0045 39.7079 67.6113 40.0082 67.218 39.9224C66.9204 39.858 66.7291 39.6007 66.6228 39.3219C66.5165 39.0324 66.5271 38.7429 66.6121 38.4534C66.6228 38.432 67.0586 37.4777 67.1223 37.5849C67.2392 37.7779 67.5156 37.617 67.4093 37.4455Z" fill="#49708A"/>
<path d="M24.0111 38.4105C24.2449 37.7672 25.0208 38.046 25.2653 38.4963C25.3503 38.6464 25.3929 38.818 25.4141 38.9896C25.4566 39.3112 25.4247 39.4399 25.1484 39.6329C24.8508 39.9331 24.7764 39.8152 24.9358 39.2791C25.0102 39.2469 25.0952 39.2147 25.1697 39.1826C25.3716 39.129 25.6054 39.1397 25.8074 39.204C26.3176 39.3756 26.5727 39.9224 26.4983 40.4264C26.477 40.555 26.6046 40.6837 26.7321 40.6087C27.423 40.2119 28.3371 40.6515 28.4965 41.4343C28.539 41.638 28.8473 41.5522 28.8048 41.3485C28.6028 40.362 27.4442 39.8474 26.5727 40.3406C26.6471 40.4049 26.7321 40.4585 26.8065 40.5229C26.9447 39.5793 26.2325 38.7001 25.2441 38.8502C24.9039 38.9038 24.3937 39.1182 24.3512 39.5257C24.3193 39.8581 24.6276 40.1047 24.9358 40.1369C25.8499 40.2226 25.8286 38.8823 25.531 38.3462C25.1271 37.6171 24.0111 37.4348 23.6922 38.3355C23.6284 38.5178 23.9367 38.6035 24.0111 38.4105Z" fill="#49708A"/>
<path d="M79.9728 78.77C80.7912 79.3168 81.4821 80.0138 82.0348 80.8287C82.1517 81.0003 82.4281 80.8394 82.3112 80.6679C81.7266 79.8101 81.0038 79.081 80.1429 78.5019C79.9622 78.3733 79.8027 78.6521 79.9728 78.77Z" fill="#49708A"/>
<path d="M82.0449 79.3597C82.215 79.5634 82.3744 79.7779 82.5445 79.9816C82.672 80.1424 82.8952 79.9173 82.7677 79.7564C82.5976 79.5527 82.4382 79.3383 82.2681 79.1345C82.1406 78.9737 81.9174 79.2096 82.0449 79.3597Z" fill="#49708A"/>
<path d="M81.0676 76.3574C81.801 77.0436 82.4069 77.8264 82.8746 78.7163C82.9702 78.8986 83.2466 78.7378 83.1509 78.5555C82.6726 77.6441 82.0455 76.8292 81.2908 76.1322C81.142 75.9821 80.9188 76.218 81.0676 76.3574Z" fill="#49708A"/>
<path d="M7.57865 88.431C7.81249 90.7577 8.21639 93.0524 8.77973 95.3255C8.83287 95.5292 9.14111 95.4435 9.08796 95.2397C8.53526 92.9987 8.13136 90.7256 7.89752 88.431C7.87626 88.2272 7.5574 88.2272 7.57865 88.431Z" fill="#D0E0EB"/>
<path d="M8.84368 95.4328C10.9376 95.9797 13.1165 95.9797 15.2104 95.4328C15.4124 95.3792 15.3274 95.0682 15.1254 95.1218C13.0846 95.658 10.9695 95.658 8.92871 95.1218C8.73739 95.0682 8.65236 95.3792 8.84368 95.4328Z" fill="#D0E0EB"/>
<path d="M15.4549 95.1111C15.593 92.8272 15.7737 90.5433 15.9863 88.2594C16.0076 88.0557 15.6887 88.0557 15.6675 88.2594C15.4549 90.5433 15.2742 92.8272 15.136 95.1111C15.1254 95.3148 15.4442 95.3148 15.4549 95.1111Z" fill="#D0E0EB"/>
<path d="M7.75952 88.6026C10.4061 89.1494 13.1271 89.128 15.7738 88.5275C15.9757 88.4846 15.8907 88.1737 15.6887 88.2166C13.1059 88.7956 10.438 88.8277 7.84455 88.2916C7.6426 88.2487 7.55757 88.5597 7.75952 88.6026Z" fill="#D0E0EB"/>
<path d="M7.72748 89.3746C7.81251 89.8142 8.36522 89.7928 8.70535 89.8249C9.56629 89.9 10.4379 89.9214 11.2988 89.9C12.1279 89.8785 12.9569 89.8142 13.786 89.7177C14.445 89.6319 15.0827 89.5461 15.6673 89.2137C15.848 89.1172 15.6886 88.8385 15.5079 88.935C14.4556 89.5247 12.9995 89.5033 11.8196 89.5569C11.235 89.5783 10.6398 89.589 10.0552 89.5783C9.74699 89.5676 8.0995 89.6426 8.03572 89.2888C7.99321 89.0851 7.6956 89.1709 7.72748 89.3746Z" fill="#D0E0EB"/>
<path d="M8.33331 93.0952C8.8435 94.0067 9.49187 94.8108 10.2678 95.5078C10.4166 95.6472 10.6504 95.422 10.491 95.2826C9.72571 94.6071 9.0986 93.8244 8.60966 92.9344C8.514 92.7521 8.23765 92.913 8.33331 93.0952Z" fill="#D0E0EB"/>
<path d="M7.91893 90.6184C9.00308 92.4626 10.3211 94.1568 11.8304 95.6794C11.9792 95.8295 12.2024 95.5936 12.0536 95.4542C10.5655 93.9531 9.26881 92.2804 8.19528 90.4575C8.08899 90.286 7.81264 90.4468 7.91893 90.6184Z" fill="#D0E0EB"/>
<path d="M9.69415 89.8464C10.8208 91.8729 12.1282 93.7922 13.6056 95.5829C13.7332 95.7437 13.9564 95.5186 13.8288 95.3577C12.3726 93.5885 11.0759 91.6906 9.9705 89.6855C9.87484 89.5032 9.59849 89.6641 9.69415 89.8464Z" fill="#D0E0EB"/>
<path d="M11.724 89.9214C12.8188 91.5727 13.9242 93.2132 15.0403 94.8537C15.1572 95.0253 15.4336 94.8645 15.3166 94.6929C14.2006 93.0524 13.0952 91.4118 12.0004 89.7606C11.8835 89.589 11.6071 89.7498 11.724 89.9214Z" fill="#D0E0EB"/>
<path d="M13.4248 89.8249C13.9775 90.7256 14.5727 91.6049 15.1892 92.4627C15.3061 92.6235 15.5825 92.4627 15.4655 92.3018C14.8491 91.444 14.2538 90.5648 13.7011 89.6641C13.5948 89.4925 13.3185 89.6534 13.4248 89.8249Z" fill="#D0E0EB"/>
<path d="M4.23058 78.9952C4.35813 79.735 4.48568 80.4856 4.62385 81.2255C4.66637 81.4292 4.69826 81.6436 4.86832 81.7723C4.98524 81.8688 5.36788 81.8581 5.44228 81.9653C5.45291 81.901 5.46354 81.8366 5.46354 81.7723C5.30411 81.9331 5.14467 82.094 4.97461 82.2441C4.93209 82.287 4.92146 82.3513 4.93209 82.4049C5.02775 82.6944 5.09153 83.1233 5.28285 83.37C5.37851 83.4986 5.54857 83.4772 5.62297 83.5522C5.68675 83.6166 5.66549 83.5737 5.6336 83.7667C5.61235 83.9275 5.61235 84.0991 5.6336 84.2706C5.66549 84.528 5.73989 84.7746 5.83555 85.0105C6.38826 86.3615 7.46179 87.4552 8.4928 88.4631C8.6416 88.6025 8.86481 88.3773 8.716 88.238C8.05701 87.5946 7.39801 86.9298 6.85594 86.1792C6.32449 85.4394 5.69738 84.4422 6.02688 83.4986C6.04814 83.445 6.02688 83.37 5.98436 83.3378C5.78241 83.177 5.58046 83.2413 5.44228 82.9839C5.17656 82.5014 5.32537 82.3406 5.66549 82.0082C5.71864 81.9653 5.72926 81.8688 5.68675 81.8152C5.60172 81.6865 5.53795 81.6436 5.39977 81.6007C5.31474 81.5686 5.18719 81.6007 5.10216 81.5579C4.92146 81.4614 4.92146 81.2255 4.88958 81.0539C4.76203 80.3462 4.63448 79.6278 4.51756 78.9201C4.4963 78.7057 4.18807 78.7915 4.23058 78.9952Z" fill="#D0E0EB"/>
<path d="M4.46478 78.9523C8.61007 80.3462 11.448 84.2492 11.533 88.6668C11.533 88.8706 11.8519 88.8706 11.8519 88.6668C11.7669 84.1098 8.83328 80.0888 4.54981 78.6413C4.35849 78.577 4.27346 78.8879 4.46478 78.9523Z" fill="#D0E0EB"/>
<path d="M10.8315 84.2706C11.8625 81.3862 13.3825 78.5984 15.8165 76.7005C15.9759 76.5719 15.8165 76.2931 15.6571 76.4217C13.1486 78.384 11.5862 81.2147 10.5233 84.1848C10.4595 84.3778 10.7678 84.4636 10.8315 84.2706Z" fill="#D0E0EB"/>
<path d="M15.5403 76.6363C15.6147 77.6227 15.6997 78.6092 15.7741 79.6064C15.7954 79.8101 16.1143 79.8101 16.093 79.6064C16.0186 78.6199 15.9336 77.6334 15.8592 76.6363C15.8485 76.4325 15.5297 76.4325 15.5403 76.6363Z" fill="#D0E0EB"/>
<path d="M15.912 79.4991C15.7738 79.5313 15.6356 79.5634 15.5081 79.6063C15.3061 79.6599 15.3911 79.9709 15.5931 79.9173C15.7313 79.8851 15.8694 79.853 15.997 79.8101C16.1989 79.7565 16.1139 79.4562 15.912 79.4991Z" fill="#D0E0EB"/>
<path d="M15.3487 79.8959C15.3912 80.0996 15.5613 80.2283 15.7526 80.2497C15.8376 80.2604 15.912 80.1746 15.912 80.0889C15.912 79.9924 15.8376 79.9387 15.7526 79.928C15.7845 79.928 15.7526 79.928 15.742 79.928C15.7313 79.928 15.7101 79.9173 15.7313 79.928C15.7207 79.9173 15.7101 79.9173 15.6994 79.9066C15.6782 79.8959 15.7207 79.928 15.6888 79.8959C15.6782 79.8851 15.6782 79.8851 15.6675 79.8744C15.6888 79.8959 15.6675 79.8744 15.6675 79.8637C15.6569 79.853 15.6569 79.8315 15.6569 79.853C15.6569 79.8423 15.6463 79.8208 15.6463 79.8101C15.625 79.7243 15.5294 79.6707 15.455 79.7029C15.3699 79.7243 15.3274 79.8101 15.3487 79.8959Z" fill="#D0E0EB"/>
<path d="M15.5932 80.1318C15.6038 80.743 15.5825 81.3435 15.5188 81.9439C15.4975 82.1369 15.5294 82.5873 15.4019 82.7374C15.3912 82.7481 15.1999 82.7803 15.1574 82.8124C14.998 82.9411 15.2212 83.1663 15.3806 83.0376C15.4337 82.9947 15.5613 83.0376 15.6463 82.9411C15.7739 82.8124 15.7526 82.5122 15.7739 82.3621C15.8695 81.6222 15.912 80.8717 15.9014 80.1211C15.912 79.9281 15.5932 79.9281 15.5932 80.1318Z" fill="#D0E0EB"/>
<path d="M15.0299 83.0911C15.37 83.4986 15.2744 84.1741 15.2425 84.6673C15.2 85.2356 15.1043 85.761 14.828 86.2543C14.4347 86.9834 13.882 87.5946 13.595 88.388C13.5206 88.5811 13.8288 88.6668 13.9032 88.4738C14.2859 87.4337 15.1681 86.6617 15.4338 85.568C15.6251 84.7853 15.8058 83.5308 15.2531 82.866C15.1256 82.7159 14.9024 82.941 15.0299 83.0911Z" fill="#D0E0EB"/>
<path d="M12.5215 88.5382C12.8192 85.493 13.6163 82.5228 14.8918 79.7565C14.9768 79.5742 14.7005 79.4026 14.6155 79.5956C13.3187 82.4263 12.5003 85.4394 12.2027 88.5489C12.1814 88.7526 12.5003 88.7419 12.5215 88.5382Z" fill="#D0E0EB"/>
<path d="M6.25 80.743C8.11007 83.1019 9.47057 85.8147 10.2677 88.7098C10.3209 88.9135 10.6291 88.8277 10.576 88.624C9.75756 85.6646 8.36516 82.9196 6.4732 80.5178C6.34566 80.357 6.12245 80.5821 6.25 80.743Z" fill="#D0E0EB"/>
<path d="M6.4524 84.6995C7.34524 84.6459 8.17429 84.8604 8.92895 85.3322C9.09901 85.4394 9.26908 85.1606 9.08839 85.0534C8.29121 84.5602 7.38775 84.3243 6.4524 84.3779C6.23982 84.3886 6.23982 84.7103 6.4524 84.6995Z" fill="#D0E0EB"/>
<path d="M8.39733 83.2627C8.33356 82.673 8.40796 82.1047 8.63117 81.5471C8.70557 81.3541 8.39733 81.2684 8.32293 81.4614C8.08909 82.0404 8.01469 82.6408 8.07846 83.2627C8.09972 83.4665 8.41859 83.4665 8.39733 83.2627Z" fill="#D0E0EB"/>
<path d="M11.8411 81.4828C12.1918 82.3513 12.702 83.2735 12.8296 84.1956C12.8615 84.3993 13.1697 84.3135 13.1378 84.1098C12.9996 83.177 12.4895 82.2548 12.1493 81.397C12.0749 81.204 11.7667 81.2898 11.8411 81.4828Z" fill="#D0E0EB"/>
<path d="M13.797 82.5014C14.1052 82.1475 14.4028 81.7294 14.7961 81.4613C15.1256 81.2361 15.487 81.086 15.7421 80.7751C15.8696 80.6142 15.6464 80.3891 15.5189 80.5499C15.2425 80.8823 14.8386 81.0217 14.5091 81.279C14.1477 81.5578 13.8714 81.9331 13.5738 82.2762C13.4356 82.4371 13.6588 82.6622 13.797 82.5014Z" fill="#D0E0EB"/>
<path d="M13.9029 88.431C14.4131 88.2916 14.934 88.238 15.4654 88.2701C15.6674 88.2809 15.6674 87.9592 15.4654 87.9485C14.9021 87.9163 14.36 87.9699 13.8179 88.12C13.6266 88.1736 13.701 88.4846 13.9029 88.431Z" fill="#D0E0EB"/>
<path d="M13.8604 88.5596C14.4557 88.6132 15.0296 88.5382 15.6036 88.3559C15.7949 88.2916 15.7099 87.9806 15.5186 88.0449C14.9765 88.2165 14.4238 88.2808 13.8604 88.2379C13.6585 88.2272 13.6585 88.5489 13.8604 88.5596Z" fill="#D0E0EB"/>
<path d="M7.89756 88.506H8.30146C8.50341 88.506 8.50341 88.1844 8.30146 88.1844C8.16328 88.1844 8.03573 88.1844 7.89756 88.1844C7.69561 88.1844 7.69561 88.506 7.89756 88.506Z" fill="#D0E0EB"/>
<path d="M15.6886 91.1008H25.8073C26.0093 91.1008 26.0093 90.7792 25.8073 90.7792C22.438 90.7792 19.058 90.7792 15.6886 90.7792C15.4866 90.7792 15.4866 91.1008 15.6886 91.1008Z" fill="#D0E0EB"/>
<path d="M72.7237 88.9778H78.7397C78.9417 88.9778 78.9417 88.6561 78.7397 88.6561C76.7309 88.6561 74.7326 88.6561 72.7237 88.6561C72.5218 88.6561 72.5218 88.9778 72.7237 88.9778Z" fill="#D0E0EB"/>
<path d="M90.963 89.1708H116.951H124.349C124.551 89.1708 124.551 88.8491 124.349 88.8491C115.686 88.8491 107.023 88.8491 98.3608 88.8491C95.8948 88.8491 93.4289 88.8491 90.963 88.8491C90.761 88.8491 90.761 89.1708 90.963 89.1708Z" fill="#D0E0EB"/>
<path d="M78.1335 53.9689C77.3257 55.6523 76.4542 57.3036 75.5295 58.9227C75.4869 59.0084 75.5188 59.1478 75.6251 59.1586C80.1849 59.8555 84.2665 62.1394 88.1992 64.4447C88.3799 64.552 88.5393 64.2732 88.3586 64.1659C84.394 61.8499 80.2912 59.5553 75.6995 58.8476C75.7314 58.9227 75.7633 59.0084 75.7952 59.0835C76.7305 57.4644 77.5915 55.8131 78.3993 54.1297C78.4949 53.9474 78.2292 53.7759 78.1335 53.9689Z" fill="#D0E0EB"/>
<path d="M78.8354 59.8126C79.1543 58.8905 79.4732 57.9577 79.792 57.0355C79.9302 56.6495 80.0259 56.2206 80.2066 55.8453C80.2491 55.6202 80.3873 55.4486 80.5998 55.3199C80.7274 55.3521 80.8549 55.3843 80.9825 55.4164C81.1738 55.47 81.3651 55.5129 81.5458 55.5665C81.9816 55.6738 82.6831 55.6738 82.6087 56.2635C82.5556 56.6817 82.3111 57.132 82.1729 57.5395C81.8541 58.4509 81.5458 59.3623 81.2269 60.2737C81.1632 60.4667 81.4714 60.5525 81.5352 60.3595C81.9497 59.1586 82.3643 57.9469 82.7788 56.746C82.8744 56.4672 83.1402 55.9954 82.9276 55.6952C82.6937 55.3735 81.9922 55.3521 81.6309 55.2556C81.2801 55.1698 80.6636 54.8481 80.3022 55.0197C79.994 55.1591 79.9302 55.6952 79.8346 55.9633C79.3988 57.2178 78.963 58.4831 78.5272 59.7376C78.4634 59.9199 78.7717 60.0057 78.8354 59.8126Z" fill="#D0E0EB"/>
<path d="M82.9382 60.96C83.6185 59.5125 84.3094 58.0542 84.9896 56.6067C85.3297 55.8775 85.6699 55.1591 86.0206 54.43C86.1801 54.0976 86.3076 53.7009 86.5096 53.3899C86.6796 53.1219 86.7221 53.0575 87.0198 53.1755C87.1792 53.2398 87.3705 53.4007 87.5087 53.4972C87.6894 53.6258 87.9764 53.7652 88.1039 53.9368C88.2633 54.1405 88.1996 54.355 88.1039 54.6123C87.9764 54.9554 87.785 55.2878 87.6256 55.6202C87.2749 56.3493 86.9241 57.0785 86.5521 57.8076C85.8506 59.1908 85.1172 60.5633 84.3625 61.925C84.2562 62.1073 84.5326 62.2681 84.6389 62.0859C85.5636 60.4346 86.4458 58.7619 87.2748 57.0677C87.6894 56.2314 88.1464 55.3736 88.4972 54.5051C88.7416 53.8724 88.2102 53.6151 87.7425 53.2827C87.3705 53.0254 86.7859 52.4356 86.382 52.9182C86.1269 53.2184 85.9887 53.7223 85.8187 54.0869C85.6061 54.5265 85.4042 54.9661 85.1916 55.4165C84.3413 57.2179 83.4909 59.0192 82.6513 60.8206C82.5768 60.9815 82.8532 61.153 82.9382 60.96Z" fill="#D0E0EB"/>
<path d="M86.4669 63.1903C87.381 61.7427 88.412 60.3703 89.5493 59.105C89.4855 59.1157 89.4217 59.1264 89.3579 59.1264C89.7618 59.4052 90.1551 59.6733 90.559 59.9521C90.5378 59.877 90.5165 59.802 90.5059 59.7269C89.6024 61.153 88.699 62.5684 87.7955 63.9945C87.6892 64.166 87.9549 64.3269 88.0718 64.1553C88.9753 62.7292 89.8788 61.3138 90.7822 59.8877C90.8354 59.8127 90.7929 59.7162 90.7291 59.6626C90.3252 59.3838 89.9319 59.1157 89.528 58.8369C89.4749 58.7941 89.3792 58.8155 89.3367 58.8584C88.1781 60.1558 87.1259 61.539 86.2012 63.008C86.0842 63.2117 86.3606 63.3726 86.4669 63.1903Z" fill="#D0E0EB"/>
<path d="M99.1477 52.9932C98.0848 52.5857 97.4152 51.5135 97.6065 50.3662C97.7978 49.1974 98.9351 48.1573 100.104 48.8543C100.912 49.3368 101.327 50.4305 101.018 51.3205C100.7 52.2748 99.6579 52.8431 98.6907 52.6929C98.4887 52.6608 98.4037 52.9717 98.6056 53.0039C99.7429 53.1755 100.944 52.5428 101.327 51.4062C101.709 50.2697 101.093 48.8972 99.9874 48.4361C98.6907 47.9 97.5108 49.0259 97.2876 50.2804C97.0538 51.61 97.8297 52.8323 99.052 53.3041C99.254 53.3792 99.339 53.0682 99.1477 52.9932Z" fill="#D0E0EB"/>
<path d="M101.326 52.7895C99.211 52.7251 100.008 49.3047 101.879 49.4334C103.75 49.5727 102.984 53.4221 100.933 52.7144C100.742 52.6501 100.657 52.961 100.848 53.0254C103.218 53.8403 104.281 49.487 102.017 49.1224C100.912 48.9401 99.9125 49.9909 99.7425 51.031C99.5724 52.0604 100.263 53.0683 101.326 53.1004C101.528 53.1219 101.528 52.8002 101.326 52.7895Z" fill="#D0E0EB"/>
<path d="M99.7429 43.0856C99.5622 42.8926 99.4771 42.5817 99.6153 42.3458C99.7535 42.1206 100.094 42.0134 100.306 42.1849C100.498 42.335 100.54 42.6567 100.359 42.8175C100.147 43.0106 99.8066 42.914 99.6047 42.7532C99.4452 42.6245 99.222 42.8497 99.3815 42.9784C99.711 43.2357 100.221 43.3644 100.572 43.0534C100.891 42.7639 100.859 42.2278 100.54 41.949C100.211 41.6595 99.6897 41.7453 99.4133 42.067C99.1051 42.4315 99.1901 42.9784 99.509 43.3108C99.6578 43.4609 99.881 43.2357 99.7429 43.0856Z" fill="#D0E0EB"/>
<path d="M68.8974 51.1597C68.5998 49.3369 69.6521 47.1388 71.6928 47.1602C72.7345 47.1709 73.7442 47.5998 74.7965 47.4497C75.5405 47.3425 76.1782 46.9136 76.6246 46.3239C77.0711 45.7341 77.3262 44.9943 77.3687 44.2544C77.4218 43.1607 77.0073 42.0456 77.3049 40.9626C77.4537 40.4158 77.7726 39.9118 78.3147 39.7081C78.8355 39.5258 79.3988 39.633 79.9409 39.6116C80.7274 39.5794 81.3439 39.2363 81.7372 38.5393C82.2899 37.5636 82.1623 36.3948 82.545 35.3655C83.002 34.1217 84.2881 33.0602 85.6486 33.6713C85.8293 33.7571 85.9994 33.4783 85.8081 33.3926C83.9586 32.5562 82.4174 34.2396 82.0561 35.9338C81.8222 37.0382 81.8647 38.7538 80.5574 39.1934C79.6433 39.5044 78.6123 39.0219 77.7726 39.6545C77.0817 40.1692 76.8797 41.1127 76.8904 41.9384C76.9223 43.15 77.2943 44.3295 76.7628 45.4875C76.2739 46.5812 75.3067 47.2353 74.1056 47.1602C73.0427 47.0959 71.9904 46.6563 70.9169 46.935C69.0993 47.3961 68.3234 49.562 68.6104 51.2562C68.6317 51.4385 68.9399 51.3527 68.8974 51.1597Z" fill="#D0E0EB"/>
<path d="M82.3326 43.5145C81.9393 42.6138 82.4814 41.756 83.3424 41.4665C83.9695 41.2521 84.6603 41.2413 85.2024 40.8124C85.6276 40.48 85.7658 40.0619 85.7126 39.5257C85.6595 39.0218 85.6595 38.625 86.0527 38.2819C86.3822 37.9924 86.818 37.8852 87.2432 37.8637C88.4124 37.8209 90.0173 38.4213 90.8677 37.274C91.2609 36.7379 91.144 36.0731 91.3247 35.4726C91.5692 34.6363 92.3663 34.1216 93.2167 34.1645C93.4186 34.1752 93.4186 33.8535 93.2167 33.8428C92.5683 33.8107 91.9412 34.0573 91.4948 34.5291C90.9421 35.1188 91.0165 35.7836 90.8464 36.5234C90.3894 38.55 87.5939 37.1239 86.2759 37.7565C85.787 37.9924 85.3937 38.4106 85.3512 38.9682C85.2981 39.6222 85.5957 40.1584 84.9367 40.6087C84.5859 40.8446 84.182 40.9197 83.7781 41.0162C83.1085 41.177 82.4495 41.3807 82.1094 42.0348C81.833 42.5495 81.833 43.1392 82.0669 43.6646C82.1413 43.8683 82.407 43.6968 82.3326 43.5145Z" fill="#D0E0EB"/>
<path d="M101.273 29.2321C101.23 29.1356 101.188 29.0284 101.156 28.9212C101.294 28.7604 101.422 28.5995 101.56 28.4387C101.602 28.428 101.794 28.5566 101.858 28.5566C102.017 28.5781 102.155 28.5352 102.283 28.4387C102.676 28.1277 102.538 27.6345 102.655 27.2163C102.846 26.4979 103.686 26.9911 104.068 26.455C104.451 25.9296 104.313 24.8145 105.333 25.1147C105.535 25.1683 105.62 24.8574 105.418 24.8038C104.834 24.6322 104.302 24.911 104.09 25.4793C104.026 25.6401 104.005 25.8224 103.941 25.9832C103.803 26.3585 103.654 26.4121 103.25 26.4336C102.952 26.455 102.718 26.4336 102.517 26.6909C102.346 26.9161 102.346 27.2056 102.315 27.4737C102.283 27.8704 102.315 28.2028 101.73 28.1599C101.613 28.1492 101.517 28.0419 101.39 28.0419C100.688 28.0312 100.805 28.8997 100.975 29.3179C101.039 29.5109 101.358 29.4251 101.273 29.2321Z" fill="#D0E0EB"/>
<path d="M103.272 30.1221C103.102 29.897 102.815 29.2429 103.314 29.0713C103.495 29.007 103.729 29.0821 103.92 29.0821C104.09 29.0821 104.239 29.0821 104.377 28.9641C104.802 28.621 104.494 28.0098 104.717 27.5809C105.079 26.8839 105.802 27.4308 106.312 27.0662C106.673 26.8089 106.769 26.3157 106.833 25.9082C106.864 25.7045 106.556 25.6187 106.524 25.8224C106.45 26.3049 106.365 26.8411 105.77 26.8947C105.461 26.9268 105.228 26.8196 104.941 26.959C104.473 27.1842 104.324 27.6024 104.313 28.0849C104.303 28.4923 104.398 28.696 103.718 28.7282C103.633 28.7282 103.548 28.7068 103.463 28.7068C103.219 28.7282 103.006 28.8569 102.868 29.0606C102.57 29.4895 102.74 29.9827 103.038 30.358C103.176 30.5189 103.399 30.283 103.272 30.1221Z" fill="#D0E0EB"/>
<path d="M12.9042 35.9337C13.7864 34.8615 15.0406 33.9822 16.4861 34.1324C18.0592 34.2932 18.8351 35.5584 18.9839 37.0381C19.239 39.4936 18.6438 42.4315 20.2913 44.5224C20.9397 45.3481 21.9069 45.7877 22.9485 45.5303C24.2028 45.2301 25.1806 44.2329 26.2967 43.6432C27.6147 42.9462 29.4322 42.5709 30.6227 43.7397C31.4942 44.5975 31.6856 45.9056 31.9725 47.0422C32.2383 48.0716 32.6953 49.2081 33.6094 49.8193C34.1621 50.1839 34.768 50.2161 35.4057 50.1732C36.1178 50.1196 37.574 50.0767 37.4252 51.2025C37.4039 51.4063 37.7228 51.4063 37.7441 51.2025C37.7972 50.7629 37.5953 50.4091 37.2445 50.1517C36.6918 49.7443 36.0541 49.8086 35.4057 49.8515C34.6723 49.9051 34.0452 49.8408 33.4818 49.3154C32.9717 48.8436 32.6634 48.1788 32.4402 47.5247C32.0682 46.3989 31.9619 45.1658 31.3242 44.1364C30.6971 43.1178 29.6129 42.6246 28.4437 42.6674C26.9663 42.7211 25.7227 43.5789 24.5429 44.3723C23.9796 44.7476 23.3737 45.1443 22.6828 45.2623C21.8538 45.4017 21.1204 45.0371 20.5889 44.4152C19.5898 43.2357 19.4304 41.5523 19.3772 40.0726C19.3241 38.6894 19.5048 37.1883 19.0477 35.8479C18.6332 34.6256 17.5809 33.8643 16.3161 33.8C14.8493 33.7249 13.5632 34.6149 12.6597 35.7086C12.5428 35.8694 12.766 36.0946 12.9042 35.9337Z" fill="#D0E0EB"/>
<path d="M7.5366 52.4785C9.19472 55.2664 10.6721 58.1507 11.9795 61.1208C12.0645 61.3138 12.3409 61.1423 12.2559 60.96C10.9485 57.9899 9.46045 55.1055 7.81296 52.3177C7.70667 52.1354 7.43031 52.2962 7.5366 52.4785Z" fill="#D0E0EB"/>
<path d="M7.73843 52.3498C10.3213 50.7307 12.9785 49.2188 15.7102 47.8464C15.8908 47.7499 15.7314 47.4711 15.5507 47.5676C12.8297 48.9401 10.1725 50.4519 7.579 52.071C7.3983 52.189 7.55774 52.4678 7.73843 52.3498Z" fill="#D0E0EB"/>
<path d="M15.519 47.707C16.8689 50.5699 18.2931 53.3899 19.8025 56.167C19.8981 56.3493 20.1745 56.1885 20.0788 56.0062C18.5695 53.2291 17.1346 50.409 15.7953 47.5461C15.6997 47.3531 15.434 47.514 15.519 47.707Z" fill="#D0E0EB"/>
<path d="M12.3405 61.1851C14.8809 59.6411 17.3893 58.0541 19.8765 56.4243C20.0465 56.3171 19.8871 56.0383 19.717 56.1455C17.2299 57.7754 14.7214 59.3623 12.1811 60.9063C12.011 61.0136 12.1705 61.2923 12.3405 61.1851Z" fill="#D0E0EB"/>
<path d="M11.4217 53.4895C11.3485 54.7498 11.4827 56.0036 11.8243 57.2508C11.8609 57.3755 12.2147 57.323 12.1781 57.1983C11.8365 55.9708 11.7145 54.7302 11.7877 53.4895C11.7999 53.3648 11.4339 53.3648 11.4217 53.4895Z" fill="#D0E0EB"/>
<path d="M13.9322 54.1812C14.9052 53.3959 14.1266 52.2181 12.7967 52.6289C12.67 52.6043 12.67 52.7825 12.7967 52.807C13.9322 52.4144 14.516 53.396 13.7376 54.1812C13.8417 54.2495 14.0363 54.2495 13.9322 54.1812Z" fill="#D0E0EB"/>
<path d="M12.6357 52.9004C13.2904 53.9756 14.0857 54.9458 15.0216 55.8109C15.1169 55.8963 15.3337 55.683 15.2384 55.5976C14.3135 54.7488 13.534 53.7835 12.8903 52.7246C12.829 52.6158 12.5743 52.7916 12.6357 52.9004Z" fill="#D0E0EB"/>
<path d="M14.563 52.481C14.9716 53.1892 15.5165 53.7981 16.1978 54.3077C16.2675 54.3575 16.4851 54.166 16.4154 54.1162C15.7412 53.6171 15.2093 53.0096 14.8078 52.312C14.7707 52.2396 14.5259 52.4086 14.563 52.481Z" fill="#D0E0EB"/>
<path d="M14.1473 51.7944C14.1984 51.9756 14.3877 52.0603 14.7151 52.0484C14.7495 52.0461 14.982 51.8766 14.9476 51.8789C14.6217 51.8931 14.4416 51.8043 14.3922 51.6254C14.3904 51.6051 14.1456 51.7742 14.1473 51.7944Z" fill="#D0E0EB"/>
<path d="M11.4339 53.534C12.2842 54.1459 13.1344 54.7466 13.9969 55.3417C14.0887 55.4091 14.1804 55.2631 14.0887 55.1957C13.2384 54.6119 12.3943 54.0168 11.5624 53.4161C11.4706 53.3487 11.3422 53.4666 11.4339 53.534Z" fill="#D0E0EB"/>
<path d="M11.5277 55.7328C12.0809 55.1904 12.8025 54.9007 13.3268 54.3161C13.3942 54.2424 13.2883 54.1318 13.2258 54.2055C12.7015 54.7848 11.9847 55.0798 11.4267 55.6222C11.3545 55.6854 11.4266 55.8319 11.5277 55.7328Z" fill="#D0E0EB"/>
<path d="M7.96158 54.1619C8.3017 53.9904 8.64183 53.8295 8.98196 53.658C9.16265 53.5722 9.00322 53.2934 8.82252 53.3792C8.4824 53.5508 8.14227 53.7116 7.80214 53.8832C7.62145 53.9797 7.78088 54.2477 7.96158 54.1619Z" fill="#D0E0EB"/>
<path d="M9.05664 55.9847C9.34362 55.7917 9.65186 55.6308 9.97073 55.4914C10.1621 55.4164 10.077 55.1054 9.8857 55.1805C9.53494 55.3306 9.20545 55.5022 8.88658 55.7059C8.72714 55.8238 8.88658 56.1026 9.05664 55.9847Z" fill="#D0E0EB"/>
<path d="M10.2575 58.0864C10.5551 57.9363 10.8527 57.7861 11.1503 57.6468C11.331 57.5503 11.1716 57.2822 10.9909 57.368C10.6933 57.5181 10.3957 57.6682 10.098 57.8076C9.91735 57.8934 10.0768 58.1722 10.2575 58.0864Z" fill="#D0E0EB"/>
<path d="M10.8738 60.188C11.2033 59.8985 11.5434 59.6519 11.926 59.4374C12.1067 59.3302 11.9473 59.0621 11.7666 59.1586C11.3733 59.3838 11.0013 59.6519 10.6506 59.9628C10.4911 60.1022 10.7143 60.3274 10.8738 60.188Z" fill="#D0E0EB"/>
<path d="M16.1245 49.8194C16.369 49.6478 16.6241 49.5299 16.9111 49.4548C17.113 49.4012 17.028 49.101 16.826 49.1439C16.5178 49.2189 16.2202 49.3476 15.9544 49.5406C15.795 49.6586 15.9544 49.9374 16.1245 49.8194Z" fill="#D0E0EB"/>
<path d="M17.0705 51.6528C17.4106 51.4384 17.7507 51.2239 18.0802 50.9988C18.2503 50.8915 18.0908 50.6128 17.9208 50.72C17.5807 50.9344 17.2405 51.1489 16.911 51.374C16.7303 51.492 16.8898 51.7708 17.0705 51.6528Z" fill="#D0E0EB"/>
<path d="M18.1548 53.851C18.5161 53.6901 18.8882 53.5293 19.2495 53.3685C19.4409 53.2827 19.2708 53.0039 19.0901 53.0897C18.7287 53.2505 18.3567 53.4114 17.9953 53.5722C17.804 53.658 17.9741 53.9368 18.1548 53.851Z" fill="#D0E0EB"/>
<path d="M18.931 55.2878C19.218 55.009 19.5368 54.7731 19.8876 54.5694C20.0683 54.4729 19.9088 54.1941 19.7281 54.2906C19.3561 54.5051 19.016 54.7517 18.7078 55.0519C18.559 55.202 18.7822 55.4272 18.931 55.2878Z" fill="#D0E0EB"/>
<path d="M13.2441 59.7698C13.5098 60.1665 13.733 60.5847 13.9031 61.0243C13.9775 61.2173 14.2857 61.1315 14.2113 60.9385C14.0306 60.4667 13.8074 60.0164 13.5204 59.5982C13.4035 59.4374 13.1272 59.5982 13.2441 59.7698Z" fill="#D0E0EB"/>
<path d="M14.8704 58.8798C15.0724 59.2443 15.2637 59.5982 15.4656 59.9628C15.5613 60.145 15.8377 59.9842 15.742 59.8019C15.54 59.4374 15.3487 59.0835 15.1468 58.7189C15.0511 58.5367 14.7748 58.6975 14.8704 58.8798Z" fill="#D0E0EB"/>
<path d="M16.7518 57.518C16.9643 57.904 17.1769 58.2901 17.3895 58.6761C17.4852 58.8583 17.7615 58.6975 17.6659 58.5152C17.4533 58.1292 17.2407 57.7432 17.0281 57.3572C16.9325 57.1749 16.6561 57.3357 16.7518 57.518Z" fill="#D0E0EB"/>
<path d="M18.4418 56.4994C18.6119 56.9069 18.782 57.3144 18.9627 57.7111C19.0477 57.9041 19.3134 57.7325 19.239 57.5503C19.0689 57.1428 18.8989 56.7353 18.7182 56.3386C18.6332 56.1563 18.3568 56.3172 18.4418 56.4994Z" fill="#D0E0EB"/>
<path d="M8.80125 50.6986C9.0032 51.031 9.19452 51.3634 9.39647 51.685C9.50276 51.8673 9.77911 51.6958 9.67282 51.5242C9.47087 51.1918 9.27955 50.8594 9.0776 50.5377C8.97131 50.3662 8.69496 50.527 8.80125 50.6986Z" fill="#D0E0EB"/>
<path d="M10.6298 49.6263L11.2038 50.913C11.2888 51.106 11.5652 50.9345 11.4801 50.7522C11.2888 50.3233 11.0975 49.8944 10.9062 49.4655C10.8105 49.2725 10.5448 49.4333 10.6298 49.6263Z" fill="#D0E0EB"/>
<path d="M12.2773 48.5969C12.5643 48.983 12.7875 49.4011 12.9363 49.8515C13 50.0445 13.3083 49.9587 13.2445 49.7657C13.0851 49.2832 12.8619 48.8328 12.5536 48.4361C12.4367 48.2753 12.1604 48.4254 12.2773 48.5969Z" fill="#D0E0EB"/>
<path d="M14.0517 47.7713C14.2749 48.1144 14.4875 48.4468 14.7107 48.7899C14.817 48.9615 15.0933 48.8006 14.987 48.6291C14.7638 48.286 14.5512 47.9536 14.328 47.6105C14.2111 47.4389 13.9348 47.5997 14.0517 47.7713Z" fill="#D0E0EB"/>
<path d="M30.5799 26.5087C29.5488 26.187 29.4957 25.0826 29.9846 24.257C30.4629 23.4528 31.3877 23.2383 32.1104 23.9031C32.7057 24.4607 32.7588 25.415 32.2061 26.0262C31.6534 26.6481 30.7499 26.6373 30.1122 26.1656C29.9528 26.0369 29.7933 26.3157 29.9528 26.4443C30.7606 27.0448 31.9404 26.9483 32.5462 26.1012C33.1733 25.2434 32.9501 24.0425 32.0679 23.4635C29.9421 22.0803 28.1139 26.069 30.4948 26.8196C30.6968 26.884 30.7818 26.573 30.5799 26.5087Z" fill="#D0E0EB"/>
<path d="M32.2914 26.7874C31.4942 27.034 31.3029 26.069 31.6536 25.5543C31.9406 25.1361 32.504 24.8895 33.0142 25.0289C33.5031 25.1576 33.8538 25.6615 33.7263 26.1655C33.5669 26.7981 32.9079 27.0233 32.3233 26.9268C32.1213 26.8946 32.0363 27.2056 32.2382 27.2377C33.0248 27.3771 33.8751 27.034 34.0452 26.1762C34.194 25.4364 33.62 24.7608 32.9079 24.6751C32.1213 24.5786 31.2604 25.1576 31.1541 25.9725C31.0584 26.6802 31.6962 27.3128 32.3977 27.0876C32.5784 27.034 32.4933 26.723 32.2914 26.7874Z" fill="#D0E0EB"/>
<path d="M25.5099 33.7678C25.2548 34.2932 25.6162 34.8186 26.1477 34.958C26.5516 35.0653 26.9767 34.9688 27.3912 34.9902C27.8377 35.0116 28.2841 35.1189 28.688 35.3011C29.5808 35.7086 30.1548 36.4485 30.1867 37.4456C30.2185 38.282 29.9741 39.1505 30.3355 39.944C31.1008 41.6167 33.2053 40.3407 34.2894 41.4237C35.1929 42.3351 34.8209 43.9971 36.0326 44.694C36.2133 44.8013 36.3727 44.5225 36.192 44.4152C35.1079 43.7933 35.363 42.1743 34.5977 41.2736C34.1938 40.8018 33.6092 40.6731 33.014 40.6302C32.2912 40.5873 31.3559 40.7374 30.8244 40.1155C30.2079 39.3864 30.5374 38.2927 30.5055 37.4349C30.4843 36.7594 30.2611 36.1482 29.7934 35.6657C29.3789 35.2475 28.8368 34.958 28.2734 34.8079C27.9865 34.7329 27.6889 34.6792 27.3912 34.6685C27.0086 34.6471 25.3505 34.8401 25.7969 33.9287C25.8819 33.7464 25.6056 33.5856 25.5099 33.7678Z" fill="#D0E0EB"/>
<path d="M0.659434 91.6477H6.42033C6.62228 91.6477 6.62228 91.326 6.42033 91.326C4.49649 91.326 2.58328 91.326 0.659434 91.326C0.446855 91.326 0.446855 91.6477 0.659434 91.6477Z" fill="#D0E0EB"/>
<path d="M3.76295 98.9176H14.849C15.0509 98.9176 15.0509 98.5959 14.849 98.5959C11.1501 98.5959 7.46183 98.5959 3.76295 98.5959C3.55037 98.5959 3.55037 98.9176 3.76295 98.9176Z" fill="#D0E0EB"/>
<path d="M14.4026 96.9017H24.7127C24.9146 96.9017 24.9146 96.5801 24.7127 96.5801C21.2795 96.5801 17.8358 96.5801 14.4026 96.5801C14.19 96.5801 14.19 96.9017 14.4026 96.9017Z" fill="#D0E0EB"/>
<path d="M71.5762 96.3441C73.3087 95.9152 75.0518 95.8723 76.8162 96.1511C77.5603 96.269 78.3149 96.387 79.0696 96.3226C79.803 96.2583 80.5151 96.0331 81.2273 95.8401C82.0351 95.6149 82.8429 95.4434 83.6932 95.5077C84.5648 95.5721 85.4044 95.8187 86.2548 96.0117C86.9882 96.1832 87.7322 96.3012 88.4868 96.2905C89.284 96.269 90.0706 96.1296 90.8465 96.0117C92.9723 95.6686 94.9705 95.883 97.075 96.2368C97.277 96.269 97.362 95.9581 97.1601 95.9259C95.4594 95.6471 93.7482 95.3576 92.0157 95.5292C90.2087 95.7114 88.5294 96.1618 86.7012 95.7865C85.1706 95.4756 83.7144 94.993 82.1413 95.2933C81.3017 95.4541 80.5045 95.7543 79.6648 95.9152C78.7295 96.0975 77.826 95.9902 76.8906 95.8401C75.0731 95.5613 73.2768 95.5828 71.4805 96.0331C71.2998 96.0867 71.3848 96.3977 71.5762 96.3441Z" fill="#D0E0EB"/>
<path d="M87.9018 93.0845C91.2393 92.9023 94.5768 92.72 97.9143 92.5484C99.5618 92.4626 101.156 92.4948 102.793 92.72C103.526 92.8165 104.228 92.8379 104.961 92.7522C105.78 92.6556 106.63 92.527 107.395 92.9237C107.576 93.0202 107.735 92.7414 107.555 92.6449C106.258 91.9801 104.759 92.602 103.367 92.4734C102.538 92.3983 101.73 92.2375 100.901 92.1946C100.04 92.1517 99.1792 92.1731 98.3182 92.216C94.8426 92.3769 91.3669 92.5913 87.8912 92.7736C87.6999 92.7736 87.6999 93.0953 87.9018 93.0845Z" fill="#D0E0EB"/>
<path d="M22.5446 102.295C24.1177 102.445 25.7014 102.595 27.2745 102.413C28.0079 102.327 28.7094 102.166 29.4216 101.952C30.3463 101.673 31.1754 101.598 32.132 101.77C32.8654 101.898 33.5881 102.081 34.3215 102.145C35.0974 102.209 35.8734 102.166 36.6493 102.091C38.2755 101.93 39.9017 101.652 41.5173 102.016C41.7193 102.059 41.8043 101.748 41.6024 101.705C40.0505 101.362 38.4987 101.587 36.9363 101.748C36.1603 101.823 35.3844 101.898 34.6085 101.855C33.7263 101.813 32.876 101.577 32.015 101.437C31.2923 101.319 30.6014 101.319 29.8892 101.491C29.124 101.684 28.4012 101.941 27.6147 102.059C25.9353 102.306 24.224 102.134 22.5446 101.984C22.3321 101.952 22.3427 102.274 22.5446 102.295Z" fill="#D0E0EB"/>
<path d="M39.3593 15.7755C38.9447 15.486 38.3814 15.0249 38.5515 14.4459C38.7322 13.8454 39.1786 14.1349 39.5931 13.9955C40.1458 13.8133 40.1139 13.1377 39.9545 12.6981C39.795 12.2692 39.4549 11.2291 40.3371 11.583C40.5391 11.6688 40.6879 11.8082 40.9217 11.7331C41.1343 11.6688 41.2406 11.4758 41.2937 11.272C41.3363 11.0897 41.3044 10.8967 41.2937 10.7037C41.2725 10.5751 41.2618 10.4357 41.2618 10.307C41.2193 9.99606 41.4107 9.86738 41.8146 9.921C41.8252 10.1247 42.1441 10.1247 42.1334 9.921C42.1122 9.62077 41.889 9.40632 41.5701 9.41704C41.1981 9.42776 40.9961 9.79233 40.9536 10.1354C40.9217 10.3713 41.113 10.9182 41.0068 11.1112C40.8792 11.197 40.7517 11.2935 40.6135 11.3793C40.5603 11.3471 40.5072 11.3149 40.454 11.2828C40.3584 11.2506 40.284 11.1862 40.1883 11.1648C39.8588 11.0897 39.5931 11.2935 39.4762 11.5937C39.2742 12.1084 39.6356 12.5373 39.7419 13.0198C39.8801 13.6846 39.3805 13.6095 38.9447 13.6846C38.7534 13.7168 38.594 13.8133 38.4664 13.9526C37.7968 14.7354 38.5727 15.6039 39.2105 16.0542C39.3699 16.1722 39.5293 15.8934 39.3593 15.7755Z" fill="#D0E0EB"/>
<path d="M41.4533 15.4753C41.1025 15.0678 40.8368 14.5103 41.517 14.2958C41.6871 14.2422 41.8784 14.2636 42.0379 14.1564C42.3886 13.9098 42.2398 13.5774 42.176 13.2343C42.1442 13.0413 42.0697 12.7839 42.1867 12.5909C42.2717 12.4515 42.5799 12.3979 42.7394 12.3658C42.9626 12.3122 43.1964 12.28 43.3877 12.1513C43.6747 11.9476 43.781 11.583 43.5897 11.2721C43.4834 11.1005 43.2071 11.2614 43.3133 11.4329C43.6322 11.9476 42.1442 12.087 41.8891 12.4623C41.5914 12.9019 42.2186 13.6739 41.6977 13.9527C41.4958 14.0599 41.2407 13.9849 41.0494 14.1243C40.9112 14.2208 40.8155 14.3709 40.773 14.5317C40.6561 14.9928 40.9643 15.3895 41.2407 15.7112C41.3682 15.8613 41.5914 15.6361 41.4533 15.4753Z" fill="#D0E0EB"/>
<path d="M83.6928 80.1961C83.6609 81.322 83.6291 82.4479 83.5972 83.5844C85.0108 83.6809 86.4138 83.7667 87.8275 83.8632C87.8275 82.7052 87.8275 81.5472 87.8275 80.3891C86.4457 80.3248 85.0746 80.2605 83.6928 80.1961Z" fill="#FCFCFC"/>
<path fill-rule="evenodd" clip-rule="evenodd" d="M83.5558 80.0471L83.6993 80.0538C84.3902 80.086 85.0785 80.1181 85.7667 80.1503C86.4549 80.1825 87.1432 80.2146 87.834 80.2468L87.9687 80.2531V84.0157L87.818 84.0054C87.1115 83.9571 86.4076 83.9116 85.7034 83.866C84.9994 83.8205 84.2947 83.7749 83.5876 83.7266L83.4521 83.7173L83.456 83.5804C83.4879 82.4438 83.5198 81.3179 83.5516 80.1921L83.5558 80.0471ZM83.8299 80.3451C83.8007 81.3775 83.7714 82.4102 83.7422 83.4515C84.4033 83.4963 85.0622 83.539 85.7214 83.5816C86.3754 83.624 87.0298 83.6663 87.6863 83.7108V80.5252C87.0406 80.4951 86.3971 80.465 85.7536 80.435C85.1131 80.405 84.4726 80.3751 83.8299 80.3451Z" fill="#0E151A"/>
<path d="M85.5317 92.7091C85.723 93.9529 85.808 94.9823 85.8505 95.7221C85.9887 98.1776 85.8824 98.7459 85.6698 99.1962C85.149 100.301 84.203 100.762 84.2881 100.912C84.3519 101.008 84.8195 100.901 86.9028 99.7967C86.7753 97.3519 86.6583 94.9179 86.5308 92.4732C86.2013 92.559 85.8718 92.634 85.5317 92.7091Z" fill="#FCFCFC"/>
<path fill-rule="evenodd" clip-rule="evenodd" d="M86.6627 92.2917L86.6718 92.4657C86.7356 93.6882 86.7967 94.9081 86.8578 96.1277C86.9189 97.3474 86.98 98.567 87.0438 99.7892L87.0485 99.8803L86.9684 99.9228C85.926 100.475 85.2826 100.781 84.8897 100.937C84.6945 101.015 84.5536 101.058 84.4528 101.074C84.4027 101.082 84.3534 101.085 84.3083 101.077C84.2616 101.069 84.2066 101.045 84.1705 100.991L84.1678 100.987L84.1654 100.982C84.1125 100.889 84.159 100.8 84.1832 100.763C84.2116 100.718 84.2542 100.674 84.2974 100.633C84.3409 100.591 84.3943 100.543 84.452 100.492L84.4571 100.487C84.5176 100.434 84.5844 100.374 84.6557 100.307C84.9406 100.041 85.2928 99.6639 85.5422 99.135L85.5423 99.1349C85.7369 98.7226 85.848 98.1914 85.7095 95.7302C85.6671 94.9938 85.5825 93.9692 85.392 92.7309L85.3717 92.5985L85.5014 92.5699C85.8411 92.4949 86.1685 92.4203 86.4954 92.3352L86.6627 92.2917ZM85.6912 92.8196C85.8693 94.0096 85.9503 94.997 85.9915 95.7139L85.9915 95.714C86.1293 98.1637 86.0278 98.7691 85.7973 99.2574C85.5259 99.8329 85.1447 100.239 84.8477 100.516C84.7735 100.586 84.7043 100.647 84.6439 100.701L84.6419 100.703C84.6268 100.716 84.6124 100.729 84.5986 100.741C84.6516 100.724 84.7137 100.701 84.7864 100.672C85.1544 100.526 85.7636 100.238 86.7569 99.7129C86.6949 98.521 86.6353 97.3317 86.5757 96.1425L86.5757 96.1421C86.5174 94.98 86.4592 93.8181 86.3987 92.6538C86.1645 92.7124 85.9298 92.7664 85.6912 92.8196ZM84.4181 100.921C84.4175 100.922 84.417 100.923 84.417 100.923C84.4169 100.923 84.4172 100.923 84.4181 100.921Z" fill="#0E151A"/>
<path d="M82.7788 84.8282C84.5857 84.8389 86.3927 84.8604 88.1996 84.8711C87.9976 87.3158 87.8063 89.7498 87.6044 92.1945C86.0313 92.0658 84.4476 91.9479 82.8745 91.8192C82.8319 89.4925 82.8001 87.1657 82.7788 84.8282Z" fill="#FCFCFC"/>
<path fill-rule="evenodd" clip-rule="evenodd" d="M82.6362 84.6849L82.7796 84.6857C83.6833 84.6911 84.5869 84.6991 85.4903 84.7072L85.4904 84.7072C86.3939 84.7152 87.2972 84.7233 88.2004 84.7286L88.353 84.7295L88.3403 84.8829C88.2393 86.1051 88.141 87.3247 88.0427 88.5444C87.9444 89.764 87.8461 90.9838 87.7451 92.2064L87.7334 92.348L87.5929 92.3365C86.8067 92.2722 86.0177 92.2106 85.2285 92.1489L85.2278 92.1489C84.4389 92.0873 83.6496 92.0256 82.863 91.9613L82.7356 91.9508L82.7332 91.8219C82.6907 89.4947 82.6588 87.1674 82.6375 84.8295L82.6362 84.6849ZM82.9213 84.9716C82.9422 87.2168 82.9728 89.4523 83.0133 91.6876C83.7572 91.7482 84.5033 91.8065 85.2497 91.8648L85.2503 91.8648C85.9925 91.9228 86.735 91.9808 87.4753 92.0411C87.5721 90.8663 87.6666 89.6939 87.7612 88.5213L87.7612 88.5213C87.8554 87.3526 87.9496 86.1838 88.0461 85.0126C87.1933 85.0073 86.3406 84.9997 85.488 84.9921L85.4879 84.9921C84.6322 84.9845 83.7768 84.9769 82.9213 84.9716Z" fill="#0E151A"/>
<path d="M83.5123 92.6234C84.0862 94.0281 84.2776 95.2397 84.3413 96.0546C84.437 97.2555 84.5008 98.1777 83.9268 98.7889C83.7142 99.0248 83.3635 99.2499 82.6832 99.711C82.0774 100.118 81.7904 100.269 81.8116 100.311C81.8435 100.376 82.4281 100.247 84.9791 99.3357C85.1491 98.4672 85.2873 97.352 85.2554 96.0439C85.2129 94.65 84.9897 93.4598 84.7452 92.5698C84.3413 92.5913 83.9268 92.602 83.5123 92.6234Z" fill="#FCFCFC"/>
<path fill-rule="evenodd" clip-rule="evenodd" d="M84.8511 92.4215L84.8814 92.5318C85.1285 93.4314 85.3538 94.633 85.3967 96.0395L85.3967 96.0404C85.4289 97.3607 85.2894 98.4864 85.1177 99.3633L85.1021 99.4429L85.0263 99.47C83.7503 99.9259 82.9633 100.187 82.4903 100.326C82.2546 100.396 82.0926 100.436 81.9854 100.455C81.9328 100.464 81.886 100.469 81.8473 100.468C81.8283 100.467 81.8032 100.465 81.7775 100.455C81.7523 100.446 81.71 100.425 81.6854 100.375C81.6418 100.287 81.6976 100.214 81.707 100.202C81.7249 100.179 81.7477 100.16 81.7664 100.145C81.806 100.113 81.8644 100.074 81.936 100.028C81.9738 100.004 82.0165 99.9762 82.0642 99.9457C82.2018 99.8577 82.3809 99.7431 82.6048 99.5926C82.6825 99.5399 82.7558 99.4904 82.8248 99.4437C83.0595 99.2852 83.2462 99.1591 83.3984 99.0495C83.5955 98.9077 83.7264 98.7995 83.8224 98.693L83.8243 98.6909L83.8243 98.6909C84.0824 98.4161 84.2026 98.0674 84.2447 97.6292C84.2871 97.1871 84.2487 96.6697 84.2006 96.066L84.2006 96.0658C84.1377 95.2624 83.949 94.0658 83.3818 92.6777L83.3056 92.4915L83.5051 92.4812C83.7093 92.4706 83.9134 92.4626 84.1152 92.4547L84.1273 92.4543C84.3334 92.4462 84.5371 92.4382 84.7379 92.4276L84.8511 92.4215ZM83.7176 92.7562C84.2405 94.0978 84.4204 95.2535 84.4822 96.0434C84.5298 96.6406 84.5711 97.1846 84.5258 97.6566C84.4802 98.132 84.3456 98.5495 84.0304 98.8858C83.9139 99.0148 83.7635 99.1369 83.5625 99.2815C83.4065 99.3937 83.215 99.5231 82.9793 99.6823C82.9107 99.7286 82.8384 99.7775 82.762 99.8293L82.7616 99.8295C82.6396 99.9116 82.5301 99.9835 82.4336 100.046C82.8916 99.9104 83.6458 99.6601 84.8559 99.2286C85.0172 98.3804 85.1449 97.304 85.1143 96.0479C85.0739 94.7235 84.8688 93.5853 84.6389 92.7179C84.473 92.7259 84.3057 92.7325 84.1383 92.739L84.1269 92.7395C83.9905 92.7448 83.8541 92.7501 83.7176 92.7562ZM81.8557 100.183C81.8557 100.183 81.8559 100.183 81.8564 100.183Z" fill="#0E151A"/>
<path d="M84.4366 101.008C84.7555 100.74 85.0531 100.451 85.3401 100.14C85.6696 99.7752 86.1585 99.2177 86.6687 99.7002C86.6793 99.6144 86.69 99.5286 86.7006 99.4428C85.9459 99.8181 85.2019 100.193 84.4473 100.558C84.2985 100.633 84.3729 100.858 84.5323 100.858C85.2444 100.869 85.6908 99.6144 86.4242 99.8503C86.6156 99.9146 86.7006 99.6037 86.5093 99.5393C86.1904 99.4428 85.9459 99.5286 85.6802 99.7216C85.372 99.9468 84.9362 100.537 84.5429 100.537C84.5748 100.633 84.5961 100.74 84.6279 100.837C85.3826 100.461 86.1266 100.086 86.8813 99.7216C86.977 99.6787 86.9876 99.5393 86.9132 99.4643C86.6262 99.1962 86.116 99.0997 85.7546 99.2713C85.4889 99.3892 85.3188 99.7002 85.1275 99.9039C84.8405 100.215 84.5429 100.494 84.224 100.772C84.054 100.912 84.2772 101.148 84.4366 101.008Z" fill="#0E151A"/>
<path d="M85.7442 99.3356C86.0631 99.3464 86.3714 99.4107 86.669 99.5394C86.8497 99.6251 87.0197 99.3464 86.8284 99.2606C86.4776 99.0997 86.1269 99.014 85.7442 99.0032C85.5423 99.014 85.5423 99.3356 85.7442 99.3356Z" fill="#0E151A"/>
<path d="M84.0011 98.9603C84.2455 99.0246 84.4581 99.1533 84.6282 99.3463C84.7664 99.4964 84.9896 99.2713 84.8514 99.1211C84.6388 98.896 84.3731 98.7351 84.0755 98.6601C83.8948 98.5958 83.8098 98.9067 84.0011 98.9603Z" fill="#0E151A"/>
<path d="M82.2794 100.258C82.6089 100.011 82.9491 99.786 83.2998 99.5715C83.4593 99.475 83.6293 99.3464 83.7994 99.2927C84.0651 99.1962 84.2245 99.2606 84.469 99.3678C84.469 99.2713 84.469 99.1855 84.469 99.089C84.1289 99.2391 83.7462 99.2284 83.3955 99.3785C83.0554 99.5179 82.7365 99.861 82.3857 99.9254C82.4283 100.022 82.4708 100.118 82.5133 100.215C83.1404 99.9039 83.8419 99.8503 84.469 99.5394C84.6497 99.4429 84.4903 99.1748 84.3096 99.2606C83.6825 99.5715 82.981 99.6251 82.3538 99.9361C82.1838 100.022 82.3113 100.258 82.4814 100.226C82.864 100.161 83.1723 99.8074 83.5337 99.668C83.895 99.5286 84.2883 99.5179 84.6391 99.3678C84.7454 99.3249 84.7454 99.1319 84.6391 99.089C84.2352 98.9067 84.0545 98.7995 83.6506 99.014C83.1191 99.2927 82.6196 99.6251 82.1413 99.979C81.9499 100.097 82.1094 100.376 82.2794 100.258Z" fill="#0E151A"/>
<path d="M84.0967 94.2639C84.3624 94.1674 84.6281 94.1781 84.8726 94.3068C85.0533 94.4033 85.2127 94.1245 85.032 94.028C84.7132 93.8564 84.3518 93.8243 84.0117 93.9529C83.8203 94.028 83.9054 94.3389 84.0967 94.2639Z" fill="#0E151A"/>
<path d="M84.3629 95.3362C84.5861 95.3147 84.7987 95.3683 84.9687 95.5184C85.1282 95.6471 85.3514 95.4219 85.192 95.2933C84.9581 95.1003 84.6711 94.993 84.3629 95.0145C84.1609 95.0252 84.1609 95.3469 84.3629 95.3362Z" fill="#0E151A"/>
<path d="M84.4794 96.6765C84.6814 96.655 84.8727 96.7301 84.9896 96.9016C85.0959 97.0732 85.3722 96.9124 85.2659 96.7408C85.1065 96.4727 84.7983 96.3119 84.49 96.3548C84.405 96.3655 84.3306 96.4191 84.3306 96.5156C84.32 96.5907 84.3944 96.6872 84.4794 96.6765Z" fill="#0E151A"/>
<path d="M85.8507 94.1889C86.0421 94.0817 86.2865 94.0924 86.4672 94.2425C86.6267 94.3712 86.8499 94.146 86.6904 94.0173C86.4034 93.7814 86.0208 93.7278 85.6913 93.9101C85.5106 94.0173 85.67 94.2961 85.8507 94.1889Z" fill="#0E151A"/>
<path d="M86.0314 96.2155C86.2014 96.1404 86.3927 96.1726 86.5309 96.3013C86.6797 96.4407 86.9135 96.2155 86.7541 96.0761C86.5096 95.8509 86.1695 95.7973 85.8613 95.9474C85.6806 96.0225 85.8507 96.3013 86.0314 96.2155Z" fill="#0E151A"/>
<path d="M86.0739 97.931C86.244 97.8238 86.4566 97.8238 86.616 97.9524C86.7755 98.0811 86.9987 97.8559 86.8392 97.7273C86.5735 97.5021 86.2015 97.4699 85.9145 97.6629C85.7444 97.7702 85.9039 98.0489 86.0739 97.931Z" fill="#0E151A"/>
<path d="M88.4546 84.8603C88.2421 87.3265 88.0295 89.7926 87.8169 92.2588" stroke="#0E151A" stroke-width="2.17736" stroke-miterlimit="10"/>
<path d="M82.8428 91.9157C84.6178 92.0444 86.3929 92.1623 88.1679 92.291" stroke="#0E151A" stroke-width="2.17736" stroke-miterlimit="10"/>
<path d="M88.1782 80.2926C88.1357 81.5149 88.0826 82.7266 88.04 83.9489" stroke="#0E151A" stroke-width="2.17736" stroke-miterlimit="10"/>
<path d="M88.4016 86.3078C89.3901 86.1256 90.4423 86.9083 90.5168 87.9377C90.623 89.2243 89.1669 89.4495 88.2103 89.3101C88.0083 89.278 87.9233 89.5889 88.1252 89.6211C89.2944 89.7926 90.9419 89.4602 90.8356 87.9377C90.7506 86.6831 89.507 85.7717 88.3166 85.9969C88.1146 86.0291 88.1996 86.34 88.4016 86.3078Z" fill="#0E151A"/>
<path d="M88.1675 89.8785C88.5821 89.9642 88.9116 90.2645 89.0285 90.6719C89.0816 90.8756 89.3899 90.7899 89.3367 90.5861C89.1985 90.0715 88.784 89.664 88.2632 89.5675C88.0506 89.5353 87.9656 89.8356 88.1675 89.8785Z" fill="#0E151A"/>
<path d="M88.0083 89.7712C88.2634 90.1465 88.3803 90.5646 88.3378 91.0257C88.3271 91.2294 88.646 91.2294 88.6566 91.0257C88.6885 90.5217 88.561 90.0285 88.274 89.6103C88.1677 89.4388 87.8914 89.5996 88.0083 89.7712Z" fill="#0E151A"/>
<path d="M82.7679 86.1577C82.0663 85.7074 80.7802 87.0048 80.6208 87.6374C80.3019 88.9241 81.9388 88.774 82.6191 89.2029C82.7891 89.3101 82.9486 89.0314 82.7785 88.9241C82.2896 88.6132 81.5668 88.7311 81.1416 88.3451C80.6208 87.8733 81.0991 87.305 81.4605 86.9726C81.6518 86.8011 82.3002 86.2328 82.6084 86.4258C82.7785 86.5545 82.9486 86.2757 82.7679 86.1577Z" fill="#0E151A"/>
<path d="M82.5979 89.0529C82.3215 89.1601 82.0665 89.3209 81.8539 89.5461C81.6944 89.7177 81.4925 89.9857 81.6519 90.2216C81.7688 90.3932 82.0452 90.2323 81.9283 90.0608C81.8539 89.9535 82.1302 89.7177 82.2046 89.6533C82.3428 89.5246 82.5022 89.4281 82.6829 89.3638C82.8743 89.2887 82.7999 88.9778 82.5979 89.0529Z" fill="#0E151A"/>
<path d="M82.4704 89.2779C82.2684 89.5996 82.2047 89.9642 82.2791 90.3287C82.3216 90.5325 82.6298 90.4467 82.5873 90.243C82.5235 89.9535 82.5873 89.6854 82.7467 89.4388C82.8637 89.2672 82.5873 89.1064 82.4704 89.2779Z" fill="#0E151A"/>
<path d="M83.4803 85.9541C83.4271 86.7368 83.4377 87.5303 83.4909 88.313C83.5121 88.5168 83.831 88.5168 83.8098 88.313C83.746 87.5303 83.746 86.7368 83.7991 85.9541C83.8204 85.7504 83.5015 85.7504 83.4803 85.9541Z" fill="#0E151A"/>
<path d="M83.714 86.0398C84.8406 86.1042 85.9567 86.1471 87.0833 86.1685C87.0302 86.1149 86.9771 86.0613 86.9239 86.0077C86.892 86.8119 86.8601 87.6268 86.8176 88.431C86.807 88.6347 87.1259 88.6347 87.1365 88.431C87.1684 87.6268 87.2003 86.8119 87.2428 86.0077C87.2428 85.9219 87.1684 85.8468 87.0833 85.8468C85.9567 85.8254 84.8406 85.7825 83.714 85.7182C83.512 85.7074 83.512 86.0291 83.714 86.0398Z" fill="#0E151A"/>
<path d="M83.5865 88.4523C84.0542 88.5809 84.575 88.5488 85.0427 88.5809C85.6167 88.6131 86.2013 88.656 86.7752 88.6882C86.9772 88.6989 86.9772 88.3772 86.7752 88.3665C86.265 88.3343 85.7548 88.3022 85.2447 88.27C84.7345 88.2378 84.1605 88.27 83.6609 88.1413C83.4802 88.0877 83.3952 88.3987 83.5865 88.4523Z" fill="#0E151A"/>
<path d="M83.9482 90.1145C84.1395 90.5326 84.5541 90.1681 84.8729 90.3182C85.0217 90.3825 84.9898 90.479 85.1918 90.4897C85.4256 90.5005 85.9996 90.0287 86.1165 90.4683C86.1484 90.5862 86.2972 90.6184 86.3822 90.5434C86.4885 90.5112 86.6054 90.479 86.7117 90.4576C86.8393 90.6184 87.0731 90.3825 86.935 90.2324C86.6905 89.9429 86.3822 90.1037 86.1484 90.3182C86.2334 90.3396 86.3291 90.3611 86.4141 90.3932C86.3185 90.018 85.9252 89.7713 85.5532 89.9429C85.3725 90.0287 85.3512 90.1895 85.0749 90.0823C85.0217 90.0608 85.0005 89.9751 84.9473 89.9536C84.8304 89.9107 84.2139 89.9751 84.2139 89.9643C84.1395 89.7606 83.8632 89.9215 83.9482 90.1145Z" fill="#0E151A"/>
<path d="M84.5113 81.6757C84.5325 81.5578 84.6707 81.5256 84.7664 81.5685C84.9045 81.6221 84.9789 81.7829 85.0427 81.9009C85.1277 82.0832 85.4041 81.9223 85.3191 81.74C85.2021 81.5042 85.0215 81.2575 84.7345 81.2254C84.5006 81.2039 84.2562 81.3433 84.2137 81.5792C84.1605 81.7937 84.4688 81.8794 84.5113 81.6757Z" fill="#0E151A"/>
<path d="M86.4673 81.8259C86.4885 81.7186 86.5842 81.6543 86.6905 81.6972C86.818 81.7401 86.8712 81.9009 86.8924 82.0189C86.9243 82.2226 87.2326 82.1368 87.2007 81.9331C87.1582 81.6757 86.9881 81.4077 86.7117 81.3648C86.4673 81.3326 86.2016 81.4827 86.159 81.7401C86.1272 81.9438 86.4354 82.0296 86.4673 81.8259Z" fill="#0E151A"/>
<path d="M84.6707 82.3513C85.0321 82.9946 85.893 83.0911 86.3607 82.5121C86.4883 82.3513 86.2651 82.1261 86.1375 82.2869C85.7974 82.7051 85.2128 82.6729 84.9471 82.1904C84.8514 82.0081 84.5751 82.169 84.6707 82.3513Z" fill="#0E151A"/>
<path d="M73.521 24.0855C72.1817 23.5386 71.3739 22.2305 70.885 20.9223C70.3642 19.5606 70.141 18.0809 70.2154 16.6226C70.3429 13.9313 71.4802 11.2078 73.5847 9.49219C75.5724 7.86237 78.5166 7.4013 80.7274 8.88101C83.0339 10.425 83.4484 13.6096 83.4697 16.1723C83.4909 19.0245 82.8319 22.016 80.738 24.064C80.5892 24.2034 80.8124 24.4393 80.9612 24.2892C82.9489 22.3377 83.7035 19.5499 83.7779 16.8264C83.8523 14.1565 83.5335 10.7789 81.3545 8.94534C79.3138 7.22975 76.2845 7.31553 74.1056 8.70945C71.6928 10.2535 70.2685 13.052 69.9603 15.8721C69.7689 17.6198 69.9815 19.4319 70.6193 21.0832C71.1613 22.4771 72.0223 23.8067 73.4466 24.3857C73.6273 24.4715 73.7017 24.1605 73.521 24.0855Z" fill="#0E151A"/>
<path d="M73.3722 24.2891C73.0108 24.8038 73.0852 25.5651 73.6167 25.9511C74.0206 26.2406 74.6158 26.2835 75.0941 26.3478C75.6681 26.4336 76.2526 26.4658 76.8372 26.4658C77.8789 26.4551 79.0693 26.38 80.0366 25.9726C80.7381 25.6723 81.2695 24.9646 80.8975 24.2034C80.8125 24.0211 80.5361 24.1819 80.6212 24.3642C81.4183 26.0047 77.645 26.1441 76.8266 26.1441C76.072 26.1441 75.3173 26.0798 74.5839 25.9404C74.2331 25.8761 73.8399 25.8117 73.6167 25.5008C73.3935 25.1791 73.436 24.7609 73.6485 24.4607C73.7655 24.2784 73.4891 24.1176 73.3722 24.2891Z" fill="#0E151A"/>
<path d="M73.7124 26.0262C73.7124 26.5623 73.723 27.1091 73.7868 27.6453C73.8187 27.8919 73.8718 28.1063 74.0738 28.2564C74.3608 28.4709 74.8391 28.4602 75.1792 28.4923C75.7532 28.5352 76.3378 28.5352 76.9117 28.5138C77.4538 28.4923 77.9959 28.4494 78.5379 28.3958C78.8568 28.3637 79.2182 28.3744 79.4627 28.1278C80.0047 27.5916 80.0154 26.573 79.8772 25.8975C79.8347 25.6938 79.5264 25.7795 79.569 25.9833C79.6434 26.3478 79.6646 26.7124 79.5902 27.0877C79.4839 27.6131 79.3351 27.9562 78.7505 28.0634C78.0703 28.1921 77.305 28.1921 76.6141 28.2028C75.9339 28.2136 75.1686 28.2457 74.4989 28.0849C73.8825 27.9348 74.0419 26.5408 74.0419 26.0262C74.0313 25.8224 73.7124 25.8224 73.7124 26.0262Z" fill="#0E151A"/>
<path d="M73.8185 14.4781C75.094 15.2823 76.0612 16.4617 76.6033 17.8771C76.6777 18.0701 76.9859 17.9843 76.9115 17.7913C76.3376 16.2902 75.3278 15.0464 73.9886 14.1993C73.8079 14.0814 73.6484 14.3601 73.8185 14.4781Z" fill="#0E151A"/>
<path d="M76.8583 17.877C77.4854 16.5475 78.3995 15.4109 79.5687 14.5316C79.7281 14.4137 79.5687 14.1242 79.4093 14.2528C78.1976 15.1643 77.241 16.3437 76.582 17.7162C76.4969 17.8985 76.7733 18.0593 76.8583 17.877Z" fill="#0E151A"/>
<path d="M76.6036 17.5017C76.763 19.7106 76.8374 21.9194 76.8055 24.1282C76.8055 24.332 77.1244 24.332 77.1244 24.1282C77.1563 21.9194 77.0819 19.6999 76.9224 17.5017C76.9012 17.2873 76.5823 17.2873 76.6036 17.5017Z" fill="#0E151A"/>
<path d="M64.157 22.9059C65.5707 22.4234 66.9737 21.9409 68.3874 21.4584C68.5787 21.394 68.4937 21.0831 68.3023 21.1474C66.8887 21.6299 65.4857 22.1124 64.072 22.5949C63.8701 22.6593 63.9551 22.9702 64.157 22.9059Z" fill="#0E151A"/>
<path d="M65.7726 20.7614C66.2615 20.622 66.7504 20.4719 67.2394 20.3325C67.4307 20.2789 67.3563 19.9679 67.1543 20.0215C66.6654 20.1609 66.1765 20.311 65.6875 20.4504C65.4962 20.5148 65.5706 20.8257 65.7726 20.7614Z" fill="#0E151A"/>
<path d="M62.233 17.1907C64.1037 17.1693 65.9638 17.2229 67.8238 17.3408C68.0258 17.3516 68.0258 17.0299 67.8238 17.0192C65.9638 16.9012 64.0931 16.8583 62.233 16.869C62.0311 16.869 62.0311 17.1907 62.233 17.1907Z" fill="#0E151A"/>
<path d="M66.1868 15.7325C66.6332 15.8505 67.0902 15.9041 67.5473 15.9148C67.7492 15.9148 67.7492 15.5932 67.5473 15.5932C67.1115 15.5824 66.6863 15.5288 66.2718 15.4216C66.0698 15.368 65.9848 15.6789 66.1868 15.7325Z" fill="#0E151A"/>
<path d="M65.4958 5.7499C67.1646 7.19743 68.6845 8.78436 70.0557 10.5214C70.1832 10.6822 70.4064 10.4571 70.2789 10.2962C68.9077 8.55919 67.3878 6.96154 65.7191 5.52473C65.5702 5.38533 65.3364 5.61051 65.4958 5.7499Z" fill="#0E151A"/>
<path d="M70.1626 8.79509C70.4496 9.09532 70.726 9.39555 71.0129 9.7065C71.1511 9.85662 71.3743 9.63145 71.2361 9.48133C70.9492 9.1811 70.6728 8.88087 70.3858 8.56992C70.2476 8.41981 70.0244 8.64498 70.1626 8.79509Z" fill="#0E151A"/>
<path d="M63.6893 9.39564C64.2102 9.7066 64.7416 9.9961 65.2837 10.2642C65.4644 10.3607 65.6238 10.0819 65.4431 9.98538C64.9011 9.7066 64.3696 9.41709 63.8488 9.11686C63.6681 9.00963 63.5087 9.28842 63.6893 9.39564Z" fill="#0E151A"/>
<path d="M82.1839 6.95086C83.757 5.36393 85.3301 3.77701 86.9032 2.19008C87.052 2.03997 86.8181 1.8148 86.68 1.96491C85.1069 3.55184 83.5338 5.13876 81.9607 6.72569C81.8119 6.8758 82.0351 7.10097 82.1839 6.95086Z" fill="#0E151A"/>
<path d="M83.7673 7.69072C84.1712 7.39049 84.5751 7.10098 84.979 6.80075C85.1384 6.6828 84.9896 6.40402 84.8196 6.52197C84.4157 6.8222 84.0118 7.1117 83.6079 7.41193C83.4378 7.52988 83.5972 7.80866 83.7673 7.69072Z" fill="#0E151A"/>
<path d="M77.2732 4.84924C77.5921 3.29448 77.8365 1.729 77.9853 0.152795C78.0066 -0.0509318 77.6877 -0.0509318 77.6665 0.152795C77.5177 1.69683 77.2838 3.24087 76.965 4.76346C76.9224 4.96719 77.2307 5.05297 77.2732 4.84924Z" fill="#0E151A"/>
<path d="M86.2121 14.7139C89.1032 14.4458 91.9836 14.1778 94.8747 13.9097C95.0767 13.8883 95.0767 13.5666 94.8747 13.588C91.9836 13.8561 89.1032 14.1242 86.2121 14.3922C86.0102 14.4029 85.9995 14.7246 86.2121 14.7139Z" fill="#0E151A"/>
<path d="M74.0632 24.6751C75.8595 25.0718 77.6877 25.0611 79.4734 24.6537C79.6753 24.6108 79.5903 24.2998 79.3883 24.3427C77.6558 24.7394 75.8808 24.7502 74.1483 24.3641C73.9463 24.3213 73.8613 24.6322 74.0632 24.6751Z" fill="#0E151A"/>
<path d="M74.3287 27.3987C75.6998 27.581 77.071 27.6239 78.4527 27.5274C78.6547 27.5166 78.6547 27.195 78.4527 27.2057C77.071 27.3022 75.6998 27.2593 74.3287 27.077C74.1268 27.0556 74.1268 27.3772 74.3287 27.3987Z" fill="#0E151A"/>
<path d="M84.2031 23.5921C86.3608 25.1254 88.561 26.6051 90.793 28.0312C90.9631 28.1384 91.1225 27.8596 90.9525 27.7524C88.7204 26.3263 86.5202 24.8466 84.3625 23.3133C84.1924 23.1953 84.033 23.4741 84.2031 23.5921Z" fill="#0E151A"/>
<path d="M57.0464 99.014C55.0269 101.512 53.018 104 50.9985 106.498C53.3688 114.905 54.708 117.114 55.5052 116.996C56.0792 116.91 56.3555 115.655 56.6638 114.251C57.4291 110.744 56.972 107.731 56.5043 105.855C57.7798 104.418 59.0447 102.971 60.3201 101.534C59.2254 100.697 58.1412 99.8611 57.0464 99.014Z" fill="#0E151A" stroke="#0E151A" stroke-width="0.725786" stroke-miterlimit="10"/>
<path d="M49.5954 86.147C50.8602 87.1334 52.0719 86.7796 54.5803 87.2085C56.7168 87.5731 59.1189 88.3773 61.6699 89.9856C58.9488 93.2024 56.2278 96.6014 53.5281 100.183C52.8797 101.051 52.2313 101.92 51.6042 102.788C52.6459 103.035 53.9001 103.421 55.2606 104.043C56.5892 104.643 57.6734 105.319 58.5343 105.93C62.5839 102.37 66.1978 98.9282 69.4184 95.6793C70.9064 94.1781 73.011 91.8835 73.3405 88.6346C73.3617 88.4523 73.3617 88.2915 73.3617 88.1306C73.2873 82.7372 66.5592 78.8343 62.467 77.3974C57.9922 75.832 50.2969 74.9849 48.1498 78.727C46.885 80.9359 47.629 84.6137 49.5954 86.147Z" fill="#D0E0EB"/>
<path opacity="0.29" d="M57.4497 80.7536C57.3753 81.7723 57.1947 82.9839 56.8226 84.3242C56.5569 85.2785 56.238 86.1256 55.9192 86.844C55.5684 86.9834 55.2283 87.1228 54.8775 87.2622C57.1628 88.1736 59.4586 89.085 61.7438 89.9964C60.0432 91.9586 58.3319 94.0173 56.6101 96.1618C54.835 98.3707 53.145 100.537 51.54 102.67C52.6773 103.046 53.804 103.421 54.9413 103.785C59.0122 99.2606 63.0831 94.725 67.154 90.2001C67.5792 88.967 67.5579 88.002 67.4303 87.3265C66.8458 84.024 62.8386 81.3326 57.4497 80.7536Z" fill="#49708A"/>
<path opacity="0.24" d="M61.723 89.9749C62.095 90.5431 62.4564 91.1222 62.8284 91.6904C59.661 95.5398 56.4936 99.3785 53.3261 103.228C52.7628 103.078 52.1888 102.917 51.6255 102.767C53.6556 99.9575 55.8452 97.0731 58.2154 94.1673C59.3953 92.7198 60.5645 91.3259 61.723 89.9749Z" fill="#0E151A"/>
<path d="M51.1472 94.9394C54.2827 95.5184 57.4289 96.0867 60.5645 96.6657C64.1889 104.643 64.5928 107.217 63.9126 107.656C63.4237 107.967 62.4033 107.195 61.266 106.327C58.4174 104.15 56.8337 101.555 55.9727 99.8074C54.0808 99.5501 52.1888 99.282 50.2969 99.0247C50.5732 97.6629 50.8602 96.3012 51.1472 94.9394Z" fill="#0E151A" stroke="#0E151A" stroke-width="0.725786" stroke-miterlimit="10"/>
<path d="M44.6847 77.1724C38.9663 78.8665 35.48 82.3835 33.2373 84.6996C30.208 87.8412 26.4879 91.6906 27.5614 94.5321C28.1141 95.9796 29.7935 96.8696 37.6164 98.242C43.5261 99.2821 48.6493 99.8397 52.6458 100.151C53.1453 98.3064 53.6449 96.4728 54.1338 94.6286C50.1161 93.3204 46.109 92.023 42.0912 90.7149C44.5571 90.1895 47.1506 89.5676 49.8504 88.8063C51.9018 88.2272 53.8575 87.6268 55.7175 86.9942C57.4394 83.4879 57.8115 79.7029 56.0152 77.5584C53.5067 74.5561 47.884 76.2181 44.6847 77.1724Z" fill="#D0E0EB"/>
<path opacity="0.29" d="M57.4077 80.8824C57.3546 81.9439 57.1739 83.3056 56.685 84.8068C56.3873 85.7182 56.0472 86.5117 55.7071 87.1657C55.4201 87.1872 55.1331 87.2193 54.8461 87.2408C52.4227 88.045 49.8399 88.8063 47.1083 89.5139C45.3438 89.975 43.622 90.3717 41.9532 90.7363C45.9816 92.0123 50.01 93.2775 54.0383 94.5535C53.9533 94.9931 53.847 95.4542 53.7195 95.9367C53.5707 96.4943 53.4006 97.009 53.2412 97.4807C47.6822 96.0975 42.1233 94.7143 36.5643 93.3311C36.3092 93.0202 35.4695 91.8943 35.5971 90.4039C35.7353 88.7848 37.2658 87.6375 39.2216 86.5867C44.8762 83.563 54.3572 81.515 57.4077 80.8824Z" fill="#49708A"/>
<path opacity="0.24" d="M39.0938 90.9614C40.1035 90.8863 41.1239 90.8113 42.1336 90.7255C46.0982 92.0551 50.0628 93.3954 54.0275 94.725C53.8574 95.3576 53.6873 96.001 53.5173 96.6336C48.713 94.7357 43.898 92.8485 39.0938 90.9614Z" fill="#0E151A"/>
<path d="M43.186 52.8752C44.7591 51.9423 47.4908 50.6127 51.1259 50.2267C56.6955 49.637 60.9683 51.6528 62.6583 52.5642C62.3501 56.7782 61.8718 60.145 61.4891 62.4611C61.0321 65.2275 60.6601 66.7608 60.49 69.302C60.2774 72.4866 60.5431 75.1029 60.7876 76.8184C58.9382 77.3975 56.1427 78.0301 52.699 77.955C49.3827 77.88 46.7042 77.1508 44.9079 76.5182C45.3862 72.6796 45.2268 69.6344 44.993 67.565C44.7272 65.2596 44.3659 64.1338 43.9301 61.3459C43.3667 57.7432 43.2179 54.7945 43.186 52.8752Z" fill="#FCFCFC" stroke="#0E151A" stroke-width="0.725786" stroke-miterlimit="10"/>
<path opacity="0.14" d="M54.6865 51.5027C54.9097 52.3176 55.1648 53.4435 55.3349 54.7945C55.4518 55.7059 55.9301 59.8341 54.442 65.2811C53.5279 68.6372 52.5607 72.1864 49.3933 75.1029C48.3729 76.0464 47.3844 76.6791 46.6616 77.0758C48.2666 77.494 50.3605 77.8907 52.837 77.9122C56.0789 77.9443 58.7574 77.3546 60.6175 76.7756C60.5112 75.9714 60.373 74.7597 60.3198 73.3015C60.2773 72.0255 60.2773 69.9883 61.1489 64.2517C61.8398 59.7376 62.3287 57.7968 62.5732 53.7115C62.6051 53.2397 62.6157 52.843 62.637 52.575C61.861 52.1139 60.8513 51.6099 59.6077 51.2025C58.4598 50.8272 57.4288 50.6342 56.5784 50.5484C55.962 50.8594 55.3242 51.181 54.6865 51.5027Z" fill="#88ABC2"/>
<path opacity="0.17" d="M62.3286 54.3227C61.7334 57.7217 60.9468 60.4667 60.3304 62.3753C58.5234 67.951 57.2586 71.7038 53.8467 74.4488C51.7315 76.1536 49.5313 76.872 48.1177 77.2152C49.5526 77.6226 51.5827 78.0194 54.038 77.9657C56.8653 77.9014 59.1505 77.2581 60.6492 76.7112C60.4473 75.4031 60.2134 73.4409 60.2772 71.0497C60.3516 67.951 60.8512 66.0852 61.4039 62.6862C61.7121 60.6918 62.1054 57.8397 62.3286 54.3227Z" fill="#88ABC2"/>
<path d="M43.1222 52.8215C41.7404 53.7866 39.9654 55.3091 38.4135 57.5716C34.9166 62.6969 35.0123 68.1332 35.1504 70.1383C35.7882 71.8646 36.883 74.1271 38.7962 76.3466C39.9122 77.6441 41.5491 79.5098 44.3445 80.7107C45.2798 81.1181 46.0983 81.3433 46.6935 81.472C47.2037 81.0109 47.7032 80.5498 48.2134 80.0888C46.5766 78.1587 44.9291 76.1322 43.2816 74.0413C42.0167 72.4437 40.805 70.8567 39.6359 69.2913C39.6784 67.9724 39.9547 65.5813 41.379 63.0829C42.1868 61.6676 43.1328 60.6382 43.8874 59.9413C43.6323 57.5716 43.3773 55.2019 43.1222 52.8215Z" fill="#FCFCFC"/>
<path fill-rule="evenodd" clip-rule="evenodd" d="M43.2372 52.568L43.2627 52.8062C43.5176 55.1843 43.7724 57.5517 44.0273 59.9191L44.0357 59.9976L43.9829 60.0463C43.236 60.7362 42.3004 61.7544 41.5016 63.154C40.1106 65.5938 39.8263 67.9309 39.7789 69.2458C40.9381 70.7974 42.1391 72.3697 43.3921 73.9524C45.0387 76.0422 46.6853 78.0676 48.3209 79.9961L48.4106 80.102L48.3078 80.1949C48.053 80.4251 47.8009 80.6554 47.5484 80.886L47.5476 80.8867C47.2955 81.117 47.043 81.3475 46.7879 81.5781L46.7343 81.6265L46.664 81.6113C46.0617 81.4811 45.2343 81.2534 44.289 80.8416C41.4622 79.6271 39.8077 77.7398 38.6896 76.44C36.7627 74.2045 35.6603 71.9261 35.0182 70.1881L35.0111 70.1688L35.0097 70.1482C34.8707 68.1316 34.7733 62.6558 38.2973 57.4908C39.861 55.2111 41.6497 53.6767 43.0419 52.7044L43.2372 52.568ZM38.5299 57.6525C35.072 62.7207 35.1535 68.098 35.29 70.1079C35.9245 71.82 37.0105 74.0578 38.9029 76.2531C40.0169 77.5482 41.6361 79.3922 44.4 80.5796L44.4006 80.5799C45.2896 80.9671 46.0715 81.1878 46.6531 81.3173C46.8895 81.1033 47.1238 80.8893 47.3584 80.6751L47.3588 80.6747L47.3594 80.6742C47.5777 80.4749 47.7962 80.2753 48.0166 80.0756C46.408 78.1758 44.7894 76.1838 43.1712 74.13C41.9054 72.5311 40.6929 70.9432 39.5232 69.377L39.4932 69.3368L39.4948 69.2866C39.5378 67.9539 39.817 65.5374 41.2567 63.0119C42.0548 61.6136 42.9861 60.5881 43.7395 59.8851C43.4955 57.6189 43.2516 55.3526 43.0076 53.0768C41.667 54.0394 39.9978 55.5125 38.5299 57.6525Z" fill="#0E151A"/>
<path opacity="0.13" d="M43.3238 55.2126C40.2627 58.6975 38.8065 62 38.0837 64.0801C36.8189 67.6829 37.0846 69.57 37.2759 70.4707C37.4353 71.1784 37.7861 72.3901 39.0722 74.2343C40.1882 75.832 42.5373 78.6949 47.012 81.0538C47.4053 80.6678 47.7986 80.2925 48.1919 79.9065C46.927 78.4697 45.6515 76.9578 44.3654 75.3816C42.6754 73.3122 41.1023 71.2749 39.6462 69.2805C39.6887 68.1976 39.8694 66.6857 40.4965 64.9915C41.4425 62.4503 42.9305 60.7776 43.8552 59.8876C43.6639 58.3329 43.4939 56.7781 43.3238 55.2126Z" fill="#88ABC2"/>
<path opacity="0.16" d="M39.6357 69.4199C39.8271 70.6744 40.2203 72.272 41.0494 73.9984C42.8776 77.7512 45.7368 79.8207 47.1929 80.7214C47.4799 80.464 47.7563 80.2174 48.0433 79.9601C45.2372 76.4431 42.4418 72.9261 39.6357 69.4199Z" fill="#88ABC2"/>
<path d="M62.8175 52.6286C64.3693 53.5829 66.3676 55.0733 68.1001 57.2929C72.0328 62.3217 71.9159 67.6615 71.7671 69.6344C71.0443 71.3286 69.822 73.5481 67.6749 75.7355C66.4207 77.0008 64.5819 78.8343 61.4464 80.0245C60.3941 80.4213 59.4694 80.6464 58.7998 80.7751C58.2364 80.3248 57.6625 79.8744 57.0991 79.4241C58.9273 77.5262 60.7874 75.5425 62.6368 73.4838C64.0505 71.9076 65.411 70.3529 66.729 68.8195C66.6758 67.5328 66.3782 65.1846 64.7732 62.7184C63.8591 61.3245 62.8069 60.3166 61.9566 59.6304C62.2542 57.2929 62.5412 54.9661 62.8175 52.6286Z" fill="#FCFCFC"/>
<path fill-rule="evenodd" clip-rule="evenodd" d="M62.7035 52.3915L62.8913 52.5069C64.4525 53.467 66.4653 54.9679 68.2113 57.2047C72.1764 62.2751 72.058 67.6586 71.9082 69.6453L71.9064 69.6689L71.8971 69.6908C71.169 71.3973 69.9377 73.633 67.7755 75.8358L67.775 75.8363C66.5181 77.1043 64.6616 78.9564 61.4963 80.1579L61.496 80.158C60.4349 80.5581 59.5022 80.7852 58.8264 80.9151L58.7629 80.9273L58.7123 80.8868C58.431 80.6619 58.147 80.437 57.8627 80.2118L57.8625 80.2117C57.5782 79.9865 57.2936 79.7611 57.0116 79.5357L56.8892 79.4378L56.9981 79.3248C58.8253 77.4278 60.6843 75.4454 62.5324 73.3881C63.9321 71.8275 65.2797 70.2878 66.5856 68.7691C66.5267 67.4864 66.2185 65.1985 64.6555 62.7968C63.7516 61.4185 62.7107 60.4213 61.8686 59.7416L61.8066 59.6916L61.8167 59.6122C62.1143 57.2751 62.4012 54.9488 62.6775 52.6117L62.7035 52.3915ZM62.9318 52.8669C62.6666 55.104 62.3916 57.3319 62.1069 59.5694C62.9543 60.2609 63.9891 61.2641 64.8913 62.6398L64.8915 62.6403C66.5153 65.1352 66.8165 67.5115 66.8703 68.8136L66.8726 68.8701L66.8359 68.9129C65.5174 70.4468 64.1562 72.0024 62.7418 73.5794L62.7417 73.5795C60.9277 75.5988 59.1036 77.5457 57.3096 79.4102C57.5507 79.6025 57.7935 79.7948 58.0366 79.9873L58.0369 79.9875C58.3041 80.1991 58.5716 80.411 58.8369 80.6228C59.4947 80.4935 60.3864 80.2721 61.3969 79.8912C64.5026 78.7123 66.3237 76.8974 67.5752 75.6349C69.6977 73.4724 70.9097 71.2788 71.6283 69.5999C71.7751 67.622 71.8741 62.3485 67.9894 57.3811L67.9894 57.381C66.3392 55.267 64.4452 53.8186 62.9318 52.8669Z" fill="#0E151A"/>
<path opacity="0.16" d="M62.7432 55.2342C64.0931 56.6603 65.9319 58.9441 67.3668 62.1287C68.0471 63.6406 69.1525 66.096 69.1737 68.4121C69.2481 75.4567 59.3632 80.3033 58.7892 80.5821C58.2259 80.2175 57.6732 79.8637 57.1099 79.4991C60.3092 75.9607 63.4979 72.4223 66.6972 68.8839C66.6334 67.7258 66.3677 65.5706 65.0922 63.276C64.0399 61.3889 62.7326 60.1665 61.8716 59.491C62.1692 58.0756 62.4562 56.6603 62.7432 55.2342Z" fill="#88ABC2"/>
<path opacity="0.12" d="M66.8037 68.916C66.6442 69.8488 66.3785 70.8674 65.964 71.9182C64.0933 76.679 60.3094 79.2846 58.3962 80.3997C57.9391 80.0995 57.4927 79.7993 57.0356 79.499C60.2881 75.9713 63.5406 72.4436 66.8037 68.916Z" fill="#88ABC2"/>
<path d="M39.1255 69.7094H65.2621V86.4043H39.1255V69.7094Z" fill="#CFFF55"/>
<path fill-rule="evenodd" clip-rule="evenodd" d="M38.9844 69.567H65.4035V86.5468H38.9844V69.567ZM39.2668 69.8519V86.2619H65.121V69.8519H39.2668Z" fill="#0E151A"/>
<path d="M51.8167 79.6492C50.4349 79.8208 49.7653 78.1267 50.1267 77.0008C50.4774 75.8857 51.7848 75.3603 52.8477 75.7463C53.8999 76.1323 54.4101 77.4297 54.0381 78.4698C53.6236 79.6278 52.1781 80.0996 51.1152 79.5849C50.9345 79.4991 50.7644 79.7779 50.9557 79.8637C51.9017 80.3248 53.0603 80.1532 53.8149 79.4026C54.5483 78.6628 54.6546 77.494 54.1976 76.5826C53.1559 74.5025 49.9353 75.1673 49.7121 77.4511C49.5952 78.6735 50.4668 80.1425 51.8167 79.9816C52.0186 79.9495 52.0186 79.6278 51.8167 79.6492Z" fill="#0E151A"/>
<path opacity="0.14" d="M48.9363 69.6665C52.4757 70.9104 54.8885 74.0949 54.9629 77.5154C55.0585 81.8044 51.4872 85.836 46.6191 86.2435C52.8158 86.2971 59.0125 86.3507 65.2198 86.4043C65.1986 80.8072 65.1879 75.2101 65.1667 69.6237C59.7565 69.6237 54.3464 69.6451 48.9363 69.6665Z" fill="#88ABC2"/>
<path opacity="0.26" d="M65.2201 69.6129C65.1244 73.0227 64.4548 75.6818 63.8914 77.4296C63.0624 79.9708 62.4672 81.8258 60.7559 83.4663C58.4282 85.7181 55.5265 86.1362 54.251 86.2435C57.8755 86.2756 61.4999 86.3078 65.1244 86.3507C65.135 83.1661 65.1563 79.9815 65.1776 76.7862C65.1776 74.3951 65.1988 72.004 65.2201 69.6129Z" fill="#88ABC2"/>
<path d="M51.4237 44.2221C50.8391 44.9406 51.4024 45.8198 51.2961 48.168C51.243 49.3368 51.0516 50.2803 50.9028 50.913C51.4024 51.1489 52.2846 51.4813 53.4219 51.5134C54.8249 51.5456 55.8878 51.106 56.4086 50.8486C56.1748 50.3768 55.8666 49.6477 55.6752 48.7041C55.1969 46.3023 56.0472 45.1764 55.3457 44.2865C54.5273 43.2571 52.2102 43.2464 51.4237 44.2221Z" fill="#FCFCFC"/>
<path fill-rule="evenodd" clip-rule="evenodd" d="M53.3743 43.3599C54.1749 43.3696 55.0091 43.6355 55.4558 44.1973L55.4562 44.1978C55.8479 44.6947 55.7988 45.2597 55.7347 45.9418C55.733 45.9601 55.7312 45.9785 55.7295 45.997C55.6651 46.6792 55.5851 47.5283 55.8135 48.6758C56.0018 49.6039 56.3049 50.321 56.5348 50.7849L56.5985 50.9134L56.4706 50.9766C55.9386 51.2395 54.8525 51.6887 53.4186 51.6559L53.4178 51.6558C52.2554 51.623 51.3538 51.2833 50.8428 51.042L50.7388 50.9929L50.7653 50.8801C50.913 50.2522 51.1023 49.3181 51.1549 48.1615M53.3743 43.3599C52.5749 43.3503 51.7467 43.5957 51.3142 44.132ZM51.3142 44.132C50.9822 44.5401 50.9854 44.9946 51.0398 45.5968C51.0486 45.6953 51.0591 45.7987 51.07 45.9077C51.1269 46.472 51.199 47.1878 51.1549 48.1615M53.3709 43.6449C52.6107 43.6357 51.8872 43.8728 51.5331 44.312L51.5327 44.3125L51.5327 44.3125C51.2803 44.6228 51.2665 44.967 51.3211 45.571C51.3297 45.6668 51.34 45.7683 51.3508 45.8761C51.4078 46.441 51.4822 47.1782 51.4371 48.1745L51.4371 48.1745C51.3865 49.287 51.212 50.1972 51.0666 50.8318C51.5684 51.057 52.3885 51.3416 53.4253 51.371C54.6912 51.3999 55.6742 51.0361 56.2189 50.7819C55.9911 50.3027 55.7144 49.6086 55.5368 48.7327L55.5367 48.7322C55.2998 47.543 55.3832 46.6592 55.448 45.973C55.4498 45.9535 55.4517 45.9341 55.4535 45.9149C55.5196 45.2113 55.5449 44.7684 55.2353 44.3754C54.8635 43.908 54.13 43.654 53.3709 43.6449Z" fill="#0E151A"/>
<path d="M47.7141 33.9071C47.0444 35.6441 47.2995 37.2096 47.4483 37.8851C47.3846 37.8959 46.141 38.1639 45.8008 39.1289C45.4607 40.1047 46.1622 41.4879 47.629 41.9382C48.1605 43.2464 49.4466 45.7769 52.157 47.1601C52.614 47.3852 53.0498 47.5675 53.4856 47.6962C53.8789 47.5461 54.4103 47.3102 55.0162 46.9564C56.9081 45.8519 57.9604 44.4795 58.2049 44.1471C58.6513 43.5466 59.2571 42.5816 59.6823 41.252C59.9161 41.2949 60.3306 41.3163 60.7345 41.1126C61.6486 40.6408 62.1057 39.1718 61.4679 38.2175C60.9365 37.4241 59.9055 37.3919 59.7779 37.3919C59.9161 36.8343 60.3413 34.8292 59.2678 32.8456C58.0348 30.5617 55.3882 29.3608 52.901 29.7039C49.2234 30.1864 47.7778 33.7355 47.7141 33.9071Z" fill="#FCFCFC"/>
<path fill-rule="evenodd" clip-rule="evenodd" d="M52.8821 29.5627C55.4221 29.2125 58.1281 30.4372 59.3915 32.7773C60.4016 34.6438 60.1162 36.5252 59.9541 37.2588C60.0924 37.2716 60.2928 37.3017 60.5134 37.3712C60.8718 37.4842 61.295 37.7052 61.5848 38.1378L61.5849 38.1379C61.9318 38.657 61.9763 39.3078 61.8192 39.8838C61.6624 40.4587 61.2986 40.9814 60.7987 41.2395L60.7975 41.2401C60.4209 41.43 60.0388 41.44 59.7792 41.4103C59.3505 42.6993 58.7582 43.6399 58.3179 44.2322C58.3178 44.2323 58.3177 44.2324 58.3177 44.2326L58.2047 44.1471L58.3181 44.232C58.318 44.2321 58.318 44.2321 58.3179 44.2322C58.0674 44.5728 57.0017 45.9619 55.0867 47.0797C55.0867 47.0797 55.0867 47.0797 55.0867 47.0797L55.016 46.9564L55.0867 47.0797C54.4735 47.4378 53.935 47.6769 53.5354 47.8295L53.4911 47.8464L53.4457 47.833C52.9999 47.7013 52.5564 47.5156 52.0948 47.2881L52.093 47.2872L52.093 47.2872C49.3795 45.9025 48.0745 43.3902 47.5235 42.0541C47.5447 42.0611 47.5662 42.0679 47.5877 42.0746L47.6289 41.9382L47.4982 41.9923C47.5064 42.0126 47.5149 42.0332 47.5235 42.0541C46.0435 41.566 45.2991 40.1382 45.6674 39.0817L45.6676 39.0812C45.8548 38.55 46.2871 38.2193 46.663 38.0227C46.9082 37.8945 47.1384 37.8185 47.2813 37.779C47.2912 37.8281 47.301 37.8738 47.3103 37.9161L47.4482 37.8852L47.4249 37.7446C47.4098 37.7472 47.3582 37.7578 47.2813 37.779C47.1304 37.0318 46.94 35.522 47.582 33.8562C47.5818 33.8565 47.5817 33.8568 47.5816 33.8571L47.7139 33.9071L47.5822 33.8555C47.5822 33.8557 47.5821 33.856 47.582 33.8562C47.6198 33.7551 48.0047 32.8114 48.8452 31.829C49.6892 30.8426 50.999 29.8099 52.8821 29.5627ZM59.1435 32.9137C57.9411 30.6863 55.3542 29.5093 52.9199 29.8451L52.919 29.8452C51.1248 30.0806 49.8732 31.0637 49.0591 32.0152C48.2439 32.968 47.874 33.8822 47.8461 33.9571L47.8455 33.9588L47.8455 33.9588C47.1907 35.6575 47.4397 37.1901 47.586 37.8542L47.6184 38.001L47.4714 38.0257C47.4715 38.0257 47.4699 38.0259 47.4664 38.0267C47.4643 38.0271 47.4617 38.0276 47.4586 38.0283C47.4569 38.0286 47.455 38.0291 47.4529 38.0295C47.4416 38.032 47.4262 38.0356 47.4071 38.0404C47.369 38.0499 47.3167 38.0643 47.2542 38.0842C47.1291 38.1241 46.9649 38.1858 46.793 38.2757C46.4463 38.457 46.0867 38.7428 45.9338 39.1765C45.6273 40.0562 46.2591 41.3688 47.67 41.8019L47.7341 41.8216L47.7595 41.8842C48.2865 43.1813 49.5554 45.6724 52.2196 47.0325C52.6557 47.2473 53.0692 47.4211 53.4798 47.5459C53.862 47.3976 54.3693 47.1694 54.9452 46.8331L54.9452 46.833C56.8138 45.7423 57.8525 44.3868 58.0912 44.0622L58.0917 44.0616C58.5312 43.4704 59.1285 42.5193 59.5477 41.2083L59.5857 41.0895L59.7074 41.1118C59.9243 41.1516 60.3043 41.17 60.6706 40.9855C61.0845 40.7716 61.4061 40.3242 61.5468 39.8082C61.6873 39.2932 61.6415 38.7324 61.3507 38.2972C61.109 37.9364 60.751 37.7446 60.4292 37.6432C60.1073 37.5417 59.833 37.5344 59.7778 37.5344H59.5969L59.6407 37.3574C59.7767 36.8086 60.1907 34.8487 59.1436 32.9139L59.1435 32.9137Z" fill="#0E151A"/>
<path d="M51.2849 47.0636C51.9333 47.4497 52.6454 48.0501 53.4426 47.9858C54.1016 47.9322 54.835 47.5462 55.3346 47.1387C55.494 47.01 55.2708 46.7849 55.1113 46.9135C54.6437 47.2888 53.889 47.6855 53.2725 47.6748C52.6242 47.6641 51.9652 47.1173 51.4337 46.7849C51.2743 46.6776 51.1149 46.9564 51.2849 47.0636Z" fill="#0E151A"/>
<path d="M51.2424 47.203C51.8483 47.7284 52.5392 48.3181 53.3895 48.2752C54.2185 48.2324 54.9945 47.6748 55.5365 47.0743C55.6747 46.9242 55.4515 46.699 55.3133 46.8492C54.8457 47.3638 54.1867 47.8678 53.4639 47.9428C52.6667 48.0179 52.029 47.4711 51.4656 46.9778C51.3168 46.8384 51.0936 47.0636 51.2424 47.203Z" fill="#0E151A"/>
<path d="M51.6466 47.2674C51.6466 47.2566 51.6466 47.2566 51.6466 47.2674C51.5828 47.1709 51.4659 47.1494 51.3915 47.2245C51.3915 47.2245 51.3915 47.2245 51.3808 47.2352C51.3171 47.2888 51.3171 47.4068 51.3808 47.4604C52.55 48.5862 54.6971 48.9508 55.5368 47.2245C55.6218 47.0422 55.3561 46.8706 55.2604 47.0636C54.5164 48.6077 52.6351 48.2324 51.6147 47.2352V47.4604C51.6147 47.4604 51.6147 47.4604 51.6253 47.4496C51.5403 47.4389 51.4552 47.4282 51.3702 47.4175V47.4282C51.4765 47.5998 51.7529 47.4389 51.6466 47.2674Z" fill="#0E151A"/>
<path d="M52.9222 37.349C52.784 39.0861 52.8584 40.8124 53.1348 42.528C53.1454 42.6138 53.2517 42.6674 53.3261 42.6352C53.7407 42.4958 54.0383 42.2492 54.2615 41.8739C54.3678 41.6916 54.0914 41.5308 53.9851 41.7131C53.8044 42.024 53.5812 42.2063 53.2411 42.3243C53.3049 42.3564 53.3686 42.3993 53.4324 42.4315C53.1561 40.7481 53.0923 39.0432 53.2305 37.3383C53.2624 37.1346 52.9435 37.1346 52.9222 37.349Z" fill="#0E151A"/>
<path d="M51.0302 39.054C51.0515 39.1505 51.2109 39.7509 51.0302 39.8474C50.8495 39.9439 50.3393 39.5579 50.1799 39.054C50.0524 38.6251 50.1586 38.0889 50.3606 38.046C50.5732 37.9924 50.9027 38.5822 51.0302 39.054Z" fill="#0E151A" stroke="#0E151A" stroke-width="0.362893" stroke-miterlimit="10"/>
<path d="M56.5146 39.054C56.5359 39.1505 56.6953 39.7509 56.5146 39.8474C56.3339 39.9439 55.8237 39.5579 55.6643 39.054C55.5367 38.6251 55.643 38.0889 55.845 38.046C56.0575 37.9924 56.387 38.5822 56.5146 39.054Z" fill="#0E151A" stroke="#0E151A" stroke-width="0.362893" stroke-miterlimit="10"/>
<path d="M52.5396 43.9433C53.8364 44.5009 55.0162 43.7182 55.9728 42.8711C56.1322 42.7317 55.8984 42.5065 55.7496 42.6459C54.9205 43.375 53.8576 44.1578 52.7097 43.6645C52.5077 43.5895 52.3483 43.8683 52.5396 43.9433Z" fill="#0E151A"/>
<path d="M56.2809 40.7587C56.4828 40.7587 56.4828 40.4371 56.2809 40.4371C56.0789 40.4371 56.0789 40.7587 56.2809 40.7587Z" fill="#0E151A"/>
<path d="M57.4605 40.1583C57.4711 40.1476 57.4817 40.1368 57.4924 40.1261C57.5561 40.0618 57.5561 39.9653 57.4924 39.9009C57.4286 39.8366 57.3329 39.8366 57.2692 39.9009C57.2585 39.9117 57.2479 39.9224 57.2373 39.9331C57.1735 39.9974 57.1735 40.0939 57.2373 40.1583C57.3011 40.2226 57.3967 40.2226 57.4605 40.1583Z" fill="#0E151A"/>
<path d="M57.1096 40.9411H57.1415C57.2265 40.9411 57.3009 40.866 57.3009 40.7803C57.3009 40.6945 57.2265 40.6194 57.1415 40.6194C57.1309 40.6194 57.1203 40.6194 57.1096 40.6194C57.0246 40.6194 56.9502 40.6945 56.9502 40.7803C56.9502 40.866 57.014 40.9411 57.1096 40.9411Z" fill="#0E151A"/>
<path d="M49.7756 37.1346C50.1795 36.7914 50.7748 36.7807 51.1787 37.1131C51.3381 37.2418 51.5613 37.0166 51.4019 36.888C50.8492 36.4376 50.0839 36.4376 49.5418 36.9094C49.393 37.0381 49.6268 37.2632 49.7756 37.1346Z" fill="#0E151A"/>
<path d="M54.9631 37.0167C55.4202 36.6093 56.0685 36.5342 56.6106 36.8237C56.7913 36.9202 56.9507 36.6414 56.77 36.5449C56.1004 36.1804 55.3032 36.2769 54.7399 36.7916C54.5805 36.931 54.8037 37.1561 54.9631 37.0167Z" fill="#0E151A"/>
<path d="M49.8609 40.7267C50.0629 40.7267 50.0629 40.405 49.8609 40.405C49.659 40.405 49.659 40.7267 49.8609 40.7267Z" fill="#0E151A"/>
<path d="M50.9874 40.5765C51.1894 40.5765 51.1894 40.2548 50.9874 40.2548C50.7854 40.2548 50.7854 40.5765 50.9874 40.5765Z" fill="#0E151A"/>
<path d="M50.4244 40.8232C50.4138 40.8339 50.4032 40.8446 50.3926 40.8553C50.3288 40.9197 50.3288 41.0162 50.3926 41.0805C50.4563 41.1448 50.552 41.1448 50.6158 41.0805C50.6264 41.0698 50.637 41.059 50.6477 41.0483C50.7114 40.984 50.7114 40.8875 50.6477 40.8232C50.5839 40.7588 50.4882 40.7588 50.4244 40.8232Z" fill="#0E151A"/>
<path d="M49.4462 30.4224C48.8085 30.8191 47.4161 31.6876 46.4701 33.4676C45.5241 35.2368 45.5348 36.9095 45.5773 37.6279C44.0254 40.4479 43.3239 42.9355 42.9838 44.6297C42.4311 47.321 42.7287 48.3075 43.1113 48.9615C44.0467 50.5699 45.928 50.9667 46.3851 51.0632C48.7341 51.5671 50.6048 50.3555 51.0299 50.0767C51.1468 49.7228 51.2638 49.2832 51.3275 48.79C51.4445 47.9429 51.3807 47.2138 51.285 46.6884C50.7536 46.2488 50.1371 45.659 49.5419 44.887C48.6384 43.7075 48.1282 42.5495 47.8412 41.7132C46.9059 41.6167 46.2044 40.9733 46.1406 40.2549C46.0768 39.5794 46.5445 38.7109 47.161 38.7109C47.618 38.7109 47.9475 39.1827 48.0113 39.2684C48.3621 39.0647 48.851 38.7109 49.2868 38.1533C49.9139 37.3491 50.0202 36.6307 50.3072 35.8801C50.5835 35.151 51.115 34.1431 52.2629 33.0923C53.3683 33.489 54.2505 33.875 54.8564 34.1645C56.8015 35.0759 57.9069 35.6121 58.7678 36.7808C59.2461 37.4242 59.4906 38.0568 59.6181 38.4535C60.6066 37.6922 61.0105 37.896 61.0956 37.9388C61.7227 38.2927 61.7014 40.2335 60.7235 40.7696C60.3515 40.9733 59.9264 40.9197 59.6606 40.8554C59.3524 41.9383 58.6722 43.7075 57.1097 45.273C56.5889 45.7984 56.0574 46.2059 55.5791 46.5168C55.5366 46.9136 55.5153 47.4604 55.6216 48.1037C55.7173 48.6935 55.8874 49.176 56.0468 49.5191C58.6296 51.2347 61.8396 50.9238 63.5827 49.0795C65.1346 47.4282 65.1346 44.9299 64.55 43.225C64.0185 41.6703 62.9875 40.7374 62.4773 40.33C62.6155 39.7295 63.3808 36.1696 61.1593 32.8993C60.5854 32.0522 58.9804 30.0042 56.0893 29.2965C53.0282 28.546 50.5091 29.7683 49.4462 30.4224Z" fill="#121212"/>
<path opacity="0.17" d="M56.1854 34.8293C57.3865 36.3519 57.7054 37.7565 57.8116 38.4856C58.2474 41.5523 56.483 44.0399 55.5902 45.3159C54.8568 46.3559 54.1021 47.0958 53.5601 47.5783C54.0277 48.8436 54.4848 50.0981 54.9525 51.3633L56.3874 50.8808C56.1642 50.4841 55.9303 49.9909 55.7496 49.3904C55.4201 48.3182 55.3989 47.3746 55.4308 46.7312C56.0154 46.3131 56.6956 45.7448 57.3546 44.9942C58.6726 43.493 59.3316 41.949 59.6717 40.9089C59.8843 40.9518 60.3413 41.0054 60.7771 40.7588C61.6912 40.2334 61.5424 38.9253 61.5318 38.8395C61.4999 38.5607 61.4361 38.1104 61.1173 37.9281C60.7452 37.7244 60.1288 37.9174 59.6398 38.4964C59.491 37.971 59.0659 36.7593 57.9179 35.7943C57.2802 35.2582 56.6318 34.9794 56.1854 34.8293Z" fill="#88ABC2"/>
<path opacity="0.19" d="M53.0707 37.4456C53.0069 37.4349 52.7944 38.3677 52.146 42.4851H53.262C53.1876 41.9383 53.1026 41.1448 53.0601 40.1798C53.0069 38.5286 53.1345 37.4563 53.0707 37.4456Z" fill="#88ABC2"/>
<path opacity="0.54" d="M62.4137 40.4372C62.233 40.5444 62.9133 41.4665 62.8176 42.839C62.7857 43.2679 62.722 44.2436 61.9567 44.8977C61.9035 44.9406 60.7662 45.8842 59.6396 45.2837C58.9699 44.9299 58.566 44.1793 58.5873 43.3644C58.2684 43.9649 57.7476 44.7583 56.9292 45.5303C56.419 46.0128 55.9194 46.3667 55.4836 46.6347C55.4518 47.1065 55.4518 47.7499 55.6218 48.479C55.7175 48.8757 55.8344 49.2189 55.9513 49.4976C56.2808 49.7121 56.7697 50.0016 57.4075 50.2268C57.8114 50.3662 60.0328 51.1489 62.2011 50.0659C62.5838 49.8729 63.4341 49.4333 64.0506 48.4897C64.125 48.3718 64.4013 47.9536 64.6033 47.2459C65.3261 44.8226 64.2632 42.6353 64.1675 42.453C63.5829 41.2628 62.6369 40.3085 62.4137 40.4372Z" fill="#49708A"/>
<path opacity="0.35" d="M47.8305 41.7559C47.7348 41.7667 47.9474 42.6459 47.7136 43.5144C47.5435 44.1578 47.0014 45.2086 46.0767 45.423C45.1095 45.6375 43.9084 44.9191 43.3557 43.5788C43.1006 44.1685 42.7605 45.1121 42.7073 46.313C42.6754 47.0957 42.6329 47.9321 43.0155 48.7577C43.8765 50.602 46.4062 51.3204 48.2875 51.1488C49.5417 51.0309 50.4877 50.5376 50.9979 50.2052C51.1255 49.8407 51.253 49.4011 51.338 48.8971C51.4762 48.0286 51.4443 47.2673 51.3699 46.7097C50.5302 46.0985 49.9563 45.4659 49.5949 45.0048C49.0847 44.3508 48.3938 43.4715 48.0431 42.2492C47.9899 42.1098 47.8942 41.7452 47.8305 41.7559Z" fill="#49708A"/>
</svg>
