<svg width="145" height="96" viewBox="0 0 145 96" fill="none" xmlns="http://www.w3.org/2000/svg">
<path d="M11.058 85.793C9.71674 84.6912 8.31674 83.6386 7.07339 82.4285C6.49577 81.8677 5.95731 81.2578 5.54612 80.5593C5.33074 80.2051 5.15451 79.8215 5.02724 79.428C4.91955 79.1033 4.81186 78.6016 5.28179 78.5524C5.45801 78.5327 5.64402 78.5721 5.81046 78.6213C5.99647 78.6704 6.07479 78.3851 5.88878 78.336C5.33074 78.1982 4.52794 78.2376 4.61606 79.0246C4.72375 79.91 5.30137 80.8151 5.83004 81.4939C7.20066 83.2647 9.13912 84.5928 10.8524 85.9996C10.9993 86.1177 11.2048 85.9111 11.058 85.793Z" fill="#D0E0EB"/>
<path d="M5.93784 78.3852C5.37001 77.7064 4.92945 76.9194 4.67491 76.0635C4.55742 75.6798 4.50847 75.2863 4.39099 74.9124C4.31267 74.6763 4.16582 74.4599 4.3812 74.2533C4.4791 74.1648 4.62595 74.1057 4.73365 74.027C5.06651 73.8008 5.25253 73.5351 4.84134 73.2498C4.60637 73.0924 4.31267 73.0629 4.05813 72.935C3.71547 72.7481 3.45113 72.4431 3.25533 72.1185C2.84414 71.4495 2.61897 70.6625 2.37421 69.9247C2.08051 69.0491 1.79659 68.1538 1.54205 67.2684C1.03296 65.4779 0.611981 63.6678 0.269324 61.8478C0.239954 61.9068 0.200793 61.9658 0.171423 62.0249C2.01198 61.4149 3.84274 62.9791 5.15462 64.0908C6.50567 65.232 7.71965 66.5404 8.78678 67.9571C10.9896 70.9084 12.5266 74.3123 13.4861 77.8638C14.0735 80.038 14.4455 82.2712 14.6511 84.5142C14.6707 84.7011 14.9644 84.7011 14.9448 84.5142C14.2301 76.7718 11.391 68.931 5.31127 63.8252C3.92106 62.6643 2.04135 61.1001 0.102892 61.7396C0.0245701 61.7691 -0.0145906 61.8379 0.00498974 61.9166C0.367226 63.8645 0.827365 65.7928 1.38541 67.7013C1.64974 68.5965 1.92386 69.4819 2.22736 70.3575C2.47211 71.0658 2.69729 71.8234 3.12806 72.4431C3.29449 72.6792 3.4805 72.8957 3.71547 73.0629C3.99938 73.2695 4.33225 73.2892 4.61616 73.4663C4.98819 73.6925 4.44973 73.8696 4.25393 74.0074C4.10708 74.1156 3.97001 74.2435 3.94064 74.4402C3.90148 74.7354 4.15603 75.0797 4.22456 75.3551C4.32246 75.7782 4.41057 76.1914 4.56721 76.6045C4.85113 77.3325 5.25253 78.0015 5.75183 78.6016C5.84973 78.7394 6.05532 78.5328 5.93784 78.3852Z" fill="#D0E0EB"/>
<path d="M1.74746 63.4317C5.83976 68.0751 9.02156 73.4958 11.0971 79.3395C11.6747 80.9627 12.1544 82.6155 12.5558 84.2879C12.6048 84.4748 12.8789 84.3961 12.8397 84.2092C11.3908 78.1491 8.7866 72.3743 5.18382 67.2881C4.18522 65.8715 3.1083 64.5138 1.96285 63.2152C1.82578 63.0874 1.62019 63.2939 1.74746 63.4317Z" fill="#D0E0EB"/>
<path d="M2.4133 69.9051C2.88323 70.0232 3.34336 70.1806 3.79371 70.3675C3.96994 70.4364 4.04826 70.1511 3.87203 70.0822C3.42169 69.8953 2.96155 69.7379 2.49162 69.6198C2.3154 69.5706 2.23707 69.8559 2.4133 69.9051Z" fill="#D0E0EB"/>
<path d="M5.85951 76.4373C6.49587 76.4176 7.02454 76.7521 7.54342 77.0669C8.01335 77.3522 8.47349 77.6375 8.92384 77.9523C9.8539 78.6016 10.6959 79.369 11.2539 80.3724C11.342 80.5397 11.5966 80.3921 11.5084 80.2249C10.921 79.1821 10.0399 78.3754 9.07069 77.7064C8.5616 77.3522 8.02314 77.0177 7.48468 76.7029C6.97559 76.398 6.45671 76.1422 5.84972 76.152C5.6735 76.1422 5.6735 76.4373 5.85951 76.4373Z" fill="#D0E0EB"/>
<path d="M9.75635 74.6665C9.49201 73.0728 9.5018 71.4594 9.78572 69.8755C9.81509 69.6886 9.53117 69.6099 9.5018 69.7968C9.20809 71.4397 9.19831 73.1023 9.47243 74.7453C9.5018 74.9322 9.78572 74.8535 9.75635 74.6665Z" fill="#D0E0EB"/>
<path d="M9.25664 67.9276C9.46224 65.9798 9.87343 64.0319 10.5587 62.202C11.1364 60.6575 11.9979 59.1425 13.4762 58.3161C13.3979 58.2767 13.3294 58.2275 13.251 58.1882C13.4077 60.9231 15.0035 63.353 15.072 66.0978C15.1112 66.0486 15.1405 65.9994 15.1797 65.9601C14.8077 66.0585 14.4357 66.1568 14.0636 66.2552C13.9559 66.2847 13.9168 66.4225 13.9951 66.5012C14.4454 66.934 14.5336 67.544 14.5531 68.1441C14.5629 68.4589 14.7294 69.9838 14.3671 70.0821C14.279 70.1116 14.2301 70.2199 14.279 70.2986C15.3657 72.0497 14.8664 74.1255 14.5629 76.0144C14.2496 77.9622 14.2105 79.9298 14.4357 81.8777C14.4552 82.0646 14.7489 82.0646 14.7294 81.8777C14.4748 79.6839 14.6021 77.5294 14.9741 75.3651C15.2776 73.6139 15.5224 71.7349 14.5433 70.1412C14.514 70.21 14.4846 70.2887 14.4552 70.3576C14.7196 70.2887 14.8077 70.0821 14.8468 69.8264C14.9154 69.3541 14.8664 68.8327 14.8566 68.3605C14.8468 67.6128 14.7685 66.8356 14.2007 66.2946C14.1811 66.3733 14.1615 66.4618 14.1322 66.5405L15.2482 66.2454C15.307 66.2257 15.3559 66.1667 15.3559 66.1076C15.2874 63.353 13.7014 60.9329 13.535 58.198C13.5252 58.0898 13.4175 58.0111 13.3098 58.0701C11.851 58.8867 10.9699 60.3328 10.3629 61.8577C9.58951 63.7958 9.15874 65.8715 8.94336 67.9473C8.94336 68.1146 9.23706 68.1146 9.25664 67.9276Z" fill="#D0E0EB"/>
<path d="M12.8106 59.6639C11.7631 63.6482 11.2246 67.7604 11.2148 71.8825C11.2148 72.0694 11.5085 72.0694 11.5085 71.8825C11.5183 67.7801 12.047 63.7072 13.0848 59.7426C13.1435 59.5557 12.8596 59.477 12.8106 59.6639Z" fill="#D0E0EB"/>
<path d="M127.757 53.7709C128.384 55.7975 128.853 57.8635 129.147 59.9688C129.294 61.0312 129.402 62.1134 129.451 63.1857C129.47 63.4612 129.48 63.7465 129.49 64.0219C129.5 64.1892 129.451 64.4646 129.509 64.6221C129.568 64.7696 129.774 64.868 129.891 64.9664C130.097 65.1336 130.302 65.3009 130.498 65.4681C130.508 65.3894 130.518 65.3107 130.528 65.232C130.253 65.3992 129.989 65.4779 129.666 65.4878C129.598 65.4878 129.549 65.537 129.529 65.596C129.245 66.4814 129.451 67.416 130.087 68.1047C130.126 68.0161 130.156 67.9374 130.195 67.8489C129.177 67.8095 129.157 68.9901 129.255 69.7181C129.392 70.7314 129.588 71.7447 129.872 72.7284C130.439 74.6567 131.389 76.4865 132.946 77.8048C133.093 77.9228 133.298 77.7162 133.151 77.5982C131.839 76.4865 130.958 74.9911 130.391 73.3679C130.126 72.6005 129.921 71.8135 129.764 71.0265C129.637 70.3674 129 68.1047 130.195 68.144C130.332 68.1538 130.381 67.9866 130.302 67.8882C129.744 67.2783 129.568 66.4519 129.823 65.6747C129.774 65.7141 129.725 65.7436 129.686 65.7829C130.058 65.7829 130.371 65.6944 130.694 65.4878C130.763 65.4386 130.802 65.3205 130.723 65.2517C130.361 64.9565 129.862 64.7008 129.803 64.2089C129.744 63.6875 129.764 63.1464 129.725 62.625C129.656 61.651 129.558 60.6771 129.411 59.7031C129.118 57.6667 128.658 55.6598 128.051 53.6922C127.982 53.5053 127.698 53.584 127.757 53.7709Z" fill="#D0E0EB"/>
<path d="M128.237 54.2136C127.835 53.6823 128.589 53.2888 129.03 53.397C129.47 53.5151 129.833 53.8692 130.136 54.1841C130.694 54.7546 131.135 55.4236 131.517 56.1221C132.31 57.5584 132.975 59.0931 133.563 60.618C134.767 63.7563 135.599 67.0421 136.04 70.3673C136.284 72.2562 136.412 74.1549 136.412 76.0536C136.412 76.2405 136.705 76.2405 136.705 76.0536C136.705 72.0988 136.167 68.1538 135.11 64.3564C134.591 62.5069 133.954 60.6967 133.2 58.9259C132.505 57.2928 131.761 55.5417 130.567 54.2037C130.087 53.6626 129.275 52.8264 128.472 53.1117C127.982 53.279 127.659 53.9086 127.992 54.3611C128.1 54.5087 128.354 54.371 128.237 54.2136Z" fill="#D0E0EB"/>
<path d="M135.286 65.0254C135.785 63.3432 136.363 61.7002 137.019 60.077C137.361 59.2408 137.723 58.4046 138.115 57.588C138.301 57.2043 138.487 56.8108 138.683 56.4271C138.81 56.1812 139.192 55.099 139.593 55.1974C139.711 55.2269 139.789 55.1286 139.77 55.0203C139.672 54.4104 140.357 53.889 140.719 53.4856C141.042 53.1315 141.356 52.7773 141.679 52.4231C142.344 51.6951 143 50.9671 143.666 50.2293C143.588 50.2096 143.5 50.19 143.421 50.1604C144.43 52.6691 144.165 55.4138 143.578 57.9914C143.275 59.3096 142.893 60.6181 142.57 61.9363C142.344 62.8513 142.1 64.2384 140.984 64.4352C140.905 64.445 140.866 64.5434 140.886 64.6122C141.17 65.7829 140.386 66.8651 139.868 67.8489C139.378 68.7736 138.928 69.7279 138.516 70.7019C137.714 72.6006 137.077 74.5583 136.598 76.5554C136.549 76.7423 136.833 76.821 136.882 76.6341C137.41 74.4206 138.135 72.2661 139.065 70.1903C139.505 69.2065 139.995 68.2424 140.514 67.298C140.984 66.4421 141.414 65.537 141.179 64.5434C141.15 64.6024 141.111 64.6614 141.082 64.7205C142.031 64.5532 142.442 63.5891 142.687 62.743C143.088 61.3264 143.451 59.8704 143.793 58.4341C144.449 55.6991 144.802 52.7576 143.725 50.0817C143.686 49.9834 143.558 49.9243 143.48 50.0129C142.648 50.9278 141.816 51.8526 140.984 52.7675C140.592 53.2003 140.171 53.6135 139.809 54.0759C139.574 54.3907 139.447 54.6859 139.505 55.0794C139.564 55.0203 139.623 54.9613 139.681 54.9023C138.977 54.7252 138.634 55.8861 138.399 56.3484C137.929 57.283 137.488 58.2275 137.087 59.1817C136.284 61.0509 135.599 62.9792 135.021 64.927C134.943 65.1238 135.227 65.2025 135.286 65.0254Z" fill="#D0E0EB"/>
<path d="M142.942 52.7773C139.887 58.5029 136.774 64.4056 136.04 70.9478C136.02 71.1347 136.314 71.1347 136.333 70.9478C137.067 64.4548 140.171 58.5915 143.196 52.9249C143.294 52.7576 143.039 52.6101 142.942 52.7773Z" fill="#D0E0EB"/>
<path d="M130.204 56.7125C132.583 63.0382 134.003 69.7083 134.424 76.457C134.434 76.6439 134.727 76.6439 134.718 76.457C134.297 69.6787 132.877 62.989 130.488 56.6338C130.42 56.4665 130.136 56.5354 130.204 56.7125Z" fill="#D0E0EB"/>
<path d="M6.49621 53.5447C12.4682 52.4724 18.636 52.5314 24.5885 53.7218C27.5353 54.3121 30.4234 55.1679 33.2038 56.2895C36.1115 57.4602 38.9017 58.867 41.7506 60.1656C52.5003 65.0648 64.0037 68.2719 75.7226 69.6689C82.3701 70.4658 89.0862 70.6724 95.7631 70.2985C95.9491 70.2887 95.9491 69.9936 95.7631 70.0034C83.7799 70.6822 71.7086 69.4525 60.0975 66.3929C54.2723 64.8582 48.5646 62.8611 43.0527 60.4312C40.194 59.1719 37.4038 57.7553 34.5353 56.5256C31.794 55.3549 28.9647 54.4104 26.0668 53.7415C19.6346 52.2658 12.9186 52.0985 6.41788 53.2692C6.23187 53.2889 6.31019 53.5742 6.49621 53.5447Z" fill="#D0E0EB"/>
<path d="M59.7545 66.1765C65.3251 66.4618 70.7 64.445 75.9377 62.8316C81.4202 61.1493 86.9223 59.5163 92.4342 57.9225C97.9167 56.3386 103.399 54.676 108.97 53.407C114.521 52.1477 120.18 51.5476 125.868 51.3804C132.202 51.1836 138.536 51.4689 144.861 51.764C145.047 51.7739 145.047 51.4787 144.861 51.4689C133.69 50.9573 122.373 50.4556 111.329 52.6101C105.729 53.7021 100.247 55.3745 94.7642 56.9387C89.2524 58.5226 83.7503 60.1459 78.258 61.8085C75.2132 62.7332 72.1783 63.7367 69.1139 64.5827C66.0594 65.4288 62.9265 66.0388 59.7447 65.8813C59.5685 65.8715 59.5685 66.1666 59.7545 66.1765Z" fill="#D0E0EB"/>
<path d="M35.9839 56.0829C39.8511 57.2044 43.865 56.4272 47.7224 55.6795C51.8538 54.8827 56.0244 54.3416 60.2342 54.1744C68.5755 53.8595 76.8677 55.0598 85.1796 55.3943C89.781 55.5812 94.402 55.473 98.9446 54.7154C99.1306 54.6859 99.0523 54.4006 98.8663 54.4301C90.6915 55.7976 82.3894 54.9811 74.1852 54.3613C70.0831 54.0465 65.9713 53.7808 61.8496 53.8497C57.7671 53.9186 53.6846 54.3121 49.651 55.0303C45.1867 55.8173 40.5462 57.1159 36.0525 55.8074C35.8763 55.7484 35.7979 56.0337 35.9839 56.0829Z" fill="#D0E0EB"/>
<path d="M53.3129 75.0403C54.5661 74.5189 55.9171 74.2533 57.2779 74.2926C58.5409 74.332 59.6765 74.7452 60.9003 75.001C61.8108 75.1977 62.7213 75.1977 63.4555 74.5484C63.7394 74.3025 63.9842 74.0467 64.3954 74.1746C64.6989 74.2631 64.9534 74.4697 65.2373 74.5976C65.5702 74.755 65.9129 74.8141 66.2653 74.7452C67.1073 74.5779 67.7436 73.8795 68.4779 73.4761C69.7212 72.8071 70.9156 73.7024 72.1296 74.027C74.6555 74.7058 77.3576 74.4992 79.9422 74.4697C83.124 74.4402 86.3156 74.4599 89.4778 74.0664C89.6638 74.0467 89.6638 73.7516 89.4778 73.7712C86.6387 74.1156 83.7702 74.1352 80.9114 74.1648C78.1898 74.1943 75.3114 74.4501 72.6289 73.8401C72.0024 73.7024 71.415 73.4958 70.8178 73.2498C70.2989 73.0334 69.7604 72.8268 69.1926 72.9055C68.3017 73.0236 67.6359 73.7319 66.8821 74.1648C66.4905 74.391 66.0597 74.5484 65.6094 74.4205C65.1199 74.273 64.7185 73.8401 64.18 73.8204C63.6709 73.8106 63.4262 74.2238 63.0541 74.4894C62.5353 74.8534 61.8793 74.8632 61.2723 74.7649C59.98 74.5583 58.7758 74.0565 57.4542 73.9975C56.015 73.9286 54.5758 74.1943 53.2346 74.755C53.0584 74.8239 53.1367 75.1092 53.3129 75.0403Z" fill="#D0E0EB"/>
<path d="M59.5587 66.265C59.7349 66.2946 59.9013 66.3339 60.0775 66.3634C60.2635 66.4028 60.3321 66.147 60.1559 66.0781C60.0482 66.0388 59.9405 65.9994 59.823 65.9601C59.6663 65.901 59.5587 66.1568 59.7055 66.2257C60.6062 66.6979 61.5461 67.0717 62.5251 67.3374C62.7111 67.3866 62.7894 67.1013 62.6034 67.0521C61.644 66.7963 60.7335 66.4323 59.8524 65.9699C59.8132 66.0584 59.774 66.147 59.7349 66.2355C59.8426 66.2749 59.9503 66.3142 60.0677 66.3536C60.0971 66.2552 60.1167 66.1667 60.1461 66.0683C59.9698 66.0388 59.8034 65.9994 59.6272 65.9699C59.451 65.9404 59.3726 66.2257 59.5587 66.265Z" fill="#D0E0EB"/>
<path d="M46.4005 79.9003C46.1851 79.6445 45.9893 79.3789 45.8229 79.0838C45.7446 78.9362 45.6467 78.7788 45.5977 78.6115C45.5292 78.5033 45.5194 78.3754 45.5586 78.2475C45.5292 78.1098 45.5684 78.0016 45.6663 77.9229C45.8131 77.5195 45.6369 77.0965 45.539 76.6833C45.3921 76.034 45.2453 75.3847 45.0984 74.7354C45.0201 74.3911 44.9418 74.0566 44.8733 73.7123C44.8341 73.5549 44.8047 73.4073 44.7656 73.2499C44.7068 72.9744 44.6481 72.8466 44.8537 72.6203C44.9516 72.4137 45.0984 72.3743 45.2942 72.5317L45.5586 72.7974C45.6565 72.9253 45.725 73.0728 45.8033 73.2106C45.9404 73.4663 46.0775 73.7221 46.2047 73.9779C46.5082 74.5878 46.7726 75.2175 46.9977 75.8569C47.4285 77.0572 47.7222 78.2967 47.8984 79.5658C47.9474 79.5068 47.9963 79.4379 48.0355 79.3789C48.0551 79.3986 48.0649 79.4281 48.0844 79.4478C48.1334 79.2608 47.8495 79.1821 47.8005 79.3691C47.7614 79.5461 47.8495 79.674 48.0355 79.674C48.1432 79.674 48.1921 79.5855 48.1726 79.4871C47.9474 77.8639 47.5264 76.28 46.8803 74.7748C46.5768 74.0664 46.2537 73.2794 45.8033 72.6498C45.5586 72.3055 45.118 71.9907 44.697 72.2366C44.2173 72.5121 44.4425 73.1909 44.5404 73.6139C44.7362 74.4796 44.932 75.3454 45.118 76.2111C45.2061 76.6243 45.3921 77.0867 45.4117 77.5097C45.4215 77.854 45.1376 78.0114 45.1865 78.3557C45.2845 78.9952 45.7642 79.6445 46.1656 80.1167C46.3124 80.2446 46.518 80.038 46.4005 79.9003Z" fill="#D0E0EB"/>
<path d="M47.301 75.67C47.1541 74.7846 47.1737 73.8795 47.3793 73.0039C47.4283 72.7776 47.4968 72.5612 47.5751 72.3448C47.7122 71.9709 47.908 72.0103 48.1038 72.2857C48.3583 72.6497 48.5541 73.0531 48.701 73.4663C49.2982 75.1781 49.0339 77.0177 48.7793 78.759C48.7499 78.946 49.0339 79.0247 49.0632 78.8377C49.3863 76.6439 49.7192 74.1549 48.3975 72.1972C48.2506 71.9808 48.0548 71.6168 47.7513 71.666C47.4283 71.725 47.3206 72.1677 47.2325 72.4235C46.88 73.4958 46.8213 74.637 47.0073 75.7388C47.0562 75.9356 47.3402 75.8569 47.301 75.67Z" fill="#D0E0EB"/>
<path d="M47.8303 73.4072C48.124 74.9419 48.2317 76.4864 48.1828 78.0408C48.173 78.2277 48.4667 78.2277 48.4765 78.0408C48.5352 76.4569 48.4079 74.8829 48.1142 73.3285C48.0751 73.1416 47.801 73.2203 47.8303 73.4072Z" fill="#D0E0EB"/>
<path d="M11.822 52.433C11.5381 51.8034 10.9017 51.3607 10.5003 50.8098C10.0598 50.1998 9.68776 49.5407 9.32553 48.8914C9.29616 48.9602 9.26679 49.039 9.23742 49.1078C11.2052 48.7537 12.3409 50.7015 12.7227 52.3445C12.7619 52.5314 13.0458 52.4527 13.0066 52.2658C12.5857 50.4458 11.2934 48.4487 9.15909 48.8225C9.06119 48.8422 9.03182 48.9602 9.07098 49.0389C9.43322 49.6981 9.79546 50.3572 10.2458 50.9573C10.6472 51.5082 11.2934 51.9706 11.5675 52.5806C11.6458 52.7577 11.9003 52.6101 11.822 52.433Z" fill="#D0E0EB"/>
<path d="M12.6735 50.849C12.8204 49.3045 14.2889 48.3404 14.8568 46.9729C14.7882 47.0024 14.7099 47.032 14.6414 47.0615C15.2973 47.4845 14.8078 49.0192 14.6218 49.6095C14.3477 50.4752 13.8973 51.2622 13.3197 51.9509C13.2022 52.0984 13.4078 52.305 13.5253 52.1575C14.2498 51.3016 14.7686 50.308 15.033 49.216C15.1994 48.5273 15.5127 47.2779 14.7882 46.8057C14.7001 46.7467 14.6022 46.8155 14.5728 46.8942C13.9854 48.3109 12.5365 49.2356 12.3798 50.849C12.3603 51.036 12.654 51.036 12.6735 50.849Z" fill="#D0E0EB"/>
<path d="M99.6102 55.3155C99.522 55.0892 99.4339 54.863 99.3458 54.6367C99.2969 54.5285 99.2577 54.4104 99.2088 54.3022C99.15 54.2235 99.15 54.135 99.199 54.0464C99.2871 54.1251 99.4633 54.0759 99.4535 53.9382C99.4046 53.4463 99.3556 52.9446 99.3067 52.4527C99.2969 52.3346 99.1794 51.8723 99.2479 51.7837C99.5514 51.3607 99.757 52.0592 99.7864 52.1674C100.051 53.0725 100.041 54.1153 100.031 55.0499C100.031 55.2368 100.325 55.2368 100.325 55.0499C100.335 54.2825 100.295 53.525 100.188 52.7675C100.119 52.2854 100.041 51.587 99.571 51.3017C99.2675 51.1147 99.013 51.3115 98.9542 51.6362C98.8955 51.951 98.9934 52.3248 99.0228 52.6298C99.0619 53.0626 99.1109 53.4955 99.15 53.9284C99.2381 53.889 99.3164 53.8595 99.4046 53.8202C99.2381 53.6627 98.9836 53.6923 98.8857 53.9087C98.8172 54.0563 98.8759 54.2137 98.9248 54.3612C99.0423 54.7056 99.199 55.04 99.3262 55.3844C99.3948 55.5713 99.6787 55.4926 99.6102 55.3155Z" fill="#D0E0EB"/>
<path d="M100.266 53.7119C100.227 52.3346 100.511 50.9869 101.108 49.7375C101.03 49.7473 100.952 49.7571 100.873 49.767C101.51 50.2982 101.089 51.7345 100.981 52.4232C100.834 53.3479 100.648 54.2727 100.413 55.1778C100.364 55.3647 100.648 55.4434 100.697 55.2565C100.981 54.1547 101.196 53.0331 101.353 51.9018C101.451 51.1738 101.735 50.1015 101.079 49.5505C101.01 49.4915 100.893 49.4915 100.844 49.5801C100.227 50.8688 99.9237 52.2658 99.9628 53.7021C99.9824 53.8989 100.276 53.8989 100.266 53.7119Z" fill="#D0E0EB"/>
<path d="M48.8872 83.8256C49.5039 83.1959 50.4634 84.042 51.1781 84.0026C51.5207 83.983 51.834 83.8551 52.1473 83.7469C52.5683 83.6091 52.9697 83.5599 53.4102 83.5993C55.1529 83.7469 56.8466 83.8747 58.599 83.7567C58.785 83.7469 58.785 83.4517 58.599 83.4616C57.6494 83.5206 56.7095 83.5403 55.7599 83.5009C54.8004 83.4616 53.8018 83.2254 52.8522 83.2943C52.4704 83.3238 52.1179 83.4517 51.7557 83.5698C51.227 83.737 50.8256 83.7075 50.3165 83.5206C49.7585 83.314 49.1319 83.1467 48.6718 83.619C48.5445 83.7567 48.7501 83.9633 48.8872 83.8256Z" fill="#D0E0EB"/>
<path d="M30.3936 86.2163C31.0789 85.4686 32.2831 85.4194 33.0076 86.1277C33.0174 86.049 33.0271 85.9703 33.0369 85.8916C32.5278 86.1376 32.009 86.2458 31.4509 86.2163C31.2649 86.2064 31.2649 86.5016 31.4509 86.5114C32.0677 86.5409 32.6355 86.4228 33.1936 86.1474C33.2817 86.108 33.2915 85.9802 33.223 85.9113C32.381 85.0947 30.981 85.1341 30.188 85.9998C30.0607 86.1474 30.2663 86.354 30.3936 86.2163Z" fill="#D0E0EB"/>
<path d="M3.10846 88.8724C2.60916 88.833 2.10986 88.9806 1.72804 89.3249C1.49308 89.5413 1.16021 89.9447 1.46371 90.23C1.80636 90.5448 2.62874 90.3382 3.03014 90.2988C3.7644 90.2201 4.47908 90.0824 5.19376 89.8955C5.37978 89.8463 5.30146 89.561 5.11544 89.6102C4.25391 89.8365 3.38258 89.984 2.49168 90.0431C2.31545 90.0529 2.12944 90.0726 1.95322 90.0726C1.51266 90.0529 1.71825 89.7184 1.93363 89.5315C2.25671 89.2363 2.67769 89.1281 3.10846 89.1675C3.30426 89.1773 3.29447 88.8822 3.10846 88.8724Z" fill="#D0E0EB"/>
<path d="M17.0989 80.7562C17.1185 80.6775 17.1772 80.6283 17.2556 80.6283C17.3241 80.6184 17.3926 80.6086 17.4514 80.5988C17.608 80.5791 17.7549 80.5889 17.9115 80.6086C18.215 80.6479 18.4891 80.7562 18.7535 80.9234C18.7633 80.8349 18.773 80.7463 18.7926 80.6578C18.4304 80.7857 18.0682 80.8152 17.6863 80.7562C17.5003 80.7266 17.422 81.0119 17.608 81.0415C18.0388 81.1103 18.45 81.0808 18.8709 80.9431C18.9884 80.9037 19.0178 80.7463 18.9101 80.6775C18.401 80.3528 17.7353 80.1954 17.1381 80.3626C16.815 80.4512 16.5605 80.9529 17.0206 81.0513C17.2066 81.0808 17.2849 80.7955 17.0989 80.7562Z" fill="#D0E0EB"/>
<path d="M25.2049 13.1013C22.8749 12.2749 21.2105 10.0024 20.956 7.54293C20.6917 5.00476 22.1112 2.58465 24.2455 1.28605C26.5462 -0.11092 29.8161 -0.120758 31.7056 1.99438C32.6748 3.0667 33.272 4.53254 33.6245 5.91968C33.9867 7.34617 34.0455 8.93006 33.2329 10.2188C32.4105 11.5076 30.942 12.2257 29.5616 12.7668C28.1028 13.3473 26.3504 13.7998 24.921 12.8947C24.7644 12.7963 24.6175 13.0521 24.7742 13.1505C26.0567 13.9572 27.6035 13.7506 28.9742 13.2981C30.3154 12.8554 31.735 12.2356 32.7727 11.2321C35.093 8.99893 34.1434 5.30973 32.6944 2.86011C31.9308 1.56151 30.7853 0.607243 29.3266 0.21373C27.9364 -0.160109 26.4483 -0.0322166 25.1266 0.508865C22.6987 1.51233 20.7994 3.85373 20.6427 6.52963C20.4665 9.48098 22.356 12.4028 25.1266 13.3866C25.3028 13.4555 25.3812 13.1702 25.2049 13.1013Z" fill="#D0E0EB"/>
<path d="M98.817 70.2101C105.494 69.787 112.132 68.882 118.672 67.4948C120.561 67.0915 122.441 66.6488 124.311 66.1667C124.497 66.1175 124.418 65.8322 124.232 65.8814C117.751 67.544 111.153 68.7442 104.495 69.4427C102.606 69.6395 100.716 69.7969 98.8268 69.9149C98.631 69.9248 98.631 70.2199 98.817 70.2101Z" fill="#D0E0EB"/>
<path d="M83.515 77.313C84.3766 77.4605 85.2577 77.4507 86.1094 77.2441C86.6381 77.1162 87.0199 76.9096 87.5682 77.0867C87.9108 77.1949 88.2339 77.2343 88.5864 77.1654C88.978 77.0867 89.3402 76.8899 89.6731 76.6735C90.0353 76.4276 90.3975 76.0832 90.8381 75.9947C91.3472 75.8963 91.8073 76.2997 92.2968 76.4079C92.6493 76.4866 93.0115 76.4768 93.364 76.4177C93.55 76.3882 93.4717 76.1029 93.2856 76.1324C92.6689 76.2406 92.1891 76.0832 91.6311 75.8373C91.3961 75.7291 91.171 75.67 90.9066 75.6897C90.1136 75.7783 89.5654 76.5259 88.8311 76.7916C88.3612 76.9588 87.9794 76.8998 87.5192 76.7522C87.1668 76.644 86.9122 76.703 86.5696 76.8112C85.6003 77.1162 84.6115 77.2048 83.6129 77.0375C83.4171 76.9982 83.329 77.2835 83.515 77.313Z" fill="#D0E0EB"/>
<path d="M35.0051 90.1121H57.826C58.2078 90.1121 58.2078 89.5218 57.826 89.5218C50.2191 89.5218 42.6121 89.5218 35.0051 89.5218C34.6233 89.5218 34.6233 90.1121 35.0051 90.1121Z" fill="#88ABC2"/>
<path d="M59.4607 89.9348H62.1334C62.5152 89.9348 62.5152 89.3445 62.1334 89.3445C61.2425 89.3445 60.3516 89.3445 59.4607 89.3445C59.0789 89.3445 59.0789 89.9348 59.4607 89.9348Z" fill="#88ABC2"/>
<path d="M64.1111 89.8463H64.9726C65.3544 89.8463 65.3544 89.256 64.9726 89.256C64.6887 89.256 64.395 89.256 64.1111 89.256C63.7293 89.256 63.7293 89.8463 64.1111 89.8463Z" fill="#88ABC2"/>
<path d="M10.4611 92.2764H27.3394C27.7212 92.2764 27.7212 91.6861 27.3394 91.6861C21.7101 91.6861 16.0905 91.6861 10.4611 91.6861C10.0891 91.6861 10.0891 92.2764 10.4611 92.2764Z" fill="#88ABC2"/>
<path d="M28.9738 92.2764H33.3696C33.7515 92.2764 33.7515 91.6861 33.3696 91.6861C31.9011 91.6861 30.4424 91.6861 28.9738 91.6861C28.6018 91.6861 28.6018 92.2764 28.9738 92.2764Z" fill="#88ABC2"/>
<path d="M35.8664 92.0994H36.121C36.2776 92.0994 36.4245 91.9616 36.4147 91.8042C36.4049 91.6468 36.2874 91.5091 36.121 91.5091C36.0329 91.5091 35.9448 91.5091 35.8664 91.5091C35.7098 91.5091 35.5629 91.6468 35.5727 91.8042C35.5825 91.9616 35.7 92.0994 35.8664 92.0994Z" fill="#88ABC2"/>
<path d="M7.36742 92.3549H7.97441C8.35623 92.3549 8.35623 91.7646 7.97441 91.7646C7.76881 91.7646 7.57301 91.7646 7.36742 91.7646C6.9856 91.7646 6.9856 92.3549 7.36742 92.3549Z" fill="#88ABC2"/>
<path d="M84.9446 81.5432H108.627C109.009 81.5432 109.009 80.9529 108.627 80.9529C100.736 80.9529 92.8452 80.9529 84.9446 80.9529C84.5627 80.9529 84.5627 81.5432 84.9446 81.5432Z" fill="#88ABC2"/>
<path d="M111.721 81.199H133.161C133.543 81.199 133.543 80.6087 133.161 80.6087C126.015 80.6087 118.868 80.6087 111.721 80.6087C111.349 80.6087 111.349 81.199 111.721 81.199Z" fill="#88ABC2"/>
<path d="M135.061 81.0217H136.784C137.166 81.0217 137.166 80.4315 136.784 80.4315C136.206 80.4315 135.638 80.4315 135.061 80.4315C134.679 80.4315 134.679 81.0217 135.061 81.0217Z" fill="#88ABC2"/>
<path d="M127.483 77.736H132.388C132.77 77.736 132.77 77.1458 132.388 77.1458C130.753 77.1458 129.118 77.1458 127.483 77.1458C127.101 77.1458 127.101 77.736 127.483 77.736Z" fill="#88ABC2"/>
<path d="M134.023 77.6474H135.227C135.609 77.6474 135.609 77.0571 135.227 77.0571C134.825 77.0571 134.424 77.0571 134.023 77.0571C133.651 77.0571 133.651 77.6474 134.023 77.6474Z" fill="#88ABC2"/>
<path d="M80.2063 83.2747H86.4916C86.8734 83.2747 86.8734 82.6844 86.4916 82.6844C84.3965 82.6844 82.3014 82.6844 80.2063 82.6844C79.8342 82.6844 79.8342 83.2747 80.2063 83.2747Z" fill="#88ABC2"/>
<path d="M88.7336 83.1861H91.4063C91.7882 83.1861 91.7882 82.5958 91.4063 82.5958C90.5154 82.5958 89.6245 82.5958 88.7336 82.5958C88.3518 82.5958 88.3518 83.1861 88.7336 83.1861Z" fill="#88ABC2"/>
<path d="M92.6101 84.6618H94.4213C94.8031 84.6618 94.8031 84.0715 94.4213 84.0715C93.8143 84.0715 93.2171 84.0715 92.6101 84.0715C92.2283 84.0715 92.2283 84.6618 92.6101 84.6618Z" fill="#88ABC2"/>
<path d="M50.914 35.3348C50.5616 34.8921 51.8931 34.6166 52.1084 34.5281C52.5294 34.3411 52.7938 33.9968 52.8917 33.5443C52.9896 33.0819 52.8917 32.59 53.0287 32.1375C53.2343 31.4685 53.998 31.5078 54.5658 31.5373C54.9476 31.557 54.9378 30.9668 54.5658 30.9471C53.9196 30.9077 53.1756 30.9274 52.7252 31.4586C52.3238 31.9309 52.4021 32.5703 52.3532 33.1508C52.314 33.6722 52.1182 33.9279 51.6091 34.0755C51.3154 34.1641 51.0217 34.2132 50.777 34.4002C50.3266 34.7248 50.1406 35.2954 50.5029 35.7479C50.728 36.0529 51.149 35.6299 50.914 35.3348Z" fill="#88ABC2"/>
<path d="M52.9993 35.8267C52.7349 35.5119 53.3419 35.1971 53.5377 35.079C53.8021 34.9216 54.0272 34.774 54.223 34.5379C54.6244 34.0559 54.8888 33.141 55.6133 33.1016C55.9853 33.0819 55.9951 32.4917 55.6133 32.5113C54.4091 32.5704 54.3112 33.8296 53.4888 34.4199C53.1363 34.6658 52.7154 34.8036 52.4902 35.1971C52.2846 35.5512 52.3238 35.9349 52.5783 36.2399C52.8231 36.535 53.244 36.112 52.9993 35.8267Z" fill="#88ABC2"/>
<path d="M98.8763 3.98167C98.8371 4.61129 98.3476 5.3688 98.935 5.90005C99.4441 6.35259 100.08 6.0181 100.658 6.05745C101.294 6.10664 101.02 6.69691 100.942 7.12978C100.883 7.45442 100.854 7.80859 101.001 8.1234C101.236 8.61529 101.872 8.9301 102.342 8.57594C102.636 8.34967 102.342 7.8381 102.048 8.06437C101.569 8.42837 101.471 7.5528 101.52 7.28718C101.569 7.00188 101.667 6.71659 101.676 6.42145C101.686 6.00826 101.471 5.68361 101.089 5.54588C100.619 5.37864 100.198 5.56556 99.728 5.55572C98.8763 5.53605 99.4441 4.49323 99.4735 3.98167C99.4931 3.59799 98.9057 3.59799 98.8763 3.98167Z" fill="#88ABC2"/>
<path d="M102.244 4.66042C102 5.19166 101.765 5.82128 102.156 6.35253C102.303 6.54928 102.499 6.66734 102.734 6.70669C102.89 6.72636 103.096 6.6575 103.233 6.71653C103.458 6.80507 103.586 7.07069 103.478 7.3068C103.311 7.65112 103.82 7.94626 103.987 7.60193C104.193 7.15923 104.114 6.64766 103.723 6.32301C103.507 6.14593 103.311 6.14593 103.047 6.11642C102.332 6.04755 102.528 5.44744 102.753 4.96539C102.91 4.62107 102.401 4.31609 102.244 4.66042Z" fill="#88ABC2"/>
<path d="M133.445 25.0641C133.23 24.5034 133.749 23.6967 134.405 23.9033C134.904 24.0705 135.129 24.8182 134.796 25.2314C134.561 25.5265 134.973 25.9397 135.208 25.6446C135.815 24.9067 135.511 23.618 134.561 23.3327C133.514 23.0179 132.505 24.2181 132.887 25.2117C133.015 25.5757 133.582 25.4183 133.445 25.0641Z" fill="#88ABC2"/>
<path d="M19.1545 48.4191C19.0957 47.7206 19.9768 47.3271 20.3489 47.9862C20.6622 48.5568 20.0454 49.0586 19.5069 48.8717C19.1545 48.7438 18.9978 49.3144 19.3503 49.4422C20.437 49.8358 21.465 48.5962 20.809 47.6124C20.1041 46.5598 18.4692 47.1795 18.5769 48.4191C18.5964 48.7929 19.1838 48.8028 19.1545 48.4191Z" fill="#88ABC2"/>
<path d="M22.5619 20.8437C22.3367 21.2175 22.3171 21.6996 22.6108 22.0439C22.7577 22.2111 22.9633 22.3193 23.1786 22.3587C23.4821 22.4079 23.7073 22.2406 23.9717 22.3685C24.236 22.5063 24.1772 22.6735 24.2066 22.949C24.2164 23.1162 24.2262 23.2736 24.2458 23.4409C24.2654 23.6179 24.2849 23.795 24.4122 23.9328C24.5297 24.0606 24.6765 24.1098 24.843 24.1393C24.9605 24.159 25.0779 24.1492 25.2052 24.1492C25.3031 24.1492 25.4108 24.1492 25.5087 24.1689C25.6947 24.218 25.773 24.3459 25.7535 24.5329C25.6066 24.6411 25.7437 24.8969 25.9003 24.7886C26.194 24.5722 26.0961 24.2377 25.8416 24.0213C25.7241 23.9229 25.5968 23.8737 25.4402 23.854C24.9311 23.7852 24.6374 23.9819 24.5199 23.2638C24.4612 22.9096 24.5884 22.1718 24.2262 21.9357C24.0598 21.8275 23.9129 21.8766 23.7465 21.9455C23.4821 22.0537 23.2668 22.1423 22.9926 21.975C22.6206 21.7487 22.6108 21.306 22.8164 20.9716C22.9143 20.8338 22.6598 20.6863 22.5619 20.8437Z" fill="#88ABC2"/>
<path d="M26.5165 22.0145C26.3207 22.3588 26.0857 22.8802 26.3892 23.2344C26.585 23.4705 26.9179 23.441 27.1724 23.5885C27.5738 23.8148 27.7598 24.287 27.6815 24.7297C27.6522 24.9167 27.9361 24.9954 27.9654 24.8084C28.0438 24.3657 27.9459 23.9329 27.6424 23.5984C27.5151 23.4508 27.3487 23.3426 27.1724 23.2639C26.9668 23.1754 26.6144 23.0671 26.5459 22.8114C26.4969 22.6244 26.6927 22.3096 26.771 22.1621C26.8591 21.9948 26.6046 21.8472 26.5165 22.0145Z" fill="#88ABC2"/>
<path d="M81.6256 53.0822C81.2927 52.3936 81.9193 51.5869 82.6634 51.8525C83.4368 52.128 83.4074 53.1905 82.6732 53.4856C82.4969 53.5545 82.5753 53.8398 82.7515 53.7709C83.7011 53.3872 83.8284 52.0198 82.8396 51.6066C81.8214 51.1737 80.9207 52.2854 81.3808 53.2396C81.4592 53.4069 81.7137 53.2495 81.6256 53.0822Z" fill="#88ABC2"/>
<path d="M45.5688 50.7507C44.9422 50.6228 45.9506 49.944 46.0583 49.8752C46.2149 49.7669 46.3618 49.6489 46.4401 49.462C46.7044 48.8619 46.2247 47.6617 47.2821 47.6026C47.4681 47.5928 47.4681 47.2977 47.2821 47.3075C46.8709 47.3272 46.5674 47.5534 46.3814 47.9076C46.0779 48.4782 46.4401 49.2554 45.8527 49.6489C45.5198 49.8752 45.1674 50.0227 45.1282 50.4654C45.1086 50.7311 45.2163 50.9672 45.4905 51.0262C45.6765 51.0754 45.7548 50.7901 45.5688 50.7507Z" fill="#88ABC2"/>
<path d="M47.4481 49.8949C47.174 49.5112 47.3306 48.9701 47.7908 48.8226C48.1041 48.7242 48.339 48.7734 48.5153 48.4487C48.6915 48.1142 48.6621 47.7207 48.8579 47.3764C49.1027 46.9337 49.5139 46.6287 49.9838 46.4812C50.16 46.4221 50.0915 46.1368 49.9055 46.1959C49.4649 46.3336 49.0831 46.5795 48.7992 46.9435C48.6523 47.1305 48.525 47.3469 48.4467 47.583C48.339 47.8978 48.388 48.3208 48.0355 48.4881C47.8202 48.5963 47.6048 48.5373 47.3992 48.6947C47.2621 48.793 47.1642 48.9406 47.1055 49.0882C46.9684 49.4128 46.9978 49.7572 47.2034 50.0425C47.3013 50.1999 47.5558 50.0523 47.4481 49.8949Z" fill="#88ABC2"/>
<path d="M37.4914 4.65063C37.3152 4.29647 38.069 4.42436 38.0984 4.4342C38.2061 4.47355 38.3138 4.56209 38.4117 4.62112C38.5683 4.70966 38.7446 4.7982 38.9306 4.80803C39.1753 4.81787 39.3809 4.70966 39.5376 4.53257C39.9879 3.98166 39.8215 2.55517 40.8788 2.97819C41.1921 3.10609 41.5445 3.29301 41.8872 3.1356C42.1613 3.00771 42.2201 2.73225 42.1809 2.45679C42.1613 2.31906 42.0047 2.0436 42.0438 1.90587C42.1222 1.64025 42.3669 1.62057 42.5529 1.70911C42.641 1.74846 42.7194 1.80749 42.8173 1.83701C43.111 1.94522 43.3949 1.92555 43.5711 1.65009C43.669 1.49268 43.4145 1.34511 43.3166 1.50252C43.1208 1.81733 42.3376 1.16803 41.9851 1.36479C41.7012 1.51236 41.711 1.80749 41.7795 2.08295C41.8578 2.4076 42.0536 2.87982 41.4564 2.86998C41.1921 2.86998 40.9473 2.64371 40.6928 2.59452C40.3893 2.53549 40.1152 2.6142 39.9194 2.8503C39.4299 3.43074 39.6159 4.94576 38.4802 4.32598C38.1474 4.1489 37.8732 3.97182 37.5012 4.13906C37.2173 4.26695 37.0802 4.5129 37.2271 4.7982C37.325 4.96544 37.5697 4.81787 37.4914 4.65063Z" fill="#49708A"/>
<path d="M49.1514 12.6782C48.7108 12.57 48.6521 11.9994 48.8675 11.6649C49.1709 11.1927 49.8856 11.2222 50.3653 11.3108C51.1681 11.4583 51.9122 11.7732 52.7248 11.4682C53.508 11.173 54.0954 10.5336 54.9765 10.5139C55.8968 10.4942 56.7681 10.8976 57.6982 10.8681C59.3234 10.8189 60.8017 10.0122 62.3583 9.63834C63.2786 9.41207 64.1793 9.3924 65.0996 9.62851C65.9807 9.85478 66.8031 10.2188 67.6842 10.4352C68.6045 10.6713 69.5149 10.632 70.445 10.5533C71.4632 10.4746 72.5107 10.3959 73.431 10.9271C73.4114 10.8681 73.3821 10.8189 73.3625 10.7599C72.873 12.206 71.287 12.7963 69.887 12.875C68.1345 12.9734 66.431 12.3339 64.6688 12.4028C62.887 12.4716 61.3793 13.5636 59.6269 13.7309C57.8353 13.908 56.1416 13.0521 54.3597 13.1013C52.5486 13.1505 50.1891 14.1441 48.7598 12.5208C48.6325 12.3831 48.4269 12.5897 48.5542 12.7274C49.68 13.9965 51.4618 13.7702 52.9597 13.544C54.066 13.3767 55.0744 13.3669 56.1807 13.5833C57.1206 13.7702 58.0604 14.026 59.0199 14.0457C60.9583 14.0949 62.5933 12.8356 64.5024 12.7078C66.431 12.5799 68.301 13.3571 70.2296 13.1406C71.6688 12.9832 73.1667 12.3044 73.6562 10.8287C73.6758 10.7697 73.6464 10.691 73.5877 10.6615C71.8646 9.64818 69.7891 10.6025 67.9387 10.1794C66.9205 9.94332 65.9709 9.49078 64.9429 9.27434C64.052 9.07759 63.1709 9.12678 62.2898 9.34321C61.3499 9.56948 60.459 9.94332 59.5387 10.2286C58.4814 10.5533 57.473 10.6516 56.3765 10.4254C55.5052 10.2385 54.7024 10.0909 53.88 10.5041C53.4982 10.7008 53.1458 10.9665 52.7542 11.1435C52.0884 11.4387 51.4521 11.2616 50.7765 11.0943C50.0619 10.9271 48.9849 10.809 48.5835 11.6059C48.329 12.1076 48.5052 12.8258 49.0926 12.9635C49.2591 13.0029 49.3374 12.7176 49.1514 12.6782Z" fill="#D0E0EB"/>
<path d="M8.38512 27.8384C9.71658 27.6613 10.9795 28.3499 12.3012 28.1827C12.8396 28.1138 13.3389 27.8777 13.8382 27.6711C14.0732 27.5728 14.318 27.4842 14.5725 27.4252C15.0522 27.317 15.483 27.4449 15.9529 27.5432C17.2648 27.8285 18.7333 27.5137 20.0452 27.3268C20.6914 27.2383 21.3277 27.1399 21.9739 27.0317C22.7082 26.9038 23.4424 26.707 24.1767 26.6283C24.9501 26.5496 25.8606 26.8939 25.5473 27.8482C25.283 28.6648 24.2942 28.9009 23.5501 28.9599C22.2578 29.0583 20.9753 28.6844 19.683 28.9304C18.4788 29.1567 17.4019 29.7863 16.2368 30.1306C15.5907 30.3274 14.9445 30.4061 14.2788 30.3175C13.6131 30.2191 12.9865 30.0519 12.3012 30.1011C10.911 30.1896 9.43267 31.0062 8.04246 30.6815C7.19071 30.4848 6.75016 29.6977 7.16134 28.8812C7.56274 28.0942 8.48302 27.8876 9.28581 27.8876C9.47183 27.8876 9.47183 27.5924 9.28581 27.5924C8.15994 27.5924 6.82848 28.0843 6.71099 29.3829C6.6033 30.5831 7.77813 31.075 8.78651 31.0357C9.52078 31.0062 10.2453 30.7897 10.9599 30.6225C11.89 30.4061 12.7417 30.3274 13.6816 30.5044C14.3767 30.6323 15.0229 30.7012 15.7278 30.5635C16.4522 30.4257 17.1375 30.1306 17.8131 29.8551C18.4984 29.5797 19.1935 29.2944 19.9277 29.1862C20.7893 29.0583 21.6508 29.196 22.5123 29.2452C23.6382 29.3141 25.4298 29.2649 25.841 27.9269C25.9879 27.4449 25.8802 26.8841 25.4592 26.5693C25.048 26.2643 24.49 26.284 24.0102 26.343C22.248 26.589 20.5152 26.9923 18.7333 27.1891C17.7347 27.2973 16.7753 27.4252 15.7963 27.1891C15.0033 26.9923 14.3767 27.1301 13.6327 27.435C13.241 27.5924 12.8592 27.7695 12.448 27.8482C11.939 27.9466 11.4103 27.8777 10.9012 27.7892C10.069 27.6318 9.25644 27.4154 8.41449 27.5236C8.1991 27.5629 8.1991 27.8581 8.38512 27.8384Z" fill="#D0E0EB"/>
<path d="M127.679 39.5356C125.829 40.1849 123.665 38.6502 122.333 37.4893C122.314 37.568 122.294 37.6566 122.265 37.7353C123.205 37.3516 124.194 37.3319 125.192 37.3909C126.181 37.4401 127.17 37.509 128.159 37.5385C130.264 37.5975 132.378 37.5484 134.473 37.3909C135.56 37.3122 136.637 37.204 137.714 37.0761C138.243 37.0073 138.879 36.8794 139.378 37.1253C140.073 37.4795 140.015 38.2468 139.349 38.542C139.006 38.6895 138.634 38.7387 138.272 38.8076C137.704 38.906 137.136 39.0142 136.568 39.1126C135.531 39.2995 134.493 39.4864 133.445 39.6733C132.848 39.7815 132.251 39.8898 131.654 39.998C131.096 40.0964 130.518 40.2439 129.94 40.2538C128.961 40.2636 128.227 39.3979 127.248 39.5061C127.062 39.5258 127.062 39.8209 127.248 39.8012C127.806 39.7324 128.247 40.0373 128.726 40.2636C129.118 40.4505 129.5 40.5489 129.931 40.5489C131.057 40.5391 132.222 40.1947 133.328 39.9881C134.522 39.7717 135.726 39.5553 136.921 39.3388C137.489 39.2405 138.057 39.1323 138.624 39.0339C139.006 38.965 139.408 38.8765 139.74 38.6502C140.298 38.2665 140.318 37.5582 139.848 37.0958C139.114 36.3678 137.851 36.7515 136.96 36.8499C134.552 37.1155 132.124 37.2532 129.696 37.2434C128.364 37.2434 127.033 37.1942 125.701 37.1056C124.517 37.0368 123.313 36.9778 122.196 37.4303C122.108 37.4696 122.04 37.5975 122.128 37.6762C123.538 38.906 125.789 40.4899 127.757 39.8012C127.933 39.7619 127.865 39.4766 127.679 39.5356Z" fill="#D0E0EB"/>
<path d="M82.7807 91.509C82.6926 90.9482 83.4856 91.0367 83.7989 91.145C84.0436 91.2237 84.2786 91.322 84.5331 91.3515C85.1401 91.4303 85.7373 91.2237 86.3052 91.0367C86.8534 90.8498 87.431 90.6432 88.0184 90.7023C88.7233 90.7711 89.2912 91.3516 89.1835 92.0992C89.066 92.8764 88.273 93.2404 87.5681 93.024C87.0884 92.8764 86.6674 92.5714 86.1681 92.4927C85.1107 92.3353 84.0045 93.2601 82.9863 92.7682C82.8198 92.6895 82.6632 92.9354 82.8394 93.024C83.4464 93.3191 84.0534 93.1814 84.6702 93.0043C85.0618 92.8961 85.473 92.7584 85.8842 92.7682C86.3639 92.778 86.7555 93.0141 87.1765 93.1912C87.7737 93.447 88.4003 93.4962 88.9289 93.0633C89.3793 92.6993 89.5751 92.1189 89.438 91.5582C89.0268 89.9349 87.1667 90.4366 86.0506 90.8105C85.5219 90.9875 84.9639 91.1548 84.3961 91.0367C84.0338 90.958 83.6912 90.7318 83.2996 90.7416C82.8296 90.7514 82.4087 91.0958 82.487 91.5877C82.5261 91.7746 82.8101 91.6959 82.7807 91.509Z" fill="#D0E0EB"/>
<path d="M71.493 88.2329C71.9629 87.7902 72.6091 87.6033 73.2454 87.741C73.5098 87.8001 74.244 87.9968 73.7839 88.351C73.5391 88.5379 73.0007 88.5182 72.707 88.5182C72.5209 88.5182 72.5209 88.8134 72.707 88.8134C73.1377 88.8134 73.8916 88.7937 74.2147 88.4494C74.4888 88.1542 74.1755 87.8296 73.9112 87.682C73.0692 87.1901 71.9825 87.377 71.2874 88.0263C71.1503 88.1542 71.3559 88.3608 71.493 88.2329Z" fill="#D0E0EB"/>
<path d="M66.0494 94.7554C65.971 94.7259 65.9025 94.6964 65.8242 94.6668C65.8144 94.7455 65.8046 94.8242 65.7948 94.9029C66.392 94.4701 67.0675 94.7849 67.7039 94.9325C68.2424 95.0603 68.7123 95.0013 69.2409 94.8734C69.8969 94.716 70.5626 94.6176 71.2381 94.5783C71.5514 94.5586 71.8647 94.5488 72.178 94.5389C72.4717 94.5291 73.206 94.3815 72.9514 94.8833C72.6479 95.4834 71.7668 95.503 71.2284 95.326C70.7682 95.1784 70.3374 94.962 69.8479 95.08C69.3388 95.1981 68.9081 95.5227 68.3794 95.6309C67.6745 95.7785 66.9794 95.7096 66.3039 95.4637C66.1277 95.4047 66.0493 95.6801 66.2256 95.749C66.8913 95.9851 67.5864 96.0638 68.2913 95.9458C69.0843 95.808 69.7892 95.1882 70.6116 95.4145C71.199 95.5818 71.6787 95.8474 72.3053 95.6605C72.7067 95.5424 73.2745 95.1882 73.3528 94.7357C73.4507 94.2045 72.7948 94.2241 72.4521 94.234C71.6591 94.2536 70.8563 94.293 70.0633 94.4111C69.6326 94.4799 69.2214 94.598 68.8004 94.6767C68.2815 94.7751 67.8605 94.6767 67.3612 94.5389C66.7738 94.3717 66.1668 94.2733 65.6382 94.6472C65.5598 94.7062 65.5403 94.8046 65.6088 94.8833C65.7556 95.0505 65.9123 95.0899 66.1179 95.0505C66.3137 95.0112 66.2354 94.7259 66.0494 94.7554Z" fill="#D0E0EB"/>
<path d="M106.483 89.1184C107.051 88.8823 107.648 88.7544 108.265 88.7642C108.901 88.774 109.44 89.02 110.047 89.1577C110.938 89.3741 111.603 88.8232 112.328 88.4002C113.473 87.7214 114.609 88.1641 115.803 88.41C116.655 88.5871 117.566 88.6166 118.3 88.0952C118.457 87.987 118.31 87.7312 118.153 87.8394C117.233 88.5084 116.097 88.1838 115.089 87.9378C114.139 87.7116 113.199 87.5837 112.308 88.0756C111.917 88.292 111.554 88.5773 111.143 88.7642C110.517 89.0495 110.008 88.8232 109.401 88.6461C108.412 88.3608 107.364 88.4395 106.415 88.8331C106.229 88.9019 106.307 89.1872 106.483 89.1184Z" fill="#D0E0EB"/>
<path d="M38.4113 40.6769C39.2827 40.3424 40.8099 42.1427 41.5638 43.3232C42.719 45.1039 42.905 46.6583 43.4729 50.2589C43.6882 51.6559 44.0407 53.8694 44.5204 56.6633C45.3819 57.5094 45.705 58.3358 45.8323 58.8474C46.0085 59.5065 46.0575 60.3525 45.8323 60.4312C45.5875 60.5198 45.1568 59.6934 44.9805 59.7721C44.7456 59.8803 45.5092 61.2084 45.0491 61.8184C44.5791 62.4382 42.8169 62.3398 41.8966 61.4249C41.0351 60.569 41.3778 59.477 41.2407 56.8699C41.1917 55.9845 41.0547 53.5743 40.3204 51.1935C39.4197 48.2913 38.4799 48.1438 37.9512 45.5761C37.5792 43.7659 37.4715 41.0409 38.4113 40.6769Z" fill="#FCFCFC"/>
<path fill-rule="evenodd" clip-rule="evenodd" d="M39.1056 40.9029C38.842 40.7697 38.6256 40.7381 38.459 40.8019C38.279 40.8717 38.128 41.064 38.0164 41.3855C37.9062 41.7032 37.8441 42.12 37.8224 42.5904C37.779 43.5299 37.8974 44.6522 38.0817 45.549M39.1056 40.9029C39.3667 41.0348 39.6521 41.2556 39.94 41.5292L39.1056 40.9029ZM39.94 41.5292C40.5151 42.0757 41.0788 42.8118 41.4516 43.3956L39.94 41.5292ZM41.6756 43.2505C41.2946 42.6538 40.7178 41.8997 40.1231 41.3346C39.8261 41.0524 39.5192 40.8121 39.2253 40.6636C38.934 40.5164 38.6329 40.4485 38.3637 40.5518L38.3637 40.5518L38.3634 40.5519C38.0736 40.6641 37.8856 40.949 37.7647 41.2973C37.6425 41.6495 37.5785 42.0953 37.5561 42.578C37.5115 43.5446 37.6329 44.6898 37.8206 45.6032L37.8207 45.6033C38.089 46.9067 38.4637 47.5995 38.8808 48.3263C38.9025 48.364 38.9242 48.4018 38.9461 48.4398C39.3412 49.1262 39.7708 49.8725 40.1931 51.2333C40.9221 53.5968 41.0587 55.9925 41.1076 56.8772C41.1417 57.5255 41.1459 58.0798 41.1466 58.5613C41.1466 58.628 41.1466 58.6934 41.1467 58.7575C41.1467 59.1549 41.1468 59.5036 41.1639 59.8116C41.2038 60.5317 41.338 61.0583 41.8029 61.5201C42.2898 62.0041 42.9917 62.2667 43.6285 62.3304C43.9479 62.3624 44.2571 62.3451 44.5209 62.2767C44.7828 62.2089 45.0128 62.0872 45.1551 61.8996L45.1552 61.8993C45.2956 61.7133 45.3361 61.4815 45.3327 61.2545C45.3292 61.0269 45.2812 60.7884 45.2286 60.5749C45.2047 60.4782 45.1808 60.3897 45.1589 60.3084C45.1302 60.2021 45.1049 60.1081 45.0872 60.0241C45.0826 60.0024 45.079 59.9828 45.0761 59.9652C45.1266 60.0149 45.1831 60.0805 45.2465 60.1542C45.2575 60.167 45.2686 60.18 45.28 60.1931C45.3592 60.2848 45.4486 60.386 45.5363 60.4582C45.5803 60.4944 45.6302 60.5287 45.6841 60.5499C45.7388 60.5713 45.8066 60.5826 45.8765 60.5576C45.9418 60.5346 45.9869 60.4872 46.0172 60.4386C46.0472 60.3902 46.0675 60.3332 46.0815 60.2749C46.1097 60.1581 46.1192 60.0114 46.116 59.8543C46.1097 59.5387 46.0516 59.1522 45.9613 58.8138C45.8304 58.2883 45.5026 57.453 44.6444 56.5981C44.1686 53.8251 43.8187 51.6276 43.6045 50.2384L43.6045 50.238C43.5688 50.0117 43.5346 49.7933 43.5015 49.5824C43.0106 46.4468 42.7756 44.9461 41.6756 43.2505ZM45.0697 59.8587C45.0697 59.8588 45.0696 59.8594 45.0692 59.8605C45.0695 59.8592 45.0696 59.8587 45.0697 59.8587ZM43.2425 49.6516C42.7463 46.4855 42.5202 45.0427 41.4521 43.3964L41.4516 43.3956L41.4516 43.3956M43.2425 49.6516C43.2742 49.8538 43.307 50.063 43.3412 50.2797L43.2425 49.6516ZM43.3412 50.2797C43.5567 51.6774 43.9092 53.8915 44.389 56.6861L44.3964 56.7288L44.4272 56.7591C45.2684 57.5852 45.5807 58.3883 45.703 58.8798L45.7029 58.8799L45.7036 58.8821C45.7892 59.2026 45.8437 59.5681 45.8495 59.8597C45.8525 60.0063 45.843 60.127 45.8225 60.2117C45.8123 60.254 45.8008 60.2812 45.7911 60.2967C45.7896 60.2991 45.7883 60.301 45.7872 60.3025C45.7855 60.302 45.7835 60.3013 45.7812 60.3004C45.7639 60.2936 45.7387 60.2785 45.7051 60.2509C45.6377 60.1955 45.5625 60.1116 45.4814 60.0176C45.4708 60.0054 45.4602 59.993 45.4494 59.9805C45.3814 59.9014 45.3098 59.8181 45.2447 59.7567C45.2071 59.7212 45.164 59.6856 45.1181 59.6621C45.0736 59.6394 45.0018 59.616 44.9264 59.6497L44.925 59.6504C44.825 59.6964 44.805 59.798 44.8018 59.8591C44.7983 59.9253 44.8103 60.0028 44.8264 60.0794C44.8449 60.1675 44.8742 60.2764 44.9051 60.3916C44.9269 60.4728 44.9496 60.5571 44.9699 60.6393C45.0212 60.8476 45.0632 61.0622 45.0662 61.2586C45.0691 61.4555 45.0327 61.6183 44.943 61.7372C44.8503 61.8595 44.6839 61.9579 44.4544 62.0174C44.2268 62.0763 43.9498 62.0934 43.6549 62.0639C43.0631 62.0047 42.4237 61.7605 41.9903 61.3297L41.9903 61.3296C41.5937 60.9356 41.4684 60.4882 41.43 59.7966C41.4134 59.4968 41.4133 59.1566 41.4132 58.7583C41.4132 58.6941 41.4132 58.6283 41.4131 58.561C41.4125 58.0779 41.4082 57.5181 41.3738 56.8629L41.3737 56.8625C41.3247 55.9763 41.1872 53.5517 40.4477 51.1539L40.4476 51.1537C40.0164 49.7642 39.5749 48.9972 39.1771 48.3061C39.1552 48.2681 39.1334 48.2302 39.1117 48.1925C38.7016 47.478 38.342 46.8132 38.0817 45.549" fill="#88ABC2"/>
<path opacity="0.15" d="M39.7042 43.2149C40.2427 43.0969 41.1825 45.5465 41.2413 45.6842C42.1028 47.9469 41.6916 48.9111 42.0734 52.2461C42.3867 54.9613 42.5629 56.5059 43.4343 58.4144C44.2762 60.2443 45.2552 61.3166 44.8832 61.8085C44.5112 62.3102 43.0524 61.8281 41.907 61.3658C41.7993 61.1198 41.6427 60.7361 41.5154 60.2639C41.1923 59.1129 41.2119 58.198 41.2119 57.7553C41.2119 57.5093 41.2021 54.6564 40.6441 52.1674C40.3406 50.8393 40.2035 51.036 39.8511 49.6587C39.0776 46.668 39.107 43.3428 39.7042 43.2149Z" fill="#88ABC2"/>
<path opacity="0.17" d="M41.0256 47.9764C41.1333 48.9995 41.2704 50.5244 41.3291 52.3837C41.4172 55.2465 41.2801 57.6273 41.2018 57.6273C41.1333 57.6273 41.2214 55.9155 40.8494 53.5741C40.6046 52.0197 40.2424 50.7605 39.9683 49.9243C40.1543 49.7374 40.3794 49.4816 40.585 49.1274C40.8396 48.6749 40.9669 48.2617 41.0256 47.9764Z" fill="#88ABC2"/>
<path d="M40.3506 82.8713C40.0961 83.3436 40.0569 83.8551 40.6443 88.3117C40.7128 88.8626 40.7814 89.3151 40.8205 89.6299C42.3184 89.866 44.4331 90.053 46.9394 89.807C48.4569 89.6595 50.2289 89.4922 50.3268 88.9118C50.4051 88.4396 49.3771 87.5935 44.6779 85.9801C44.4625 84.406 44.2373 82.832 44.0219 81.2579C41.2709 81.4449 40.5562 82.5073 40.3506 82.8713Z" fill="#88ABC2"/>
<path d="M34.4469 54.8236C35.3671 56.0828 36.679 57.893 38.2161 60.1065C41.858 65.3403 43.679 67.9571 44.3154 69.7083C46.1951 74.8928 45.7056 79.9298 45.5196 81.6416C45.4119 82.6253 45.2748 83.432 45.1671 83.983C44.4231 84.2683 43.3559 84.5831 42.0538 84.6913C40.8888 84.7897 39.8902 84.6815 39.1559 84.5536C38.9308 83.2156 38.7448 81.7104 38.6566 80.0773C38.5294 77.6474 38.6469 75.4732 38.872 73.6139C36.356 71.6758 34.7308 69.6787 33.742 68.2916C31.0986 64.5434 30.3937 61.2969 29.9728 59.2113C29.3756 56.3189 29.7867 55.5319 30.1686 55.1187C31.4413 53.7906 34.2021 54.7449 34.4469 54.8236Z" fill="#FCFCFC"/>
<path fill-rule="evenodd" clip-rule="evenodd" d="M30.2654 55.2107C30.0933 55.3972 29.908 55.6714 29.8357 56.2519C29.7625 56.8408 29.8059 57.7441 30.1032 59.1841L30.1033 59.1846C30.523 61.2639 31.2233 64.4885 33.8505 68.2139C34.8341 69.5937 36.4505 71.5799 38.9531 73.5076L39.0135 73.5541L39.0043 73.6301C38.78 75.4825 38.6629 77.6487 38.7897 80.0701C38.8754 81.6594 39.0543 83.1274 39.2716 84.4374C39.9885 84.5568 40.9404 84.6509 42.0426 84.5578L42.0428 84.5578C43.29 84.4542 44.3191 84.1587 45.0505 83.8841C45.1552 83.339 45.2845 82.5638 45.387 81.627C45.5726 79.9191 46.0588 74.9082 44.1901 69.7541C43.8776 68.894 43.2707 67.813 42.2811 66.2864C41.2926 64.7614 39.9284 62.8009 38.1068 60.1833L38.1068 60.1831C36.5846 57.9911 35.2834 56.1949 34.3648 54.9376C34.1636 54.8719 33.475 54.6513 32.6808 54.5769C31.8097 54.4954 30.8571 54.5941 30.2654 55.2107ZM34.4611 54.6874C34.4718 54.691 34.4806 54.6939 34.4875 54.696L34.5287 54.7093L34.5543 54.7443C35.4749 56.004 36.7874 57.8151 38.3254 60.0299L38.3268 60.0319C40.1465 62.6469 41.5132 64.6111 42.5045 66.1403C43.495 67.6683 44.1167 68.7713 44.4405 69.6623L44.4406 69.6624C46.3313 74.8774 45.8384 79.9405 45.652 81.6561L45.652 81.6562C45.5438 82.6443 45.4062 83.4547 45.2979 84.0088L45.2836 84.0816L45.2146 84.1081C44.4616 84.3968 43.3821 84.7153 42.065 84.8247C40.8855 84.9243 39.875 84.8147 39.1332 84.6855L39.0402 84.6693L39.0245 84.5759C38.7986 83.2336 38.612 81.7234 38.5235 80.0846L38.5235 80.0844C38.3975 77.6789 38.5105 75.523 38.7306 73.6736C36.2356 71.7399 34.6197 69.753 33.6336 68.3696L33.6332 68.369C30.974 64.5983 30.2644 61.3302 29.8422 59.2382C29.5423 57.786 29.4928 56.8497 29.5713 56.2187C29.6507 55.5803 29.8614 55.2543 30.0709 55.0276L30.0725 55.0258L30.0725 55.0258C30.7536 54.3152 31.8173 54.2271 32.7055 54.3103C33.5515 54.3895 34.2798 54.6281 34.4611 54.6874Z" fill="#88ABC2"/>
<path opacity="0.19" d="M34.7306 63.1267C35.739 63.9826 37.0509 65.2517 38.3236 66.993C38.676 67.4849 40.1348 69.5803 41.4173 72.9449C43.1795 77.608 43.3264 81.9564 43.2481 84.4158C42.8173 84.5732 42.2103 84.7405 41.4858 84.7995C40.5166 84.8684 39.7236 84.7011 39.2145 84.5437C38.9012 82.6253 38.6663 80.4118 38.6467 77.9523C38.6369 76.3586 38.7054 74.8731 38.8327 73.5155C38.5879 73.3777 33.8593 70.7019 33.918 66.2256C33.9278 64.9762 34.3194 63.9137 34.7306 63.1267Z" fill="#88ABC2"/>
<path opacity="0.15" d="M35.9937 70.6625C36.2091 70.3674 38.9014 71.1938 39.9685 73.2007C40.7713 74.7059 40.1252 75.8668 40.1545 78.0114C40.1741 79.615 40.5853 81.8974 42.3573 84.6618C41.3294 84.6421 40.3014 84.6224 39.2636 84.6028C38.9797 82.7729 38.7545 80.6873 38.6958 78.3951C38.6469 76.5849 38.7056 74.9125 38.8231 73.3876C38.4413 73.1909 37.9518 72.8859 37.4329 72.4334C36.8553 71.9218 35.8371 70.879 35.9937 70.6625Z" fill="#88ABC2"/>
<path d="M23.0511 82.0941C22.307 82.5761 22.1797 83.2451 21.5042 84.7208C21.0343 85.7439 20.3294 87.1114 19.2427 88.6657C19.8595 89.3642 20.8874 90.3382 22.3951 91.0563C24.4608 92.0401 27.3587 92.5123 27.8091 91.6564C28.2888 90.7317 25.7727 88.5378 25.0189 87.8885C25.2245 87.4262 25.5573 86.6883 25.9685 85.7931C27.0552 83.4517 27.2706 83.1073 27.0944 82.6843C26.6832 81.6809 24.4021 81.2283 23.0511 82.0941Z" fill="#88ABC2"/>
<path d="M26.1938 52.6002C25.6064 54.2235 25.0092 55.8467 24.4218 57.4601C23.4525 60.2737 23.8735 62.2216 24.1868 63.1562C24.5295 64.1892 25.1267 65.0746 26.3113 66.8356C27.2316 68.1932 28.0637 69.2852 28.6707 70.0427C27.4567 71.3118 26.0763 72.9547 24.7742 75.0207C23.0218 77.8146 21.984 80.4413 21.3477 82.4974C21.9253 82.9401 22.7966 83.5009 23.9421 83.9239C25.2246 84.3961 26.3602 84.5043 27.1337 84.5142C28.4945 83.4615 30.3546 81.8186 32.0875 79.4083C33.4483 77.5293 35.2791 75.001 35.8665 71.4594C36.8651 65.4288 33.605 60.5197 32.4399 58.7685C30.335 55.5909 27.8092 53.6627 26.1938 52.6002Z" fill="#FCFCFC"/>
<path fill-rule="evenodd" clip-rule="evenodd" d="M26.1257 52.3956L26.2665 52.4881C27.8905 53.5563 30.432 55.4962 32.5504 58.6941C33.715 60.4446 37.0056 65.3939 35.9976 71.4813L35.9976 71.4814C35.4049 75.0547 33.5582 77.6047 32.1979 79.483L32.1952 79.4867C30.4526 81.9105 28.5822 83.5624 27.2146 84.6203L27.1779 84.6487L27.1316 84.6481C26.3475 84.6381 25.1961 84.5284 23.8959 84.0496L23.8957 84.0496C22.7351 83.621 21.8522 83.0528 21.2665 82.6039L21.1924 82.5471L21.2201 82.4576C21.8591 80.3929 22.9012 77.7551 24.6611 74.9492L24.6613 74.949C25.9402 72.9198 27.2942 71.2972 28.4932 70.0349C27.8915 69.2798 27.0869 68.2181 26.2008 66.911L26.2005 66.9106L26.1722 66.8684C25.01 65.1409 24.407 64.2445 24.0601 63.1987C23.7392 62.2413 23.315 60.2626 24.2955 57.4163L24.2963 57.4141L24.2963 57.4141C24.524 56.7885 24.7532 56.1617 24.9826 55.5341C25.3452 54.5423 25.7085 53.5485 26.0682 52.5544L26.1257 52.3956ZM26.261 52.8054C25.92 53.7466 25.5759 54.688 25.2326 55.6272C25.0033 56.2544 24.7744 56.8805 24.547 57.505C23.5896 60.2851 24.0072 62.2017 24.3128 63.1135L24.3129 63.1139C24.6482 64.1247 25.2321 64.9926 26.4188 66.7568L26.4211 66.7602C27.3391 68.1144 28.1691 69.2035 28.7742 69.9587L28.8478 70.0505L28.7665 70.1355C27.5574 71.3994 26.183 73.0353 24.8866 75.0921C23.1671 77.8336 22.1385 80.4134 21.5025 82.4473C22.0714 82.8743 22.9055 83.3985 23.9876 83.7981C25.227 84.2545 26.3274 84.3661 27.0888 84.3796C28.4395 83.3311 30.2715 81.705 31.9791 79.3299L31.9794 79.3295C33.3405 77.4501 35.153 74.9446 35.7347 71.4373C36.7239 65.4636 33.4942 60.5947 32.3288 58.843L32.3287 58.8427C30.2973 55.7761 27.8709 53.8801 26.261 52.8054Z" fill="#88ABC2"/>
<path d="M30.3152 56.1418C31.0691 57.1945 31.8131 58.257 32.5278 59.3293C32.6159 59.2801 32.6942 59.2309 32.7824 59.1817C32.146 58.3258 31.5782 57.4109 31.0886 56.4566C31.0201 56.5255 30.9516 56.5944 30.8831 56.6632C31.2845 56.9387 31.5096 57.3519 31.7544 57.7552C32.0383 58.2275 32.332 58.6997 32.6159 59.1719C33.174 60.0868 33.732 61.0116 34.29 61.9265C34.3781 61.8773 34.4565 61.8281 34.5446 61.7789C33.6928 60.441 32.8411 59.103 31.9796 57.7651C31.8817 57.6077 31.6271 57.7552 31.725 57.9126C32.7823 59.6835 33.8495 61.4444 34.9068 63.2152C35.0047 63.3825 35.2593 63.2349 35.1614 63.0677C34.3879 61.7494 33.6243 60.4213 32.8509 59.103C32.7726 59.1621 32.6942 59.2211 32.6159 59.2801C33.7222 60.5098 33.918 62.3003 35.1222 63.4513C35.2593 63.5792 35.4649 63.3726 35.3278 63.2448C34.1236 62.1036 33.9278 60.3032 32.8215 59.0735C32.704 58.9456 32.5082 59.1129 32.5865 59.2506C33.36 60.5689 34.1236 61.897 34.897 63.2152C34.9851 63.1661 35.0635 63.1169 35.1516 63.0677C34.0942 61.2969 33.0271 59.5359 31.9698 57.7651C31.8817 57.8143 31.8033 57.8635 31.7152 57.9126C32.567 59.2506 33.4187 60.5885 34.2802 61.9265C34.3781 62.0839 34.6327 61.9363 34.5348 61.7789C33.9082 60.7459 33.2816 59.713 32.6551 58.6898C32.1949 57.9225 31.774 56.9289 31.0103 56.4075C30.8831 56.3189 30.746 56.4862 30.8047 56.614C31.2942 57.5683 31.8523 58.4734 32.4984 59.3391C32.6061 59.4867 32.8607 59.349 32.753 59.1916C32.0383 58.1094 31.304 57.0469 30.5404 56.0041C30.4621 55.8369 30.2075 55.9844 30.3152 56.1418Z" fill="#FCFCFC"/>
<path opacity="0.2" d="M30.9322 56.5747C30.4231 57.3125 29.7182 58.5324 29.4147 60.136C28.4846 64.9959 32.4007 67.1503 31.5294 71.4101C31.0692 73.6532 29.9042 73.4466 27.3 78.1097C25.9783 80.4806 25.1364 82.5662 24.6371 83.9829C24.0007 83.7861 23.3056 83.5304 22.5714 83.1959C22.1406 82.9991 21.7392 82.8024 21.377 82.5958C21.9546 80.7856 22.8259 78.6016 24.1378 76.2602C25.6259 73.6138 27.2608 71.5479 28.6413 70.023C28.2594 69.5311 27.6916 68.7834 27.0357 67.8488C25.2245 65.2713 24.3042 63.953 24.0007 62.438C23.6581 60.7656 23.942 59.3391 24.1378 58.375C24.4315 56.919 24.9308 55.7778 25.3322 55.0006C27.1923 55.522 29.0622 56.0533 30.9322 56.5747Z" fill="#88ABC2"/>
<path opacity="0.17" d="M28.6316 55.9746C27.5253 57.2437 26.0763 59.3293 26.1938 61.8478C26.37 65.7928 30.2469 67.298 29.6889 70.5346C29.5323 71.4299 28.2987 72.8662 25.8218 75.7093C24.4609 77.2735 23.3057 78.5229 22.5127 79.3592C23.1197 77.8638 24.0008 76.0733 25.2735 74.1845C26.3994 72.512 27.5546 71.1741 28.5826 70.1214C28.2791 69.6591 27.7407 68.8327 27.0651 67.8095C24.7057 64.2482 24.2456 63.6875 23.9812 62.4479C23.6679 60.9919 23.8735 59.7622 24.0302 58.8473C24.3141 57.1453 24.9113 55.8369 25.3616 55.0105C26.4483 55.3253 27.5448 55.65 28.6316 55.9746Z" fill="#88ABC2"/>
<path d="M33.6933 38.8567C32.3031 39.6831 29.6597 41.5031 27.6429 44.8479C25.0779 49.1077 25.0779 53.2691 25.166 54.8825C25.6457 55.0399 26.1353 55.1974 26.6346 55.3449C29.973 56.3484 33.2038 57.0272 36.2583 57.4601C36.5128 56.5845 36.787 55.6991 37.0807 54.7842C37.5212 53.4364 37.9814 52.1476 38.4513 50.9179C40.0765 50.0718 40.6443 48.9798 40.8303 48.5273C41.5842 46.7565 40.8695 44.907 40.096 42.9099C39.6653 41.7884 39.4401 41.2178 38.9016 40.6078C37.2177 38.6894 34.4373 38.8075 33.6933 38.8567Z" fill="#D0E0EB"/>
<path opacity="0.27" d="M36.9924 41.1883C34.3197 41.5424 32.8903 42.7623 32.3127 43.3329C29.0525 46.5696 30.1784 52.0296 30.4819 53.5053C30.756 54.8334 31.1672 55.8959 31.4903 56.614C29.4246 56.0533 27.3686 55.4827 25.3029 54.9219C25.1756 53.4167 25.0484 49.5505 27.2707 45.4284C29.3364 41.6113 32.3029 39.6536 33.6245 38.8862C33.8106 38.8961 33.9966 38.9157 34.1826 38.9256C34.4665 39.2601 34.8092 39.6142 35.2301 39.9782C35.8567 40.5291 36.4735 40.9128 36.9924 41.1883Z" fill="#88ABC2"/>
<path opacity="0.2" d="M28.4258 43.6577C28.1517 45.1038 27.9265 47.1993 28.2202 49.6784C28.5727 52.5904 29.5027 54.8433 30.2272 56.2599C28.5433 55.8271 26.8496 55.3942 25.1657 54.9712C25.0874 53.6136 25.1265 51.5771 25.7727 49.2357C26.4776 46.6779 27.6132 44.8087 28.4258 43.6577Z" fill="#88ABC2"/>
<path d="M111.192 76.1619C110.575 77.5491 110.693 78.8477 110.791 79.4576C112.719 80.3135 114.433 80.707 115.745 80.9038C116.175 80.9726 121.501 81.7302 122.02 80.2643C122.147 79.9003 121.942 79.5265 121.736 79.1625C120.591 77.1457 117.693 77.0277 117.301 77.0178C117.193 74.9224 115.852 73.368 114.482 73.2598C112.543 73.1122 111.329 75.857 111.192 76.1619Z" fill="#88ABC2"/>
<path d="M113.737 42.3197C115.01 44.1594 116.723 47.0222 117.967 50.8196C119.993 57.0076 119.66 62.202 119.435 65.1435C119.239 67.7604 118.711 71.4791 117.232 75.7684C116.831 76.0242 115.059 77.0866 112.817 76.6046C111.486 76.3193 110.585 75.611 110.154 75.2175C110.947 73.4663 111.907 70.8298 112.269 67.5439C112.67 63.963 112.181 61.1592 111.535 57.5585C110.066 49.4226 108.039 46.3335 109.792 44.061C110.634 42.9592 112.073 42.4673 113.737 42.3197Z" fill="#FCFCFC"/>
<path fill-rule="evenodd" clip-rule="evenodd" d="M113.803 42.1794L113.847 42.2432C115.124 44.0902 116.845 46.9646 118.093 50.7777C120.128 56.9914 119.794 62.2074 119.568 65.1535C119.372 67.779 118.841 71.5095 117.358 75.8122L117.343 75.8564L117.304 75.8814C116.895 76.1419 115.084 77.229 112.789 76.7355C111.426 76.4434 110.504 75.7184 110.064 75.3165L109.993 75.2508L110.033 75.162C110.822 73.4198 111.776 70.7972 112.136 67.5292L112.136 67.5289C112.535 63.9697 112.05 61.1836 111.403 57.5823C110.9 54.792 110.332 52.6034 109.872 50.8302C109.662 50.0195 109.474 49.2956 109.325 48.6408C108.854 46.5674 108.769 45.1689 109.686 43.9792C110.562 42.8328 112.048 42.335 113.726 42.1863L113.803 42.1794ZM113.672 42.4602C112.055 42.6147 110.693 43.1018 109.898 44.1425L109.897 44.143L109.897 44.143C109.062 45.2257 109.114 46.5081 109.585 48.5812C109.731 49.2239 109.917 49.9412 110.126 50.7475C110.587 52.5248 111.16 54.7349 111.666 57.5346L111.666 57.5347C112.312 61.1346 112.805 63.9561 112.401 67.5588C112.043 70.8067 111.105 73.4233 110.316 75.1831C110.761 75.5768 111.615 76.2101 112.845 76.4736L112.845 76.4736C114.968 76.93 116.662 75.9675 117.122 75.68C118.584 71.4229 119.108 67.7326 119.302 65.1334L119.302 65.1332C119.527 62.1963 119.858 57.0236 117.84 50.8614L117.84 50.8614C116.616 47.1235 114.935 44.2947 113.672 42.4602Z" fill="#88ABC2"/>
<path opacity="0.16" d="M114.432 46.8156C115.098 50.0719 115.627 53.8103 115.832 57.9618C116.185 65.3304 115.392 71.6856 114.364 76.6341C113.923 76.6931 112.856 76.762 111.72 76.1914C111.045 75.847 110.585 75.3945 110.32 75.0797C111.544 72.2464 111.985 69.8361 112.161 68.2129C112.435 65.6649 112.21 63.6186 111.789 59.8015C111.544 57.5683 111.26 55.7385 111.055 54.4891C112.18 51.9411 113.306 49.3734 114.432 46.8156Z" fill="#88ABC2"/>
<path opacity="0.22" d="M112.289 51.7148C113.131 53.9185 114.394 58.1192 113.963 63.4612C113.552 68.6064 111.75 72.4333 110.605 74.4599C112.524 68.8917 112.622 65.4779 112.328 63.3628C112.25 62.8217 111.917 60.6771 111.535 57.5191C111.378 56.2107 111.261 55.1384 111.192 54.4497C111.564 53.5348 111.927 52.6199 112.289 51.7148Z" fill="#88ABC2"/>
<path d="M97.0255 71.9021C96.213 72.3054 95.9682 72.9646 94.8521 75.0994C94.1081 76.516 93.4815 77.6474 93.0703 78.3754C94.3235 79.2805 96.3109 80.4708 98.964 81.1005C100.53 81.4743 103.791 81.9957 104.163 81.1005C104.574 80.1068 101.226 77.8146 99.8158 76.8899C101.265 75.4732 101.333 73.4171 100.354 72.3645C99.522 71.4692 98.0144 71.4102 97.0255 71.9021Z" fill="#88ABC2"/>
<path d="M111.221 42.1131C114.452 44.9759 110.673 54.5186 107.569 62.1528C106.228 65.4485 104.133 70.2198 101.049 75.7979C100.511 75.8766 98.8954 76.034 97.1723 75.0994C95.4395 74.1648 94.6856 72.699 94.4604 72.2169C95.3611 70.6527 96.4479 68.5474 97.4856 65.9797C97.8968 64.9664 99.6688 60.441 100.667 54.0464C101.059 51.5181 101.411 48.183 101.363 44.2184C101.94 43.6281 105.161 40.4505 108.969 41.1785C109.547 41.2867 110.497 41.4736 111.221 42.1131Z" fill="#FCFCFC"/>
<path fill-rule="evenodd" clip-rule="evenodd" d="M101.496 44.2728C101.541 48.2218 101.19 51.5449 100.799 54.067L100.799 54.0672C99.7982 60.4756 98.0223 65.0115 97.6089 66.0303C96.582 68.5712 95.5071 70.6606 94.6108 72.2229C94.8636 72.7489 95.6092 74.1045 97.2352 74.9814L97.2355 74.9816C98.8575 75.8613 100.382 75.7525 100.965 75.6745C104.028 70.1274 106.111 65.3828 107.446 62.1021C108.998 58.2833 110.715 53.998 111.641 50.3109C112.104 48.4672 112.368 46.7815 112.317 45.3834C112.266 43.9839 111.901 42.8945 111.133 42.2137C110.439 41.6014 109.525 41.4188 108.945 41.3102L108.944 41.3101C107.083 40.9543 105.359 41.5517 104.02 42.3204C102.738 43.0568 101.822 43.9435 101.496 44.2728ZM108.994 41.0469C107.047 40.6748 105.256 41.3022 103.888 42.0879C102.519 42.874 101.56 43.826 101.267 44.1245L101.228 44.1643L101.229 44.2201C101.278 48.1758 100.926 51.5032 100.536 54.0258C99.5391 60.4066 97.771 64.9214 97.3621 65.9292L97.362 65.9293C96.3269 68.4905 95.243 70.5903 94.345 72.1499L94.3101 72.2105L94.3397 72.2738C94.5696 72.766 95.339 74.2627 97.109 75.2174C98.8685 76.1716 100.518 76.0109 101.068 75.9304L101.134 75.9209L101.166 75.8629C104.253 70.2791 106.35 65.5027 107.693 62.2035L107.693 62.2035C109.244 58.3882 110.968 54.0851 111.9 50.3765C112.366 48.5224 112.635 46.8085 112.583 45.3736C112.531 43.9402 112.156 42.7633 111.309 42.0127L111.309 42.0125C110.554 41.346 109.57 41.1548 108.994 41.0469Z" fill="#88ABC2"/>
<path d="M112.269 46.0482C112.259 46.3925 112.25 46.7369 112.25 47.0812H112.543C112.494 46.5303 112.524 46.0089 112.631 45.4678C112.534 45.458 112.436 45.4383 112.348 45.4284C112.406 46.5893 112.142 47.8092 111.936 48.9504C111.731 50.1014 111.457 51.2426 111.134 52.3641C111.231 52.3936 111.32 52.4133 111.417 52.4428C111.956 50.3966 112.406 48.3404 112.778 46.2548C112.808 46.0679 112.524 45.9892 112.494 46.1761C112.122 48.2519 111.672 50.3178 111.134 52.3641C111.085 52.551 111.369 52.6297 111.417 52.4428C111.76 51.2623 112.034 50.0522 112.25 48.8422C112.445 47.7403 112.7 46.55 112.641 45.4284C112.631 45.271 112.387 45.2218 112.357 45.3891C112.24 45.9498 112.211 46.5106 112.259 47.0812C112.279 47.2681 112.553 47.278 112.553 47.0812C112.563 46.7369 112.573 46.3925 112.573 46.0482C112.573 45.8613 112.279 45.8613 112.269 46.0482Z" fill="#FCFCFC"/>
<path d="M111.026 51.7444C111.035 52.5019 111.055 53.2595 111.065 54.017C111.065 54.2039 111.359 54.2039 111.359 54.017C111.349 53.2595 111.329 52.5019 111.319 51.7444C111.31 51.5477 111.016 51.5477 111.026 51.7444Z" fill="#FCFCFC"/>
<path opacity="0.19" d="M106.953 45.1727C106.982 47.1501 106.875 49.8457 106.297 52.9741C105.68 56.2895 104.74 58.8572 103.37 62.7234C102.254 65.8912 101.715 66.8357 100.58 70.3478C99.8846 72.4826 99.3951 74.2731 99.0818 75.4733C98.5433 75.4044 97.4272 75.1782 96.3112 74.3419C95.2734 73.5648 94.7447 72.64 94.5098 72.1579C96.3112 68.9803 97.4566 66.1962 98.1811 64.1696C100.423 57.9029 100.952 52.4527 101.255 49.098C101.382 47.7011 101.451 46.5402 101.48 45.7827C103.301 45.5761 105.132 45.3793 106.953 45.1727Z" fill="#88ABC2"/>
<path opacity="0.24" d="M105.945 45.458C105.181 48.8324 104.3 51.4886 103.605 53.348C103.037 54.8827 102.166 56.9486 100.433 61.0707C99.7968 62.5955 99.4738 63.353 99.3171 63.6974C98.3577 65.8617 96.8206 68.9016 94.3633 72.4826C96.5661 68.5081 99.0919 62.8415 100.433 55.6992C101.109 52.0986 101.353 48.8127 101.383 45.9696C101.373 45.9597 101.373 45.9597 105.945 45.458Z" fill="#88ABC2"/>
<path d="M109.038 21.2667C109.195 21.6504 109.469 22.2111 109.968 22.7817C110.33 23.1949 110.79 23.7262 111.476 23.9328C112.807 24.3459 114.1 23.2835 114.276 23.1359C115.568 23.9032 116.86 24.6706 118.143 25.4379C118.26 27.0415 118.27 29.4616 117.644 32.2851C117.046 34.9708 116.469 35.2955 115.999 37.9025C115.284 41.818 115.813 45.3104 115.637 45.3202C115.607 45.3202 115.568 45.2415 115.49 44.8185C110.448 45.2022 105.406 45.5859 100.364 45.9695C100.217 42.9296 100.237 40.3718 100.295 38.4829C100.374 35.5316 100.609 31.9604 101.588 27.8187C102.283 24.8575 102.831 23.8541 103.663 23.067C105.465 21.3454 107.932 21.2372 109.038 21.2667Z" fill="#88ABC2"/>
<path opacity="0.3" d="M114.873 23.4901C114.707 25.2904 114.393 27.9663 113.796 31.1734C113.62 32.1375 113.121 34.7937 112.719 36.0923C112.23 37.6861 110.321 42.241 100.981 45.94C103.83 45.6055 106.767 45.3104 109.773 45.0644C111.652 44.907 113.512 44.7693 115.343 44.6611C115.989 42.3492 116.587 39.7323 117.017 36.84C117.673 32.4622 117.8 28.5074 117.693 25.1723C116.753 24.6116 115.813 24.0508 114.873 23.4901Z" fill="#49708A"/>
<path d="M110.879 14.8033C110.477 16.5741 110.262 18.3449 109.048 20.6175C108.754 21.1684 108.47 21.6111 108.284 21.8866C108.695 22.3686 110.154 23.9328 112.553 24.287C113.923 24.4838 115.049 24.2083 115.686 24.0017C115.676 23.3721 115.695 22.6638 115.774 21.8964C115.891 20.7454 116.116 19.7419 116.361 18.9057C117.546 18.7483 118.721 18.6007 119.905 18.4433C120.14 17.9219 120.365 17.4005 120.6 16.8791C120.923 16.8693 121.246 16.8594 121.569 16.8397C121.325 16.1216 120.953 15.0001 120.532 13.5933C119.729 10.9567 119.748 10.5829 119.318 9.99261C118.133 8.3792 115.47 7.33639 113.728 8.21196C112.239 8.9498 111.769 10.8682 110.879 14.8033Z" fill="#FCFCFC"/>
<path fill-rule="evenodd" clip-rule="evenodd" d="M116.775 8.04215C117.828 8.40249 118.814 9.08118 119.425 9.91311L119.425 9.91342C119.653 10.226 119.761 10.4833 119.913 10.9869C119.966 11.1658 120.026 11.3779 120.099 11.6358C120.128 11.738 120.159 11.8473 120.192 11.9647C120.31 12.3791 120.459 12.896 120.659 13.5541L120.659 13.5547C121.08 14.9595 121.451 16.0793 121.696 16.7964L121.752 16.9628L121.577 16.9734C121.28 16.9916 120.983 17.0014 120.687 17.0104C120.582 17.2452 120.478 17.4801 120.374 17.7155L120.374 17.7161C120.259 17.9765 120.144 18.2375 120.026 18.4986L119.996 18.5663L119.923 18.5761C119.33 18.6548 118.74 18.7311 118.15 18.8073L118.15 18.8073C117.589 18.8799 117.028 18.9524 116.465 19.027C116.231 19.8397 116.019 20.8066 115.906 21.9101C115.829 22.6714 115.809 23.3744 115.819 23.9996L115.82 24.0987L115.726 24.1292C115.079 24.3392 113.932 24.6203 112.534 24.4196L112.533 24.4195C110.087 24.0583 108.601 22.4641 108.183 21.9737L108.117 21.896L108.174 21.8114C108.358 21.5386 108.639 21.1 108.93 20.5543L108.93 20.5542C109.925 18.6913 110.242 17.174 110.55 15.6972C110.615 15.3885 110.679 15.0816 110.749 14.7736C111.193 12.8096 111.536 11.335 111.955 10.2598C112.376 9.18124 112.882 8.48193 113.668 8.09203C114.582 7.63303 115.723 7.68226 116.775 8.04215ZM116.689 8.2957C115.678 7.94977 114.616 7.91535 113.787 8.33175L113.786 8.33207C113.085 8.68004 112.612 9.3088 112.203 10.3575C111.793 11.4098 111.455 12.862 111.009 14.833L111.008 14.8331C110.94 15.1351 110.877 15.4382 110.813 15.7446C110.505 17.224 110.18 18.7814 109.165 20.6808C108.898 21.1829 108.638 21.5959 108.452 21.8761C108.931 22.42 110.336 23.8242 112.572 24.1545C113.85 24.338 114.912 24.1023 115.551 23.904C115.545 23.2952 115.566 22.6158 115.641 21.8828C115.76 20.7223 115.987 19.7107 116.233 18.8679L116.258 18.7844L116.344 18.7729C116.936 18.6942 117.526 18.6179 118.116 18.5417C118.682 18.4686 119.247 18.3955 119.814 18.3203C119.921 18.0827 120.026 17.8451 120.131 17.6069C120.246 17.3463 120.361 17.0851 120.479 16.8239L120.513 16.7478L120.596 16.7453C120.861 16.7372 121.124 16.7292 121.386 16.7158C121.142 15.9951 120.794 14.9359 120.404 13.6321C120.203 12.9721 120.054 12.4536 119.936 12.0381C119.902 11.9192 119.871 11.809 119.842 11.7064C119.77 11.4496 119.711 11.2409 119.658 11.0643C119.51 10.5744 119.413 10.3497 119.21 10.0721C118.637 9.29063 117.699 8.64123 116.689 8.2957Z" fill="#88ABC2"/>
<path d="M121.54 16.7119C120.962 16.7217 120.385 16.6824 119.807 16.5938C119.621 16.5643 119.543 16.8496 119.729 16.8791C120.326 16.9677 120.933 17.0168 121.54 17.007C121.736 17.007 121.736 16.7119 121.54 16.7119Z" fill="#88ABC2"/>
<path d="M121.942 12.0288C121.433 11.7435 120.806 11.9108 120.473 12.383C120.366 12.5404 120.62 12.688 120.728 12.5306C120.973 12.1862 121.433 12.0879 121.795 12.2846C121.961 12.3732 122.108 12.1174 121.942 12.0288Z" fill="#88ABC2"/>
<path d="M121.678 13.8589C121.736 13.6326 121.717 13.3965 121.609 13.18C121.531 13.0226 121.354 12.8554 121.159 12.9243C120.953 13.003 120.973 13.2784 121.002 13.4555C121.041 13.6719 121.159 13.8589 121.315 14.0064C121.403 14.0851 121.57 14.0359 121.57 13.8982C121.57 13.6523 121.511 13.4161 121.403 13.1899C121.325 13.0226 121.071 13.1702 121.149 13.3374C121.237 13.5145 121.276 13.7014 121.276 13.8982C121.364 13.8588 121.443 13.8293 121.531 13.79C121.374 13.6523 121.276 13.4555 121.286 13.2391C121.296 13.2194 121.286 13.1997 121.266 13.1997C121.286 13.2096 121.306 13.2292 121.315 13.2489C121.354 13.2981 121.374 13.3473 121.394 13.4063C121.433 13.5244 121.433 13.6424 121.403 13.7703C121.345 13.9671 121.629 14.0458 121.678 13.8589Z" fill="#88ABC2"/>
<path d="M118.985 12.4323C118.398 12.2454 117.771 12.4815 117.428 12.993C117.321 13.1505 117.575 13.298 117.683 13.1406C117.957 12.7373 118.447 12.57 118.907 12.7176C119.083 12.7668 119.161 12.4913 118.985 12.4323Z" fill="#88ABC2"/>
<path d="M119.142 14.1245C119.161 13.849 119.053 13.426 118.769 13.3079C118.397 13.1604 118.397 13.6818 118.446 13.908C118.495 14.1343 118.672 14.5377 118.975 14.3704C119.093 14.3016 119.112 14.1737 119.073 14.0458C119.004 13.8589 118.897 13.6719 118.799 13.4949C118.721 13.5539 118.642 13.6129 118.564 13.6719C118.613 13.7113 118.632 13.7506 118.652 13.8097C118.701 13.9966 118.985 13.9179 118.936 13.731C118.907 13.6227 118.858 13.5342 118.769 13.4555C118.642 13.3374 118.466 13.485 118.535 13.6326C118.574 13.7015 118.603 13.7802 118.642 13.849C118.672 13.908 118.701 14.0261 118.75 14.0655C118.76 14.1343 118.789 14.1343 118.809 14.0753C118.789 14.0556 118.779 14.0261 118.769 13.9966C118.74 13.9376 118.721 13.8687 118.711 13.7998C118.691 13.731 118.701 13.6621 118.691 13.6031C118.691 13.5539 118.691 13.5539 118.691 13.5932C118.721 13.6227 118.74 13.6523 118.76 13.6818C118.838 13.8097 118.858 13.9474 118.848 14.095C118.828 14.3212 119.122 14.3212 119.142 14.1245Z" fill="#88ABC2"/>
<path d="M119.749 10.6517C119.661 10.1106 119.455 9.23508 118.877 8.32016C118.672 7.99551 118.241 7.3167 117.536 6.85432C116.205 5.97875 114.159 6.04762 112.67 7.11994C111.212 8.17259 110.487 10.0516 110.81 11.9306C113.787 11.5076 116.773 11.0846 119.749 10.6517Z" fill="#49708A"/>
<path d="M124.624 9.68753C120.033 10.268 115.451 10.8484 110.859 11.4288C110.301 11.4977 110.301 12.3831 110.859 12.3142C115.451 11.7338 120.033 11.1534 124.624 10.5729C125.182 10.5041 125.192 9.61867 124.624 9.68753Z" fill="#88ABC2"/>
<path d="M113.787 11.8126C114.599 12.1077 115.069 12.6684 115.608 13.3374C116.763 14.7442 116.42 15.2656 117.233 16.1412C118.525 17.5382 119.837 16.7118 120.982 18.0793C121.961 19.2401 121.834 20.8043 121.795 21.1683C121.756 21.5127 121.58 22.9096 120.444 23.8737C119.455 24.7001 118.124 24.8969 118.045 24.71C118.016 24.6411 118.124 24.4739 118.858 23.982C118.643 24.1295 118.31 24.3165 117.879 24.3952C117.38 24.4837 116.9 24.3952 116.9 24.3263C116.9 24.2673 117.164 24.2673 117.37 24.0508C117.497 23.9229 117.546 23.7655 117.575 23.6376C117.174 23.9033 116.675 24.1295 116.185 23.982C114.873 23.5786 114.638 20.6568 114.56 19.6828C114.305 16.5446 115.206 14.8229 114.119 13.7211C114.031 13.6326 113.591 13.18 113.101 13.2686C112.485 13.3866 112.024 14.3409 112.22 14.9705C112.396 15.5116 113.003 15.669 112.964 15.7674C112.905 15.8953 111.868 15.6985 111.006 15C110.693 14.7442 110.429 14.5376 110.301 14.1638C110.066 13.5145 110.34 12.7668 110.703 12.3241C111.466 11.419 112.905 11.4879 113.787 11.8126Z" fill="#88ABC2" stroke="#88ABC2" stroke-width="0.571692" stroke-miterlimit="10"/>
<path opacity="0.22" d="M112.573 15.8658C112.768 15.8854 113.043 15.8953 113.062 15.8264C113.072 15.7969 113.003 15.7477 113.003 15.7477C113.003 15.7379 113.238 16.0429 113.522 16.0822C113.659 16.1019 113.787 16.0527 113.855 16.0133C113.336 17.0561 112.788 18.3843 112.367 19.9682C111.966 21.4537 111.78 22.7916 111.692 23.9033C111.231 23.7951 110.566 23.5885 109.841 23.1359C109.107 22.6834 108.617 22.162 108.324 21.7882C109.009 20.7749 109.401 19.8894 109.636 19.2795C109.802 18.8368 109.861 18.5515 110.252 17.2627C110.536 16.3183 110.761 15.5411 110.918 15.0197C110.996 15.0886 111.124 15.1968 111.29 15.3148C111.506 15.4821 111.966 15.7969 112.573 15.8658Z" fill="#88ABC2"/>
<path d="M115.862 6.32301C114.667 6.55912 113.776 7.51339 113.639 8.65458C113.483 10.0024 114.462 10.9271 114.559 11.0058C113.287 11.1632 112.024 11.3206 110.751 11.478C110.732 11.1829 110.722 10.7796 110.8 10.3073C111.045 8.80215 111.926 7.86755 112.102 7.67079C112.396 7.36582 113.443 6.3722 114.99 6.28366C115.352 6.25414 115.656 6.28366 115.862 6.32301Z" fill="#49708A"/>
<path d="M117.849 25.3396C118.633 25.2215 119.435 26.589 119.808 27.2186C121.961 30.898 121.061 35.1479 120.787 36.3875C120.571 37.3614 120.17 39.083 118.917 40.9818C117.722 42.8116 116.312 43.9429 115.412 44.5627C113.904 45.1432 111.163 45.94 107.863 45.3989C106.718 45.212 105.719 44.8972 104.887 44.5627C103.477 44.6513 102.068 44.73 100.658 44.8185C100.433 44.7792 100.119 44.7201 99.7474 44.5824C99.2971 44.4152 98.8663 44.2479 98.8663 44.0905C98.8663 43.9134 99.3558 43.638 101.745 43.2641C101.627 43.2838 100.061 43.5888 99.0132 42.4869C98.0341 41.4638 97.9754 39.7127 98.7195 39.024C99.346 38.4436 100.364 38.6994 102.224 39.2011C104.065 39.693 105.543 40.362 106.62 40.9326C107.031 41.1195 110.233 42.5066 113.16 40.8145C115.392 39.5258 116.136 37.2139 116.312 36.5744C117.017 34.0362 115.735 33.141 116.195 29.4715C116.254 28.8419 116.675 25.5068 117.849 25.3396Z" fill="#FCFCFC"/>
<path fill-rule="evenodd" clip-rule="evenodd" d="M118.362 25.6081C118.187 25.4967 118.022 25.449 117.869 25.4721L117.868 25.4722L117.868 25.4722C117.636 25.5053 117.418 25.6998 117.218 26.0359C117.021 26.3671 116.86 26.8062 116.732 27.2682C116.476 28.1908 116.357 29.1732 116.328 29.484L116.327 29.4883L116.327 29.4883C116.102 31.284 116.298 32.4047 116.471 33.3929L116.477 33.424C116.652 34.4272 116.802 35.3108 116.441 36.6103C116.262 37.2582 115.506 39.6145 113.226 40.9306C111.73 41.7958 110.165 41.8721 108.929 41.711C107.693 41.55 106.777 41.1508 106.565 41.0546L106.561 41.053L106.558 41.0511C105.488 40.4839 104.019 39.8193 102.19 39.3306L102.19 39.3305C101.256 39.0786 100.548 38.8929 99.9966 38.8401C99.4484 38.7876 99.0829 38.8694 98.8097 39.1225L98.8097 39.1226C98.4785 39.4291 98.3105 39.9917 98.3531 40.621C98.3953 41.246 98.6444 41.9084 99.1092 42.3942L99.1095 42.3945C99.6046 42.9153 100.224 43.1061 100.742 43.163C101.114 43.2039 101.429 43.175 101.597 43.1519C101.639 43.1452 101.681 43.1386 101.724 43.1318L101.766 43.3963C101.764 43.3968 101.76 43.3974 101.755 43.3982C101.733 43.4021 101.692 43.4092 101.635 43.4171C100.52 43.595 99.8462 43.7492 99.4509 43.8785C99.2447 43.9459 99.1226 44.0041 99.0547 44.0502C99.0292 44.0675 99.0149 44.0807 99.007 44.0893C99.0114 44.0942 99.0178 44.1004 99.0268 44.1082C99.0621 44.1383 99.1189 44.1735 99.1975 44.213C99.3538 44.2915 99.5669 44.3727 99.7936 44.4568C100.146 44.5872 100.444 44.645 100.665 44.6839C101.365 44.64 102.065 44.5985 102.765 44.557L102.766 44.5569C103.471 44.5151 104.175 44.4733 104.879 44.4291L104.909 44.4272L104.937 44.4384C105.762 44.7699 106.751 45.0817 107.885 45.2668L107.885 45.2668C111.141 45.8009 113.85 45.0188 115.349 44.4433C116.242 43.8278 117.629 42.7102 118.805 40.9083L118.805 40.9078C120.045 39.0299 120.442 37.3277 120.656 36.3585C120.931 35.1185 121.818 30.9167 119.693 27.2867C119.693 27.2867 119.693 27.2866 119.693 27.2865L119.688 27.2786C119.501 26.962 119.215 26.4779 118.881 26.0858C118.713 25.888 118.538 25.7195 118.362 25.6081ZM98.9978 44.1017C98.9978 44.1017 98.9979 44.1015 98.9981 44.1011L98.9978 44.1017ZM100.365 43.373C99.8864 43.2699 99.3584 43.0441 98.9167 42.5795C98.4027 42.0421 98.133 41.3175 98.0871 40.6392C98.0416 39.965 98.2162 39.3077 98.6291 38.9256C98.9824 38.5983 99.4394 38.5177 100.022 38.5735C100.601 38.6289 101.332 38.8219 102.259 39.0718C104.109 39.5663 105.595 40.2386 106.679 40.8122C106.885 40.9059 107.771 41.2901 108.964 41.4454C110.163 41.6016 111.663 41.5254 113.093 40.6985L113.094 40.6984C115.278 39.4371 116.01 37.17 116.184 36.5387L116.184 36.5384C116.528 35.2999 116.389 34.4667 116.214 33.4704L116.209 33.4393C116.034 32.4432 115.833 31.2915 116.062 29.4569C116.092 29.1358 116.213 28.1382 116.475 27.1961C116.606 26.7248 116.775 26.2594 116.989 25.8986C117.2 25.5429 117.475 25.2579 117.83 25.2071C118.068 25.1714 118.298 25.2503 118.505 25.3817C118.712 25.5131 118.907 25.7037 119.084 25.9117C119.432 26.3215 119.728 26.8219 119.914 27.1362L119.922 27.1503L119.922 27.1507C122.105 30.8794 121.191 35.1774 120.917 36.4166C120.7 37.3952 120.295 39.1361 119.028 41.0555C117.821 42.9044 116.397 44.0474 115.487 44.6733L115.474 44.6822L115.459 44.6878C113.94 45.2727 111.173 46.0775 107.842 45.5312C106.698 45.3445 105.7 45.0316 104.866 44.6983C104.171 44.7419 103.476 44.7831 102.782 44.8243L102.78 44.8243C102.075 44.8662 101.371 44.908 100.666 44.9522L100.65 44.9532L100.635 44.9505C100.407 44.9107 100.085 44.8501 99.7013 44.7081L99.7012 44.7081C99.4774 44.625 99.25 44.5389 99.0783 44.4526C98.9929 44.4097 98.9139 44.3631 98.8544 44.3124C98.7999 44.266 98.733 44.1917 98.733 44.0905C98.733 43.978 98.811 43.8926 98.9054 43.8284C99.0039 43.7614 99.1536 43.6941 99.3683 43.6238C99.6033 43.5469 99.9263 43.4634 100.365 43.373Z" fill="#88ABC2"/>
<path d="M98.3475 41.2178C99.4832 41.3064 100.57 41.5818 101.608 42.054C101.774 42.1327 101.931 41.877 101.754 41.7982C100.668 41.2965 99.5321 41.0014 98.3475 40.9128C98.1615 40.9128 98.1615 41.208 98.3475 41.2178Z" fill="#88ABC2"/>
<path d="M98.2789 40.0176C99.581 39.9783 100.687 40.7751 101.901 41.149C102.078 41.208 102.156 40.9227 101.98 40.8637C100.746 40.48 99.6202 39.6831 98.2789 39.7225C98.0929 39.7323 98.0831 40.0274 98.2789 40.0176Z" fill="#88ABC2"/>
<path d="M99.5321 38.9749C100.599 39.0635 101.539 39.575 102.459 40.0964C102.626 40.185 102.773 39.939 102.606 39.8406C101.637 39.2996 100.658 38.7782 99.5321 38.6798C99.3363 38.6601 99.3363 38.9552 99.5321 38.9749Z" fill="#88ABC2"/>
<path opacity="0.18" d="M116.655 27.1497C116.077 29.4812 117.614 31.0553 118.133 33.7213C118.221 34.1936 118.916 38.0205 116.88 40.7357C114.609 43.7658 110.105 43.874 109.224 43.9035C106.923 43.9625 106.052 43.2837 102.449 43.4706C102.107 43.4903 98.9738 43.6674 98.9444 44.1101C98.9346 44.3462 99.806 44.6118 100.462 44.7004C101.323 44.8184 101.774 44.6217 102.87 44.5331C103.34 44.4938 104.016 44.4643 104.848 44.5331C105.846 44.9463 107.139 45.3497 108.686 45.5071C109.107 45.5464 110.419 45.6645 112.102 45.4185C112.102 45.4185 113.512 45.2218 114.628 44.8283C117.399 43.8642 120.14 39.8011 120.914 35.3741C121.785 30.3863 119.846 26.6282 118.76 25.792C118.613 25.674 118.192 25.3493 117.751 25.4575C117.037 25.615 116.743 26.7857 116.655 27.1497Z" fill="#88ABC2"/>
<path opacity="0.17" d="M120.786 30.111C120.63 30.111 120.63 31.99 120.199 34.3511C119.935 35.7874 119.396 38.7092 118.094 40.7457C115.774 44.3758 111.035 45.1924 109.234 45.4088C110.781 45.6252 113.16 45.6744 115.48 44.4349C120.512 41.7393 121.002 35.2365 121.09 34.0559C121.227 32.0687 120.943 30.111 120.786 30.111Z" fill="#88ABC2"/>
<path d="M36.2485 67.3373C40.3017 63.717 44.3744 60.1164 48.4667 56.5452C56.1813 49.8063 63.9645 43.1559 71.826 36.5842C71.2093 34.7446 70.4163 31.5571 70.8862 27.681C71.033 26.4513 72.2862 17.3906 80.5491 12.7078C81.2344 12.3143 90.7211 7.15924 99.6106 12.8455C105.475 16.5937 108.51 23.431 107.795 30.1109C106.738 40.0373 97.9658 44.4348 97.4567 44.6808C91.1323 47.7108 83.5253 46.8156 77.8568 42.3886C69.3393 49.4325 60.8415 56.4862 52.3534 63.5596C48.6331 66.6585 44.9226 69.7575 41.2122 72.8662C40.4387 72.4924 39.1562 71.7447 38.001 70.3772C37.0317 69.236 36.5227 68.0949 36.2485 67.3373Z" fill="#88ABC2"/>
<path d="M89.536 43.4116C98.1115 43.4116 105.063 36.7167 105.063 28.4581C105.063 20.1995 98.1115 13.5046 89.536 13.5046C80.9606 13.5046 74.0088 20.1995 74.0088 28.4581C74.0088 36.7167 80.9606 43.4116 89.536 43.4116Z" fill="#CFFF55" stroke="#88ABC2" stroke-width="0.571692" stroke-miterlimit="10"/>
<path d="M90.7994 14.3311C87.9602 20.3715 84.9742 26.3529 81.8511 32.2556C80.97 33.9182 80.0791 35.5808 79.1784 37.2336C79.0903 37.4008 79.3449 37.5484 79.433 37.3811C82.6344 31.5178 85.6987 25.5856 88.6162 19.5746C89.4385 17.8825 90.2511 16.1806 91.0637 14.4688C91.142 14.3114 90.8875 14.1638 90.7994 14.3311Z" fill="#D0E0EB"/>
<path d="M95.5864 15.7969C92.4732 20.7355 89.5165 25.7626 86.7067 30.8783C86.6186 31.0456 86.8732 31.1931 86.9613 31.0259C89.7711 25.9102 92.7277 20.8831 95.841 15.9445C95.9389 15.7871 95.6843 15.6395 95.5864 15.7969Z" fill="#D0E0EB"/>
<path d="M86.1877 32.6098C84.8954 35.1381 83.515 37.6271 82.0367 40.057C81.9388 40.2243 82.1933 40.3718 82.2912 40.2046C83.7597 37.7747 85.1499 35.2857 86.4422 32.7574C86.5304 32.5901 86.2758 32.4327 86.1877 32.6098Z" fill="#D0E0EB"/>
<path d="M91.6219 25.2313C89.9772 28.34 88.3422 31.4488 86.6975 34.5576C86.6094 34.7248 86.8639 34.8724 86.952 34.7051C88.5968 31.5964 90.2317 28.4876 91.8765 25.3789C91.9646 25.2116 91.71 25.064 91.6219 25.2313Z" fill="#D0E0EB"/>
<path opacity="0.08" d="M89.0762 13.4555C87.9895 13.849 80.8329 16.5446 78.542 23.7656C78.2776 24.6018 77.4552 27.2974 78.072 30.4159C79.2566 36.358 85.1699 41.1687 92.9042 42.7821C92.3167 42.9789 91.4944 43.215 90.4762 43.3429C84.328 44.1201 79.5601 39.9095 79.0021 39.4077C77.7881 38.2961 74.0385 34.5183 73.9699 28.5369C73.9602 28.0155 73.9895 22.1128 78.4441 17.853C81.0385 15.3739 84.0734 14.4688 85.3461 14.1048C86.8342 13.6818 88.1363 13.5244 89.0762 13.4555Z" fill="#88ABC2"/>
<path d="M31.784 43.8052C32.4888 43.7167 33.5462 43.7068 34.3196 44.3365C35.9839 45.6941 34.7014 48.6454 35.5238 51.764C35.9644 53.4365 37.1294 55.6893 40.5168 57.9225C41.858 58.6013 42.9741 59.1129 43.7476 59.4671C44.8538 59.9688 45.5587 60.2541 45.5489 60.6378C45.5392 61.0214 44.8441 61.3067 44.3448 61.474C44.942 62.0347 45.2455 62.7431 45.0399 63.2841C44.8832 63.7072 44.4524 63.9138 43.9727 64.1499C43.4245 64.4253 42.9643 64.4844 42.4357 64.5532C41.4469 64.6811 40.9574 64.7401 40.507 64.5532C39.8119 64.2581 39.4986 63.6088 39.0385 62.6742C38.7839 62.1626 38.4706 61.3658 38.3042 60.3328C37.1979 59.8212 35.6119 58.9358 34.0357 57.4503C33.4189 56.8699 27.7014 51.3607 29.5028 46.5992C29.777 45.9302 30.3546 44.848 31.784 43.8052Z" fill="#FCFCFC"/>
<path fill-rule="evenodd" clip-rule="evenodd" d="M31.8346 43.934C30.4508 44.952 29.8922 46.0014 29.6269 46.6485C28.7507 48.9669 29.6996 51.4851 30.9753 53.5213C32.2476 55.5519 33.8214 57.0651 34.1269 57.3526L34.127 57.3526C35.69 58.8257 37.2628 59.7038 38.36 60.2112L38.4245 60.241L38.4359 60.3114C38.5998 61.329 38.9083 62.1129 39.1578 62.6143L39.158 62.6148C39.625 63.5633 39.9184 64.1577 40.5586 64.4297C40.9686 64.5997 41.4168 64.55 42.4188 64.4204L42.4197 64.4203C42.9481 64.3515 43.3876 64.2942 43.9132 64.0301L43.9142 64.0296L43.9307 64.0215C44.167 63.9052 44.3778 63.8015 44.5502 63.6781C44.7241 63.5536 44.8491 63.4157 44.9151 63.2375L44.9155 63.2364C45.003 63.0059 44.986 62.7294 44.8696 62.436C44.7534 62.1429 44.541 61.8415 44.2539 61.5718L44.0902 61.4181L44.3027 61.347C44.5504 61.264 44.8381 61.1544 45.063 61.0216C45.1755 60.9552 45.2661 60.8865 45.3277 60.8174C45.3892 60.7486 45.4144 60.688 45.4158 60.6344C45.4171 60.5847 45.3968 60.5273 45.3297 60.4548C45.2611 60.3807 45.1527 60.3013 45.0002 60.2126C44.742 60.0626 44.3854 59.9018 43.9446 59.7029C43.8635 59.6664 43.7796 59.6285 43.6928 59.5891L43.6924 59.5889C42.9188 59.2347 41.8007 58.7222 40.4569 58.0421L40.4501 58.0387L40.4438 58.0345C37.0305 55.7843 35.8445 53.5045 35.3951 51.7984C35.0447 50.4696 35.0709 49.1686 35.094 48.0242C35.0984 47.8064 35.1027 47.5944 35.1043 47.3889C35.1141 46.085 35.0125 45.0741 34.2358 44.4405C33.5193 43.8572 32.5317 43.8504 31.8346 43.934ZM31.7675 43.6723C32.4785 43.583 33.585 43.566 34.4036 44.2324L34.4037 44.2325C35.2913 44.9565 35.3805 46.1001 35.3708 47.3909C35.3692 47.6021 35.3649 47.8181 35.3605 48.0383C35.3378 49.1828 35.3128 50.4407 35.6527 51.7297L35.6527 51.7298C36.0841 53.3675 37.2271 55.5916 40.5836 57.8064C41.9193 58.4822 43.0309 58.9917 43.8028 59.3452C43.8876 59.3836 43.9703 59.4209 44.0508 59.4572C44.4904 59.6555 44.8624 59.8232 45.1336 59.9808C45.2943 60.0741 45.4295 60.1693 45.5248 60.2723C45.6217 60.3769 45.6859 60.499 45.6823 60.6412C45.6787 60.7794 45.6135 60.8984 45.5262 60.9962C45.4391 61.0937 45.3229 61.1788 45.198 61.2525C45.012 61.3624 44.793 61.4551 44.5894 61.5301C44.8247 61.7821 45.0068 62.0583 45.1173 62.3369C45.2505 62.6729 45.2824 63.021 45.1647 63.3314C45.074 63.5759 44.9053 63.7527 44.7049 63.8962C44.5142 64.0327 44.2859 64.145 44.0578 64.2572L44.0324 64.2697C44.0322 64.2698 44.032 64.2699 44.0318 64.27C43.4661 64.5541 42.9887 64.6163 42.4654 64.6844L42.4529 64.6861L42.4528 64.6861C41.4776 64.8122 40.9467 64.8806 40.4562 64.677L40.4552 64.6766C39.7219 64.3652 39.3872 63.6849 38.9488 62.794C38.939 62.774 38.9291 62.7539 38.9192 62.7338M33.9446 57.548C33.6332 57.2549 32.04 55.7233 30.7498 53.664C29.4633 51.6106 28.4543 48.9943 29.3784 46.5516L29.3797 46.5482L29.3797 46.5482C29.6611 45.8615 30.2523 44.7572 31.7058 43.6969L31.7335 43.6766L31.7675 43.6723" fill="#88ABC2"/>
<path d="M40.5363 63.3333C40.781 63.8744 41.1531 64.3269 41.6328 64.6909C41.7796 64.809 41.9265 64.5532 41.7796 64.4352C41.3489 64.1105 41.016 63.6776 40.7908 63.1858C40.7125 63.0185 40.458 63.1661 40.5363 63.3333Z" fill="#88ABC2"/>
<path d="M41.7112 63.1759C42.0049 63.7465 42.4454 64.2187 42.9839 64.5729C43.1405 64.6713 43.2874 64.4155 43.1307 64.3171C42.6314 64.0023 42.23 63.5596 41.9559 63.0283C41.8776 62.8611 41.6231 63.0087 41.7112 63.1759Z" fill="#88ABC2"/>
<path d="M42.9449 62.5069C43.219 63.0874 43.689 63.5497 44.2666 63.8252C44.433 63.9039 44.5897 63.6481 44.4135 63.5694C43.875 63.3136 43.454 62.9004 43.1995 62.3594C43.1114 62.1823 42.8666 62.3298 42.9449 62.5069Z" fill="#88ABC2"/>
<path opacity="0.2" d="M32.0286 43.8249C31.8132 44.7988 31.5783 46.3335 31.7838 48.1831C32.3223 52.8659 35.3377 55.955 35.837 56.4567C38.3237 58.9358 39.9489 58.6013 40.9377 60.8148C41.202 61.4051 41.6719 62.7431 42.9447 63.4416C43.444 63.7072 43.9139 63.8056 44.2272 63.8449C44.0607 63.9826 43.7866 64.1696 43.4244 64.327C42.8174 64.5926 42.2887 64.6024 41.4565 64.6123C40.8398 64.6221 40.5265 64.6221 40.2524 64.4942C39.6747 64.2286 39.4006 63.6777 39.2929 63.4022C38.9013 62.3397 38.5195 61.2772 38.1279 60.2147C36.2188 59.231 33.5167 57.4798 31.3825 54.4793C30.4915 53.2299 29.0034 51.0852 29.1307 48.5077C29.1894 47.337 29.5615 46.5205 29.6496 46.3237C30.3447 44.8775 31.4999 44.1299 32.0286 43.8249Z" fill="#88ABC2"/>
<path opacity="0.32" d="M29.2582 49.1078C29.3169 49.0881 29.689 50.2687 30.4232 51.6459C32.2148 55.0498 34.7994 57.1355 36.6498 58.5915C37.4917 59.2506 38.2064 59.7425 38.6568 60.0475C39.205 60.9722 39.5183 61.7691 39.7043 62.3495C39.861 62.8316 39.9491 63.2644 40.3113 63.717C40.6833 64.2089 41.163 64.4843 41.5155 64.6417C41.2512 64.6516 40.8498 64.6319 40.4288 64.4351C39.626 64.0613 39.2735 63.2841 38.9015 62.4577C38.6861 61.9855 38.4316 61.2772 38.2945 60.3623C33.184 57.7651 31.2652 54.4891 30.5407 52.9347C29.7966 51.341 29.1799 49.1471 29.2582 49.1078Z" fill="#88ABC2"/>
<path d="M37.3642 34.8233C36.6691 35.0988 37.0802 36.4761 35.9642 37.7255C35.4159 38.3452 34.7502 38.6404 34.29 38.8076C34.5837 39.2503 35.1614 39.9685 36.111 40.5391C36.7865 40.9523 37.4327 41.149 37.883 41.2376C38.0299 40.972 38.2746 40.5588 38.5781 40.0669C39.6648 38.3453 40.0565 38.1583 40.1152 37.5877C40.262 36.1908 38.2551 34.4691 37.3642 34.8233Z" fill="#FCFCFC"/>
<path fill-rule="evenodd" clip-rule="evenodd" d="M40.2479 37.6015C40.3277 36.8403 39.8255 36.022 39.2201 35.4512L40.2479 37.6015ZM39.2201 35.4512C38.9139 35.1624 38.5712 34.927 38.2429 34.7862L39.2201 35.4512ZM38.2429 34.7862C37.9192 34.6474 37.5862 34.5911 37.3153 34.6987L38.2429 34.7862ZM37.3153 34.6987C37.0952 34.786 36.9702 34.9604 36.8859 35.1664C36.8152 35.3393 36.7671 35.5506 36.7166 35.7727C36.7086 35.8078 36.7005 35.8433 36.6923 35.8788C36.5698 36.4088 36.3997 37.0375 35.8651 37.636L35.8647 37.6365C35.3381 38.2317 34.6969 38.5174 34.2448 38.6817L34.085 38.7398L34.1793 38.8819C34.4804 39.3358 35.0712 40.0701 36.0423 40.6537C36.7336 41.0765 37.395 41.278 37.8575 41.369L37.9526 41.3877L37.9996 41.3026C38.1449 41.0398 38.3882 40.629 38.6912 40.138C39.1374 39.4311 39.4648 38.9857 39.7019 38.6632C39.7519 38.5952 39.7979 38.5327 39.8401 38.4744C40.0825 38.1393 40.2145 37.925 40.2478 37.6018M38.1383 35.0325C37.8398 34.9045 37.5878 34.8784 37.4133 34.9478L37.4132 34.9479C37.2857 34.9984 37.2015 35.0994 37.1325 35.2682C37.0708 35.4189 37.0283 35.6052 36.977 35.8301C36.9689 35.8656 36.9606 35.902 36.9519 35.9394C36.8272 36.4792 36.645 37.1638 36.0636 37.8147C35.5561 38.3883 34.9533 38.6926 34.4968 38.8725C34.8055 39.3057 35.3457 39.9231 36.1795 40.4241L36.1804 40.4247C36.7941 40.8001 37.3829 40.9923 37.8146 41.0866C37.9654 40.8193 38.1918 40.439 38.465 39.9963L38.4657 39.9951C38.9176 39.2792 39.2509 38.8259 39.4882 38.5032C39.5377 38.4358 39.5831 38.3741 39.6245 38.3169C39.8642 37.9856 39.9573 37.8211 39.9827 37.5739L39.9828 37.5737C40.0496 36.938 39.6218 36.1971 39.0377 35.6465C38.7493 35.3745 38.4323 35.1586 38.1383 35.0325Z" fill="#88ABC2"/>
<path d="M37.237 37.4795C37.6384 38.2862 38.0594 39.0831 38.7251 39.7029C38.8622 39.8307 39.0678 39.6241 38.9307 39.4963C38.2846 38.8961 37.8832 38.1091 37.4916 37.3319C37.4034 37.1647 37.1489 37.3123 37.237 37.4795Z" fill="#88ABC2"/>
<path d="M36.943 36.9483C37.3934 37.8337 37.8829 38.7092 38.7444 39.2503C38.8913 39.3388 39.0381 39.1421 38.9206 39.0142C38.6367 38.7092 38.343 38.4043 38.0689 38.0993C38.0004 38.1682 37.9318 38.237 37.8633 38.3059C38.0297 38.483 38.2059 38.6502 38.4018 38.7879C38.4703 38.8371 38.6857 38.9355 38.7248 38.9945C38.7836 39.0929 38.7248 39.2503 38.6955 39.3487C38.7934 39.3782 38.8815 39.3979 38.9794 39.4274C38.9892 39.3782 38.9892 39.329 38.999 39.2897C39.0185 39.1618 38.8619 39.024 38.7542 39.1421C38.7542 39.0339 38.7248 38.9257 38.6563 38.8371C38.5682 38.8863 38.4899 38.9355 38.4018 38.9847L38.7248 39.4274C38.8031 39.3684 38.8815 39.3093 38.9598 39.2503C38.8717 39.1519 38.8031 39.0536 38.7346 38.9453C38.6465 38.8174 38.4018 38.8961 38.4703 39.0634C38.529 39.1913 38.5486 39.2405 38.6367 39.3487C38.7542 39.4963 38.9598 39.2897 38.8423 39.1421C38.8129 39.0929 38.7836 39.0437 38.7542 38.9847C38.6661 39.024 38.578 39.0634 38.4899 39.1027C38.578 39.2306 38.6661 39.3487 38.764 39.4667C38.8717 39.5946 39.0969 39.4274 38.999 39.2897C38.8913 39.1421 38.7836 38.9945 38.6759 38.847C38.5682 38.6896 38.343 38.8273 38.4213 38.9945C38.5192 39.1913 38.715 39.6537 38.9794 39.3585C38.9011 39.3093 38.8129 39.2601 38.7346 39.211C38.7248 39.2601 38.7248 39.3093 38.715 39.3487C38.6857 39.5356 38.95 39.6143 38.999 39.4274C39.0675 39.1913 39.2339 39.0831 39.0381 38.847C38.95 38.7387 38.8031 38.6896 38.6955 38.6207C38.4703 38.4731 38.2745 38.296 38.0885 38.0993C37.9612 37.9616 37.7556 38.1681 37.8829 38.3059C38.1668 38.6109 38.4507 38.9158 38.7346 39.2208C38.7934 39.1421 38.8521 39.0634 38.9108 38.9847C38.0983 38.4731 37.6479 37.6271 37.2171 36.7908C37.1094 36.6236 36.8549 36.781 36.943 36.9483Z" fill="#88ABC2"/>
<path d="M46.3715 32.2162C46.1756 33.0918 45.7743 34.3904 44.854 35.7283C43.2386 38.0795 41.0456 39.0732 40.1057 39.4372C39.5673 39.2306 38.8624 38.8666 38.1967 38.2468C36.3757 36.5448 36.2386 34.2133 36.219 33.6132C36.0232 33.564 35.7393 33.4558 35.4946 33.2197C34.868 32.6097 34.7211 31.3997 35.2988 30.8979C35.9547 30.3273 37.2078 31.0258 37.3449 31.0947C37.6484 31.2619 37.8638 31.4685 38.0009 31.6259C38.5393 29.9928 39.8316 28.7631 41.3687 28.5073C43.4638 28.163 45.7547 29.6977 46.3715 32.2162Z" fill="#FCFCFC"/>
<path fill-rule="evenodd" clip-rule="evenodd" d="M46.2344 32.2177C45.6211 29.7764 43.3996 28.3093 41.3902 28.6395C39.9101 28.8858 38.6529 30.0739 38.1273 31.668L38.054 31.8904L37.9005 31.7141C37.771 31.5654 37.5681 31.3708 37.2828 31.2132C37.2758 31.2097 37.2667 31.205 37.2557 31.1993C37.1451 31.1418 36.8386 30.9827 36.4816 30.8858C36.0761 30.7758 35.6597 30.761 35.3859 30.9992L35.3858 30.9992C35.1421 31.2109 35.0371 31.5876 35.0776 32.0052C35.1179 32.42 35.2999 32.8436 35.587 33.1232C35.8094 33.3377 36.0693 33.4375 36.2513 33.4832L36.3489 33.5078L36.3522 33.6088C36.3715 34.2025 36.5079 36.4855 38.2873 38.1487C38.9183 38.7361 39.5857 39.0886 40.1056 39.2935C41.0595 38.919 43.1777 37.9323 44.7442 35.6522L44.7443 35.6522C45.6411 34.3483 46.0385 33.082 46.2344 32.2177ZM41.3471 28.3752C43.5195 28.0181 45.8696 29.6069 46.5008 32.1842L46.5083 32.2148L46.5014 32.2456C46.3032 33.1318 45.8965 34.448 44.9635 35.8044C43.326 38.1878 41.1041 39.194 40.1536 39.5621L40.1059 39.5806L40.0581 39.5623C39.5076 39.3511 38.7869 38.979 38.106 38.345L38.1058 38.3449C36.3319 36.6869 36.1225 34.449 36.0895 33.7159C35.8885 33.6536 35.6304 33.5364 35.4022 33.3163L35.4017 33.3158C35.0624 32.9855 34.8578 32.4992 34.8124 32.0312C34.7672 31.5659 34.8776 31.0866 35.2115 30.7966C35.5936 30.4643 36.1317 30.5134 36.5511 30.6272C36.9384 30.7323 37.2705 30.9053 37.3781 30.9613C37.3894 30.9672 37.3983 30.9718 37.4044 30.9749L37.409 30.9772L37.4089 30.9773C37.6328 31.1006 37.8111 31.2442 37.9475 31.376C38.5371 29.8072 39.8195 28.6294 41.3468 28.3752L41.3471 28.3752Z" fill="#88ABC2"/>
<path d="M44.0021 34.5674C43.6105 35.4528 43.0329 36.2103 42.2888 36.8301C42.1419 36.9482 42.3475 37.1548 42.4944 37.0367C43.2678 36.4071 43.8552 35.6299 44.2566 34.715C44.3349 34.5379 44.0804 34.3903 44.0021 34.5674Z" fill="#88ABC2"/>
<path d="M41.9166 36.171C41.8775 36.5055 41.9949 36.8301 42.2201 37.0761C42.3474 37.2138 42.553 37.0072 42.4257 36.8695C42.2495 36.6727 42.181 36.4366 42.2103 36.171C42.2299 35.9841 41.9362 35.9841 41.9166 36.171Z" fill="#88ABC2"/>
<path d="M41.3195 34.4888C41.574 34.1346 41.8775 33.8198 42.2202 33.5345C42.1419 33.4853 42.0538 33.4361 41.9754 33.387C41.8482 33.7805 41.574 34.0953 41.2118 34.292C41.2705 34.3707 41.3293 34.4494 41.388 34.5281C41.6132 34.2527 41.8384 33.9871 42.0635 33.7116C42.181 33.564 41.9754 33.3574 41.858 33.505C41.6328 33.7805 41.4076 34.0461 41.1824 34.3215C41.0747 34.4494 41.2118 34.6364 41.3587 34.5577C41.7894 34.3215 42.1027 33.9379 42.2594 33.4755C42.3083 33.3181 42.1223 33.2492 42.0146 33.3279C41.6524 33.6231 41.3391 33.9576 41.0747 34.3412C40.9573 34.4986 41.2118 34.6462 41.3195 34.4888Z" fill="#88ABC2"/>
<path d="M44.5697 35.3545C44.697 35.1381 44.8634 34.9512 45.0495 34.7839C44.9711 34.7347 44.883 34.6855 44.8047 34.6363C44.7166 34.9315 44.5404 35.1971 44.2858 35.384C44.3544 35.443 44.4327 35.4922 44.5012 35.5513C44.5599 35.3939 44.6481 35.2463 44.7557 35.1184C44.8732 34.9708 44.6676 34.7642 44.5502 34.9118C44.4131 35.0889 44.3054 35.266 44.2271 35.4726C44.1781 35.5906 44.3446 35.7185 44.4425 35.6398C44.7557 35.4037 44.9809 35.0987 45.0886 34.7249C45.1376 34.5773 44.9516 34.4888 44.8439 34.5773C44.6383 34.7544 44.462 34.9708 44.3152 35.2069C44.2075 35.3643 44.462 35.5119 44.5697 35.3545Z" fill="#88ABC2"/>
<path d="M40.3111 33.7608C40.458 34.1052 40.5363 34.4593 40.5363 34.8233C40.5363 34.9217 40.6831 34.9217 40.6831 34.8233C40.6831 34.4298 40.595 34.0461 40.4384 33.6821C40.3992 33.5936 40.2719 33.6723 40.3111 33.7608Z" fill="#88ABC2"/>
<path d="M39.9002 33.505C39.9981 33.6624 40.0666 33.8199 40.1253 33.9871C40.1547 34.0756 40.2918 34.0363 40.2624 33.9477C40.2037 33.7608 40.1253 33.5936 40.0274 33.4263C39.9785 33.3476 39.8512 33.4263 39.9002 33.505Z" fill="#88ABC2"/>
<path d="M42.1617 32.6983C42.5239 32.5901 42.8665 32.8361 42.8763 33.2197C42.8763 33.3575 43.1015 33.3673 43.1015 33.2197C43.0819 32.6983 42.612 32.3442 42.1029 32.4819C41.9659 32.5213 42.0246 32.7377 42.1617 32.6983Z" fill="#88ABC2"/>
<path d="M44.7849 34.1444C44.9416 34.0461 45.1276 34.0362 45.294 34.1346C45.4115 34.2133 45.529 34.0165 45.4017 33.9477C45.1765 33.81 44.8926 33.8099 44.6772 33.9575C44.5598 34.0362 44.6674 34.2231 44.7849 34.1444Z" fill="#88ABC2"/>
<path d="M40.0079 36.6728C40.2428 37.0958 40.6442 37.4008 41.1141 37.5287C41.3002 37.5779 41.3785 37.2926 41.1925 37.2434C40.7911 37.1352 40.468 36.8892 40.2624 36.5252C40.1645 36.358 39.91 36.5056 40.0079 36.6728Z" fill="#88ABC2"/>
<path d="M37.991 32.0195C38.2063 31.6457 38.7252 30.8488 39.7238 30.2979C40.4091 29.9142 41.0553 29.806 41.4469 29.7666C41.6623 30.0519 42.0147 30.4258 42.5336 30.6619C43.7574 31.2226 44.7462 30.4848 45.4707 30.9767C45.8525 31.2325 46.2343 31.8523 46.0874 33.5444C46.7336 34.2133 47.1644 34.2527 47.3993 34.2035C48.3783 34.0067 49.0832 31.7932 48.4664 30.1798C48.2804 29.6978 48.0357 29.4223 45.9602 27.7597C43.0329 25.4183 42.6707 25.2806 42.2888 25.192C40.2721 24.7198 38.4903 25.743 38.1868 25.92C37.7952 26.1463 37.707 26.2545 35.4651 28.6254C33.7224 30.4651 33.556 30.6324 33.3994 31.0849C32.9882 32.2261 33.0665 33.8788 34.114 35.0889C35.1029 36.2203 36.4343 36.3875 36.777 36.4269C36.6301 36.0924 36.4735 35.6201 36.3952 35.0397C36.2973 34.292 36.3952 33.6723 36.4833 33.2689C36.4147 33.2197 36.0231 32.8951 35.9938 32.3441C35.9742 31.9408 36.1602 31.4292 36.591 31.262C37.0707 31.0751 37.7266 31.3604 37.991 32.0195Z" fill="#49708A"/>
<path d="M37.5699 27.0711C37.1685 26.2742 35.9937 26.1562 35.7881 26.1365C34.1531 25.9693 32.8412 27.4351 32.0678 28.291C30.6972 29.8159 31.0888 30.2684 29.7573 32.1081C27.9951 34.5479 26.6734 34.6561 26.3993 36.3384C26.3797 36.4663 26.135 38.1584 27.251 39.1815C28.2105 40.0669 29.7573 40.0767 30.7755 39.5455C32.1559 38.8273 32.0384 37.3812 33.037 34.9512C34.9951 30.2094 38.3433 28.6058 37.5699 27.0711Z" fill="#49708A"/>
<path opacity="0.12" d="M39.1463 30.652C38.833 31.4391 38.461 32.6885 38.4806 34.2527C38.5099 36.7515 39.5281 38.5813 40.0372 39.3684C39.4792 39.1323 38.5491 38.6305 37.7365 37.6467C37.4036 37.2434 36.6204 36.2891 36.4148 34.8233C36.3169 34.1641 36.3757 33.6132 36.4344 33.2394C36.3757 33.1902 35.9743 32.8262 35.9939 32.2556C36.0036 31.8818 36.1995 31.38 36.6204 31.2325C37.0904 31.0652 37.7365 31.3702 37.9911 32.0293C38.089 31.8326 38.226 31.5866 38.4316 31.3308C38.6862 31.0259 38.9407 30.8094 39.1463 30.652Z" fill="#88ABC2"/>
<path opacity="0.13" d="M37.4227 37.8533C37.3444 38.0304 37.2562 38.2075 37.1485 38.3845C36.659 39.2109 36.0227 39.7618 35.5234 40.0963C35.3472 39.9881 35.1122 39.8209 34.8772 39.5651C34.6227 39.2896 34.466 39.0142 34.3779 38.8174C34.7597 38.6994 35.7094 38.3354 36.3555 37.3811C36.5807 37.0368 36.7178 36.7023 36.7961 36.4268C37.0017 36.9089 37.2073 37.3811 37.4227 37.8533Z" fill="#88ABC2"/>
<path opacity="0.18" d="M36.5616 33.0721C36.6105 33.7509 36.7378 34.6363 37.0707 35.6299C37.5308 36.9777 38.1966 37.9713 38.7056 38.601C38.1966 38.1878 37.5896 37.568 37.1001 36.7023C36.777 36.1218 36.2973 35.2856 36.356 34.1444C36.3756 33.7017 36.4735 33.3279 36.5616 33.0721Z" fill="#88ABC2"/>
<path opacity="0.32" d="M38.0594 26.1661C37.6482 26.5694 35.0832 29.1666 35.4356 32.8558C35.5825 34.4299 36.209 35.6202 36.6594 36.3187C36.3461 36.2991 35.7391 36.2302 35.0832 35.8465C34.4272 35.4628 34.0552 34.9611 33.8888 34.7053C33.7615 34.4987 33.6049 34.1642 33.507 33.7412C33.507 33.7412 33.3307 32.9148 33.6538 31.8917C33.9965 30.7702 35.5433 28.5862 38.0594 26.1661Z" fill="#49708A"/>
<path opacity="0.33" d="M32.7629 27.7596C32.988 27.9072 31.7447 30.5339 30.3741 32.8261C29.1405 34.8822 28.5335 35.4528 28.4454 36.7121C28.3573 38.0205 28.9055 39.142 29.395 39.8995C29.1503 39.9192 28.23 39.9487 27.4272 39.3093C26.9867 38.9551 26.7517 38.5419 26.644 38.2861C26.409 37.5975 26.2034 36.594 26.6146 35.6496C26.8888 35.0101 27.2118 34.9609 28.2202 33.9378C29.1111 33.0327 29.9922 32.1375 30.6384 30.8094C30.9713 30.1306 31.0887 29.6387 31.6566 28.8713C32.0286 28.3598 32.6356 27.6711 32.7629 27.7596Z" fill="#49708A"/>
</svg>
