<svg width="110" height="192" viewBox="0 0 110 192" fill="none" xmlns="http://www.w3.org/2000/svg">
<path d="M17.184 191.4L0 124.2H14.88L25.248 164.904L35.616 124.2H48.864L59.232 164.904L69.6 124.2H84.48L67.392 191.4H51.168L42.24 156.552L33.408 191.4H17.184Z" fill="#FCFCFC"/>
<path d="M94.65 191.4V124.2H109.05V191.4H94.65Z" fill="#FCFCFC"/>
<path fill-rule="evenodd" clip-rule="evenodd" d="M55.5 8.10239C36.9459 8.10239 21.9048 23.1391 21.9048 41.6878C21.9048 51.6316 26.2225 60.562 33.0986 66.7172L33.1225 66.7386C35.9079 69.232 38.0253 71.1274 39.5395 72.5152C40.9606 73.8177 42.102 74.8958 42.7048 75.6394L42.7775 75.7292C43.8782 77.0868 44.8582 78.2956 45.5055 79.7436C46.1528 81.1917 46.3999 82.7279 46.6773 84.4533L46.6957 84.5674C46.8339 85.4266 46.8931 86.4708 46.9182 87.7853H64.0818C64.1069 86.4708 64.1661 85.4266 64.3043 84.5674L64.3227 84.4534C64.6001 82.728 64.8472 81.1917 65.4945 79.7436C66.1418 78.2956 67.1218 77.0868 68.2225 75.7291L68.2952 75.6394C68.898 74.8958 70.0394 73.8177 71.4605 72.5152C72.9746 71.1275 75.0919 69.2322 77.8769 66.7391L77.9014 66.7172C84.7775 60.562 89.0952 51.6316 89.0952 41.6878C89.0952 23.1391 74.0541 8.10239 55.5 8.10239ZM64.0245 95.6878H46.9755C46.9916 96.1217 47.0142 96.508 47.0461 96.86C47.147 97.9731 47.3152 98.35 47.4131 98.5195C47.7253 99.0601 48.1743 99.509 48.7151 99.8211C48.8846 99.9189 49.2616 100.087 50.375 100.188C51.5428 100.294 53.0878 100.298 55.5 100.298C57.9122 100.298 59.4572 100.294 60.625 100.188C61.7384 100.087 62.1154 99.9189 62.2849 99.8211C62.8257 99.509 63.2747 99.0601 63.5869 98.5195C63.6848 98.35 63.8529 97.9731 63.9539 96.86C63.9858 96.508 64.0084 96.1217 64.0245 95.6878ZM14 41.6878C14 18.7747 32.5802 0.199951 55.5 0.199951C78.4198 0.199951 97 18.7747 97 41.6878C97 53.9721 91.6544 65.0135 83.1745 72.6044C80.3611 75.1229 78.2782 76.9875 76.8023 78.3401C76.0644 79.0165 75.5015 79.5435 75.0869 79.9473C74.8803 80.1485 74.7233 80.3068 74.6071 80.4286C74.5497 80.4888 74.5071 80.535 74.4767 80.5689C74.4485 80.6004 74.4364 80.6151 74.4364 80.6151C73.1295 82.2274 72.8666 82.6205 72.7114 82.9678C72.5562 83.3151 72.4385 83.7737 72.1087 85.8226C71.9822 86.6088 71.9683 87.9683 71.9683 91.7365V91.9046C71.9683 94.0998 71.9684 96.0062 71.8264 97.5733C71.6757 99.2345 71.3409 100.898 70.4326 102.471C69.4267 104.213 67.9797 105.659 66.2373 106.665C64.6642 107.573 63.0002 107.908 61.3385 108.058C59.771 108.2 57.864 108.2 55.6681 108.2H55.3319C53.136 108.2 51.2291 108.2 49.6615 108.058C47.9998 107.908 46.3358 107.573 44.7627 106.665C43.0203 105.659 41.5733 104.213 40.5674 102.471C39.6591 100.898 39.3242 99.2345 39.1736 97.5733C39.0316 96.0062 39.0316 94.0998 39.0317 91.9045L39.0317 91.7365C39.0317 87.9683 39.0178 86.6088 38.8913 85.8226C38.5615 83.7737 38.4438 83.3151 38.2886 82.9678C38.1334 82.6205 37.8701 82.2269 36.5632 80.6146C36.5659 80.6179 36.5544 80.6037 36.5233 80.5689C36.4929 80.535 36.4503 80.4888 36.3929 80.4286C36.2767 80.3068 36.1197 80.1485 35.9131 79.9473C35.4985 79.5435 34.9356 79.0165 34.1977 78.3401C32.7218 76.9875 30.6389 75.1229 27.8255 72.6044C19.3456 65.0135 14 53.9721 14 41.6878ZM44.8483 60.79C46.7377 59.6973 49.1555 60.3428 50.2485 62.2317C51.3023 64.0529 53.2618 65.2635 55.5001 65.2635C57.7387 65.2635 59.6989 64.0525 60.7525 62.2317C61.8455 60.3428 64.2632 59.6973 66.1527 60.79C68.0422 61.8827 68.6879 64.2997 67.5949 66.1887C65.8253 69.2469 62.9206 71.5772 59.4525 72.5987V79.2245C59.4525 81.4067 57.6829 83.1757 55.5001 83.1757C53.3172 83.1757 51.5477 81.4067 51.5477 79.2245V72.5987C48.0797 71.5771 45.1756 69.2466 43.4061 66.1887C42.3131 64.2997 42.9588 61.8827 44.8483 60.79Z" fill="url(#paint0_linear_1091_636)"/>
<defs>
<linearGradient id="paint0_linear_1091_636" x1="55.5" y1="0.199951" x2="55.5" y2="108.2" gradientUnits="userSpaceOnUse">
<stop stop-color="#CAFF42"/>
<stop offset="0.78125" stop-color="#88ABC2"/>
<stop offset="1" stop-color="#49708A"/>
</linearGradient>
</defs>
</svg>
