<svg width="110" height="192" viewBox="0 0 110 192" fill="none" xmlns="http://www.w3.org/2000/svg">
<path d="M17.184 191.2L0 124H14.88L25.248 164.704L35.616 124H48.864L59.232 164.704L69.6 124H84.48L67.392 191.2H51.168L42.24 156.352L33.408 191.2H17.184Z" fill="#121212"/>
<path d="M94.65 191.2V124H109.05V191.2H94.65Z" fill="#121212"/>
<path fill-rule="evenodd" clip-rule="evenodd" d="M55.5 7.90244C36.9459 7.90244 21.9048 22.9391 21.9048 41.4878C21.9048 51.4316 26.2225 60.362 33.0986 66.5172L33.1225 66.5387C35.9079 69.032 38.0253 70.9274 39.5395 72.3152C40.9606 73.6177 42.102 74.6959 42.7048 75.4395L42.7775 75.5292C43.8782 76.8868 44.8582 78.0957 45.5055 79.5437C46.1528 80.9917 46.3999 82.528 46.6773 84.2534L46.6957 84.3674C46.8339 85.2266 46.8931 86.2708 46.9182 87.5854H64.0818C64.1069 86.2708 64.1661 85.2266 64.3043 84.3674L64.3227 84.2534C64.6001 82.528 64.8472 80.9917 65.4945 79.5437C66.1418 78.0956 67.1218 76.8868 68.2225 75.5292L68.2952 75.4395C68.898 74.6959 70.0394 73.6177 71.4605 72.3152C72.9746 70.9275 75.0919 69.0322 77.8769 66.5391L77.9014 66.5172C84.7775 60.362 89.0952 51.4316 89.0952 41.4878C89.0952 22.9391 74.0541 7.90244 55.5 7.90244ZM64.0245 95.4878H46.9755C46.9916 95.9218 47.0142 96.3081 47.0461 96.66C47.147 97.7732 47.3152 98.1501 47.4131 98.3195C47.7253 98.8601 48.1743 99.309 48.7151 99.6211C48.8846 99.719 49.2616 99.8871 50.375 99.988C51.5428 100.094 53.0878 100.098 55.5 100.098C57.9123 100.098 59.4572 100.094 60.625 99.988C61.7384 99.8871 62.1154 99.719 62.2849 99.6211C62.8257 99.309 63.2747 98.8601 63.5869 98.3195C63.6848 98.1501 63.8529 97.7732 63.9539 96.66C63.9858 96.3081 64.0084 95.9218 64.0245 95.4878ZM14 41.4878C14 18.5747 32.5802 0 55.5 0C78.4198 0 97 18.5747 97 41.4878C97 53.7722 91.6544 64.8136 83.1745 72.4044C80.3611 74.9229 78.2782 76.7876 76.8023 78.1402C76.0644 78.8165 75.5015 79.3436 75.0869 79.7474C74.8803 79.9486 74.7233 80.1068 74.6071 80.2286C74.5497 80.2888 74.5071 80.3351 74.4767 80.3689C74.4485 80.4005 74.4364 80.4151 74.4364 80.4151C73.1295 82.0275 72.8666 82.4206 72.7114 82.7679C72.5562 83.1151 72.4385 83.5737 72.1087 85.6226C71.9822 86.4089 71.9683 87.7683 71.9683 91.5366V91.7046C71.9683 93.8999 71.9684 95.8063 71.8264 97.3733C71.6757 99.0346 71.3409 100.698 70.4326 102.271C69.4267 104.013 67.9797 105.459 66.2373 106.465C64.6642 107.373 63.0002 107.708 61.3385 107.858C59.771 108 57.864 108 55.6681 108H55.3319C53.136 108 51.2291 108 49.6615 107.858C47.9998 107.708 46.3358 107.373 44.7627 106.465C43.0203 105.459 41.5733 104.013 40.5674 102.271C39.6591 100.698 39.3242 99.0346 39.1736 97.3733C39.0316 95.8063 39.0316 93.8998 39.0317 91.7045L39.0317 91.5366C39.0317 87.7683 39.0178 86.4089 38.8913 85.6226C38.5615 83.5737 38.4438 83.1151 38.2886 82.7679C38.1334 82.4206 37.8701 82.027 36.5632 80.4146C36.5659 80.4179 36.5544 80.4037 36.5233 80.3689C36.4929 80.3351 36.4503 80.2888 36.3929 80.2286C36.2767 80.1068 36.1197 79.9486 35.9131 79.7474C35.4985 79.3436 34.9356 78.8165 34.1977 78.1402C32.7218 76.7876 30.6389 74.9229 27.8255 72.4044C19.3456 64.8136 14 53.7722 14 41.4878ZM44.8483 60.59C46.7377 59.4974 49.1555 60.1428 50.2485 62.0318C51.3023 63.8529 53.2618 65.0636 55.5001 65.0636C57.7387 65.0636 59.6989 63.8526 60.7525 62.0318C61.8455 60.1428 64.2632 59.4974 66.1527 60.59C68.0422 61.6827 68.6879 64.0998 67.5949 65.9887C65.8253 69.0469 62.9206 71.3773 59.4525 72.3987V79.0245C59.4525 81.2067 57.6829 82.9757 55.5001 82.9757C53.3172 82.9757 51.5477 81.2067 51.5477 79.0245V72.3987C48.0797 71.3771 45.1756 69.0467 43.4061 65.9887C42.3131 64.0998 42.9588 61.6827 44.8483 60.59Z" fill="url(#paint0_linear_283_187)"/>
<defs>
<linearGradient id="paint0_linear_283_187" x1="55.5" y1="0" x2="55.5" y2="108" gradientUnits="userSpaceOnUse">
<stop stop-color="#CAFF42"/>
<stop offset="0.78125" stop-color="#88ABC2"/>
<stop offset="1" stop-color="#49708A"/>
</linearGradient>
</defs>
</svg>
